%TF.GenerationSoftware,KiCad,Pcbnew,7.0.11*%
%TF.CreationDate,2024-03-10T23:57:51-05:00*%
%TF.ProjectId,XGECU-QFP44-Adapter,58474543-552d-4514-9650-34342d416461,rev?*%
%TF.SameCoordinates,Original*%
%TF.FileFunction,Legend,Top*%
%TF.FilePolarity,Positive*%
%FSLAX46Y46*%
G04 Gerber Fmt 4.6, Leading zero omitted, Abs format (unit mm)*
G04 Created by KiCad (PCBNEW 7.0.11) date 2024-03-10 23:57:51*
%MOMM*%
%LPD*%
G01*
G04 APERTURE LIST*
%ADD10C,0.200000*%
%ADD11C,0.150000*%
%ADD12C,0.120000*%
G04 APERTURE END LIST*
D10*
X126250723Y-125369419D02*
X125679295Y-125369419D01*
X125965009Y-125369419D02*
X125965009Y-124369419D01*
X125965009Y-124369419D02*
X125869771Y-124512276D01*
X125869771Y-124512276D02*
X125774533Y-124607514D01*
X125774533Y-124607514D02*
X125679295Y-124655133D01*
X127107866Y-124369419D02*
X126917390Y-124369419D01*
X126917390Y-124369419D02*
X126822152Y-124417038D01*
X126822152Y-124417038D02*
X126774533Y-124464657D01*
X126774533Y-124464657D02*
X126679295Y-124607514D01*
X126679295Y-124607514D02*
X126631676Y-124797990D01*
X126631676Y-124797990D02*
X126631676Y-125178942D01*
X126631676Y-125178942D02*
X126679295Y-125274180D01*
X126679295Y-125274180D02*
X126726914Y-125321800D01*
X126726914Y-125321800D02*
X126822152Y-125369419D01*
X126822152Y-125369419D02*
X127012628Y-125369419D01*
X127012628Y-125369419D02*
X127107866Y-125321800D01*
X127107866Y-125321800D02*
X127155485Y-125274180D01*
X127155485Y-125274180D02*
X127203104Y-125178942D01*
X127203104Y-125178942D02*
X127203104Y-124940847D01*
X127203104Y-124940847D02*
X127155485Y-124845609D01*
X127155485Y-124845609D02*
X127107866Y-124797990D01*
X127107866Y-124797990D02*
X127012628Y-124750371D01*
X127012628Y-124750371D02*
X126822152Y-124750371D01*
X126822152Y-124750371D02*
X126726914Y-124797990D01*
X126726914Y-124797990D02*
X126679295Y-124845609D01*
X126679295Y-124845609D02*
X126631676Y-124940847D01*
X147434323Y-125369419D02*
X146862895Y-125369419D01*
X147148609Y-125369419D02*
X147148609Y-124369419D01*
X147148609Y-124369419D02*
X147053371Y-124512276D01*
X147053371Y-124512276D02*
X146958133Y-124607514D01*
X146958133Y-124607514D02*
X146862895Y-124655133D01*
X147767657Y-124369419D02*
X148434323Y-124369419D01*
X148434323Y-124369419D02*
X148005752Y-125369419D01*
X146815276Y-70927819D02*
X147434323Y-70927819D01*
X147434323Y-70927819D02*
X147100990Y-71308771D01*
X147100990Y-71308771D02*
X147243847Y-71308771D01*
X147243847Y-71308771D02*
X147339085Y-71356390D01*
X147339085Y-71356390D02*
X147386704Y-71404009D01*
X147386704Y-71404009D02*
X147434323Y-71499247D01*
X147434323Y-71499247D02*
X147434323Y-71737342D01*
X147434323Y-71737342D02*
X147386704Y-71832580D01*
X147386704Y-71832580D02*
X147339085Y-71880200D01*
X147339085Y-71880200D02*
X147243847Y-71927819D01*
X147243847Y-71927819D02*
X146958133Y-71927819D01*
X146958133Y-71927819D02*
X146862895Y-71880200D01*
X146862895Y-71880200D02*
X146815276Y-71832580D01*
X148005752Y-71356390D02*
X147910514Y-71308771D01*
X147910514Y-71308771D02*
X147862895Y-71261152D01*
X147862895Y-71261152D02*
X147815276Y-71165914D01*
X147815276Y-71165914D02*
X147815276Y-71118295D01*
X147815276Y-71118295D02*
X147862895Y-71023057D01*
X147862895Y-71023057D02*
X147910514Y-70975438D01*
X147910514Y-70975438D02*
X148005752Y-70927819D01*
X148005752Y-70927819D02*
X148196228Y-70927819D01*
X148196228Y-70927819D02*
X148291466Y-70975438D01*
X148291466Y-70975438D02*
X148339085Y-71023057D01*
X148339085Y-71023057D02*
X148386704Y-71118295D01*
X148386704Y-71118295D02*
X148386704Y-71165914D01*
X148386704Y-71165914D02*
X148339085Y-71261152D01*
X148339085Y-71261152D02*
X148291466Y-71308771D01*
X148291466Y-71308771D02*
X148196228Y-71356390D01*
X148196228Y-71356390D02*
X148005752Y-71356390D01*
X148005752Y-71356390D02*
X147910514Y-71404009D01*
X147910514Y-71404009D02*
X147862895Y-71451628D01*
X147862895Y-71451628D02*
X147815276Y-71546866D01*
X147815276Y-71546866D02*
X147815276Y-71737342D01*
X147815276Y-71737342D02*
X147862895Y-71832580D01*
X147862895Y-71832580D02*
X147910514Y-71880200D01*
X147910514Y-71880200D02*
X148005752Y-71927819D01*
X148005752Y-71927819D02*
X148196228Y-71927819D01*
X148196228Y-71927819D02*
X148291466Y-71880200D01*
X148291466Y-71880200D02*
X148339085Y-71832580D01*
X148339085Y-71832580D02*
X148386704Y-71737342D01*
X148386704Y-71737342D02*
X148386704Y-71546866D01*
X148386704Y-71546866D02*
X148339085Y-71451628D01*
X148339085Y-71451628D02*
X148291466Y-71404009D01*
X148291466Y-71404009D02*
X148196228Y-71356390D01*
X125530076Y-70927819D02*
X126149123Y-70927819D01*
X126149123Y-70927819D02*
X125815790Y-71308771D01*
X125815790Y-71308771D02*
X125958647Y-71308771D01*
X125958647Y-71308771D02*
X126053885Y-71356390D01*
X126053885Y-71356390D02*
X126101504Y-71404009D01*
X126101504Y-71404009D02*
X126149123Y-71499247D01*
X126149123Y-71499247D02*
X126149123Y-71737342D01*
X126149123Y-71737342D02*
X126101504Y-71832580D01*
X126101504Y-71832580D02*
X126053885Y-71880200D01*
X126053885Y-71880200D02*
X125958647Y-71927819D01*
X125958647Y-71927819D02*
X125672933Y-71927819D01*
X125672933Y-71927819D02*
X125577695Y-71880200D01*
X125577695Y-71880200D02*
X125530076Y-71832580D01*
X126625314Y-71927819D02*
X126815790Y-71927819D01*
X126815790Y-71927819D02*
X126911028Y-71880200D01*
X126911028Y-71880200D02*
X126958647Y-71832580D01*
X126958647Y-71832580D02*
X127053885Y-71689723D01*
X127053885Y-71689723D02*
X127101504Y-71499247D01*
X127101504Y-71499247D02*
X127101504Y-71118295D01*
X127101504Y-71118295D02*
X127053885Y-71023057D01*
X127053885Y-71023057D02*
X127006266Y-70975438D01*
X127006266Y-70975438D02*
X126911028Y-70927819D01*
X126911028Y-70927819D02*
X126720552Y-70927819D01*
X126720552Y-70927819D02*
X126625314Y-70975438D01*
X126625314Y-70975438D02*
X126577695Y-71023057D01*
X126577695Y-71023057D02*
X126530076Y-71118295D01*
X126530076Y-71118295D02*
X126530076Y-71356390D01*
X126530076Y-71356390D02*
X126577695Y-71451628D01*
X126577695Y-71451628D02*
X126625314Y-71499247D01*
X126625314Y-71499247D02*
X126720552Y-71546866D01*
X126720552Y-71546866D02*
X126911028Y-71546866D01*
X126911028Y-71546866D02*
X127006266Y-71499247D01*
X127006266Y-71499247D02*
X127053885Y-71451628D01*
X127053885Y-71451628D02*
X127101504Y-71356390D01*
D11*
X128397000Y-134620000D02*
X146050000Y-134620000D01*
X130048000Y-142367000D02*
X144272000Y-142367000D01*
X136614819Y-129906077D02*
X136614819Y-129334649D01*
X137614819Y-129620363D02*
X136614819Y-129620363D01*
X137614819Y-129001315D02*
X136614819Y-129001315D01*
X136614819Y-129001315D02*
X136614819Y-128763220D01*
X136614819Y-128763220D02*
X136662438Y-128620363D01*
X136662438Y-128620363D02*
X136757676Y-128525125D01*
X136757676Y-128525125D02*
X136852914Y-128477506D01*
X136852914Y-128477506D02*
X137043390Y-128429887D01*
X137043390Y-128429887D02*
X137186247Y-128429887D01*
X137186247Y-128429887D02*
X137376723Y-128477506D01*
X137376723Y-128477506D02*
X137471961Y-128525125D01*
X137471961Y-128525125D02*
X137567200Y-128620363D01*
X137567200Y-128620363D02*
X137614819Y-128763220D01*
X137614819Y-128763220D02*
X137614819Y-129001315D01*
X136614819Y-127810839D02*
X136614819Y-127620363D01*
X136614819Y-127620363D02*
X136662438Y-127525125D01*
X136662438Y-127525125D02*
X136757676Y-127429887D01*
X136757676Y-127429887D02*
X136948152Y-127382268D01*
X136948152Y-127382268D02*
X137281485Y-127382268D01*
X137281485Y-127382268D02*
X137471961Y-127429887D01*
X137471961Y-127429887D02*
X137567200Y-127525125D01*
X137567200Y-127525125D02*
X137614819Y-127620363D01*
X137614819Y-127620363D02*
X137614819Y-127810839D01*
X137614819Y-127810839D02*
X137567200Y-127906077D01*
X137567200Y-127906077D02*
X137471961Y-128001315D01*
X137471961Y-128001315D02*
X137281485Y-128048934D01*
X137281485Y-128048934D02*
X136948152Y-128048934D01*
X136948152Y-128048934D02*
X136757676Y-128001315D01*
X136757676Y-128001315D02*
X136662438Y-127906077D01*
X136662438Y-127906077D02*
X136614819Y-127810839D01*
X145132588Y-141869438D02*
X145037350Y-141821819D01*
X145037350Y-141821819D02*
X144894493Y-141821819D01*
X144894493Y-141821819D02*
X144751636Y-141869438D01*
X144751636Y-141869438D02*
X144656398Y-141964676D01*
X144656398Y-141964676D02*
X144608779Y-142059914D01*
X144608779Y-142059914D02*
X144561160Y-142250390D01*
X144561160Y-142250390D02*
X144561160Y-142393247D01*
X144561160Y-142393247D02*
X144608779Y-142583723D01*
X144608779Y-142583723D02*
X144656398Y-142678961D01*
X144656398Y-142678961D02*
X144751636Y-142774200D01*
X144751636Y-142774200D02*
X144894493Y-142821819D01*
X144894493Y-142821819D02*
X144989731Y-142821819D01*
X144989731Y-142821819D02*
X145132588Y-142774200D01*
X145132588Y-142774200D02*
X145180207Y-142726580D01*
X145180207Y-142726580D02*
X145180207Y-142393247D01*
X145180207Y-142393247D02*
X144989731Y-142393247D01*
X145608779Y-142821819D02*
X145608779Y-141821819D01*
X145608779Y-141821819D02*
X146180207Y-142821819D01*
X146180207Y-142821819D02*
X146180207Y-141821819D01*
X146656398Y-142821819D02*
X146656398Y-141821819D01*
X146656398Y-141821819D02*
X146894493Y-141821819D01*
X146894493Y-141821819D02*
X147037350Y-141869438D01*
X147037350Y-141869438D02*
X147132588Y-141964676D01*
X147132588Y-141964676D02*
X147180207Y-142059914D01*
X147180207Y-142059914D02*
X147227826Y-142250390D01*
X147227826Y-142250390D02*
X147227826Y-142393247D01*
X147227826Y-142393247D02*
X147180207Y-142583723D01*
X147180207Y-142583723D02*
X147132588Y-142678961D01*
X147132588Y-142678961D02*
X147037350Y-142774200D01*
X147037350Y-142774200D02*
X146894493Y-142821819D01*
X146894493Y-142821819D02*
X146656398Y-142821819D01*
X134982078Y-99022819D02*
X135601125Y-99022819D01*
X135601125Y-99022819D02*
X135267792Y-99403771D01*
X135267792Y-99403771D02*
X135410649Y-99403771D01*
X135410649Y-99403771D02*
X135505887Y-99451390D01*
X135505887Y-99451390D02*
X135553506Y-99499009D01*
X135553506Y-99499009D02*
X135601125Y-99594247D01*
X135601125Y-99594247D02*
X135601125Y-99832342D01*
X135601125Y-99832342D02*
X135553506Y-99927580D01*
X135553506Y-99927580D02*
X135505887Y-99975200D01*
X135505887Y-99975200D02*
X135410649Y-100022819D01*
X135410649Y-100022819D02*
X135124935Y-100022819D01*
X135124935Y-100022819D02*
X135029697Y-99975200D01*
X135029697Y-99975200D02*
X134982078Y-99927580D01*
X136029697Y-99927580D02*
X136077316Y-99975200D01*
X136077316Y-99975200D02*
X136029697Y-100022819D01*
X136029697Y-100022819D02*
X135982078Y-99975200D01*
X135982078Y-99975200D02*
X136029697Y-99927580D01*
X136029697Y-99927580D02*
X136029697Y-100022819D01*
X136410649Y-99022819D02*
X137029696Y-99022819D01*
X137029696Y-99022819D02*
X136696363Y-99403771D01*
X136696363Y-99403771D02*
X136839220Y-99403771D01*
X136839220Y-99403771D02*
X136934458Y-99451390D01*
X136934458Y-99451390D02*
X136982077Y-99499009D01*
X136982077Y-99499009D02*
X137029696Y-99594247D01*
X137029696Y-99594247D02*
X137029696Y-99832342D01*
X137029696Y-99832342D02*
X136982077Y-99927580D01*
X136982077Y-99927580D02*
X136934458Y-99975200D01*
X136934458Y-99975200D02*
X136839220Y-100022819D01*
X136839220Y-100022819D02*
X136553506Y-100022819D01*
X136553506Y-100022819D02*
X136458268Y-99975200D01*
X136458268Y-99975200D02*
X136410649Y-99927580D01*
X137315411Y-99022819D02*
X137648744Y-100022819D01*
X137648744Y-100022819D02*
X137982077Y-99022819D01*
X124930819Y-147253077D02*
X125930819Y-146919744D01*
X125930819Y-146919744D02*
X124930819Y-146586411D01*
X125930819Y-145681649D02*
X125454628Y-146014982D01*
X125930819Y-146253077D02*
X124930819Y-146253077D01*
X124930819Y-146253077D02*
X124930819Y-145872125D01*
X124930819Y-145872125D02*
X124978438Y-145776887D01*
X124978438Y-145776887D02*
X125026057Y-145729268D01*
X125026057Y-145729268D02*
X125121295Y-145681649D01*
X125121295Y-145681649D02*
X125264152Y-145681649D01*
X125264152Y-145681649D02*
X125359390Y-145729268D01*
X125359390Y-145729268D02*
X125407009Y-145776887D01*
X125407009Y-145776887D02*
X125454628Y-145872125D01*
X125454628Y-145872125D02*
X125454628Y-146253077D01*
X125407009Y-145253077D02*
X125407009Y-144919744D01*
X125930819Y-144776887D02*
X125930819Y-145253077D01*
X125930819Y-145253077D02*
X124930819Y-145253077D01*
X124930819Y-145253077D02*
X124930819Y-144776887D01*
X125407009Y-144014982D02*
X125407009Y-144348315D01*
X125930819Y-144348315D02*
X124930819Y-144348315D01*
X124930819Y-144348315D02*
X124930819Y-143872125D01*
X139154819Y-129854077D02*
X139154819Y-129282649D01*
X140154819Y-129568363D02*
X139154819Y-129568363D01*
X140154819Y-128949315D02*
X139154819Y-128949315D01*
X139154819Y-128949315D02*
X139154819Y-128711220D01*
X139154819Y-128711220D02*
X139202438Y-128568363D01*
X139202438Y-128568363D02*
X139297676Y-128473125D01*
X139297676Y-128473125D02*
X139392914Y-128425506D01*
X139392914Y-128425506D02*
X139583390Y-128377887D01*
X139583390Y-128377887D02*
X139726247Y-128377887D01*
X139726247Y-128377887D02*
X139916723Y-128425506D01*
X139916723Y-128425506D02*
X140011961Y-128473125D01*
X140011961Y-128473125D02*
X140107200Y-128568363D01*
X140107200Y-128568363D02*
X140154819Y-128711220D01*
X140154819Y-128711220D02*
X140154819Y-128949315D01*
X140154819Y-127949315D02*
X139154819Y-127949315D01*
X135791601Y-104150438D02*
X135696363Y-104102819D01*
X135696363Y-104102819D02*
X135553506Y-104102819D01*
X135553506Y-104102819D02*
X135410649Y-104150438D01*
X135410649Y-104150438D02*
X135315411Y-104245676D01*
X135315411Y-104245676D02*
X135267792Y-104340914D01*
X135267792Y-104340914D02*
X135220173Y-104531390D01*
X135220173Y-104531390D02*
X135220173Y-104674247D01*
X135220173Y-104674247D02*
X135267792Y-104864723D01*
X135267792Y-104864723D02*
X135315411Y-104959961D01*
X135315411Y-104959961D02*
X135410649Y-105055200D01*
X135410649Y-105055200D02*
X135553506Y-105102819D01*
X135553506Y-105102819D02*
X135648744Y-105102819D01*
X135648744Y-105102819D02*
X135791601Y-105055200D01*
X135791601Y-105055200D02*
X135839220Y-105007580D01*
X135839220Y-105007580D02*
X135839220Y-104674247D01*
X135839220Y-104674247D02*
X135648744Y-104674247D01*
X136267792Y-105102819D02*
X136267792Y-104102819D01*
X136267792Y-104102819D02*
X136839220Y-105102819D01*
X136839220Y-105102819D02*
X136839220Y-104102819D01*
X137315411Y-105102819D02*
X137315411Y-104102819D01*
X137315411Y-104102819D02*
X137553506Y-104102819D01*
X137553506Y-104102819D02*
X137696363Y-104150438D01*
X137696363Y-104150438D02*
X137791601Y-104245676D01*
X137791601Y-104245676D02*
X137839220Y-104340914D01*
X137839220Y-104340914D02*
X137886839Y-104531390D01*
X137886839Y-104531390D02*
X137886839Y-104674247D01*
X137886839Y-104674247D02*
X137839220Y-104864723D01*
X137839220Y-104864723D02*
X137791601Y-104959961D01*
X137791601Y-104959961D02*
X137696363Y-105055200D01*
X137696363Y-105055200D02*
X137553506Y-105102819D01*
X137553506Y-105102819D02*
X137315411Y-105102819D01*
D10*
X125690219Y-110749314D02*
X126690219Y-110082648D01*
X125690219Y-110082648D02*
X126690219Y-110749314D01*
X125737838Y-109177886D02*
X125690219Y-109273124D01*
X125690219Y-109273124D02*
X125690219Y-109415981D01*
X125690219Y-109415981D02*
X125737838Y-109558838D01*
X125737838Y-109558838D02*
X125833076Y-109654076D01*
X125833076Y-109654076D02*
X125928314Y-109701695D01*
X125928314Y-109701695D02*
X126118790Y-109749314D01*
X126118790Y-109749314D02*
X126261647Y-109749314D01*
X126261647Y-109749314D02*
X126452123Y-109701695D01*
X126452123Y-109701695D02*
X126547361Y-109654076D01*
X126547361Y-109654076D02*
X126642600Y-109558838D01*
X126642600Y-109558838D02*
X126690219Y-109415981D01*
X126690219Y-109415981D02*
X126690219Y-109320743D01*
X126690219Y-109320743D02*
X126642600Y-109177886D01*
X126642600Y-109177886D02*
X126594980Y-109130267D01*
X126594980Y-109130267D02*
X126261647Y-109130267D01*
X126261647Y-109130267D02*
X126261647Y-109320743D01*
X126166409Y-108701695D02*
X126166409Y-108368362D01*
X126690219Y-108225505D02*
X126690219Y-108701695D01*
X126690219Y-108701695D02*
X125690219Y-108701695D01*
X125690219Y-108701695D02*
X125690219Y-108225505D01*
X126594980Y-107225505D02*
X126642600Y-107273124D01*
X126642600Y-107273124D02*
X126690219Y-107415981D01*
X126690219Y-107415981D02*
X126690219Y-107511219D01*
X126690219Y-107511219D02*
X126642600Y-107654076D01*
X126642600Y-107654076D02*
X126547361Y-107749314D01*
X126547361Y-107749314D02*
X126452123Y-107796933D01*
X126452123Y-107796933D02*
X126261647Y-107844552D01*
X126261647Y-107844552D02*
X126118790Y-107844552D01*
X126118790Y-107844552D02*
X125928314Y-107796933D01*
X125928314Y-107796933D02*
X125833076Y-107749314D01*
X125833076Y-107749314D02*
X125737838Y-107654076D01*
X125737838Y-107654076D02*
X125690219Y-107511219D01*
X125690219Y-107511219D02*
X125690219Y-107415981D01*
X125690219Y-107415981D02*
X125737838Y-107273124D01*
X125737838Y-107273124D02*
X125785457Y-107225505D01*
X125690219Y-106796933D02*
X126499742Y-106796933D01*
X126499742Y-106796933D02*
X126594980Y-106749314D01*
X126594980Y-106749314D02*
X126642600Y-106701695D01*
X126642600Y-106701695D02*
X126690219Y-106606457D01*
X126690219Y-106606457D02*
X126690219Y-106415981D01*
X126690219Y-106415981D02*
X126642600Y-106320743D01*
X126642600Y-106320743D02*
X126594980Y-106273124D01*
X126594980Y-106273124D02*
X126499742Y-106225505D01*
X126499742Y-106225505D02*
X125690219Y-106225505D01*
X126785457Y-104320743D02*
X126737838Y-104415981D01*
X126737838Y-104415981D02*
X126642600Y-104511219D01*
X126642600Y-104511219D02*
X126499742Y-104654076D01*
X126499742Y-104654076D02*
X126452123Y-104749314D01*
X126452123Y-104749314D02*
X126452123Y-104844552D01*
X126690219Y-104796933D02*
X126642600Y-104892171D01*
X126642600Y-104892171D02*
X126547361Y-104987409D01*
X126547361Y-104987409D02*
X126356885Y-105035028D01*
X126356885Y-105035028D02*
X126023552Y-105035028D01*
X126023552Y-105035028D02*
X125833076Y-104987409D01*
X125833076Y-104987409D02*
X125737838Y-104892171D01*
X125737838Y-104892171D02*
X125690219Y-104796933D01*
X125690219Y-104796933D02*
X125690219Y-104606457D01*
X125690219Y-104606457D02*
X125737838Y-104511219D01*
X125737838Y-104511219D02*
X125833076Y-104415981D01*
X125833076Y-104415981D02*
X126023552Y-104368362D01*
X126023552Y-104368362D02*
X126356885Y-104368362D01*
X126356885Y-104368362D02*
X126547361Y-104415981D01*
X126547361Y-104415981D02*
X126642600Y-104511219D01*
X126642600Y-104511219D02*
X126690219Y-104606457D01*
X126690219Y-104606457D02*
X126690219Y-104796933D01*
X126166409Y-103606457D02*
X126166409Y-103939790D01*
X126690219Y-103939790D02*
X125690219Y-103939790D01*
X125690219Y-103939790D02*
X125690219Y-103463600D01*
X126690219Y-103082647D02*
X125690219Y-103082647D01*
X125690219Y-103082647D02*
X125690219Y-102701695D01*
X125690219Y-102701695D02*
X125737838Y-102606457D01*
X125737838Y-102606457D02*
X125785457Y-102558838D01*
X125785457Y-102558838D02*
X125880695Y-102511219D01*
X125880695Y-102511219D02*
X126023552Y-102511219D01*
X126023552Y-102511219D02*
X126118790Y-102558838D01*
X126118790Y-102558838D02*
X126166409Y-102606457D01*
X126166409Y-102606457D02*
X126214028Y-102701695D01*
X126214028Y-102701695D02*
X126214028Y-103082647D01*
X126023552Y-101654076D02*
X126690219Y-101654076D01*
X125642600Y-101892171D02*
X126356885Y-102130266D01*
X126356885Y-102130266D02*
X126356885Y-101511219D01*
X126023552Y-100701695D02*
X126690219Y-100701695D01*
X125642600Y-100939790D02*
X126356885Y-101177885D01*
X126356885Y-101177885D02*
X126356885Y-100558838D01*
X126404504Y-99463599D02*
X126404504Y-98987409D01*
X126690219Y-99558837D02*
X125690219Y-99225504D01*
X125690219Y-99225504D02*
X126690219Y-98892171D01*
X126690219Y-98130266D02*
X125690219Y-98130266D01*
X126642600Y-98130266D02*
X126690219Y-98225504D01*
X126690219Y-98225504D02*
X126690219Y-98415980D01*
X126690219Y-98415980D02*
X126642600Y-98511218D01*
X126642600Y-98511218D02*
X126594980Y-98558837D01*
X126594980Y-98558837D02*
X126499742Y-98606456D01*
X126499742Y-98606456D02*
X126214028Y-98606456D01*
X126214028Y-98606456D02*
X126118790Y-98558837D01*
X126118790Y-98558837D02*
X126071171Y-98511218D01*
X126071171Y-98511218D02*
X126023552Y-98415980D01*
X126023552Y-98415980D02*
X126023552Y-98225504D01*
X126023552Y-98225504D02*
X126071171Y-98130266D01*
X126690219Y-97225504D02*
X126166409Y-97225504D01*
X126166409Y-97225504D02*
X126071171Y-97273123D01*
X126071171Y-97273123D02*
X126023552Y-97368361D01*
X126023552Y-97368361D02*
X126023552Y-97558837D01*
X126023552Y-97558837D02*
X126071171Y-97654075D01*
X126642600Y-97225504D02*
X126690219Y-97320742D01*
X126690219Y-97320742D02*
X126690219Y-97558837D01*
X126690219Y-97558837D02*
X126642600Y-97654075D01*
X126642600Y-97654075D02*
X126547361Y-97701694D01*
X126547361Y-97701694D02*
X126452123Y-97701694D01*
X126452123Y-97701694D02*
X126356885Y-97654075D01*
X126356885Y-97654075D02*
X126309266Y-97558837D01*
X126309266Y-97558837D02*
X126309266Y-97320742D01*
X126309266Y-97320742D02*
X126261647Y-97225504D01*
X126023552Y-96749313D02*
X127023552Y-96749313D01*
X126071171Y-96749313D02*
X126023552Y-96654075D01*
X126023552Y-96654075D02*
X126023552Y-96463599D01*
X126023552Y-96463599D02*
X126071171Y-96368361D01*
X126071171Y-96368361D02*
X126118790Y-96320742D01*
X126118790Y-96320742D02*
X126214028Y-96273123D01*
X126214028Y-96273123D02*
X126499742Y-96273123D01*
X126499742Y-96273123D02*
X126594980Y-96320742D01*
X126594980Y-96320742D02*
X126642600Y-96368361D01*
X126642600Y-96368361D02*
X126690219Y-96463599D01*
X126690219Y-96463599D02*
X126690219Y-96654075D01*
X126690219Y-96654075D02*
X126642600Y-96749313D01*
X126023552Y-95987408D02*
X126023552Y-95606456D01*
X125690219Y-95844551D02*
X126547361Y-95844551D01*
X126547361Y-95844551D02*
X126642600Y-95796932D01*
X126642600Y-95796932D02*
X126690219Y-95701694D01*
X126690219Y-95701694D02*
X126690219Y-95606456D01*
X126642600Y-94892170D02*
X126690219Y-94987408D01*
X126690219Y-94987408D02*
X126690219Y-95177884D01*
X126690219Y-95177884D02*
X126642600Y-95273122D01*
X126642600Y-95273122D02*
X126547361Y-95320741D01*
X126547361Y-95320741D02*
X126166409Y-95320741D01*
X126166409Y-95320741D02*
X126071171Y-95273122D01*
X126071171Y-95273122D02*
X126023552Y-95177884D01*
X126023552Y-95177884D02*
X126023552Y-94987408D01*
X126023552Y-94987408D02*
X126071171Y-94892170D01*
X126071171Y-94892170D02*
X126166409Y-94844551D01*
X126166409Y-94844551D02*
X126261647Y-94844551D01*
X126261647Y-94844551D02*
X126356885Y-95320741D01*
X126690219Y-94415979D02*
X126023552Y-94415979D01*
X126214028Y-94415979D02*
X126118790Y-94368360D01*
X126118790Y-94368360D02*
X126071171Y-94320741D01*
X126071171Y-94320741D02*
X126023552Y-94225503D01*
X126023552Y-94225503D02*
X126023552Y-94130265D01*
D11*
X126375438Y-146713411D02*
X126327819Y-146808649D01*
X126327819Y-146808649D02*
X126327819Y-146951506D01*
X126327819Y-146951506D02*
X126375438Y-147094363D01*
X126375438Y-147094363D02*
X126470676Y-147189601D01*
X126470676Y-147189601D02*
X126565914Y-147237220D01*
X126565914Y-147237220D02*
X126756390Y-147284839D01*
X126756390Y-147284839D02*
X126899247Y-147284839D01*
X126899247Y-147284839D02*
X127089723Y-147237220D01*
X127089723Y-147237220D02*
X127184961Y-147189601D01*
X127184961Y-147189601D02*
X127280200Y-147094363D01*
X127280200Y-147094363D02*
X127327819Y-146951506D01*
X127327819Y-146951506D02*
X127327819Y-146856268D01*
X127327819Y-146856268D02*
X127280200Y-146713411D01*
X127280200Y-146713411D02*
X127232580Y-146665792D01*
X127232580Y-146665792D02*
X126899247Y-146665792D01*
X126899247Y-146665792D02*
X126899247Y-146856268D01*
X127327819Y-146237220D02*
X126327819Y-146237220D01*
X126327819Y-146237220D02*
X127327819Y-145665792D01*
X127327819Y-145665792D02*
X126327819Y-145665792D01*
X127327819Y-145189601D02*
X126327819Y-145189601D01*
X126327819Y-145189601D02*
X126327819Y-144951506D01*
X126327819Y-144951506D02*
X126375438Y-144808649D01*
X126375438Y-144808649D02*
X126470676Y-144713411D01*
X126470676Y-144713411D02*
X126565914Y-144665792D01*
X126565914Y-144665792D02*
X126756390Y-144618173D01*
X126756390Y-144618173D02*
X126899247Y-144618173D01*
X126899247Y-144618173D02*
X127089723Y-144665792D01*
X127089723Y-144665792D02*
X127184961Y-144713411D01*
X127184961Y-144713411D02*
X127280200Y-144808649D01*
X127280200Y-144808649D02*
X127327819Y-144951506D01*
X127327819Y-144951506D02*
X127327819Y-145189601D01*
D10*
X144619838Y-67524219D02*
X144953171Y-68524219D01*
X144953171Y-68524219D02*
X145286504Y-67524219D01*
X146191266Y-68524219D02*
X145857933Y-68048028D01*
X145619838Y-68524219D02*
X145619838Y-67524219D01*
X145619838Y-67524219D02*
X146000790Y-67524219D01*
X146000790Y-67524219D02*
X146096028Y-67571838D01*
X146096028Y-67571838D02*
X146143647Y-67619457D01*
X146143647Y-67619457D02*
X146191266Y-67714695D01*
X146191266Y-67714695D02*
X146191266Y-67857552D01*
X146191266Y-67857552D02*
X146143647Y-67952790D01*
X146143647Y-67952790D02*
X146096028Y-68000409D01*
X146096028Y-68000409D02*
X146000790Y-68048028D01*
X146000790Y-68048028D02*
X145619838Y-68048028D01*
X146619838Y-68524219D02*
X146619838Y-67524219D01*
X146619838Y-67524219D02*
X146953171Y-68238504D01*
X146953171Y-68238504D02*
X147286504Y-67524219D01*
X147286504Y-67524219D02*
X147286504Y-68524219D01*
X126625314Y-87218619D02*
X126053886Y-87218619D01*
X126339600Y-87218619D02*
X126339600Y-86218619D01*
X126339600Y-86218619D02*
X126244362Y-86361476D01*
X126244362Y-86361476D02*
X126149124Y-86456714D01*
X126149124Y-86456714D02*
X126053886Y-86504333D01*
X128238666Y-68498819D02*
X128238666Y-67498819D01*
X128238666Y-67498819D02*
X128476761Y-67498819D01*
X128476761Y-67498819D02*
X128619618Y-67546438D01*
X128619618Y-67546438D02*
X128714856Y-67641676D01*
X128714856Y-67641676D02*
X128762475Y-67736914D01*
X128762475Y-67736914D02*
X128810094Y-67927390D01*
X128810094Y-67927390D02*
X128810094Y-68070247D01*
X128810094Y-68070247D02*
X128762475Y-68260723D01*
X128762475Y-68260723D02*
X128714856Y-68355961D01*
X128714856Y-68355961D02*
X128619618Y-68451200D01*
X128619618Y-68451200D02*
X128476761Y-68498819D01*
X128476761Y-68498819D02*
X128238666Y-68498819D01*
X129810094Y-68403580D02*
X129762475Y-68451200D01*
X129762475Y-68451200D02*
X129619618Y-68498819D01*
X129619618Y-68498819D02*
X129524380Y-68498819D01*
X129524380Y-68498819D02*
X129381523Y-68451200D01*
X129381523Y-68451200D02*
X129286285Y-68355961D01*
X129286285Y-68355961D02*
X129238666Y-68260723D01*
X129238666Y-68260723D02*
X129191047Y-68070247D01*
X129191047Y-68070247D02*
X129191047Y-67927390D01*
X129191047Y-67927390D02*
X129238666Y-67736914D01*
X129238666Y-67736914D02*
X129286285Y-67641676D01*
X129286285Y-67641676D02*
X129381523Y-67546438D01*
X129381523Y-67546438D02*
X129524380Y-67498819D01*
X129524380Y-67498819D02*
X129619618Y-67498819D01*
X129619618Y-67498819D02*
X129762475Y-67546438D01*
X129762475Y-67546438D02*
X129810094Y-67594057D01*
X131000571Y-68498819D02*
X131000571Y-67498819D01*
X131000571Y-67498819D02*
X131238666Y-67498819D01*
X131238666Y-67498819D02*
X131381523Y-67546438D01*
X131381523Y-67546438D02*
X131476761Y-67641676D01*
X131476761Y-67641676D02*
X131524380Y-67736914D01*
X131524380Y-67736914D02*
X131571999Y-67927390D01*
X131571999Y-67927390D02*
X131571999Y-68070247D01*
X131571999Y-68070247D02*
X131524380Y-68260723D01*
X131524380Y-68260723D02*
X131476761Y-68355961D01*
X131476761Y-68355961D02*
X131381523Y-68451200D01*
X131381523Y-68451200D02*
X131238666Y-68498819D01*
X131238666Y-68498819D02*
X131000571Y-68498819D01*
X132000571Y-68498819D02*
X132000571Y-67832152D01*
X132000571Y-67498819D02*
X131952952Y-67546438D01*
X131952952Y-67546438D02*
X132000571Y-67594057D01*
X132000571Y-67594057D02*
X132048190Y-67546438D01*
X132048190Y-67546438D02*
X132000571Y-67498819D01*
X132000571Y-67498819D02*
X132000571Y-67594057D01*
X132476761Y-68498819D02*
X132476761Y-67832152D01*
X132476761Y-68022628D02*
X132524380Y-67927390D01*
X132524380Y-67927390D02*
X132571999Y-67879771D01*
X132571999Y-67879771D02*
X132667237Y-67832152D01*
X132667237Y-67832152D02*
X132762475Y-67832152D01*
X133476761Y-68451200D02*
X133381523Y-68498819D01*
X133381523Y-68498819D02*
X133191047Y-68498819D01*
X133191047Y-68498819D02*
X133095809Y-68451200D01*
X133095809Y-68451200D02*
X133048190Y-68355961D01*
X133048190Y-68355961D02*
X133048190Y-67975009D01*
X133048190Y-67975009D02*
X133095809Y-67879771D01*
X133095809Y-67879771D02*
X133191047Y-67832152D01*
X133191047Y-67832152D02*
X133381523Y-67832152D01*
X133381523Y-67832152D02*
X133476761Y-67879771D01*
X133476761Y-67879771D02*
X133524380Y-67975009D01*
X133524380Y-67975009D02*
X133524380Y-68070247D01*
X133524380Y-68070247D02*
X133048190Y-68165485D01*
X134381523Y-68451200D02*
X134286285Y-68498819D01*
X134286285Y-68498819D02*
X134095809Y-68498819D01*
X134095809Y-68498819D02*
X134000571Y-68451200D01*
X134000571Y-68451200D02*
X133952952Y-68403580D01*
X133952952Y-68403580D02*
X133905333Y-68308342D01*
X133905333Y-68308342D02*
X133905333Y-68022628D01*
X133905333Y-68022628D02*
X133952952Y-67927390D01*
X133952952Y-67927390D02*
X134000571Y-67879771D01*
X134000571Y-67879771D02*
X134095809Y-67832152D01*
X134095809Y-67832152D02*
X134286285Y-67832152D01*
X134286285Y-67832152D02*
X134381523Y-67879771D01*
X134667238Y-67832152D02*
X135048190Y-67832152D01*
X134810095Y-67498819D02*
X134810095Y-68355961D01*
X134810095Y-68355961D02*
X134857714Y-68451200D01*
X134857714Y-68451200D02*
X134952952Y-68498819D01*
X134952952Y-68498819D02*
X135048190Y-68498819D01*
D11*
X145504819Y-147253077D02*
X145504819Y-146681649D01*
X146504819Y-146967363D02*
X145504819Y-146967363D01*
X146504819Y-146348315D02*
X145504819Y-146348315D01*
X145504819Y-146348315D02*
X145504819Y-146110220D01*
X145504819Y-146110220D02*
X145552438Y-145967363D01*
X145552438Y-145967363D02*
X145647676Y-145872125D01*
X145647676Y-145872125D02*
X145742914Y-145824506D01*
X145742914Y-145824506D02*
X145933390Y-145776887D01*
X145933390Y-145776887D02*
X146076247Y-145776887D01*
X146076247Y-145776887D02*
X146266723Y-145824506D01*
X146266723Y-145824506D02*
X146361961Y-145872125D01*
X146361961Y-145872125D02*
X146457200Y-145967363D01*
X146457200Y-145967363D02*
X146504819Y-146110220D01*
X146504819Y-146110220D02*
X146504819Y-146348315D01*
X145504819Y-145157839D02*
X145504819Y-144967363D01*
X145504819Y-144967363D02*
X145552438Y-144872125D01*
X145552438Y-144872125D02*
X145647676Y-144776887D01*
X145647676Y-144776887D02*
X145838152Y-144729268D01*
X145838152Y-144729268D02*
X146171485Y-144729268D01*
X146171485Y-144729268D02*
X146361961Y-144776887D01*
X146361961Y-144776887D02*
X146457200Y-144872125D01*
X146457200Y-144872125D02*
X146504819Y-144967363D01*
X146504819Y-144967363D02*
X146504819Y-145157839D01*
X146504819Y-145157839D02*
X146457200Y-145253077D01*
X146457200Y-145253077D02*
X146361961Y-145348315D01*
X146361961Y-145348315D02*
X146171485Y-145395934D01*
X146171485Y-145395934D02*
X145838152Y-145395934D01*
X145838152Y-145395934D02*
X145647676Y-145348315D01*
X145647676Y-145348315D02*
X145552438Y-145253077D01*
X145552438Y-145253077D02*
X145504819Y-145157839D01*
X146901819Y-147253077D02*
X146901819Y-146681649D01*
X147901819Y-146967363D02*
X146901819Y-146967363D01*
X147901819Y-146348315D02*
X146901819Y-146348315D01*
X146901819Y-146348315D02*
X146901819Y-146110220D01*
X146901819Y-146110220D02*
X146949438Y-145967363D01*
X146949438Y-145967363D02*
X147044676Y-145872125D01*
X147044676Y-145872125D02*
X147139914Y-145824506D01*
X147139914Y-145824506D02*
X147330390Y-145776887D01*
X147330390Y-145776887D02*
X147473247Y-145776887D01*
X147473247Y-145776887D02*
X147663723Y-145824506D01*
X147663723Y-145824506D02*
X147758961Y-145872125D01*
X147758961Y-145872125D02*
X147854200Y-145967363D01*
X147854200Y-145967363D02*
X147901819Y-146110220D01*
X147901819Y-146110220D02*
X147901819Y-146348315D01*
X147901819Y-145348315D02*
X146901819Y-145348315D01*
X127851819Y-147253077D02*
X127851819Y-146681649D01*
X128851819Y-146967363D02*
X127851819Y-146967363D01*
X128756580Y-145776887D02*
X128804200Y-145824506D01*
X128804200Y-145824506D02*
X128851819Y-145967363D01*
X128851819Y-145967363D02*
X128851819Y-146062601D01*
X128851819Y-146062601D02*
X128804200Y-146205458D01*
X128804200Y-146205458D02*
X128708961Y-146300696D01*
X128708961Y-146300696D02*
X128613723Y-146348315D01*
X128613723Y-146348315D02*
X128423247Y-146395934D01*
X128423247Y-146395934D02*
X128280390Y-146395934D01*
X128280390Y-146395934D02*
X128089914Y-146348315D01*
X128089914Y-146348315D02*
X127994676Y-146300696D01*
X127994676Y-146300696D02*
X127899438Y-146205458D01*
X127899438Y-146205458D02*
X127851819Y-146062601D01*
X127851819Y-146062601D02*
X127851819Y-145967363D01*
X127851819Y-145967363D02*
X127899438Y-145824506D01*
X127899438Y-145824506D02*
X127947057Y-145776887D01*
X128851819Y-145348315D02*
X127851819Y-145348315D01*
X128851819Y-144776887D02*
X128280390Y-145205458D01*
X127851819Y-144776887D02*
X128423247Y-145348315D01*
X146783588Y-134122438D02*
X146688350Y-134074819D01*
X146688350Y-134074819D02*
X146545493Y-134074819D01*
X146545493Y-134074819D02*
X146402636Y-134122438D01*
X146402636Y-134122438D02*
X146307398Y-134217676D01*
X146307398Y-134217676D02*
X146259779Y-134312914D01*
X146259779Y-134312914D02*
X146212160Y-134503390D01*
X146212160Y-134503390D02*
X146212160Y-134646247D01*
X146212160Y-134646247D02*
X146259779Y-134836723D01*
X146259779Y-134836723D02*
X146307398Y-134931961D01*
X146307398Y-134931961D02*
X146402636Y-135027200D01*
X146402636Y-135027200D02*
X146545493Y-135074819D01*
X146545493Y-135074819D02*
X146640731Y-135074819D01*
X146640731Y-135074819D02*
X146783588Y-135027200D01*
X146783588Y-135027200D02*
X146831207Y-134979580D01*
X146831207Y-134979580D02*
X146831207Y-134646247D01*
X146831207Y-134646247D02*
X146640731Y-134646247D01*
X147259779Y-135074819D02*
X147259779Y-134074819D01*
X147259779Y-134074819D02*
X147831207Y-135074819D01*
X147831207Y-135074819D02*
X147831207Y-134074819D01*
X148307398Y-135074819D02*
X148307398Y-134074819D01*
X148307398Y-134074819D02*
X148545493Y-134074819D01*
X148545493Y-134074819D02*
X148688350Y-134122438D01*
X148688350Y-134122438D02*
X148783588Y-134217676D01*
X148783588Y-134217676D02*
X148831207Y-134312914D01*
X148831207Y-134312914D02*
X148878826Y-134503390D01*
X148878826Y-134503390D02*
X148878826Y-134646247D01*
X148878826Y-134646247D02*
X148831207Y-134836723D01*
X148831207Y-134836723D02*
X148783588Y-134931961D01*
X148783588Y-134931961D02*
X148688350Y-135027200D01*
X148688350Y-135027200D02*
X148545493Y-135074819D01*
X148545493Y-135074819D02*
X148307398Y-135074819D01*
X131534819Y-129854077D02*
X131534819Y-129282649D01*
X132534819Y-129568363D02*
X131534819Y-129568363D01*
X132534819Y-128949315D02*
X131534819Y-128949315D01*
X131534819Y-128949315D02*
X132249104Y-128615982D01*
X132249104Y-128615982D02*
X131534819Y-128282649D01*
X131534819Y-128282649D02*
X132534819Y-128282649D01*
X132487200Y-127854077D02*
X132534819Y-127711220D01*
X132534819Y-127711220D02*
X132534819Y-127473125D01*
X132534819Y-127473125D02*
X132487200Y-127377887D01*
X132487200Y-127377887D02*
X132439580Y-127330268D01*
X132439580Y-127330268D02*
X132344342Y-127282649D01*
X132344342Y-127282649D02*
X132249104Y-127282649D01*
X132249104Y-127282649D02*
X132153866Y-127330268D01*
X132153866Y-127330268D02*
X132106247Y-127377887D01*
X132106247Y-127377887D02*
X132058628Y-127473125D01*
X132058628Y-127473125D02*
X132011009Y-127663601D01*
X132011009Y-127663601D02*
X131963390Y-127758839D01*
X131963390Y-127758839D02*
X131915771Y-127806458D01*
X131915771Y-127806458D02*
X131820533Y-127854077D01*
X131820533Y-127854077D02*
X131725295Y-127854077D01*
X131725295Y-127854077D02*
X131630057Y-127806458D01*
X131630057Y-127806458D02*
X131582438Y-127758839D01*
X131582438Y-127758839D02*
X131534819Y-127663601D01*
X131534819Y-127663601D02*
X131534819Y-127425506D01*
X131534819Y-127425506D02*
X131582438Y-127282649D01*
X126209588Y-134122438D02*
X126114350Y-134074819D01*
X126114350Y-134074819D02*
X125971493Y-134074819D01*
X125971493Y-134074819D02*
X125828636Y-134122438D01*
X125828636Y-134122438D02*
X125733398Y-134217676D01*
X125733398Y-134217676D02*
X125685779Y-134312914D01*
X125685779Y-134312914D02*
X125638160Y-134503390D01*
X125638160Y-134503390D02*
X125638160Y-134646247D01*
X125638160Y-134646247D02*
X125685779Y-134836723D01*
X125685779Y-134836723D02*
X125733398Y-134931961D01*
X125733398Y-134931961D02*
X125828636Y-135027200D01*
X125828636Y-135027200D02*
X125971493Y-135074819D01*
X125971493Y-135074819D02*
X126066731Y-135074819D01*
X126066731Y-135074819D02*
X126209588Y-135027200D01*
X126209588Y-135027200D02*
X126257207Y-134979580D01*
X126257207Y-134979580D02*
X126257207Y-134646247D01*
X126257207Y-134646247D02*
X126066731Y-134646247D01*
X126685779Y-135074819D02*
X126685779Y-134074819D01*
X126685779Y-134074819D02*
X127257207Y-135074819D01*
X127257207Y-135074819D02*
X127257207Y-134074819D01*
X127733398Y-135074819D02*
X127733398Y-134074819D01*
X127733398Y-134074819D02*
X127971493Y-134074819D01*
X127971493Y-134074819D02*
X128114350Y-134122438D01*
X128114350Y-134122438D02*
X128209588Y-134217676D01*
X128209588Y-134217676D02*
X128257207Y-134312914D01*
X128257207Y-134312914D02*
X128304826Y-134503390D01*
X128304826Y-134503390D02*
X128304826Y-134646247D01*
X128304826Y-134646247D02*
X128257207Y-134836723D01*
X128257207Y-134836723D02*
X128209588Y-134931961D01*
X128209588Y-134931961D02*
X128114350Y-135027200D01*
X128114350Y-135027200D02*
X127971493Y-135074819D01*
X127971493Y-135074819D02*
X127733398Y-135074819D01*
X148425819Y-147253077D02*
X148425819Y-146681649D01*
X149425819Y-146967363D02*
X148425819Y-146967363D01*
X149425819Y-146348315D02*
X148425819Y-146348315D01*
X148425819Y-146348315D02*
X149140104Y-146014982D01*
X149140104Y-146014982D02*
X148425819Y-145681649D01*
X148425819Y-145681649D02*
X149425819Y-145681649D01*
X149378200Y-145253077D02*
X149425819Y-145110220D01*
X149425819Y-145110220D02*
X149425819Y-144872125D01*
X149425819Y-144872125D02*
X149378200Y-144776887D01*
X149378200Y-144776887D02*
X149330580Y-144729268D01*
X149330580Y-144729268D02*
X149235342Y-144681649D01*
X149235342Y-144681649D02*
X149140104Y-144681649D01*
X149140104Y-144681649D02*
X149044866Y-144729268D01*
X149044866Y-144729268D02*
X148997247Y-144776887D01*
X148997247Y-144776887D02*
X148949628Y-144872125D01*
X148949628Y-144872125D02*
X148902009Y-145062601D01*
X148902009Y-145062601D02*
X148854390Y-145157839D01*
X148854390Y-145157839D02*
X148806771Y-145205458D01*
X148806771Y-145205458D02*
X148711533Y-145253077D01*
X148711533Y-145253077D02*
X148616295Y-145253077D01*
X148616295Y-145253077D02*
X148521057Y-145205458D01*
X148521057Y-145205458D02*
X148473438Y-145157839D01*
X148473438Y-145157839D02*
X148425819Y-145062601D01*
X148425819Y-145062601D02*
X148425819Y-144824506D01*
X148425819Y-144824506D02*
X148473438Y-144681649D01*
X134074819Y-129854077D02*
X134074819Y-129282649D01*
X135074819Y-129568363D02*
X134074819Y-129568363D01*
X134979580Y-128377887D02*
X135027200Y-128425506D01*
X135027200Y-128425506D02*
X135074819Y-128568363D01*
X135074819Y-128568363D02*
X135074819Y-128663601D01*
X135074819Y-128663601D02*
X135027200Y-128806458D01*
X135027200Y-128806458D02*
X134931961Y-128901696D01*
X134931961Y-128901696D02*
X134836723Y-128949315D01*
X134836723Y-128949315D02*
X134646247Y-128996934D01*
X134646247Y-128996934D02*
X134503390Y-128996934D01*
X134503390Y-128996934D02*
X134312914Y-128949315D01*
X134312914Y-128949315D02*
X134217676Y-128901696D01*
X134217676Y-128901696D02*
X134122438Y-128806458D01*
X134122438Y-128806458D02*
X134074819Y-128663601D01*
X134074819Y-128663601D02*
X134074819Y-128568363D01*
X134074819Y-128568363D02*
X134122438Y-128425506D01*
X134122438Y-128425506D02*
X134170057Y-128377887D01*
X135074819Y-127949315D02*
X134074819Y-127949315D01*
X135074819Y-127377887D02*
X134503390Y-127806458D01*
X134074819Y-127377887D02*
X134646247Y-127949315D01*
X128994819Y-129854077D02*
X129994819Y-129520744D01*
X129994819Y-129520744D02*
X128994819Y-129187411D01*
X129994819Y-128282649D02*
X129518628Y-128615982D01*
X129994819Y-128854077D02*
X128994819Y-128854077D01*
X128994819Y-128854077D02*
X128994819Y-128473125D01*
X128994819Y-128473125D02*
X129042438Y-128377887D01*
X129042438Y-128377887D02*
X129090057Y-128330268D01*
X129090057Y-128330268D02*
X129185295Y-128282649D01*
X129185295Y-128282649D02*
X129328152Y-128282649D01*
X129328152Y-128282649D02*
X129423390Y-128330268D01*
X129423390Y-128330268D02*
X129471009Y-128377887D01*
X129471009Y-128377887D02*
X129518628Y-128473125D01*
X129518628Y-128473125D02*
X129518628Y-128854077D01*
X129471009Y-127854077D02*
X129471009Y-127520744D01*
X129994819Y-127377887D02*
X129994819Y-127854077D01*
X129994819Y-127854077D02*
X128994819Y-127854077D01*
X128994819Y-127854077D02*
X128994819Y-127377887D01*
X129471009Y-126615982D02*
X129471009Y-126949315D01*
X129994819Y-126949315D02*
X128994819Y-126949315D01*
X128994819Y-126949315D02*
X128994819Y-126473125D01*
X127733588Y-141869438D02*
X127638350Y-141821819D01*
X127638350Y-141821819D02*
X127495493Y-141821819D01*
X127495493Y-141821819D02*
X127352636Y-141869438D01*
X127352636Y-141869438D02*
X127257398Y-141964676D01*
X127257398Y-141964676D02*
X127209779Y-142059914D01*
X127209779Y-142059914D02*
X127162160Y-142250390D01*
X127162160Y-142250390D02*
X127162160Y-142393247D01*
X127162160Y-142393247D02*
X127209779Y-142583723D01*
X127209779Y-142583723D02*
X127257398Y-142678961D01*
X127257398Y-142678961D02*
X127352636Y-142774200D01*
X127352636Y-142774200D02*
X127495493Y-142821819D01*
X127495493Y-142821819D02*
X127590731Y-142821819D01*
X127590731Y-142821819D02*
X127733588Y-142774200D01*
X127733588Y-142774200D02*
X127781207Y-142726580D01*
X127781207Y-142726580D02*
X127781207Y-142393247D01*
X127781207Y-142393247D02*
X127590731Y-142393247D01*
X128209779Y-142821819D02*
X128209779Y-141821819D01*
X128209779Y-141821819D02*
X128781207Y-142821819D01*
X128781207Y-142821819D02*
X128781207Y-141821819D01*
X129257398Y-142821819D02*
X129257398Y-141821819D01*
X129257398Y-141821819D02*
X129495493Y-141821819D01*
X129495493Y-141821819D02*
X129638350Y-141869438D01*
X129638350Y-141869438D02*
X129733588Y-141964676D01*
X129733588Y-141964676D02*
X129781207Y-142059914D01*
X129781207Y-142059914D02*
X129828826Y-142250390D01*
X129828826Y-142250390D02*
X129828826Y-142393247D01*
X129828826Y-142393247D02*
X129781207Y-142583723D01*
X129781207Y-142583723D02*
X129733588Y-142678961D01*
X129733588Y-142678961D02*
X129638350Y-142774200D01*
X129638350Y-142774200D02*
X129495493Y-142821819D01*
X129495493Y-142821819D02*
X129257398Y-142821819D01*
X136398095Y-111164019D02*
X136398095Y-111973542D01*
X136398095Y-111973542D02*
X136445714Y-112068780D01*
X136445714Y-112068780D02*
X136493333Y-112116400D01*
X136493333Y-112116400D02*
X136588571Y-112164019D01*
X136588571Y-112164019D02*
X136779047Y-112164019D01*
X136779047Y-112164019D02*
X136874285Y-112116400D01*
X136874285Y-112116400D02*
X136921904Y-112068780D01*
X136921904Y-112068780D02*
X136969523Y-111973542D01*
X136969523Y-111973542D02*
X136969523Y-111164019D01*
X137969523Y-112164019D02*
X137398095Y-112164019D01*
X137683809Y-112164019D02*
X137683809Y-111164019D01*
X137683809Y-111164019D02*
X137588571Y-111306876D01*
X137588571Y-111306876D02*
X137493333Y-111402114D01*
X137493333Y-111402114D02*
X137398095Y-111449733D01*
X142317580Y-83986666D02*
X142365200Y-84034285D01*
X142365200Y-84034285D02*
X142412819Y-84177142D01*
X142412819Y-84177142D02*
X142412819Y-84272380D01*
X142412819Y-84272380D02*
X142365200Y-84415237D01*
X142365200Y-84415237D02*
X142269961Y-84510475D01*
X142269961Y-84510475D02*
X142174723Y-84558094D01*
X142174723Y-84558094D02*
X141984247Y-84605713D01*
X141984247Y-84605713D02*
X141841390Y-84605713D01*
X141841390Y-84605713D02*
X141650914Y-84558094D01*
X141650914Y-84558094D02*
X141555676Y-84510475D01*
X141555676Y-84510475D02*
X141460438Y-84415237D01*
X141460438Y-84415237D02*
X141412819Y-84272380D01*
X141412819Y-84272380D02*
X141412819Y-84177142D01*
X141412819Y-84177142D02*
X141460438Y-84034285D01*
X141460438Y-84034285D02*
X141508057Y-83986666D01*
X142412819Y-83034285D02*
X142412819Y-83605713D01*
X142412819Y-83319999D02*
X141412819Y-83319999D01*
X141412819Y-83319999D02*
X141555676Y-83415237D01*
X141555676Y-83415237D02*
X141650914Y-83510475D01*
X141650914Y-83510475D02*
X141698533Y-83605713D01*
X139961580Y-120816666D02*
X140009200Y-120864285D01*
X140009200Y-120864285D02*
X140056819Y-121007142D01*
X140056819Y-121007142D02*
X140056819Y-121102380D01*
X140056819Y-121102380D02*
X140009200Y-121245237D01*
X140009200Y-121245237D02*
X139913961Y-121340475D01*
X139913961Y-121340475D02*
X139818723Y-121388094D01*
X139818723Y-121388094D02*
X139628247Y-121435713D01*
X139628247Y-121435713D02*
X139485390Y-121435713D01*
X139485390Y-121435713D02*
X139294914Y-121388094D01*
X139294914Y-121388094D02*
X139199676Y-121340475D01*
X139199676Y-121340475D02*
X139104438Y-121245237D01*
X139104438Y-121245237D02*
X139056819Y-121102380D01*
X139056819Y-121102380D02*
X139056819Y-121007142D01*
X139056819Y-121007142D02*
X139104438Y-120864285D01*
X139104438Y-120864285D02*
X139152057Y-120816666D01*
X139056819Y-120483332D02*
X139056819Y-119864285D01*
X139056819Y-119864285D02*
X139437771Y-120197618D01*
X139437771Y-120197618D02*
X139437771Y-120054761D01*
X139437771Y-120054761D02*
X139485390Y-119959523D01*
X139485390Y-119959523D02*
X139533009Y-119911904D01*
X139533009Y-119911904D02*
X139628247Y-119864285D01*
X139628247Y-119864285D02*
X139866342Y-119864285D01*
X139866342Y-119864285D02*
X139961580Y-119911904D01*
X139961580Y-119911904D02*
X140009200Y-119959523D01*
X140009200Y-119959523D02*
X140056819Y-120054761D01*
X140056819Y-120054761D02*
X140056819Y-120340475D01*
X140056819Y-120340475D02*
X140009200Y-120435713D01*
X140009200Y-120435713D02*
X139961580Y-120483332D01*
X138237933Y-64361219D02*
X137904600Y-63885028D01*
X137666505Y-64361219D02*
X137666505Y-63361219D01*
X137666505Y-63361219D02*
X138047457Y-63361219D01*
X138047457Y-63361219D02*
X138142695Y-63408838D01*
X138142695Y-63408838D02*
X138190314Y-63456457D01*
X138190314Y-63456457D02*
X138237933Y-63551695D01*
X138237933Y-63551695D02*
X138237933Y-63694552D01*
X138237933Y-63694552D02*
X138190314Y-63789790D01*
X138190314Y-63789790D02*
X138142695Y-63837409D01*
X138142695Y-63837409D02*
X138047457Y-63885028D01*
X138047457Y-63885028D02*
X137666505Y-63885028D01*
X139190314Y-64361219D02*
X138618886Y-64361219D01*
X138904600Y-64361219D02*
X138904600Y-63361219D01*
X138904600Y-63361219D02*
X138809362Y-63504076D01*
X138809362Y-63504076D02*
X138714124Y-63599314D01*
X138714124Y-63599314D02*
X138618886Y-63646933D01*
X138934839Y-96533619D02*
X138934839Y-97247904D01*
X138934839Y-97247904D02*
X138887220Y-97390761D01*
X138887220Y-97390761D02*
X138791982Y-97486000D01*
X138791982Y-97486000D02*
X138649125Y-97533619D01*
X138649125Y-97533619D02*
X138553887Y-97533619D01*
X139411030Y-97533619D02*
X139411030Y-96533619D01*
X139411030Y-96533619D02*
X139791982Y-96533619D01*
X139791982Y-96533619D02*
X139887220Y-96581238D01*
X139887220Y-96581238D02*
X139934839Y-96628857D01*
X139934839Y-96628857D02*
X139982458Y-96724095D01*
X139982458Y-96724095D02*
X139982458Y-96866952D01*
X139982458Y-96866952D02*
X139934839Y-96962190D01*
X139934839Y-96962190D02*
X139887220Y-97009809D01*
X139887220Y-97009809D02*
X139791982Y-97057428D01*
X139791982Y-97057428D02*
X139411030Y-97057428D01*
X140363411Y-96628857D02*
X140411030Y-96581238D01*
X140411030Y-96581238D02*
X140506268Y-96533619D01*
X140506268Y-96533619D02*
X140744363Y-96533619D01*
X140744363Y-96533619D02*
X140839601Y-96581238D01*
X140839601Y-96581238D02*
X140887220Y-96628857D01*
X140887220Y-96628857D02*
X140934839Y-96724095D01*
X140934839Y-96724095D02*
X140934839Y-96819333D01*
X140934839Y-96819333D02*
X140887220Y-96962190D01*
X140887220Y-96962190D02*
X140315792Y-97533619D01*
X140315792Y-97533619D02*
X140934839Y-97533619D01*
X133794762Y-101562819D02*
X134128095Y-102562819D01*
X134128095Y-102562819D02*
X134461428Y-101562819D01*
X135366190Y-102467580D02*
X135318571Y-102515200D01*
X135318571Y-102515200D02*
X135175714Y-102562819D01*
X135175714Y-102562819D02*
X135080476Y-102562819D01*
X135080476Y-102562819D02*
X134937619Y-102515200D01*
X134937619Y-102515200D02*
X134842381Y-102419961D01*
X134842381Y-102419961D02*
X134794762Y-102324723D01*
X134794762Y-102324723D02*
X134747143Y-102134247D01*
X134747143Y-102134247D02*
X134747143Y-101991390D01*
X134747143Y-101991390D02*
X134794762Y-101800914D01*
X134794762Y-101800914D02*
X134842381Y-101705676D01*
X134842381Y-101705676D02*
X134937619Y-101610438D01*
X134937619Y-101610438D02*
X135080476Y-101562819D01*
X135080476Y-101562819D02*
X135175714Y-101562819D01*
X135175714Y-101562819D02*
X135318571Y-101610438D01*
X135318571Y-101610438D02*
X135366190Y-101658057D01*
X136366190Y-102467580D02*
X136318571Y-102515200D01*
X136318571Y-102515200D02*
X136175714Y-102562819D01*
X136175714Y-102562819D02*
X136080476Y-102562819D01*
X136080476Y-102562819D02*
X135937619Y-102515200D01*
X135937619Y-102515200D02*
X135842381Y-102419961D01*
X135842381Y-102419961D02*
X135794762Y-102324723D01*
X135794762Y-102324723D02*
X135747143Y-102134247D01*
X135747143Y-102134247D02*
X135747143Y-101991390D01*
X135747143Y-101991390D02*
X135794762Y-101800914D01*
X135794762Y-101800914D02*
X135842381Y-101705676D01*
X135842381Y-101705676D02*
X135937619Y-101610438D01*
X135937619Y-101610438D02*
X136080476Y-101562819D01*
X136080476Y-101562819D02*
X136175714Y-101562819D01*
X136175714Y-101562819D02*
X136318571Y-101610438D01*
X136318571Y-101610438D02*
X136366190Y-101658057D01*
X136794762Y-102562819D02*
X136794762Y-101562819D01*
X137461428Y-101562819D02*
X137651904Y-101562819D01*
X137651904Y-101562819D02*
X137747142Y-101610438D01*
X137747142Y-101610438D02*
X137842380Y-101705676D01*
X137842380Y-101705676D02*
X137889999Y-101896152D01*
X137889999Y-101896152D02*
X137889999Y-102229485D01*
X137889999Y-102229485D02*
X137842380Y-102419961D01*
X137842380Y-102419961D02*
X137747142Y-102515200D01*
X137747142Y-102515200D02*
X137651904Y-102562819D01*
X137651904Y-102562819D02*
X137461428Y-102562819D01*
X137461428Y-102562819D02*
X137366190Y-102515200D01*
X137366190Y-102515200D02*
X137270952Y-102419961D01*
X137270952Y-102419961D02*
X137223333Y-102229485D01*
X137223333Y-102229485D02*
X137223333Y-101896152D01*
X137223333Y-101896152D02*
X137270952Y-101705676D01*
X137270952Y-101705676D02*
X137366190Y-101610438D01*
X137366190Y-101610438D02*
X137461428Y-101562819D01*
X145771400Y-61709132D02*
X145819019Y-61566275D01*
X145819019Y-61566275D02*
X145819019Y-61328180D01*
X145819019Y-61328180D02*
X145771400Y-61232942D01*
X145771400Y-61232942D02*
X145723780Y-61185323D01*
X145723780Y-61185323D02*
X145628542Y-61137704D01*
X145628542Y-61137704D02*
X145533304Y-61137704D01*
X145533304Y-61137704D02*
X145438066Y-61185323D01*
X145438066Y-61185323D02*
X145390447Y-61232942D01*
X145390447Y-61232942D02*
X145342828Y-61328180D01*
X145342828Y-61328180D02*
X145295209Y-61518656D01*
X145295209Y-61518656D02*
X145247590Y-61613894D01*
X145247590Y-61613894D02*
X145199971Y-61661513D01*
X145199971Y-61661513D02*
X145104733Y-61709132D01*
X145104733Y-61709132D02*
X145009495Y-61709132D01*
X145009495Y-61709132D02*
X144914257Y-61661513D01*
X144914257Y-61661513D02*
X144866638Y-61613894D01*
X144866638Y-61613894D02*
X144819019Y-61518656D01*
X144819019Y-61518656D02*
X144819019Y-61280561D01*
X144819019Y-61280561D02*
X144866638Y-61137704D01*
X144819019Y-60804370D02*
X145819019Y-60566275D01*
X145819019Y-60566275D02*
X145104733Y-60375799D01*
X145104733Y-60375799D02*
X145819019Y-60185323D01*
X145819019Y-60185323D02*
X144819019Y-59947228D01*
X145819019Y-59042466D02*
X145819019Y-59613894D01*
X145819019Y-59328180D02*
X144819019Y-59328180D01*
X144819019Y-59328180D02*
X144961876Y-59423418D01*
X144961876Y-59423418D02*
X145057114Y-59518656D01*
X145057114Y-59518656D02*
X145104733Y-59613894D01*
X135233580Y-83986666D02*
X135281200Y-84034285D01*
X135281200Y-84034285D02*
X135328819Y-84177142D01*
X135328819Y-84177142D02*
X135328819Y-84272380D01*
X135328819Y-84272380D02*
X135281200Y-84415237D01*
X135281200Y-84415237D02*
X135185961Y-84510475D01*
X135185961Y-84510475D02*
X135090723Y-84558094D01*
X135090723Y-84558094D02*
X134900247Y-84605713D01*
X134900247Y-84605713D02*
X134757390Y-84605713D01*
X134757390Y-84605713D02*
X134566914Y-84558094D01*
X134566914Y-84558094D02*
X134471676Y-84510475D01*
X134471676Y-84510475D02*
X134376438Y-84415237D01*
X134376438Y-84415237D02*
X134328819Y-84272380D01*
X134328819Y-84272380D02*
X134328819Y-84177142D01*
X134328819Y-84177142D02*
X134376438Y-84034285D01*
X134376438Y-84034285D02*
X134424057Y-83986666D01*
X134424057Y-83605713D02*
X134376438Y-83558094D01*
X134376438Y-83558094D02*
X134328819Y-83462856D01*
X134328819Y-83462856D02*
X134328819Y-83224761D01*
X134328819Y-83224761D02*
X134376438Y-83129523D01*
X134376438Y-83129523D02*
X134424057Y-83081904D01*
X134424057Y-83081904D02*
X134519295Y-83034285D01*
X134519295Y-83034285D02*
X134614533Y-83034285D01*
X134614533Y-83034285D02*
X134757390Y-83081904D01*
X134757390Y-83081904D02*
X135328819Y-83653332D01*
X135328819Y-83653332D02*
X135328819Y-83034285D01*
X133312819Y-76961904D02*
X134122342Y-76961904D01*
X134122342Y-76961904D02*
X134217580Y-76914285D01*
X134217580Y-76914285D02*
X134265200Y-76866666D01*
X134265200Y-76866666D02*
X134312819Y-76771428D01*
X134312819Y-76771428D02*
X134312819Y-76580952D01*
X134312819Y-76580952D02*
X134265200Y-76485714D01*
X134265200Y-76485714D02*
X134217580Y-76438095D01*
X134217580Y-76438095D02*
X134122342Y-76390476D01*
X134122342Y-76390476D02*
X133312819Y-76390476D01*
X133312819Y-76009523D02*
X133312819Y-75390476D01*
X133312819Y-75390476D02*
X133693771Y-75723809D01*
X133693771Y-75723809D02*
X133693771Y-75580952D01*
X133693771Y-75580952D02*
X133741390Y-75485714D01*
X133741390Y-75485714D02*
X133789009Y-75438095D01*
X133789009Y-75438095D02*
X133884247Y-75390476D01*
X133884247Y-75390476D02*
X134122342Y-75390476D01*
X134122342Y-75390476D02*
X134217580Y-75438095D01*
X134217580Y-75438095D02*
X134265200Y-75485714D01*
X134265200Y-75485714D02*
X134312819Y-75580952D01*
X134312819Y-75580952D02*
X134312819Y-75866666D01*
X134312819Y-75866666D02*
X134265200Y-75961904D01*
X134265200Y-75961904D02*
X134217580Y-76009523D01*
X139961580Y-93384666D02*
X140009200Y-93432285D01*
X140009200Y-93432285D02*
X140056819Y-93575142D01*
X140056819Y-93575142D02*
X140056819Y-93670380D01*
X140056819Y-93670380D02*
X140009200Y-93813237D01*
X140009200Y-93813237D02*
X139913961Y-93908475D01*
X139913961Y-93908475D02*
X139818723Y-93956094D01*
X139818723Y-93956094D02*
X139628247Y-94003713D01*
X139628247Y-94003713D02*
X139485390Y-94003713D01*
X139485390Y-94003713D02*
X139294914Y-93956094D01*
X139294914Y-93956094D02*
X139199676Y-93908475D01*
X139199676Y-93908475D02*
X139104438Y-93813237D01*
X139104438Y-93813237D02*
X139056819Y-93670380D01*
X139056819Y-93670380D02*
X139056819Y-93575142D01*
X139056819Y-93575142D02*
X139104438Y-93432285D01*
X139104438Y-93432285D02*
X139152057Y-93384666D01*
X139390152Y-92527523D02*
X140056819Y-92527523D01*
X139009200Y-92765618D02*
X139723485Y-93003713D01*
X139723485Y-93003713D02*
X139723485Y-92384666D01*
D12*
%TO.C,U1*%
X114300000Y-68985000D02*
X160020000Y-68985000D01*
X160020000Y-68985000D02*
X160020000Y-127405000D01*
X160020000Y-127405000D02*
X114300000Y-127405000D01*
X114300000Y-127405000D02*
X114300000Y-68985000D01*
%TO.C,C1*%
X139273000Y-81335000D02*
X139273000Y-85420000D01*
X141143000Y-81335000D02*
X139273000Y-81335000D01*
X141143000Y-85420000D02*
X141143000Y-81335000D01*
%TO.C,C3*%
X138657000Y-120388748D02*
X138657000Y-120911252D01*
X137187000Y-120388748D02*
X137187000Y-120911252D01*
%TO.C,J1*%
X134399200Y-56727400D02*
X134399200Y-55677400D01*
X134199200Y-65077400D02*
X132299200Y-65077400D01*
X128299200Y-65077400D02*
X119499200Y-65077400D01*
X134199200Y-55877400D02*
X134199200Y-58477400D01*
X133349200Y-55677400D02*
X134399200Y-55677400D01*
X119499200Y-65077400D02*
X119499200Y-55877400D01*
X119499200Y-55877400D02*
X134199200Y-55877400D01*
X134199200Y-62377400D02*
X134199200Y-65077400D01*
%TO.C,R1*%
X138177536Y-62990400D02*
X138631664Y-62990400D01*
X138177536Y-61520400D02*
X138631664Y-61520400D01*
%TO.C,JP1*%
X141082000Y-68462200D02*
X135942000Y-68462200D01*
X141082000Y-65802200D02*
X141082000Y-68462200D01*
X135942000Y-65802200D02*
X135942000Y-68462200D01*
X142352000Y-65802200D02*
X143682000Y-65802200D01*
X143682000Y-65802200D02*
X143682000Y-67132200D01*
X141082000Y-65802200D02*
X135942000Y-65802200D01*
%TO.C,JP2*%
X141284000Y-98238000D02*
X138624000Y-98238000D01*
X141284000Y-103378000D02*
X138624000Y-103378000D01*
X141284000Y-104648000D02*
X141284000Y-105978000D01*
X141284000Y-103378000D02*
X141284000Y-98238000D01*
X138624000Y-103378000D02*
X138624000Y-98238000D01*
X141284000Y-105978000D02*
X139954000Y-105978000D01*
%TO.C,SW1*%
X141114200Y-56125800D02*
X149614200Y-56125800D01*
X149614200Y-56125800D02*
X149614200Y-64625800D01*
X149614200Y-64625800D02*
X141114200Y-64625800D01*
X141114200Y-64625800D02*
X141114200Y-56125800D01*
%TO.C,C2*%
X137841000Y-81335000D02*
X135971000Y-81335000D01*
X137841000Y-85420000D02*
X137841000Y-81335000D01*
X135971000Y-81335000D02*
X135971000Y-85420000D01*
%TO.C,D1*%
X136590600Y-57031600D02*
X136590600Y-57187600D01*
X136590600Y-59347600D02*
X136590600Y-59503600D01*
X137109640Y-59347599D02*
G75*
G03*
X139191729Y-59347436I1040960J1079999D01*
G01*
X139191729Y-57187764D02*
G75*
G03*
X137109640Y-57187601I-1041129J-1079836D01*
G01*
X136590601Y-59503115D02*
G75*
G03*
X139822934Y-59346208I1559999J1235515D01*
G01*
X139822934Y-57188992D02*
G75*
G03*
X136590601Y-57032085I-1672334J-1078608D01*
G01*
%TO.C,U3*%
X134512000Y-74290000D02*
X135772000Y-74290000D01*
X134512000Y-80300000D02*
X134512000Y-74290000D01*
X141332000Y-74290000D02*
X140072000Y-74290000D01*
X141332000Y-78050000D02*
X141332000Y-74290000D01*
%TO.C,J4*%
X130660000Y-145351000D02*
X131660000Y-145351000D01*
X131660000Y-145351000D02*
X131160000Y-144351000D01*
X131160000Y-144351000D02*
X130660000Y-145351000D01*
X135160000Y-144151000D02*
X139160000Y-144151000D01*
X139160000Y-144151000D02*
X139160000Y-143851000D01*
X139160000Y-143851000D02*
X135160000Y-143851000D01*
X135160000Y-143851000D02*
X135160000Y-144151000D01*
G36*
X135160000Y-144151000D02*
G01*
X139160000Y-144151000D01*
X139160000Y-143851000D01*
X135160000Y-143851000D01*
X135160000Y-144151000D01*
G37*
X126860000Y-143851000D02*
X147460000Y-143851000D01*
X147460000Y-143851000D02*
X147460000Y-138851000D01*
X147460000Y-138851000D02*
X126860000Y-138851000D01*
X126860000Y-138851000D02*
X126860000Y-143851000D01*
X126560000Y-144151000D02*
X147760000Y-144151000D01*
X147760000Y-144151000D02*
X147760000Y-138551000D01*
X147760000Y-138551000D02*
X126560000Y-138551000D01*
X126560000Y-138551000D02*
X126560000Y-144151000D01*
%TO.C,C4*%
X138657000Y-92956748D02*
X138657000Y-93479252D01*
X137187000Y-92956748D02*
X137187000Y-93479252D01*
%TO.C,J2*%
X149990000Y-128790000D02*
X149990000Y-137910000D01*
X149990000Y-137910000D02*
X124330000Y-137910000D01*
X125630000Y-130100000D02*
X148690000Y-130100000D01*
X135110000Y-137910000D02*
X135110000Y-136600000D01*
X148690000Y-136600000D02*
X139210000Y-136600000D01*
X124330000Y-128790000D02*
X149990000Y-128790000D01*
X129040000Y-139300000D02*
X130040000Y-139300000D01*
X124330000Y-137910000D02*
X124330000Y-128790000D01*
X135110000Y-136600000D02*
X125630000Y-136600000D01*
X139210000Y-136600000D02*
X139210000Y-136600000D01*
X139210000Y-136600000D02*
X139210000Y-137910000D01*
X148690000Y-130100000D02*
X148690000Y-136600000D01*
X129540000Y-138300000D02*
X129040000Y-139300000D01*
X130040000Y-139300000D02*
X129540000Y-138300000D01*
X125630000Y-136600000D02*
X125630000Y-130100000D01*
%TO.C,J3*%
X143890000Y-147160000D02*
X143890000Y-147490000D01*
X131190000Y-150150000D02*
X131190000Y-156150000D01*
X140590000Y-156150000D02*
X140590000Y-150150000D01*
X143470000Y-150150000D02*
X143470000Y-156150000D01*
X143230000Y-150150000D02*
X143230000Y-156150000D01*
X138810000Y-156150000D02*
X138050000Y-156150000D01*
X143710000Y-150150000D02*
X143710000Y-156150000D01*
X135510000Y-147092929D02*
X135510000Y-147490000D01*
X136270000Y-147092929D02*
X136270000Y-147490000D01*
X142240000Y-147490000D02*
X142240000Y-150150000D01*
X133730000Y-156150000D02*
X132970000Y-156150000D01*
X138050000Y-147092929D02*
X138050000Y-147490000D01*
X143130000Y-156150000D02*
X143130000Y-150150000D01*
X140590000Y-147092929D02*
X140590000Y-147490000D01*
X144840000Y-150150000D02*
X144840000Y-147490000D01*
X129480000Y-150150000D02*
X144840000Y-150150000D01*
X130430000Y-156150000D02*
X130430000Y-150150000D01*
X143830000Y-150150000D02*
X143830000Y-156150000D01*
X131190000Y-156150000D02*
X130430000Y-156150000D01*
X143590000Y-150150000D02*
X143590000Y-156150000D01*
X138810000Y-150150000D02*
X138810000Y-156150000D01*
X143890000Y-156150000D02*
X143130000Y-156150000D01*
X144780000Y-144780000D02*
X144780000Y-146050000D01*
X138810000Y-147092929D02*
X138810000Y-147490000D01*
X144840000Y-147490000D02*
X129480000Y-147490000D01*
X143510000Y-144780000D02*
X144780000Y-144780000D01*
X136270000Y-156150000D02*
X135510000Y-156150000D01*
X130430000Y-147092929D02*
X130430000Y-147490000D01*
X132080000Y-147490000D02*
X132080000Y-150150000D01*
X131190000Y-147092929D02*
X131190000Y-147490000D01*
X133730000Y-150150000D02*
X133730000Y-156150000D01*
X129480000Y-147490000D02*
X129480000Y-150150000D01*
X135510000Y-156150000D02*
X135510000Y-150150000D01*
X137160000Y-147490000D02*
X137160000Y-150150000D01*
X132970000Y-156150000D02*
X132970000Y-150150000D01*
X138050000Y-156150000D02*
X138050000Y-150150000D01*
X134620000Y-147490000D02*
X134620000Y-150150000D01*
X132970000Y-147092929D02*
X132970000Y-147490000D01*
X139700000Y-147490000D02*
X139700000Y-150150000D01*
X143890000Y-150150000D02*
X143890000Y-156150000D01*
X141350000Y-156150000D02*
X140590000Y-156150000D01*
X141350000Y-150150000D02*
X141350000Y-156150000D01*
X136270000Y-150150000D02*
X136270000Y-156150000D01*
X143130000Y-147160000D02*
X143130000Y-147490000D01*
X133730000Y-147092929D02*
X133730000Y-147490000D01*
X141350000Y-147092929D02*
X141350000Y-147490000D01*
X143350000Y-150150000D02*
X143350000Y-156150000D01*
%TD*%
M02*
