M48
; DRILL file {KiCad 7.0.11} date Sun Mar 10 23:57:54 2024
; FORMAT={-:-/ absolute / inch / decimal}
; #@! TF.CreationDate,2024-03-10T23:57:54-05:00
; #@! TF.GenerationSoftware,Kicad,Pcbnew,7.0.11
; #@! TF.FileFunction,MixedPlating,1,2
FMAT,2
INCH
; #@! TA.AperFunction,Plated,PTH,ViaDrill
T1C0.0157
; #@! TA.AperFunction,Plated,PTH,ComponentDrill
T2C0.0300
; #@! TA.AperFunction,Plated,PTH,ComponentDrill
T3C0.0315
; #@! TA.AperFunction,Plated,PTH,ComponentDrill
T4C0.0354
; #@! TA.AperFunction,Plated,PTH,ComponentDrill
T5C0.0394
%
G90
G05
T1
X5.2Y-4.315
X5.23Y-4.415
X5.39Y-3.425
X5.4Y-4.99
X5.43Y-4.848
X5.45Y-3.775
X5.495Y-3.71
X5.5Y-4.215
X5.52Y-3.425
X5.64Y-4.99
T2
X5.1Y-2.8159
X5.1Y-2.9159
X5.1Y-3.0159
X5.1Y-3.1159
X5.1Y-3.2159
X5.1Y-3.3159
X5.1Y-3.4159
X5.1Y-3.5159
X5.1Y-3.6159
X5.1Y-3.7159
X5.1Y-3.8159
X5.1Y-3.9159
X5.1Y-4.0159
X5.1Y-4.1159
X5.1Y-4.2159
X5.1Y-4.3159
X5.1Y-4.4159
X5.1Y-4.5159
X5.1Y-4.6159
X5.1Y-4.7159
X5.1Y-4.8159
X5.1Y-4.9159
X5.7Y-2.8159
X5.7Y-2.9159
X5.7Y-3.0159
X5.7Y-3.1159
X5.7Y-3.2159
X5.7Y-3.3159
X5.7Y-3.4159
X5.7Y-3.5159
X5.7Y-3.6159
X5.7Y-3.7159
X5.7Y-3.8159
X5.7Y-3.9159
X5.7Y-4.0159
X5.7Y-4.1159
X5.7Y-4.2159
X5.7Y-4.3159
X5.7Y-4.4159
X5.7Y-4.5159
X5.7Y-4.6159
X5.7Y-4.7159
X5.7Y-4.8159
X5.7Y-4.9159
T3
X5.1638Y-5.5256
X5.1638Y-5.6044
X5.2425Y-5.5256
X5.2425Y-5.6044
X5.3213Y-5.5256
X5.3213Y-5.6044
X5.4Y-5.5256
X5.4Y-5.6044
X5.4787Y-5.5256
X5.4787Y-5.6044
X5.5575Y-5.5256
X5.5575Y-5.6044
X5.6362Y-5.5256
X5.6362Y-5.6044
T4
X5.389Y-2.294
X5.489Y-2.294
T5
X5.1Y-5.2
X5.1Y-5.3
X5.15Y-5.75
X5.2Y-5.2
X5.2Y-5.3
X5.25Y-5.75
X5.3Y-5.2
X5.3Y-5.3
X5.35Y-5.75
X5.4Y-5.2
X5.4Y-5.3
X5.4044Y-2.643
X5.45Y-5.75
X5.5Y-5.2
X5.5Y-5.3
X5.5044Y-2.643
X5.51Y-3.92
X5.51Y-4.02
X5.51Y-4.12
X5.55Y-5.75
X5.6Y-5.2
X5.6Y-5.3
X5.6044Y-2.643
X5.6147Y-2.2786
X5.6147Y-2.377
X5.6147Y-2.4754
X5.65Y-5.75
X5.7Y-5.2
X5.7Y-5.3
X5.8313Y-2.2786
X5.8313Y-2.377
X5.8313Y-2.4754
T5
G00X5.0118Y-2.3416
M15
G01X5.0118Y-2.4204
M16
G05
G00X5.0905Y-2.566
M15
G01X5.1693Y-2.566
M16
G05
G00X5.248Y-2.3416
M15
G01X5.248Y-2.4204
M16
G05
M30
