%TF.GenerationSoftware,KiCad,Pcbnew,7.0.11*%
%TF.CreationDate,2024-03-10T23:57:51-05:00*%
%TF.ProjectId,XGECU-QFP44-Adapter,58474543-552d-4514-9650-34342d416461,rev?*%
%TF.SameCoordinates,Original*%
%TF.FileFunction,Legend,Bot*%
%TF.FilePolarity,Positive*%
%FSLAX46Y46*%
G04 Gerber Fmt 4.6, Leading zero omitted, Abs format (unit mm)*
G04 Created by KiCad (PCBNEW 7.0.11) date 2024-03-10 23:57:51*
%MOMM*%
%LPD*%
G01*
G04 APERTURE LIST*
%ADD10C,0.150000*%
%ADD11C,0.200000*%
G04 APERTURE END LIST*
D10*
X135038180Y-129854077D02*
X135038180Y-129282649D01*
X134038180Y-129568363D02*
X135038180Y-129568363D01*
X134133419Y-128377887D02*
X134085800Y-128425506D01*
X134085800Y-128425506D02*
X134038180Y-128568363D01*
X134038180Y-128568363D02*
X134038180Y-128663601D01*
X134038180Y-128663601D02*
X134085800Y-128806458D01*
X134085800Y-128806458D02*
X134181038Y-128901696D01*
X134181038Y-128901696D02*
X134276276Y-128949315D01*
X134276276Y-128949315D02*
X134466752Y-128996934D01*
X134466752Y-128996934D02*
X134609609Y-128996934D01*
X134609609Y-128996934D02*
X134800085Y-128949315D01*
X134800085Y-128949315D02*
X134895323Y-128901696D01*
X134895323Y-128901696D02*
X134990561Y-128806458D01*
X134990561Y-128806458D02*
X135038180Y-128663601D01*
X135038180Y-128663601D02*
X135038180Y-128568363D01*
X135038180Y-128568363D02*
X134990561Y-128425506D01*
X134990561Y-128425506D02*
X134942942Y-128377887D01*
X134038180Y-127949315D02*
X135038180Y-127949315D01*
X134038180Y-127377887D02*
X134609609Y-127806458D01*
X135038180Y-127377887D02*
X134466752Y-127949315D01*
X128397000Y-134620000D02*
X146050000Y-134620000D01*
X132498180Y-129854077D02*
X132498180Y-129282649D01*
X131498180Y-129568363D02*
X132498180Y-129568363D01*
X131498180Y-128949315D02*
X132498180Y-128949315D01*
X132498180Y-128949315D02*
X131783895Y-128615982D01*
X131783895Y-128615982D02*
X132498180Y-128282649D01*
X132498180Y-128282649D02*
X131498180Y-128282649D01*
X131545800Y-127854077D02*
X131498180Y-127711220D01*
X131498180Y-127711220D02*
X131498180Y-127473125D01*
X131498180Y-127473125D02*
X131545800Y-127377887D01*
X131545800Y-127377887D02*
X131593419Y-127330268D01*
X131593419Y-127330268D02*
X131688657Y-127282649D01*
X131688657Y-127282649D02*
X131783895Y-127282649D01*
X131783895Y-127282649D02*
X131879133Y-127330268D01*
X131879133Y-127330268D02*
X131926752Y-127377887D01*
X131926752Y-127377887D02*
X131974371Y-127473125D01*
X131974371Y-127473125D02*
X132021990Y-127663601D01*
X132021990Y-127663601D02*
X132069609Y-127758839D01*
X132069609Y-127758839D02*
X132117228Y-127806458D01*
X132117228Y-127806458D02*
X132212466Y-127854077D01*
X132212466Y-127854077D02*
X132307704Y-127854077D01*
X132307704Y-127854077D02*
X132402942Y-127806458D01*
X132402942Y-127806458D02*
X132450561Y-127758839D01*
X132450561Y-127758839D02*
X132498180Y-127663601D01*
X132498180Y-127663601D02*
X132498180Y-127425506D01*
X132498180Y-127425506D02*
X132450561Y-127282649D01*
X129958180Y-129854077D02*
X128958180Y-129520744D01*
X128958180Y-129520744D02*
X129958180Y-129187411D01*
X128958180Y-128282649D02*
X129434371Y-128615982D01*
X128958180Y-128854077D02*
X129958180Y-128854077D01*
X129958180Y-128854077D02*
X129958180Y-128473125D01*
X129958180Y-128473125D02*
X129910561Y-128377887D01*
X129910561Y-128377887D02*
X129862942Y-128330268D01*
X129862942Y-128330268D02*
X129767704Y-128282649D01*
X129767704Y-128282649D02*
X129624847Y-128282649D01*
X129624847Y-128282649D02*
X129529609Y-128330268D01*
X129529609Y-128330268D02*
X129481990Y-128377887D01*
X129481990Y-128377887D02*
X129434371Y-128473125D01*
X129434371Y-128473125D02*
X129434371Y-128854077D01*
X129481990Y-127854077D02*
X129481990Y-127520744D01*
X128958180Y-127377887D02*
X128958180Y-127854077D01*
X128958180Y-127854077D02*
X129958180Y-127854077D01*
X129958180Y-127854077D02*
X129958180Y-127377887D01*
X129481990Y-126615982D02*
X129481990Y-126949315D01*
X128958180Y-126949315D02*
X129958180Y-126949315D01*
X129958180Y-126949315D02*
X129958180Y-126473125D01*
X134921048Y-56858819D02*
X134921048Y-57573104D01*
X134921048Y-57573104D02*
X134968667Y-57715961D01*
X134968667Y-57715961D02*
X135063905Y-57811200D01*
X135063905Y-57811200D02*
X135206762Y-57858819D01*
X135206762Y-57858819D02*
X135302000Y-57858819D01*
X133968667Y-57858819D02*
X134444857Y-57858819D01*
X134444857Y-57858819D02*
X134444857Y-56858819D01*
X133063905Y-57763580D02*
X133111524Y-57811200D01*
X133111524Y-57811200D02*
X133254381Y-57858819D01*
X133254381Y-57858819D02*
X133349619Y-57858819D01*
X133349619Y-57858819D02*
X133492476Y-57811200D01*
X133492476Y-57811200D02*
X133587714Y-57715961D01*
X133587714Y-57715961D02*
X133635333Y-57620723D01*
X133635333Y-57620723D02*
X133682952Y-57430247D01*
X133682952Y-57430247D02*
X133682952Y-57287390D01*
X133682952Y-57287390D02*
X133635333Y-57096914D01*
X133635333Y-57096914D02*
X133587714Y-57001676D01*
X133587714Y-57001676D02*
X133492476Y-56906438D01*
X133492476Y-56906438D02*
X133349619Y-56858819D01*
X133349619Y-56858819D02*
X133254381Y-56858819D01*
X133254381Y-56858819D02*
X133111524Y-56906438D01*
X133111524Y-56906438D02*
X133063905Y-56954057D01*
X132349619Y-56858819D02*
X132349619Y-57573104D01*
X132349619Y-57573104D02*
X132397238Y-57715961D01*
X132397238Y-57715961D02*
X132492476Y-57811200D01*
X132492476Y-57811200D02*
X132635333Y-57858819D01*
X132635333Y-57858819D02*
X132730571Y-57858819D01*
X131397238Y-57858819D02*
X131873428Y-57858819D01*
X131873428Y-57858819D02*
X131873428Y-56858819D01*
X130492476Y-57763580D02*
X130540095Y-57811200D01*
X130540095Y-57811200D02*
X130682952Y-57858819D01*
X130682952Y-57858819D02*
X130778190Y-57858819D01*
X130778190Y-57858819D02*
X130921047Y-57811200D01*
X130921047Y-57811200D02*
X131016285Y-57715961D01*
X131016285Y-57715961D02*
X131063904Y-57620723D01*
X131063904Y-57620723D02*
X131111523Y-57430247D01*
X131111523Y-57430247D02*
X131111523Y-57287390D01*
X131111523Y-57287390D02*
X131063904Y-57096914D01*
X131063904Y-57096914D02*
X131016285Y-57001676D01*
X131016285Y-57001676D02*
X130921047Y-56906438D01*
X130921047Y-56906438D02*
X130778190Y-56858819D01*
X130778190Y-56858819D02*
X130682952Y-56858819D01*
X130682952Y-56858819D02*
X130540095Y-56906438D01*
X130540095Y-56906438D02*
X130492476Y-56954057D01*
X129778190Y-56858819D02*
X129778190Y-57573104D01*
X129778190Y-57573104D02*
X129825809Y-57715961D01*
X129825809Y-57715961D02*
X129921047Y-57811200D01*
X129921047Y-57811200D02*
X130063904Y-57858819D01*
X130063904Y-57858819D02*
X130159142Y-57858819D01*
X128825809Y-57858819D02*
X129301999Y-57858819D01*
X129301999Y-57858819D02*
X129301999Y-56858819D01*
X127921047Y-57763580D02*
X127968666Y-57811200D01*
X127968666Y-57811200D02*
X128111523Y-57858819D01*
X128111523Y-57858819D02*
X128206761Y-57858819D01*
X128206761Y-57858819D02*
X128349618Y-57811200D01*
X128349618Y-57811200D02*
X128444856Y-57715961D01*
X128444856Y-57715961D02*
X128492475Y-57620723D01*
X128492475Y-57620723D02*
X128540094Y-57430247D01*
X128540094Y-57430247D02*
X128540094Y-57287390D01*
X128540094Y-57287390D02*
X128492475Y-57096914D01*
X128492475Y-57096914D02*
X128444856Y-57001676D01*
X128444856Y-57001676D02*
X128349618Y-56906438D01*
X128349618Y-56906438D02*
X128206761Y-56858819D01*
X128206761Y-56858819D02*
X128111523Y-56858819D01*
X128111523Y-56858819D02*
X127968666Y-56906438D01*
X127968666Y-56906438D02*
X127921047Y-56954057D01*
X127206761Y-56858819D02*
X127206761Y-57573104D01*
X127206761Y-57573104D02*
X127254380Y-57715961D01*
X127254380Y-57715961D02*
X127349618Y-57811200D01*
X127349618Y-57811200D02*
X127492475Y-57858819D01*
X127492475Y-57858819D02*
X127587713Y-57858819D01*
X126254380Y-57858819D02*
X126730570Y-57858819D01*
X126730570Y-57858819D02*
X126730570Y-56858819D01*
X125349618Y-57763580D02*
X125397237Y-57811200D01*
X125397237Y-57811200D02*
X125540094Y-57858819D01*
X125540094Y-57858819D02*
X125635332Y-57858819D01*
X125635332Y-57858819D02*
X125778189Y-57811200D01*
X125778189Y-57811200D02*
X125873427Y-57715961D01*
X125873427Y-57715961D02*
X125921046Y-57620723D01*
X125921046Y-57620723D02*
X125968665Y-57430247D01*
X125968665Y-57430247D02*
X125968665Y-57287390D01*
X125968665Y-57287390D02*
X125921046Y-57096914D01*
X125921046Y-57096914D02*
X125873427Y-57001676D01*
X125873427Y-57001676D02*
X125778189Y-56906438D01*
X125778189Y-56906438D02*
X125635332Y-56858819D01*
X125635332Y-56858819D02*
X125540094Y-56858819D01*
X125540094Y-56858819D02*
X125397237Y-56906438D01*
X125397237Y-56906438D02*
X125349618Y-56954057D01*
X128815180Y-147253077D02*
X128815180Y-146681649D01*
X127815180Y-146967363D02*
X128815180Y-146967363D01*
X127910419Y-145776887D02*
X127862800Y-145824506D01*
X127862800Y-145824506D02*
X127815180Y-145967363D01*
X127815180Y-145967363D02*
X127815180Y-146062601D01*
X127815180Y-146062601D02*
X127862800Y-146205458D01*
X127862800Y-146205458D02*
X127958038Y-146300696D01*
X127958038Y-146300696D02*
X128053276Y-146348315D01*
X128053276Y-146348315D02*
X128243752Y-146395934D01*
X128243752Y-146395934D02*
X128386609Y-146395934D01*
X128386609Y-146395934D02*
X128577085Y-146348315D01*
X128577085Y-146348315D02*
X128672323Y-146300696D01*
X128672323Y-146300696D02*
X128767561Y-146205458D01*
X128767561Y-146205458D02*
X128815180Y-146062601D01*
X128815180Y-146062601D02*
X128815180Y-145967363D01*
X128815180Y-145967363D02*
X128767561Y-145824506D01*
X128767561Y-145824506D02*
X128719942Y-145776887D01*
X127815180Y-145348315D02*
X128815180Y-145348315D01*
X127815180Y-144776887D02*
X128386609Y-145205458D01*
X128815180Y-144776887D02*
X128243752Y-145348315D01*
X131736180Y-139252077D02*
X130736180Y-138918744D01*
X130736180Y-138918744D02*
X131736180Y-138585411D01*
X130736180Y-137680649D02*
X131212371Y-138013982D01*
X130736180Y-138252077D02*
X131736180Y-138252077D01*
X131736180Y-138252077D02*
X131736180Y-137871125D01*
X131736180Y-137871125D02*
X131688561Y-137775887D01*
X131688561Y-137775887D02*
X131640942Y-137728268D01*
X131640942Y-137728268D02*
X131545704Y-137680649D01*
X131545704Y-137680649D02*
X131402847Y-137680649D01*
X131402847Y-137680649D02*
X131307609Y-137728268D01*
X131307609Y-137728268D02*
X131259990Y-137775887D01*
X131259990Y-137775887D02*
X131212371Y-137871125D01*
X131212371Y-137871125D02*
X131212371Y-138252077D01*
X131259990Y-137252077D02*
X131259990Y-136918744D01*
X130736180Y-136775887D02*
X130736180Y-137252077D01*
X130736180Y-137252077D02*
X131736180Y-137252077D01*
X131736180Y-137252077D02*
X131736180Y-136775887D01*
X131259990Y-136013982D02*
X131259990Y-136347315D01*
X130736180Y-136347315D02*
X131736180Y-136347315D01*
X131736180Y-136347315D02*
X131736180Y-135871125D01*
X135673180Y-139125077D02*
X135673180Y-138553649D01*
X134673180Y-138839363D02*
X135673180Y-138839363D01*
X134768419Y-137648887D02*
X134720800Y-137696506D01*
X134720800Y-137696506D02*
X134673180Y-137839363D01*
X134673180Y-137839363D02*
X134673180Y-137934601D01*
X134673180Y-137934601D02*
X134720800Y-138077458D01*
X134720800Y-138077458D02*
X134816038Y-138172696D01*
X134816038Y-138172696D02*
X134911276Y-138220315D01*
X134911276Y-138220315D02*
X135101752Y-138267934D01*
X135101752Y-138267934D02*
X135244609Y-138267934D01*
X135244609Y-138267934D02*
X135435085Y-138220315D01*
X135435085Y-138220315D02*
X135530323Y-138172696D01*
X135530323Y-138172696D02*
X135625561Y-138077458D01*
X135625561Y-138077458D02*
X135673180Y-137934601D01*
X135673180Y-137934601D02*
X135673180Y-137839363D01*
X135673180Y-137839363D02*
X135625561Y-137696506D01*
X135625561Y-137696506D02*
X135577942Y-137648887D01*
X134673180Y-137220315D02*
X135673180Y-137220315D01*
X134673180Y-136648887D02*
X135244609Y-137077458D01*
X135673180Y-136648887D02*
X135101752Y-137220315D01*
X137705180Y-139125077D02*
X137705180Y-138553649D01*
X136705180Y-138839363D02*
X137705180Y-138839363D01*
X136705180Y-138220315D02*
X137705180Y-138220315D01*
X137705180Y-138220315D02*
X137705180Y-137982220D01*
X137705180Y-137982220D02*
X137657561Y-137839363D01*
X137657561Y-137839363D02*
X137562323Y-137744125D01*
X137562323Y-137744125D02*
X137467085Y-137696506D01*
X137467085Y-137696506D02*
X137276609Y-137648887D01*
X137276609Y-137648887D02*
X137133752Y-137648887D01*
X137133752Y-137648887D02*
X136943276Y-137696506D01*
X136943276Y-137696506D02*
X136848038Y-137744125D01*
X136848038Y-137744125D02*
X136752800Y-137839363D01*
X136752800Y-137839363D02*
X136705180Y-137982220D01*
X136705180Y-137982220D02*
X136705180Y-138220315D01*
X137705180Y-137029839D02*
X137705180Y-136839363D01*
X137705180Y-136839363D02*
X137657561Y-136744125D01*
X137657561Y-136744125D02*
X137562323Y-136648887D01*
X137562323Y-136648887D02*
X137371847Y-136601268D01*
X137371847Y-136601268D02*
X137038514Y-136601268D01*
X137038514Y-136601268D02*
X136848038Y-136648887D01*
X136848038Y-136648887D02*
X136752800Y-136744125D01*
X136752800Y-136744125D02*
X136705180Y-136839363D01*
X136705180Y-136839363D02*
X136705180Y-137029839D01*
X136705180Y-137029839D02*
X136752800Y-137125077D01*
X136752800Y-137125077D02*
X136848038Y-137220315D01*
X136848038Y-137220315D02*
X137038514Y-137267934D01*
X137038514Y-137267934D02*
X137371847Y-137267934D01*
X137371847Y-137267934D02*
X137562323Y-137220315D01*
X137562323Y-137220315D02*
X137657561Y-137125077D01*
X137657561Y-137125077D02*
X137705180Y-137029839D01*
X129187411Y-141869438D02*
X129282649Y-141821819D01*
X129282649Y-141821819D02*
X129425506Y-141821819D01*
X129425506Y-141821819D02*
X129568363Y-141869438D01*
X129568363Y-141869438D02*
X129663601Y-141964676D01*
X129663601Y-141964676D02*
X129711220Y-142059914D01*
X129711220Y-142059914D02*
X129758839Y-142250390D01*
X129758839Y-142250390D02*
X129758839Y-142393247D01*
X129758839Y-142393247D02*
X129711220Y-142583723D01*
X129711220Y-142583723D02*
X129663601Y-142678961D01*
X129663601Y-142678961D02*
X129568363Y-142774200D01*
X129568363Y-142774200D02*
X129425506Y-142821819D01*
X129425506Y-142821819D02*
X129330268Y-142821819D01*
X129330268Y-142821819D02*
X129187411Y-142774200D01*
X129187411Y-142774200D02*
X129139792Y-142726580D01*
X129139792Y-142726580D02*
X129139792Y-142393247D01*
X129139792Y-142393247D02*
X129330268Y-142393247D01*
X128711220Y-142821819D02*
X128711220Y-141821819D01*
X128711220Y-141821819D02*
X128139792Y-142821819D01*
X128139792Y-142821819D02*
X128139792Y-141821819D01*
X127663601Y-142821819D02*
X127663601Y-141821819D01*
X127663601Y-141821819D02*
X127425506Y-141821819D01*
X127425506Y-141821819D02*
X127282649Y-141869438D01*
X127282649Y-141869438D02*
X127187411Y-141964676D01*
X127187411Y-141964676D02*
X127139792Y-142059914D01*
X127139792Y-142059914D02*
X127092173Y-142250390D01*
X127092173Y-142250390D02*
X127092173Y-142393247D01*
X127092173Y-142393247D02*
X127139792Y-142583723D01*
X127139792Y-142583723D02*
X127187411Y-142678961D01*
X127187411Y-142678961D02*
X127282649Y-142774200D01*
X127282649Y-142774200D02*
X127425506Y-142821819D01*
X127425506Y-142821819D02*
X127663601Y-142821819D01*
X127663411Y-134122438D02*
X127758649Y-134074819D01*
X127758649Y-134074819D02*
X127901506Y-134074819D01*
X127901506Y-134074819D02*
X128044363Y-134122438D01*
X128044363Y-134122438D02*
X128139601Y-134217676D01*
X128139601Y-134217676D02*
X128187220Y-134312914D01*
X128187220Y-134312914D02*
X128234839Y-134503390D01*
X128234839Y-134503390D02*
X128234839Y-134646247D01*
X128234839Y-134646247D02*
X128187220Y-134836723D01*
X128187220Y-134836723D02*
X128139601Y-134931961D01*
X128139601Y-134931961D02*
X128044363Y-135027200D01*
X128044363Y-135027200D02*
X127901506Y-135074819D01*
X127901506Y-135074819D02*
X127806268Y-135074819D01*
X127806268Y-135074819D02*
X127663411Y-135027200D01*
X127663411Y-135027200D02*
X127615792Y-134979580D01*
X127615792Y-134979580D02*
X127615792Y-134646247D01*
X127615792Y-134646247D02*
X127806268Y-134646247D01*
X127187220Y-135074819D02*
X127187220Y-134074819D01*
X127187220Y-134074819D02*
X126615792Y-135074819D01*
X126615792Y-135074819D02*
X126615792Y-134074819D01*
X126139601Y-135074819D02*
X126139601Y-134074819D01*
X126139601Y-134074819D02*
X125901506Y-134074819D01*
X125901506Y-134074819D02*
X125758649Y-134122438D01*
X125758649Y-134122438D02*
X125663411Y-134217676D01*
X125663411Y-134217676D02*
X125615792Y-134312914D01*
X125615792Y-134312914D02*
X125568173Y-134503390D01*
X125568173Y-134503390D02*
X125568173Y-134646247D01*
X125568173Y-134646247D02*
X125615792Y-134836723D01*
X125615792Y-134836723D02*
X125663411Y-134931961D01*
X125663411Y-134931961D02*
X125758649Y-135027200D01*
X125758649Y-135027200D02*
X125901506Y-135074819D01*
X125901506Y-135074819D02*
X126139601Y-135074819D01*
X137578180Y-129906077D02*
X137578180Y-129334649D01*
X136578180Y-129620363D02*
X137578180Y-129620363D01*
X136578180Y-129001315D02*
X137578180Y-129001315D01*
X137578180Y-129001315D02*
X137578180Y-128763220D01*
X137578180Y-128763220D02*
X137530561Y-128620363D01*
X137530561Y-128620363D02*
X137435323Y-128525125D01*
X137435323Y-128525125D02*
X137340085Y-128477506D01*
X137340085Y-128477506D02*
X137149609Y-128429887D01*
X137149609Y-128429887D02*
X137006752Y-128429887D01*
X137006752Y-128429887D02*
X136816276Y-128477506D01*
X136816276Y-128477506D02*
X136721038Y-128525125D01*
X136721038Y-128525125D02*
X136625800Y-128620363D01*
X136625800Y-128620363D02*
X136578180Y-128763220D01*
X136578180Y-128763220D02*
X136578180Y-129001315D01*
X137578180Y-127810839D02*
X137578180Y-127620363D01*
X137578180Y-127620363D02*
X137530561Y-127525125D01*
X137530561Y-127525125D02*
X137435323Y-127429887D01*
X137435323Y-127429887D02*
X137244847Y-127382268D01*
X137244847Y-127382268D02*
X136911514Y-127382268D01*
X136911514Y-127382268D02*
X136721038Y-127429887D01*
X136721038Y-127429887D02*
X136625800Y-127525125D01*
X136625800Y-127525125D02*
X136578180Y-127620363D01*
X136578180Y-127620363D02*
X136578180Y-127810839D01*
X136578180Y-127810839D02*
X136625800Y-127906077D01*
X136625800Y-127906077D02*
X136721038Y-128001315D01*
X136721038Y-128001315D02*
X136911514Y-128048934D01*
X136911514Y-128048934D02*
X137244847Y-128048934D01*
X137244847Y-128048934D02*
X137435323Y-128001315D01*
X137435323Y-128001315D02*
X137530561Y-127906077D01*
X137530561Y-127906077D02*
X137578180Y-127810839D01*
X140118180Y-129854077D02*
X140118180Y-129282649D01*
X139118180Y-129568363D02*
X140118180Y-129568363D01*
X139118180Y-128949315D02*
X140118180Y-128949315D01*
X140118180Y-128949315D02*
X140118180Y-128711220D01*
X140118180Y-128711220D02*
X140070561Y-128568363D01*
X140070561Y-128568363D02*
X139975323Y-128473125D01*
X139975323Y-128473125D02*
X139880085Y-128425506D01*
X139880085Y-128425506D02*
X139689609Y-128377887D01*
X139689609Y-128377887D02*
X139546752Y-128377887D01*
X139546752Y-128377887D02*
X139356276Y-128425506D01*
X139356276Y-128425506D02*
X139261038Y-128473125D01*
X139261038Y-128473125D02*
X139165800Y-128568363D01*
X139165800Y-128568363D02*
X139118180Y-128711220D01*
X139118180Y-128711220D02*
X139118180Y-128949315D01*
X139118180Y-127949315D02*
X140118180Y-127949315D01*
X125894180Y-147253077D02*
X124894180Y-146919744D01*
X124894180Y-146919744D02*
X125894180Y-146586411D01*
X124894180Y-145681649D02*
X125370371Y-146014982D01*
X124894180Y-146253077D02*
X125894180Y-146253077D01*
X125894180Y-146253077D02*
X125894180Y-145872125D01*
X125894180Y-145872125D02*
X125846561Y-145776887D01*
X125846561Y-145776887D02*
X125798942Y-145729268D01*
X125798942Y-145729268D02*
X125703704Y-145681649D01*
X125703704Y-145681649D02*
X125560847Y-145681649D01*
X125560847Y-145681649D02*
X125465609Y-145729268D01*
X125465609Y-145729268D02*
X125417990Y-145776887D01*
X125417990Y-145776887D02*
X125370371Y-145872125D01*
X125370371Y-145872125D02*
X125370371Y-146253077D01*
X125417990Y-145253077D02*
X125417990Y-144919744D01*
X124894180Y-144776887D02*
X124894180Y-145253077D01*
X124894180Y-145253077D02*
X125894180Y-145253077D01*
X125894180Y-145253077D02*
X125894180Y-144776887D01*
X125417990Y-144014982D02*
X125417990Y-144348315D01*
X124894180Y-144348315D02*
X125894180Y-144348315D01*
X125894180Y-144348315D02*
X125894180Y-143872125D01*
X133768180Y-139125077D02*
X133768180Y-138553649D01*
X132768180Y-138839363D02*
X133768180Y-138839363D01*
X132768180Y-138220315D02*
X133768180Y-138220315D01*
X133768180Y-138220315D02*
X133053895Y-137886982D01*
X133053895Y-137886982D02*
X133768180Y-137553649D01*
X133768180Y-137553649D02*
X132768180Y-137553649D01*
X132815800Y-137125077D02*
X132768180Y-136982220D01*
X132768180Y-136982220D02*
X132768180Y-136744125D01*
X132768180Y-136744125D02*
X132815800Y-136648887D01*
X132815800Y-136648887D02*
X132863419Y-136601268D01*
X132863419Y-136601268D02*
X132958657Y-136553649D01*
X132958657Y-136553649D02*
X133053895Y-136553649D01*
X133053895Y-136553649D02*
X133149133Y-136601268D01*
X133149133Y-136601268D02*
X133196752Y-136648887D01*
X133196752Y-136648887D02*
X133244371Y-136744125D01*
X133244371Y-136744125D02*
X133291990Y-136934601D01*
X133291990Y-136934601D02*
X133339609Y-137029839D01*
X133339609Y-137029839D02*
X133387228Y-137077458D01*
X133387228Y-137077458D02*
X133482466Y-137125077D01*
X133482466Y-137125077D02*
X133577704Y-137125077D01*
X133577704Y-137125077D02*
X133672942Y-137077458D01*
X133672942Y-137077458D02*
X133720561Y-137029839D01*
X133720561Y-137029839D02*
X133768180Y-136934601D01*
X133768180Y-136934601D02*
X133768180Y-136696506D01*
X133768180Y-136696506D02*
X133720561Y-136553649D01*
X146586411Y-141869438D02*
X146681649Y-141821819D01*
X146681649Y-141821819D02*
X146824506Y-141821819D01*
X146824506Y-141821819D02*
X146967363Y-141869438D01*
X146967363Y-141869438D02*
X147062601Y-141964676D01*
X147062601Y-141964676D02*
X147110220Y-142059914D01*
X147110220Y-142059914D02*
X147157839Y-142250390D01*
X147157839Y-142250390D02*
X147157839Y-142393247D01*
X147157839Y-142393247D02*
X147110220Y-142583723D01*
X147110220Y-142583723D02*
X147062601Y-142678961D01*
X147062601Y-142678961D02*
X146967363Y-142774200D01*
X146967363Y-142774200D02*
X146824506Y-142821819D01*
X146824506Y-142821819D02*
X146729268Y-142821819D01*
X146729268Y-142821819D02*
X146586411Y-142774200D01*
X146586411Y-142774200D02*
X146538792Y-142726580D01*
X146538792Y-142726580D02*
X146538792Y-142393247D01*
X146538792Y-142393247D02*
X146729268Y-142393247D01*
X146110220Y-142821819D02*
X146110220Y-141821819D01*
X146110220Y-141821819D02*
X145538792Y-142821819D01*
X145538792Y-142821819D02*
X145538792Y-141821819D01*
X145062601Y-142821819D02*
X145062601Y-141821819D01*
X145062601Y-141821819D02*
X144824506Y-141821819D01*
X144824506Y-141821819D02*
X144681649Y-141869438D01*
X144681649Y-141869438D02*
X144586411Y-141964676D01*
X144586411Y-141964676D02*
X144538792Y-142059914D01*
X144538792Y-142059914D02*
X144491173Y-142250390D01*
X144491173Y-142250390D02*
X144491173Y-142393247D01*
X144491173Y-142393247D02*
X144538792Y-142583723D01*
X144538792Y-142583723D02*
X144586411Y-142678961D01*
X144586411Y-142678961D02*
X144681649Y-142774200D01*
X144681649Y-142774200D02*
X144824506Y-142821819D01*
X144824506Y-142821819D02*
X145062601Y-142821819D01*
D11*
X126023552Y-74274141D02*
X126833076Y-74274141D01*
X126833076Y-74274141D02*
X126928314Y-74226522D01*
X126928314Y-74226522D02*
X126975933Y-74178903D01*
X126975933Y-74178903D02*
X127023552Y-74083665D01*
X127023552Y-74083665D02*
X127023552Y-73940808D01*
X127023552Y-73940808D02*
X126975933Y-73845570D01*
X126642600Y-74274141D02*
X126690219Y-74178903D01*
X126690219Y-74178903D02*
X126690219Y-73988427D01*
X126690219Y-73988427D02*
X126642600Y-73893189D01*
X126642600Y-73893189D02*
X126594980Y-73845570D01*
X126594980Y-73845570D02*
X126499742Y-73797951D01*
X126499742Y-73797951D02*
X126214028Y-73797951D01*
X126214028Y-73797951D02*
X126118790Y-73845570D01*
X126118790Y-73845570D02*
X126071171Y-73893189D01*
X126071171Y-73893189D02*
X126023552Y-73988427D01*
X126023552Y-73988427D02*
X126023552Y-74178903D01*
X126023552Y-74178903D02*
X126071171Y-74274141D01*
X126690219Y-74750332D02*
X126023552Y-74750332D01*
X125690219Y-74750332D02*
X125737838Y-74702713D01*
X125737838Y-74702713D02*
X125785457Y-74750332D01*
X125785457Y-74750332D02*
X125737838Y-74797951D01*
X125737838Y-74797951D02*
X125690219Y-74750332D01*
X125690219Y-74750332D02*
X125785457Y-74750332D01*
X126023552Y-75083665D02*
X126023552Y-75464617D01*
X125690219Y-75226522D02*
X126547361Y-75226522D01*
X126547361Y-75226522D02*
X126642600Y-75274141D01*
X126642600Y-75274141D02*
X126690219Y-75369379D01*
X126690219Y-75369379D02*
X126690219Y-75464617D01*
X126690219Y-75797951D02*
X125690219Y-75797951D01*
X126690219Y-76226522D02*
X126166409Y-76226522D01*
X126166409Y-76226522D02*
X126071171Y-76178903D01*
X126071171Y-76178903D02*
X126023552Y-76083665D01*
X126023552Y-76083665D02*
X126023552Y-75940808D01*
X126023552Y-75940808D02*
X126071171Y-75845570D01*
X126071171Y-75845570D02*
X126118790Y-75797951D01*
X126023552Y-77131284D02*
X126690219Y-77131284D01*
X126023552Y-76702713D02*
X126547361Y-76702713D01*
X126547361Y-76702713D02*
X126642600Y-76750332D01*
X126642600Y-76750332D02*
X126690219Y-76845570D01*
X126690219Y-76845570D02*
X126690219Y-76988427D01*
X126690219Y-76988427D02*
X126642600Y-77083665D01*
X126642600Y-77083665D02*
X126594980Y-77131284D01*
X126690219Y-77607475D02*
X125690219Y-77607475D01*
X126071171Y-77607475D02*
X126023552Y-77702713D01*
X126023552Y-77702713D02*
X126023552Y-77893189D01*
X126023552Y-77893189D02*
X126071171Y-77988427D01*
X126071171Y-77988427D02*
X126118790Y-78036046D01*
X126118790Y-78036046D02*
X126214028Y-78083665D01*
X126214028Y-78083665D02*
X126499742Y-78083665D01*
X126499742Y-78083665D02*
X126594980Y-78036046D01*
X126594980Y-78036046D02*
X126642600Y-77988427D01*
X126642600Y-77988427D02*
X126690219Y-77893189D01*
X126690219Y-77893189D02*
X126690219Y-77702713D01*
X126690219Y-77702713D02*
X126642600Y-77607475D01*
X126594980Y-78512237D02*
X126642600Y-78559856D01*
X126642600Y-78559856D02*
X126690219Y-78512237D01*
X126690219Y-78512237D02*
X126642600Y-78464618D01*
X126642600Y-78464618D02*
X126594980Y-78512237D01*
X126594980Y-78512237D02*
X126690219Y-78512237D01*
X126642600Y-79416998D02*
X126690219Y-79321760D01*
X126690219Y-79321760D02*
X126690219Y-79131284D01*
X126690219Y-79131284D02*
X126642600Y-79036046D01*
X126642600Y-79036046D02*
X126594980Y-78988427D01*
X126594980Y-78988427D02*
X126499742Y-78940808D01*
X126499742Y-78940808D02*
X126214028Y-78940808D01*
X126214028Y-78940808D02*
X126118790Y-78988427D01*
X126118790Y-78988427D02*
X126071171Y-79036046D01*
X126071171Y-79036046D02*
X126023552Y-79131284D01*
X126023552Y-79131284D02*
X126023552Y-79321760D01*
X126023552Y-79321760D02*
X126071171Y-79416998D01*
X126690219Y-79988427D02*
X126642600Y-79893189D01*
X126642600Y-79893189D02*
X126594980Y-79845570D01*
X126594980Y-79845570D02*
X126499742Y-79797951D01*
X126499742Y-79797951D02*
X126214028Y-79797951D01*
X126214028Y-79797951D02*
X126118790Y-79845570D01*
X126118790Y-79845570D02*
X126071171Y-79893189D01*
X126071171Y-79893189D02*
X126023552Y-79988427D01*
X126023552Y-79988427D02*
X126023552Y-80131284D01*
X126023552Y-80131284D02*
X126071171Y-80226522D01*
X126071171Y-80226522D02*
X126118790Y-80274141D01*
X126118790Y-80274141D02*
X126214028Y-80321760D01*
X126214028Y-80321760D02*
X126499742Y-80321760D01*
X126499742Y-80321760D02*
X126594980Y-80274141D01*
X126594980Y-80274141D02*
X126642600Y-80226522D01*
X126642600Y-80226522D02*
X126690219Y-80131284D01*
X126690219Y-80131284D02*
X126690219Y-79988427D01*
X126690219Y-80750332D02*
X126023552Y-80750332D01*
X126118790Y-80750332D02*
X126071171Y-80797951D01*
X126071171Y-80797951D02*
X126023552Y-80893189D01*
X126023552Y-80893189D02*
X126023552Y-81036046D01*
X126023552Y-81036046D02*
X126071171Y-81131284D01*
X126071171Y-81131284D02*
X126166409Y-81178903D01*
X126166409Y-81178903D02*
X126690219Y-81178903D01*
X126166409Y-81178903D02*
X126071171Y-81226522D01*
X126071171Y-81226522D02*
X126023552Y-81321760D01*
X126023552Y-81321760D02*
X126023552Y-81464617D01*
X126023552Y-81464617D02*
X126071171Y-81559856D01*
X126071171Y-81559856D02*
X126166409Y-81607475D01*
X126166409Y-81607475D02*
X126690219Y-81607475D01*
X125642600Y-82797950D02*
X126928314Y-81940808D01*
X126690219Y-83559855D02*
X125690219Y-83559855D01*
X126642600Y-83559855D02*
X126690219Y-83464617D01*
X126690219Y-83464617D02*
X126690219Y-83274141D01*
X126690219Y-83274141D02*
X126642600Y-83178903D01*
X126642600Y-83178903D02*
X126594980Y-83131284D01*
X126594980Y-83131284D02*
X126499742Y-83083665D01*
X126499742Y-83083665D02*
X126214028Y-83083665D01*
X126214028Y-83083665D02*
X126118790Y-83131284D01*
X126118790Y-83131284D02*
X126071171Y-83178903D01*
X126071171Y-83178903D02*
X126023552Y-83274141D01*
X126023552Y-83274141D02*
X126023552Y-83464617D01*
X126023552Y-83464617D02*
X126071171Y-83559855D01*
X126023552Y-84036046D02*
X126880695Y-84036046D01*
X126880695Y-84036046D02*
X126975933Y-83988427D01*
X126975933Y-83988427D02*
X127023552Y-83893189D01*
X127023552Y-83893189D02*
X127023552Y-83845570D01*
X125690219Y-84036046D02*
X125737838Y-83988427D01*
X125737838Y-83988427D02*
X125785457Y-84036046D01*
X125785457Y-84036046D02*
X125737838Y-84083665D01*
X125737838Y-84083665D02*
X125690219Y-84036046D01*
X125690219Y-84036046D02*
X125785457Y-84036046D01*
X126023552Y-84369379D02*
X126023552Y-84750331D01*
X125690219Y-84512236D02*
X126547361Y-84512236D01*
X126547361Y-84512236D02*
X126642600Y-84559855D01*
X126642600Y-84559855D02*
X126690219Y-84655093D01*
X126690219Y-84655093D02*
X126690219Y-84750331D01*
X126642600Y-85464617D02*
X126690219Y-85369379D01*
X126690219Y-85369379D02*
X126690219Y-85178903D01*
X126690219Y-85178903D02*
X126642600Y-85083665D01*
X126642600Y-85083665D02*
X126547361Y-85036046D01*
X126547361Y-85036046D02*
X126166409Y-85036046D01*
X126166409Y-85036046D02*
X126071171Y-85083665D01*
X126071171Y-85083665D02*
X126023552Y-85178903D01*
X126023552Y-85178903D02*
X126023552Y-85369379D01*
X126023552Y-85369379D02*
X126071171Y-85464617D01*
X126071171Y-85464617D02*
X126166409Y-85512236D01*
X126166409Y-85512236D02*
X126261647Y-85512236D01*
X126261647Y-85512236D02*
X126356885Y-85036046D01*
X126690219Y-85940808D02*
X126023552Y-85940808D01*
X126214028Y-85940808D02*
X126118790Y-85988427D01*
X126118790Y-85988427D02*
X126071171Y-86036046D01*
X126071171Y-86036046D02*
X126023552Y-86131284D01*
X126023552Y-86131284D02*
X126023552Y-86226522D01*
X126642600Y-86512237D02*
X126690219Y-86607475D01*
X126690219Y-86607475D02*
X126690219Y-86797951D01*
X126690219Y-86797951D02*
X126642600Y-86893189D01*
X126642600Y-86893189D02*
X126547361Y-86940808D01*
X126547361Y-86940808D02*
X126499742Y-86940808D01*
X126499742Y-86940808D02*
X126404504Y-86893189D01*
X126404504Y-86893189D02*
X126356885Y-86797951D01*
X126356885Y-86797951D02*
X126356885Y-86655094D01*
X126356885Y-86655094D02*
X126309266Y-86559856D01*
X126309266Y-86559856D02*
X126214028Y-86512237D01*
X126214028Y-86512237D02*
X126166409Y-86512237D01*
X126166409Y-86512237D02*
X126071171Y-86559856D01*
X126071171Y-86559856D02*
X126023552Y-86655094D01*
X126023552Y-86655094D02*
X126023552Y-86797951D01*
X126023552Y-86797951D02*
X126071171Y-86893189D01*
X126023552Y-87226523D02*
X126023552Y-87607475D01*
X125690219Y-87369380D02*
X126547361Y-87369380D01*
X126547361Y-87369380D02*
X126642600Y-87416999D01*
X126642600Y-87416999D02*
X126690219Y-87512237D01*
X126690219Y-87512237D02*
X126690219Y-87607475D01*
X126642600Y-88321761D02*
X126690219Y-88226523D01*
X126690219Y-88226523D02*
X126690219Y-88036047D01*
X126690219Y-88036047D02*
X126642600Y-87940809D01*
X126642600Y-87940809D02*
X126547361Y-87893190D01*
X126547361Y-87893190D02*
X126166409Y-87893190D01*
X126166409Y-87893190D02*
X126071171Y-87940809D01*
X126071171Y-87940809D02*
X126023552Y-88036047D01*
X126023552Y-88036047D02*
X126023552Y-88226523D01*
X126023552Y-88226523D02*
X126071171Y-88321761D01*
X126071171Y-88321761D02*
X126166409Y-88369380D01*
X126166409Y-88369380D02*
X126261647Y-88369380D01*
X126261647Y-88369380D02*
X126356885Y-87893190D01*
X126642600Y-89178904D02*
X126690219Y-89083666D01*
X126690219Y-89083666D02*
X126690219Y-88893190D01*
X126690219Y-88893190D02*
X126642600Y-88797952D01*
X126642600Y-88797952D02*
X126547361Y-88750333D01*
X126547361Y-88750333D02*
X126166409Y-88750333D01*
X126166409Y-88750333D02*
X126071171Y-88797952D01*
X126071171Y-88797952D02*
X126023552Y-88893190D01*
X126023552Y-88893190D02*
X126023552Y-89083666D01*
X126023552Y-89083666D02*
X126071171Y-89178904D01*
X126071171Y-89178904D02*
X126166409Y-89226523D01*
X126166409Y-89226523D02*
X126261647Y-89226523D01*
X126261647Y-89226523D02*
X126356885Y-88750333D01*
X126023552Y-90083666D02*
X126833076Y-90083666D01*
X126833076Y-90083666D02*
X126928314Y-90036047D01*
X126928314Y-90036047D02*
X126975933Y-89988428D01*
X126975933Y-89988428D02*
X127023552Y-89893190D01*
X127023552Y-89893190D02*
X127023552Y-89750333D01*
X127023552Y-89750333D02*
X126975933Y-89655095D01*
X126642600Y-90083666D02*
X126690219Y-89988428D01*
X126690219Y-89988428D02*
X126690219Y-89797952D01*
X126690219Y-89797952D02*
X126642600Y-89702714D01*
X126642600Y-89702714D02*
X126594980Y-89655095D01*
X126594980Y-89655095D02*
X126499742Y-89607476D01*
X126499742Y-89607476D02*
X126214028Y-89607476D01*
X126214028Y-89607476D02*
X126118790Y-89655095D01*
X126118790Y-89655095D02*
X126071171Y-89702714D01*
X126071171Y-89702714D02*
X126023552Y-89797952D01*
X126023552Y-89797952D02*
X126023552Y-89988428D01*
X126023552Y-89988428D02*
X126071171Y-90083666D01*
X126642600Y-90988428D02*
X126690219Y-90893190D01*
X126690219Y-90893190D02*
X126690219Y-90702714D01*
X126690219Y-90702714D02*
X126642600Y-90607476D01*
X126642600Y-90607476D02*
X126594980Y-90559857D01*
X126594980Y-90559857D02*
X126499742Y-90512238D01*
X126499742Y-90512238D02*
X126214028Y-90512238D01*
X126214028Y-90512238D02*
X126118790Y-90559857D01*
X126118790Y-90559857D02*
X126071171Y-90607476D01*
X126071171Y-90607476D02*
X126023552Y-90702714D01*
X126023552Y-90702714D02*
X126023552Y-90893190D01*
X126023552Y-90893190D02*
X126071171Y-90988428D01*
X125642600Y-92131285D02*
X126928314Y-91274143D01*
X126690219Y-92369381D02*
X126023552Y-92893190D01*
X126023552Y-92369381D02*
X126690219Y-92893190D01*
X126690219Y-93274143D02*
X126023552Y-93274143D01*
X125690219Y-93274143D02*
X125737838Y-93226524D01*
X125737838Y-93226524D02*
X125785457Y-93274143D01*
X125785457Y-93274143D02*
X125737838Y-93321762D01*
X125737838Y-93321762D02*
X125690219Y-93274143D01*
X125690219Y-93274143D02*
X125785457Y-93274143D01*
X126690219Y-93893190D02*
X126642600Y-93797952D01*
X126642600Y-93797952D02*
X126547361Y-93750333D01*
X126547361Y-93750333D02*
X125690219Y-93750333D01*
X126690219Y-94274143D02*
X126023552Y-94274143D01*
X125690219Y-94274143D02*
X125737838Y-94226524D01*
X125737838Y-94226524D02*
X125785457Y-94274143D01*
X125785457Y-94274143D02*
X125737838Y-94321762D01*
X125737838Y-94321762D02*
X125690219Y-94274143D01*
X125690219Y-94274143D02*
X125785457Y-94274143D01*
X126023552Y-94750333D02*
X126690219Y-94750333D01*
X126118790Y-94750333D02*
X126071171Y-94797952D01*
X126071171Y-94797952D02*
X126023552Y-94893190D01*
X126023552Y-94893190D02*
X126023552Y-95036047D01*
X126023552Y-95036047D02*
X126071171Y-95131285D01*
X126071171Y-95131285D02*
X126166409Y-95178904D01*
X126166409Y-95178904D02*
X126690219Y-95178904D01*
X126690219Y-95559857D02*
X126023552Y-96083666D01*
X126023552Y-95559857D02*
X126690219Y-96083666D01*
X126309266Y-96464619D02*
X126309266Y-97226524D01*
X126690219Y-97607476D02*
X126023552Y-98131285D01*
X126023552Y-97607476D02*
X126690219Y-98131285D01*
X126642600Y-98940809D02*
X126690219Y-98845571D01*
X126690219Y-98845571D02*
X126690219Y-98655095D01*
X126690219Y-98655095D02*
X126642600Y-98559857D01*
X126642600Y-98559857D02*
X126594980Y-98512238D01*
X126594980Y-98512238D02*
X126499742Y-98464619D01*
X126499742Y-98464619D02*
X126214028Y-98464619D01*
X126214028Y-98464619D02*
X126118790Y-98512238D01*
X126118790Y-98512238D02*
X126071171Y-98559857D01*
X126071171Y-98559857D02*
X126023552Y-98655095D01*
X126023552Y-98655095D02*
X126023552Y-98845571D01*
X126023552Y-98845571D02*
X126071171Y-98940809D01*
X126690219Y-99417000D02*
X126690219Y-99607476D01*
X126690219Y-99607476D02*
X126642600Y-99702714D01*
X126642600Y-99702714D02*
X126594980Y-99750333D01*
X126594980Y-99750333D02*
X126452123Y-99845571D01*
X126452123Y-99845571D02*
X126261647Y-99893190D01*
X126261647Y-99893190D02*
X125880695Y-99893190D01*
X125880695Y-99893190D02*
X125785457Y-99845571D01*
X125785457Y-99845571D02*
X125737838Y-99797952D01*
X125737838Y-99797952D02*
X125690219Y-99702714D01*
X125690219Y-99702714D02*
X125690219Y-99512238D01*
X125690219Y-99512238D02*
X125737838Y-99417000D01*
X125737838Y-99417000D02*
X125785457Y-99369381D01*
X125785457Y-99369381D02*
X125880695Y-99321762D01*
X125880695Y-99321762D02*
X126118790Y-99321762D01*
X126118790Y-99321762D02*
X126214028Y-99369381D01*
X126214028Y-99369381D02*
X126261647Y-99417000D01*
X126261647Y-99417000D02*
X126309266Y-99512238D01*
X126309266Y-99512238D02*
X126309266Y-99702714D01*
X126309266Y-99702714D02*
X126261647Y-99797952D01*
X126261647Y-99797952D02*
X126214028Y-99845571D01*
X126214028Y-99845571D02*
X126118790Y-99893190D01*
X125690219Y-100797952D02*
X125690219Y-100321762D01*
X125690219Y-100321762D02*
X126166409Y-100274143D01*
X126166409Y-100274143D02*
X126118790Y-100321762D01*
X126118790Y-100321762D02*
X126071171Y-100417000D01*
X126071171Y-100417000D02*
X126071171Y-100655095D01*
X126071171Y-100655095D02*
X126118790Y-100750333D01*
X126118790Y-100750333D02*
X126166409Y-100797952D01*
X126166409Y-100797952D02*
X126261647Y-100845571D01*
X126261647Y-100845571D02*
X126499742Y-100845571D01*
X126499742Y-100845571D02*
X126594980Y-100797952D01*
X126594980Y-100797952D02*
X126642600Y-100750333D01*
X126642600Y-100750333D02*
X126690219Y-100655095D01*
X126690219Y-100655095D02*
X126690219Y-100417000D01*
X126690219Y-100417000D02*
X126642600Y-100321762D01*
X126642600Y-100321762D02*
X126594980Y-100274143D01*
X125690219Y-101464619D02*
X125690219Y-101559857D01*
X125690219Y-101559857D02*
X125737838Y-101655095D01*
X125737838Y-101655095D02*
X125785457Y-101702714D01*
X125785457Y-101702714D02*
X125880695Y-101750333D01*
X125880695Y-101750333D02*
X126071171Y-101797952D01*
X126071171Y-101797952D02*
X126309266Y-101797952D01*
X126309266Y-101797952D02*
X126499742Y-101750333D01*
X126499742Y-101750333D02*
X126594980Y-101702714D01*
X126594980Y-101702714D02*
X126642600Y-101655095D01*
X126642600Y-101655095D02*
X126690219Y-101559857D01*
X126690219Y-101559857D02*
X126690219Y-101464619D01*
X126690219Y-101464619D02*
X126642600Y-101369381D01*
X126642600Y-101369381D02*
X126594980Y-101321762D01*
X126594980Y-101321762D02*
X126499742Y-101274143D01*
X126499742Y-101274143D02*
X126309266Y-101226524D01*
X126309266Y-101226524D02*
X126071171Y-101226524D01*
X126071171Y-101226524D02*
X125880695Y-101274143D01*
X125880695Y-101274143D02*
X125785457Y-101321762D01*
X125785457Y-101321762D02*
X125737838Y-101369381D01*
X125737838Y-101369381D02*
X125690219Y-101464619D01*
X125690219Y-102417000D02*
X125690219Y-102512238D01*
X125690219Y-102512238D02*
X125737838Y-102607476D01*
X125737838Y-102607476D02*
X125785457Y-102655095D01*
X125785457Y-102655095D02*
X125880695Y-102702714D01*
X125880695Y-102702714D02*
X126071171Y-102750333D01*
X126071171Y-102750333D02*
X126309266Y-102750333D01*
X126309266Y-102750333D02*
X126499742Y-102702714D01*
X126499742Y-102702714D02*
X126594980Y-102655095D01*
X126594980Y-102655095D02*
X126642600Y-102607476D01*
X126642600Y-102607476D02*
X126690219Y-102512238D01*
X126690219Y-102512238D02*
X126690219Y-102417000D01*
X126690219Y-102417000D02*
X126642600Y-102321762D01*
X126642600Y-102321762D02*
X126594980Y-102274143D01*
X126594980Y-102274143D02*
X126499742Y-102226524D01*
X126499742Y-102226524D02*
X126309266Y-102178905D01*
X126309266Y-102178905D02*
X126071171Y-102178905D01*
X126071171Y-102178905D02*
X125880695Y-102226524D01*
X125880695Y-102226524D02*
X125785457Y-102274143D01*
X125785457Y-102274143D02*
X125737838Y-102321762D01*
X125737838Y-102321762D02*
X125690219Y-102417000D01*
X126690219Y-103083667D02*
X126023552Y-103607476D01*
X126023552Y-103083667D02*
X126690219Y-103607476D01*
X126690219Y-104131286D02*
X126642600Y-104036048D01*
X126642600Y-104036048D02*
X126547361Y-103988429D01*
X126547361Y-103988429D02*
X125690219Y-103988429D01*
X126309266Y-104512239D02*
X126309266Y-105274144D01*
X126023552Y-105750334D02*
X127023552Y-105750334D01*
X126071171Y-105750334D02*
X126023552Y-105845572D01*
X126023552Y-105845572D02*
X126023552Y-106036048D01*
X126023552Y-106036048D02*
X126071171Y-106131286D01*
X126071171Y-106131286D02*
X126118790Y-106178905D01*
X126118790Y-106178905D02*
X126214028Y-106226524D01*
X126214028Y-106226524D02*
X126499742Y-106226524D01*
X126499742Y-106226524D02*
X126594980Y-106178905D01*
X126594980Y-106178905D02*
X126642600Y-106131286D01*
X126642600Y-106131286D02*
X126690219Y-106036048D01*
X126690219Y-106036048D02*
X126690219Y-105845572D01*
X126690219Y-105845572D02*
X126642600Y-105750334D01*
X126690219Y-106655096D02*
X126023552Y-106655096D01*
X126214028Y-106655096D02*
X126118790Y-106702715D01*
X126118790Y-106702715D02*
X126071171Y-106750334D01*
X126071171Y-106750334D02*
X126023552Y-106845572D01*
X126023552Y-106845572D02*
X126023552Y-106940810D01*
X126690219Y-107417001D02*
X126642600Y-107321763D01*
X126642600Y-107321763D02*
X126594980Y-107274144D01*
X126594980Y-107274144D02*
X126499742Y-107226525D01*
X126499742Y-107226525D02*
X126214028Y-107226525D01*
X126214028Y-107226525D02*
X126118790Y-107274144D01*
X126118790Y-107274144D02*
X126071171Y-107321763D01*
X126071171Y-107321763D02*
X126023552Y-107417001D01*
X126023552Y-107417001D02*
X126023552Y-107559858D01*
X126023552Y-107559858D02*
X126071171Y-107655096D01*
X126071171Y-107655096D02*
X126118790Y-107702715D01*
X126118790Y-107702715D02*
X126214028Y-107750334D01*
X126214028Y-107750334D02*
X126499742Y-107750334D01*
X126499742Y-107750334D02*
X126594980Y-107702715D01*
X126594980Y-107702715D02*
X126642600Y-107655096D01*
X126642600Y-107655096D02*
X126690219Y-107559858D01*
X126690219Y-107559858D02*
X126690219Y-107417001D01*
X126023552Y-108607477D02*
X126833076Y-108607477D01*
X126833076Y-108607477D02*
X126928314Y-108559858D01*
X126928314Y-108559858D02*
X126975933Y-108512239D01*
X126975933Y-108512239D02*
X127023552Y-108417001D01*
X127023552Y-108417001D02*
X127023552Y-108274144D01*
X127023552Y-108274144D02*
X126975933Y-108178906D01*
X126642600Y-108607477D02*
X126690219Y-108512239D01*
X126690219Y-108512239D02*
X126690219Y-108321763D01*
X126690219Y-108321763D02*
X126642600Y-108226525D01*
X126642600Y-108226525D02*
X126594980Y-108178906D01*
X126594980Y-108178906D02*
X126499742Y-108131287D01*
X126499742Y-108131287D02*
X126214028Y-108131287D01*
X126214028Y-108131287D02*
X126118790Y-108178906D01*
X126118790Y-108178906D02*
X126071171Y-108226525D01*
X126071171Y-108226525D02*
X126023552Y-108321763D01*
X126023552Y-108321763D02*
X126023552Y-108512239D01*
X126023552Y-108512239D02*
X126071171Y-108607477D01*
X126690219Y-109083668D02*
X126023552Y-109083668D01*
X126214028Y-109083668D02*
X126118790Y-109131287D01*
X126118790Y-109131287D02*
X126071171Y-109178906D01*
X126071171Y-109178906D02*
X126023552Y-109274144D01*
X126023552Y-109274144D02*
X126023552Y-109369382D01*
X126690219Y-110131287D02*
X126166409Y-110131287D01*
X126166409Y-110131287D02*
X126071171Y-110083668D01*
X126071171Y-110083668D02*
X126023552Y-109988430D01*
X126023552Y-109988430D02*
X126023552Y-109797954D01*
X126023552Y-109797954D02*
X126071171Y-109702716D01*
X126642600Y-110131287D02*
X126690219Y-110036049D01*
X126690219Y-110036049D02*
X126690219Y-109797954D01*
X126690219Y-109797954D02*
X126642600Y-109702716D01*
X126642600Y-109702716D02*
X126547361Y-109655097D01*
X126547361Y-109655097D02*
X126452123Y-109655097D01*
X126452123Y-109655097D02*
X126356885Y-109702716D01*
X126356885Y-109702716D02*
X126309266Y-109797954D01*
X126309266Y-109797954D02*
X126309266Y-110036049D01*
X126309266Y-110036049D02*
X126261647Y-110131287D01*
X126690219Y-110607478D02*
X126023552Y-110607478D01*
X126118790Y-110607478D02*
X126071171Y-110655097D01*
X126071171Y-110655097D02*
X126023552Y-110750335D01*
X126023552Y-110750335D02*
X126023552Y-110893192D01*
X126023552Y-110893192D02*
X126071171Y-110988430D01*
X126071171Y-110988430D02*
X126166409Y-111036049D01*
X126166409Y-111036049D02*
X126690219Y-111036049D01*
X126166409Y-111036049D02*
X126071171Y-111083668D01*
X126071171Y-111083668D02*
X126023552Y-111178906D01*
X126023552Y-111178906D02*
X126023552Y-111321763D01*
X126023552Y-111321763D02*
X126071171Y-111417002D01*
X126071171Y-111417002D02*
X126166409Y-111464621D01*
X126166409Y-111464621D02*
X126690219Y-111464621D01*
X126690219Y-111940811D02*
X126023552Y-111940811D01*
X126118790Y-111940811D02*
X126071171Y-111988430D01*
X126071171Y-111988430D02*
X126023552Y-112083668D01*
X126023552Y-112083668D02*
X126023552Y-112226525D01*
X126023552Y-112226525D02*
X126071171Y-112321763D01*
X126071171Y-112321763D02*
X126166409Y-112369382D01*
X126166409Y-112369382D02*
X126690219Y-112369382D01*
X126166409Y-112369382D02*
X126071171Y-112417001D01*
X126071171Y-112417001D02*
X126023552Y-112512239D01*
X126023552Y-112512239D02*
X126023552Y-112655096D01*
X126023552Y-112655096D02*
X126071171Y-112750335D01*
X126071171Y-112750335D02*
X126166409Y-112797954D01*
X126166409Y-112797954D02*
X126690219Y-112797954D01*
X126690219Y-113274144D02*
X126023552Y-113274144D01*
X125690219Y-113274144D02*
X125737838Y-113226525D01*
X125737838Y-113226525D02*
X125785457Y-113274144D01*
X125785457Y-113274144D02*
X125737838Y-113321763D01*
X125737838Y-113321763D02*
X125690219Y-113274144D01*
X125690219Y-113274144D02*
X125785457Y-113274144D01*
X126023552Y-113750334D02*
X126690219Y-113750334D01*
X126118790Y-113750334D02*
X126071171Y-113797953D01*
X126071171Y-113797953D02*
X126023552Y-113893191D01*
X126023552Y-113893191D02*
X126023552Y-114036048D01*
X126023552Y-114036048D02*
X126071171Y-114131286D01*
X126071171Y-114131286D02*
X126166409Y-114178905D01*
X126166409Y-114178905D02*
X126690219Y-114178905D01*
X126023552Y-115083667D02*
X126833076Y-115083667D01*
X126833076Y-115083667D02*
X126928314Y-115036048D01*
X126928314Y-115036048D02*
X126975933Y-114988429D01*
X126975933Y-114988429D02*
X127023552Y-114893191D01*
X127023552Y-114893191D02*
X127023552Y-114750334D01*
X127023552Y-114750334D02*
X126975933Y-114655096D01*
X126642600Y-115083667D02*
X126690219Y-114988429D01*
X126690219Y-114988429D02*
X126690219Y-114797953D01*
X126690219Y-114797953D02*
X126642600Y-114702715D01*
X126642600Y-114702715D02*
X126594980Y-114655096D01*
X126594980Y-114655096D02*
X126499742Y-114607477D01*
X126499742Y-114607477D02*
X126214028Y-114607477D01*
X126214028Y-114607477D02*
X126118790Y-114655096D01*
X126118790Y-114655096D02*
X126071171Y-114702715D01*
X126071171Y-114702715D02*
X126023552Y-114797953D01*
X126023552Y-114797953D02*
X126023552Y-114988429D01*
X126023552Y-114988429D02*
X126071171Y-115083667D01*
X126309266Y-115559858D02*
X126309266Y-116321763D01*
X126690219Y-117226524D02*
X126166409Y-117226524D01*
X126166409Y-117226524D02*
X126071171Y-117178905D01*
X126071171Y-117178905D02*
X126023552Y-117083667D01*
X126023552Y-117083667D02*
X126023552Y-116893191D01*
X126023552Y-116893191D02*
X126071171Y-116797953D01*
X126642600Y-117226524D02*
X126690219Y-117131286D01*
X126690219Y-117131286D02*
X126690219Y-116893191D01*
X126690219Y-116893191D02*
X126642600Y-116797953D01*
X126642600Y-116797953D02*
X126547361Y-116750334D01*
X126547361Y-116750334D02*
X126452123Y-116750334D01*
X126452123Y-116750334D02*
X126356885Y-116797953D01*
X126356885Y-116797953D02*
X126309266Y-116893191D01*
X126309266Y-116893191D02*
X126309266Y-117131286D01*
X126309266Y-117131286D02*
X126261647Y-117226524D01*
X126690219Y-118131286D02*
X125690219Y-118131286D01*
X126642600Y-118131286D02*
X126690219Y-118036048D01*
X126690219Y-118036048D02*
X126690219Y-117845572D01*
X126690219Y-117845572D02*
X126642600Y-117750334D01*
X126642600Y-117750334D02*
X126594980Y-117702715D01*
X126594980Y-117702715D02*
X126499742Y-117655096D01*
X126499742Y-117655096D02*
X126214028Y-117655096D01*
X126214028Y-117655096D02*
X126118790Y-117702715D01*
X126118790Y-117702715D02*
X126071171Y-117750334D01*
X126071171Y-117750334D02*
X126023552Y-117845572D01*
X126023552Y-117845572D02*
X126023552Y-118036048D01*
X126023552Y-118036048D02*
X126071171Y-118131286D01*
X126690219Y-119036048D02*
X126166409Y-119036048D01*
X126166409Y-119036048D02*
X126071171Y-118988429D01*
X126071171Y-118988429D02*
X126023552Y-118893191D01*
X126023552Y-118893191D02*
X126023552Y-118702715D01*
X126023552Y-118702715D02*
X126071171Y-118607477D01*
X126642600Y-119036048D02*
X126690219Y-118940810D01*
X126690219Y-118940810D02*
X126690219Y-118702715D01*
X126690219Y-118702715D02*
X126642600Y-118607477D01*
X126642600Y-118607477D02*
X126547361Y-118559858D01*
X126547361Y-118559858D02*
X126452123Y-118559858D01*
X126452123Y-118559858D02*
X126356885Y-118607477D01*
X126356885Y-118607477D02*
X126309266Y-118702715D01*
X126309266Y-118702715D02*
X126309266Y-118940810D01*
X126309266Y-118940810D02*
X126261647Y-119036048D01*
X126023552Y-119512239D02*
X127023552Y-119512239D01*
X126071171Y-119512239D02*
X126023552Y-119607477D01*
X126023552Y-119607477D02*
X126023552Y-119797953D01*
X126023552Y-119797953D02*
X126071171Y-119893191D01*
X126071171Y-119893191D02*
X126118790Y-119940810D01*
X126118790Y-119940810D02*
X126214028Y-119988429D01*
X126214028Y-119988429D02*
X126499742Y-119988429D01*
X126499742Y-119988429D02*
X126594980Y-119940810D01*
X126594980Y-119940810D02*
X126642600Y-119893191D01*
X126642600Y-119893191D02*
X126690219Y-119797953D01*
X126690219Y-119797953D02*
X126690219Y-119607477D01*
X126690219Y-119607477D02*
X126642600Y-119512239D01*
X126023552Y-120274144D02*
X126023552Y-120655096D01*
X125690219Y-120417001D02*
X126547361Y-120417001D01*
X126547361Y-120417001D02*
X126642600Y-120464620D01*
X126642600Y-120464620D02*
X126690219Y-120559858D01*
X126690219Y-120559858D02*
X126690219Y-120655096D01*
X126642600Y-121369382D02*
X126690219Y-121274144D01*
X126690219Y-121274144D02*
X126690219Y-121083668D01*
X126690219Y-121083668D02*
X126642600Y-120988430D01*
X126642600Y-120988430D02*
X126547361Y-120940811D01*
X126547361Y-120940811D02*
X126166409Y-120940811D01*
X126166409Y-120940811D02*
X126071171Y-120988430D01*
X126071171Y-120988430D02*
X126023552Y-121083668D01*
X126023552Y-121083668D02*
X126023552Y-121274144D01*
X126023552Y-121274144D02*
X126071171Y-121369382D01*
X126071171Y-121369382D02*
X126166409Y-121417001D01*
X126166409Y-121417001D02*
X126261647Y-121417001D01*
X126261647Y-121417001D02*
X126356885Y-120940811D01*
X126690219Y-121845573D02*
X126023552Y-121845573D01*
X126214028Y-121845573D02*
X126118790Y-121893192D01*
X126118790Y-121893192D02*
X126071171Y-121940811D01*
X126071171Y-121940811D02*
X126023552Y-122036049D01*
X126023552Y-122036049D02*
X126023552Y-122131287D01*
D10*
X146468180Y-147253077D02*
X146468180Y-146681649D01*
X145468180Y-146967363D02*
X146468180Y-146967363D01*
X145468180Y-146348315D02*
X146468180Y-146348315D01*
X146468180Y-146348315D02*
X146468180Y-146110220D01*
X146468180Y-146110220D02*
X146420561Y-145967363D01*
X146420561Y-145967363D02*
X146325323Y-145872125D01*
X146325323Y-145872125D02*
X146230085Y-145824506D01*
X146230085Y-145824506D02*
X146039609Y-145776887D01*
X146039609Y-145776887D02*
X145896752Y-145776887D01*
X145896752Y-145776887D02*
X145706276Y-145824506D01*
X145706276Y-145824506D02*
X145611038Y-145872125D01*
X145611038Y-145872125D02*
X145515800Y-145967363D01*
X145515800Y-145967363D02*
X145468180Y-146110220D01*
X145468180Y-146110220D02*
X145468180Y-146348315D01*
X146468180Y-145157839D02*
X146468180Y-144967363D01*
X146468180Y-144967363D02*
X146420561Y-144872125D01*
X146420561Y-144872125D02*
X146325323Y-144776887D01*
X146325323Y-144776887D02*
X146134847Y-144729268D01*
X146134847Y-144729268D02*
X145801514Y-144729268D01*
X145801514Y-144729268D02*
X145611038Y-144776887D01*
X145611038Y-144776887D02*
X145515800Y-144872125D01*
X145515800Y-144872125D02*
X145468180Y-144967363D01*
X145468180Y-144967363D02*
X145468180Y-145157839D01*
X145468180Y-145157839D02*
X145515800Y-145253077D01*
X145515800Y-145253077D02*
X145611038Y-145348315D01*
X145611038Y-145348315D02*
X145801514Y-145395934D01*
X145801514Y-145395934D02*
X146134847Y-145395934D01*
X146134847Y-145395934D02*
X146325323Y-145348315D01*
X146325323Y-145348315D02*
X146420561Y-145253077D01*
X146420561Y-145253077D02*
X146468180Y-145157839D01*
X148237411Y-134122438D02*
X148332649Y-134074819D01*
X148332649Y-134074819D02*
X148475506Y-134074819D01*
X148475506Y-134074819D02*
X148618363Y-134122438D01*
X148618363Y-134122438D02*
X148713601Y-134217676D01*
X148713601Y-134217676D02*
X148761220Y-134312914D01*
X148761220Y-134312914D02*
X148808839Y-134503390D01*
X148808839Y-134503390D02*
X148808839Y-134646247D01*
X148808839Y-134646247D02*
X148761220Y-134836723D01*
X148761220Y-134836723D02*
X148713601Y-134931961D01*
X148713601Y-134931961D02*
X148618363Y-135027200D01*
X148618363Y-135027200D02*
X148475506Y-135074819D01*
X148475506Y-135074819D02*
X148380268Y-135074819D01*
X148380268Y-135074819D02*
X148237411Y-135027200D01*
X148237411Y-135027200D02*
X148189792Y-134979580D01*
X148189792Y-134979580D02*
X148189792Y-134646247D01*
X148189792Y-134646247D02*
X148380268Y-134646247D01*
X147761220Y-135074819D02*
X147761220Y-134074819D01*
X147761220Y-134074819D02*
X147189792Y-135074819D01*
X147189792Y-135074819D02*
X147189792Y-134074819D01*
X146713601Y-135074819D02*
X146713601Y-134074819D01*
X146713601Y-134074819D02*
X146475506Y-134074819D01*
X146475506Y-134074819D02*
X146332649Y-134122438D01*
X146332649Y-134122438D02*
X146237411Y-134217676D01*
X146237411Y-134217676D02*
X146189792Y-134312914D01*
X146189792Y-134312914D02*
X146142173Y-134503390D01*
X146142173Y-134503390D02*
X146142173Y-134646247D01*
X146142173Y-134646247D02*
X146189792Y-134836723D01*
X146189792Y-134836723D02*
X146237411Y-134931961D01*
X146237411Y-134931961D02*
X146332649Y-135027200D01*
X146332649Y-135027200D02*
X146475506Y-135074819D01*
X146475506Y-135074819D02*
X146713601Y-135074819D01*
X127243561Y-146713411D02*
X127291180Y-146808649D01*
X127291180Y-146808649D02*
X127291180Y-146951506D01*
X127291180Y-146951506D02*
X127243561Y-147094363D01*
X127243561Y-147094363D02*
X127148323Y-147189601D01*
X127148323Y-147189601D02*
X127053085Y-147237220D01*
X127053085Y-147237220D02*
X126862609Y-147284839D01*
X126862609Y-147284839D02*
X126719752Y-147284839D01*
X126719752Y-147284839D02*
X126529276Y-147237220D01*
X126529276Y-147237220D02*
X126434038Y-147189601D01*
X126434038Y-147189601D02*
X126338800Y-147094363D01*
X126338800Y-147094363D02*
X126291180Y-146951506D01*
X126291180Y-146951506D02*
X126291180Y-146856268D01*
X126291180Y-146856268D02*
X126338800Y-146713411D01*
X126338800Y-146713411D02*
X126386419Y-146665792D01*
X126386419Y-146665792D02*
X126719752Y-146665792D01*
X126719752Y-146665792D02*
X126719752Y-146856268D01*
X126291180Y-146237220D02*
X127291180Y-146237220D01*
X127291180Y-146237220D02*
X126291180Y-145665792D01*
X126291180Y-145665792D02*
X127291180Y-145665792D01*
X126291180Y-145189601D02*
X127291180Y-145189601D01*
X127291180Y-145189601D02*
X127291180Y-144951506D01*
X127291180Y-144951506D02*
X127243561Y-144808649D01*
X127243561Y-144808649D02*
X127148323Y-144713411D01*
X127148323Y-144713411D02*
X127053085Y-144665792D01*
X127053085Y-144665792D02*
X126862609Y-144618173D01*
X126862609Y-144618173D02*
X126719752Y-144618173D01*
X126719752Y-144618173D02*
X126529276Y-144665792D01*
X126529276Y-144665792D02*
X126434038Y-144713411D01*
X126434038Y-144713411D02*
X126338800Y-144808649D01*
X126338800Y-144808649D02*
X126291180Y-144951506D01*
X126291180Y-144951506D02*
X126291180Y-145189601D01*
X139737180Y-139125077D02*
X139737180Y-138553649D01*
X138737180Y-138839363D02*
X139737180Y-138839363D01*
X138737180Y-138220315D02*
X139737180Y-138220315D01*
X139737180Y-138220315D02*
X139737180Y-137982220D01*
X139737180Y-137982220D02*
X139689561Y-137839363D01*
X139689561Y-137839363D02*
X139594323Y-137744125D01*
X139594323Y-137744125D02*
X139499085Y-137696506D01*
X139499085Y-137696506D02*
X139308609Y-137648887D01*
X139308609Y-137648887D02*
X139165752Y-137648887D01*
X139165752Y-137648887D02*
X138975276Y-137696506D01*
X138975276Y-137696506D02*
X138880038Y-137744125D01*
X138880038Y-137744125D02*
X138784800Y-137839363D01*
X138784800Y-137839363D02*
X138737180Y-137982220D01*
X138737180Y-137982220D02*
X138737180Y-138220315D01*
X138737180Y-137220315D02*
X139737180Y-137220315D01*
X147865180Y-147253077D02*
X147865180Y-146681649D01*
X146865180Y-146967363D02*
X147865180Y-146967363D01*
X146865180Y-146348315D02*
X147865180Y-146348315D01*
X147865180Y-146348315D02*
X147865180Y-146110220D01*
X147865180Y-146110220D02*
X147817561Y-145967363D01*
X147817561Y-145967363D02*
X147722323Y-145872125D01*
X147722323Y-145872125D02*
X147627085Y-145824506D01*
X147627085Y-145824506D02*
X147436609Y-145776887D01*
X147436609Y-145776887D02*
X147293752Y-145776887D01*
X147293752Y-145776887D02*
X147103276Y-145824506D01*
X147103276Y-145824506D02*
X147008038Y-145872125D01*
X147008038Y-145872125D02*
X146912800Y-145967363D01*
X146912800Y-145967363D02*
X146865180Y-146110220D01*
X146865180Y-146110220D02*
X146865180Y-146348315D01*
X146865180Y-145348315D02*
X147865180Y-145348315D01*
X149389180Y-147253077D02*
X149389180Y-146681649D01*
X148389180Y-146967363D02*
X149389180Y-146967363D01*
X148389180Y-146348315D02*
X149389180Y-146348315D01*
X149389180Y-146348315D02*
X148674895Y-146014982D01*
X148674895Y-146014982D02*
X149389180Y-145681649D01*
X149389180Y-145681649D02*
X148389180Y-145681649D01*
X148436800Y-145253077D02*
X148389180Y-145110220D01*
X148389180Y-145110220D02*
X148389180Y-144872125D01*
X148389180Y-144872125D02*
X148436800Y-144776887D01*
X148436800Y-144776887D02*
X148484419Y-144729268D01*
X148484419Y-144729268D02*
X148579657Y-144681649D01*
X148579657Y-144681649D02*
X148674895Y-144681649D01*
X148674895Y-144681649D02*
X148770133Y-144729268D01*
X148770133Y-144729268D02*
X148817752Y-144776887D01*
X148817752Y-144776887D02*
X148865371Y-144872125D01*
X148865371Y-144872125D02*
X148912990Y-145062601D01*
X148912990Y-145062601D02*
X148960609Y-145157839D01*
X148960609Y-145157839D02*
X149008228Y-145205458D01*
X149008228Y-145205458D02*
X149103466Y-145253077D01*
X149103466Y-145253077D02*
X149198704Y-145253077D01*
X149198704Y-145253077D02*
X149293942Y-145205458D01*
X149293942Y-145205458D02*
X149341561Y-145157839D01*
X149341561Y-145157839D02*
X149389180Y-145062601D01*
X149389180Y-145062601D02*
X149389180Y-144824506D01*
X149389180Y-144824506D02*
X149341561Y-144681649D01*
M02*
