%TF.GenerationSoftware,KiCad,Pcbnew,7.0.11*%
%TF.CreationDate,2024-03-10T23:57:52-05:00*%
%TF.ProjectId,XGECU-QFP44-Adapter,58474543-552d-4514-9650-34342d416461,rev?*%
%TF.SameCoordinates,Original*%
%TF.FileFunction,Soldermask,Top*%
%TF.FilePolarity,Negative*%
%FSLAX46Y46*%
G04 Gerber Fmt 4.6, Leading zero omitted, Abs format (unit mm)*
G04 Created by KiCad (PCBNEW 7.0.11) date 2024-03-10 23:57:52*
%MOMM*%
%LPD*%
G01*
G04 APERTURE LIST*
G04 Aperture macros list*
%AMRoundRect*
0 Rectangle with rounded corners*
0 $1 Rounding radius*
0 $2 $3 $4 $5 $6 $7 $8 $9 X,Y pos of 4 corners*
0 Add a 4 corners polygon primitive as box body*
4,1,4,$2,$3,$4,$5,$6,$7,$8,$9,$2,$3,0*
0 Add four circle primitives for the rounded corners*
1,1,$1+$1,$2,$3*
1,1,$1+$1,$4,$5*
1,1,$1+$1,$6,$7*
1,1,$1+$1,$8,$9*
0 Add four rect primitives between the rounded corners*
20,1,$1+$1,$2,$3,$4,$5,0*
20,1,$1+$1,$4,$5,$6,$7,0*
20,1,$1+$1,$6,$7,$8,$9,0*
20,1,$1+$1,$8,$9,$2,$3,0*%
G04 Aperture macros list end*
%ADD10C,1.524000*%
%ADD11RoundRect,0.250000X-0.425000X0.537500X-0.425000X-0.537500X0.425000X-0.537500X0.425000X0.537500X0*%
%ADD12RoundRect,0.250000X-0.475000X0.337500X-0.475000X-0.337500X0.475000X-0.337500X0.475000X0.337500X0*%
%ADD13R,3.500000X3.500000*%
%ADD14RoundRect,0.750000X-0.750000X-1.000000X0.750000X-1.000000X0.750000X1.000000X-0.750000X1.000000X0*%
%ADD15RoundRect,0.875000X-0.875000X-0.875000X0.875000X-0.875000X0.875000X0.875000X-0.875000X0.875000X0*%
%ADD16RoundRect,0.250000X-0.350000X-0.450000X0.350000X-0.450000X0.350000X0.450000X-0.350000X0.450000X0*%
%ADD17R,1.700000X1.700000*%
%ADD18O,1.700000X1.700000*%
%ADD19C,1.800000*%
%ADD20R,1.800000X1.800000*%
%ADD21R,1.500000X2.000000*%
%ADD22R,3.800000X2.000000*%
%ADD23R,1.308000X1.308000*%
%ADD24C,1.308000*%
%ADD25RoundRect,0.250000X0.600000X-0.600000X0.600000X0.600000X-0.600000X0.600000X-0.600000X-0.600000X0*%
%ADD26C,1.700000*%
G04 APERTURE END LIST*
D10*
%TO.C,U1*%
X129540000Y-86765000D03*
X129540000Y-89305000D03*
X129540000Y-91845000D03*
X129540000Y-94385000D03*
X129540000Y-96925000D03*
X129540000Y-99465000D03*
X129540000Y-102005000D03*
X129540000Y-104545000D03*
X129540000Y-107085000D03*
X129540000Y-109625000D03*
X129540000Y-112165000D03*
X129540000Y-114705000D03*
X129540000Y-117245000D03*
X129540000Y-119785000D03*
X129540000Y-122325000D03*
X129540000Y-124865000D03*
X144780000Y-124865000D03*
X144780000Y-122325000D03*
X144780000Y-119785000D03*
X144780000Y-117245000D03*
X144780000Y-114705000D03*
X144780000Y-112165000D03*
X144780000Y-109625000D03*
X144780000Y-107085000D03*
X144780000Y-104545000D03*
X144780000Y-102005000D03*
X144780000Y-99465000D03*
X144780000Y-96925000D03*
X144780000Y-94385000D03*
X144780000Y-91845000D03*
X144780000Y-89305000D03*
X144780000Y-86765000D03*
X144780000Y-84225000D03*
X144780000Y-81685000D03*
X144780000Y-79145000D03*
X144780000Y-76605000D03*
X144780000Y-74065000D03*
X144780000Y-71525000D03*
X129540000Y-71525000D03*
X129540000Y-74065000D03*
X129540000Y-76605000D03*
X129540000Y-79145000D03*
X129540000Y-81685000D03*
X129540000Y-84225000D03*
%TD*%
D11*
%TO.C,C1*%
X140208000Y-82382500D03*
X140208000Y-85257500D03*
%TD*%
D12*
%TO.C,C3*%
X137922000Y-119612500D03*
X137922000Y-121687500D03*
%TD*%
D13*
%TO.C,J1*%
X133299200Y-60477400D03*
D14*
X127299200Y-60477400D03*
D15*
X130299200Y-65177400D03*
%TD*%
D16*
%TO.C,R1*%
X137404600Y-62255400D03*
X139404600Y-62255400D03*
%TD*%
D17*
%TO.C,JP1*%
X142352000Y-67132200D03*
D18*
X139812000Y-67132200D03*
X137272000Y-67132200D03*
%TD*%
D17*
%TO.C,JP2*%
X139954000Y-104648000D03*
D18*
X139954000Y-102108000D03*
X139954000Y-99568000D03*
%TD*%
D19*
%TO.C,SW1*%
X142614200Y-57875800D03*
X142614200Y-60375800D03*
X142614200Y-62875800D03*
X148114200Y-57875800D03*
X148114200Y-60375800D03*
X148114200Y-62875800D03*
%TD*%
D11*
%TO.C,C2*%
X136906000Y-82382500D03*
X136906000Y-85257500D03*
%TD*%
D20*
%TO.C,D1*%
X136880600Y-58267600D03*
D19*
X139420600Y-58267600D03*
%TD*%
D21*
%TO.C,U3*%
X135622000Y-79350000D03*
X137922000Y-79350000D03*
D22*
X137922000Y-73050000D03*
D21*
X140222000Y-79350000D03*
%TD*%
D23*
%TO.C,J4*%
X131160000Y-142351000D03*
D24*
X131160000Y-140351000D03*
X133160000Y-142351000D03*
X133160000Y-140351000D03*
X135160000Y-142351000D03*
X135160000Y-140351000D03*
X137160000Y-142351000D03*
X137160000Y-140351000D03*
X139160000Y-142351000D03*
X139160000Y-140351000D03*
X141160000Y-142351000D03*
X141160000Y-140351000D03*
X143160000Y-142351000D03*
X143160000Y-140351000D03*
%TD*%
D12*
%TO.C,C4*%
X137922000Y-92180500D03*
X137922000Y-94255500D03*
%TD*%
D25*
%TO.C,J2*%
X129540000Y-134620000D03*
D26*
X129540000Y-132080000D03*
X132080000Y-134620000D03*
X132080000Y-132080000D03*
X134620000Y-134620000D03*
X134620000Y-132080000D03*
X137160000Y-134620000D03*
X137160000Y-132080000D03*
X139700000Y-134620000D03*
X139700000Y-132080000D03*
X142240000Y-134620000D03*
X142240000Y-132080000D03*
X144780000Y-134620000D03*
X144780000Y-132080000D03*
%TD*%
D17*
%TO.C,J3*%
X143510000Y-146050000D03*
D18*
X140970000Y-146050000D03*
X138430000Y-146050000D03*
X135890000Y-146050000D03*
X133350000Y-146050000D03*
X130810000Y-146050000D03*
%TD*%
M02*
