%TF.GenerationSoftware,KiCad,Pcbnew,7.0.11*%
%TF.CreationDate,2024-03-10T23:57:51-05:00*%
%TF.ProjectId,XGECU-QFP44-Adapter,58474543-552d-4514-9650-34342d416461,rev?*%
%TF.SameCoordinates,Original*%
%TF.FileFunction,Copper,L1,Top*%
%TF.FilePolarity,Positive*%
%FSLAX46Y46*%
G04 Gerber Fmt 4.6, Leading zero omitted, Abs format (unit mm)*
G04 Created by KiCad (PCBNEW 7.0.11) date 2024-03-10 23:57:51*
%MOMM*%
%LPD*%
G01*
G04 APERTURE LIST*
G04 Aperture macros list*
%AMRoundRect*
0 Rectangle with rounded corners*
0 $1 Rounding radius*
0 $2 $3 $4 $5 $6 $7 $8 $9 X,Y pos of 4 corners*
0 Add a 4 corners polygon primitive as box body*
4,1,4,$2,$3,$4,$5,$6,$7,$8,$9,$2,$3,0*
0 Add four circle primitives for the rounded corners*
1,1,$1+$1,$2,$3*
1,1,$1+$1,$4,$5*
1,1,$1+$1,$6,$7*
1,1,$1+$1,$8,$9*
0 Add four rect primitives between the rounded corners*
20,1,$1+$1,$2,$3,$4,$5,0*
20,1,$1+$1,$4,$5,$6,$7,0*
20,1,$1+$1,$6,$7,$8,$9,0*
20,1,$1+$1,$8,$9,$2,$3,0*%
G04 Aperture macros list end*
%TA.AperFunction,ComponentPad*%
%ADD10C,1.524000*%
%TD*%
%TA.AperFunction,SMDPad,CuDef*%
%ADD11RoundRect,0.250000X-0.425000X0.537500X-0.425000X-0.537500X0.425000X-0.537500X0.425000X0.537500X0*%
%TD*%
%TA.AperFunction,SMDPad,CuDef*%
%ADD12RoundRect,0.250000X-0.475000X0.337500X-0.475000X-0.337500X0.475000X-0.337500X0.475000X0.337500X0*%
%TD*%
%TA.AperFunction,ComponentPad*%
%ADD13R,3.500000X3.500000*%
%TD*%
%TA.AperFunction,ComponentPad*%
%ADD14RoundRect,0.750000X-0.750000X-1.000000X0.750000X-1.000000X0.750000X1.000000X-0.750000X1.000000X0*%
%TD*%
%TA.AperFunction,ComponentPad*%
%ADD15RoundRect,0.875000X-0.875000X-0.875000X0.875000X-0.875000X0.875000X0.875000X-0.875000X0.875000X0*%
%TD*%
%TA.AperFunction,SMDPad,CuDef*%
%ADD16RoundRect,0.250000X-0.350000X-0.450000X0.350000X-0.450000X0.350000X0.450000X-0.350000X0.450000X0*%
%TD*%
%TA.AperFunction,ComponentPad*%
%ADD17R,1.700000X1.700000*%
%TD*%
%TA.AperFunction,ComponentPad*%
%ADD18O,1.700000X1.700000*%
%TD*%
%TA.AperFunction,ComponentPad*%
%ADD19C,1.800000*%
%TD*%
%TA.AperFunction,ComponentPad*%
%ADD20R,1.800000X1.800000*%
%TD*%
%TA.AperFunction,SMDPad,CuDef*%
%ADD21R,1.500000X2.000000*%
%TD*%
%TA.AperFunction,SMDPad,CuDef*%
%ADD22R,3.800000X2.000000*%
%TD*%
%TA.AperFunction,ComponentPad*%
%ADD23R,1.308000X1.308000*%
%TD*%
%TA.AperFunction,ComponentPad*%
%ADD24C,1.308000*%
%TD*%
%TA.AperFunction,ComponentPad*%
%ADD25RoundRect,0.250000X0.600000X-0.600000X0.600000X0.600000X-0.600000X0.600000X-0.600000X-0.600000X0*%
%TD*%
%TA.AperFunction,ComponentPad*%
%ADD26C,1.700000*%
%TD*%
%TA.AperFunction,ViaPad*%
%ADD27C,0.800000*%
%TD*%
%TA.AperFunction,Conductor*%
%ADD28C,0.250000*%
%TD*%
%TA.AperFunction,Conductor*%
%ADD29C,0.800000*%
%TD*%
%TA.AperFunction,Conductor*%
%ADD30C,0.500000*%
%TD*%
%TA.AperFunction,Conductor*%
%ADD31C,1.000000*%
%TD*%
G04 APERTURE END LIST*
D10*
%TO.P,U1,1,IO1-14/GCK3*%
%TO.N,unconnected-(U1-IO1-14{slash}GCK3-Pad1)*%
X129540000Y-86765000D03*
%TO.P,U1,2,IO1-15*%
%TO.N,unconnected-(U1-IO1-15-Pad2)*%
X129540000Y-89305000D03*
%TO.P,U1,3,IO1-17*%
%TO.N,unconnected-(U1-IO1-17-Pad3)*%
X129540000Y-91845000D03*
%TO.P,U1,4,GND*%
%TO.N,GND*%
X129540000Y-94385000D03*
%TO.P,U1,5,IO3-2*%
%TO.N,unconnected-(U1-IO3-2-Pad5)*%
X129540000Y-96925000D03*
%TO.P,U1,6,IO3-5*%
%TO.N,unconnected-(U1-IO3-5-Pad6)*%
X129540000Y-99465000D03*
%TO.P,U1,7,IO3-8*%
%TO.N,unconnected-(U1-IO3-8-Pad7)*%
X129540000Y-102005000D03*
%TO.P,U1,8,IO3-9*%
%TO.N,unconnected-(U1-IO3-9-Pad8)*%
X129540000Y-104545000D03*
%TO.P,U1,9,TDI*%
%TO.N,/TDI*%
X129540000Y-107085000D03*
%TO.P,U1,10,TMS*%
%TO.N,/TMS*%
X129540000Y-109625000D03*
%TO.P,U1,11,TCK*%
%TO.N,/TCK*%
X129540000Y-112165000D03*
%TO.P,U1,12,IO3-11*%
%TO.N,unconnected-(U1-IO3-11-Pad12)*%
X129540000Y-114705000D03*
%TO.P,U1,13,IO3-14*%
%TO.N,unconnected-(U1-IO3-14-Pad13)*%
X129540000Y-117245000D03*
%TO.P,U1,14,IO3-15*%
%TO.N,unconnected-(U1-IO3-15-Pad14)*%
X129540000Y-119785000D03*
%TO.P,U1,15,VCCINT*%
%TO.N,+3.3V*%
X129540000Y-122325000D03*
%TO.P,U1,16,IO3-17*%
%TO.N,unconnected-(U1-IO3-17-Pad16)*%
X129540000Y-124865000D03*
%TO.P,U1,17,GND*%
%TO.N,GND*%
X144780000Y-124865000D03*
%TO.P,U1,18,IO3-16*%
%TO.N,unconnected-(U1-IO3-16-Pad18)*%
X144780000Y-122325000D03*
%TO.P,U1,19,IO4-2*%
%TO.N,unconnected-(U1-IO4-2-Pad19)*%
X144780000Y-119785000D03*
%TO.P,U1,20,IO4-5*%
%TO.N,unconnected-(U1-IO4-5-Pad20)*%
X144780000Y-117245000D03*
%TO.P,U1,21,IO4-8*%
%TO.N,unconnected-(U1-IO4-8-Pad21)*%
X144780000Y-114705000D03*
%TO.P,U1,22,IO4-11*%
%TO.N,unconnected-(U1-IO4-11-Pad22)*%
X144780000Y-112165000D03*
%TO.P,U1,23,IO4-14*%
%TO.N,unconnected-(U1-IO4-14-Pad23)*%
X144780000Y-109625000D03*
%TO.P,U1,24,TDO*%
%TO.N,/TDO*%
X144780000Y-107085000D03*
%TO.P,U1,25,GND*%
%TO.N,GND*%
X144780000Y-104545000D03*
%TO.P,U1,26,VCCIO*%
%TO.N,/VCCIO*%
X144780000Y-102005000D03*
%TO.P,U1,27,IO4-15*%
%TO.N,unconnected-(U1-IO4-15-Pad27)*%
X144780000Y-99465000D03*
%TO.P,U1,28,IO4-17*%
%TO.N,unconnected-(U1-IO4-17-Pad28)*%
X144780000Y-96925000D03*
%TO.P,U1,29,IO2-2*%
%TO.N,unconnected-(U1-IO2-2-Pad29)*%
X144780000Y-94385000D03*
%TO.P,U1,30,IO2-5*%
%TO.N,unconnected-(U1-IO2-5-Pad30)*%
X144780000Y-91845000D03*
%TO.P,U1,31,IO2-6*%
%TO.N,unconnected-(U1-IO2-6-Pad31)*%
X144780000Y-89305000D03*
%TO.P,U1,32,IO2-8*%
%TO.N,unconnected-(U1-IO2-8-Pad32)*%
X144780000Y-86765000D03*
%TO.P,U1,33,IO2-9/GSR*%
%TO.N,unconnected-(U1-IO2-9{slash}GSR-Pad33)*%
X144780000Y-84225000D03*
%TO.P,U1,34,IO2-11/GTS2*%
%TO.N,unconnected-(U1-IO2-11{slash}GTS2-Pad34)*%
X144780000Y-81685000D03*
%TO.P,U1,35,VCCINT*%
%TO.N,+3.3V*%
X144780000Y-79145000D03*
%TO.P,U1,36,IO2-14/GTS1*%
%TO.N,unconnected-(U1-IO2-14{slash}GTS1-Pad36)*%
X144780000Y-76605000D03*
%TO.P,U1,37,IO2-15*%
%TO.N,unconnected-(U1-IO2-15-Pad37)*%
X144780000Y-74065000D03*
%TO.P,U1,38,IO2-17*%
%TO.N,unconnected-(U1-IO2-17-Pad38)*%
X144780000Y-71525000D03*
%TO.P,U1,39,IO1-2*%
%TO.N,unconnected-(U1-IO1-2-Pad39)*%
X129540000Y-71525000D03*
%TO.P,U1,40,IO1-5*%
%TO.N,unconnected-(U1-IO1-5-Pad40)*%
X129540000Y-74065000D03*
%TO.P,U1,41,IO1-6*%
%TO.N,unconnected-(U1-IO1-6-Pad41)*%
X129540000Y-76605000D03*
%TO.P,U1,42,IO1-8*%
%TO.N,unconnected-(U1-IO1-8-Pad42)*%
X129540000Y-79145000D03*
%TO.P,U1,43,IO1-9/GCK1*%
%TO.N,unconnected-(U1-IO1-9{slash}GCK1-Pad43)*%
X129540000Y-81685000D03*
%TO.P,U1,44,IO1-11/GCK2*%
%TO.N,unconnected-(U1-IO1-11{slash}GCK2-Pad44)*%
X129540000Y-84225000D03*
%TD*%
D11*
%TO.P,C1,1*%
%TO.N,Net-(JP1-A)*%
X140208000Y-82382500D03*
%TO.P,C1,2*%
%TO.N,GND*%
X140208000Y-85257500D03*
%TD*%
D12*
%TO.P,C3,1*%
%TO.N,+3.3V*%
X137922000Y-119612500D03*
%TO.P,C3,2*%
%TO.N,GND*%
X137922000Y-121687500D03*
%TD*%
D13*
%TO.P,J1,1*%
%TO.N,Net-(SW1A-B)*%
X133299200Y-60477400D03*
D14*
%TO.P,J1,2*%
%TO.N,GND*%
X127299200Y-60477400D03*
D15*
%TO.P,J1,3*%
%TO.N,N/C*%
X130299200Y-65177400D03*
%TD*%
D16*
%TO.P,R1,1*%
%TO.N,+3.3V*%
X137404600Y-62255400D03*
%TO.P,R1,2*%
%TO.N,Net-(D1-A)*%
X139404600Y-62255400D03*
%TD*%
D17*
%TO.P,JP1,1,A*%
%TO.N,Net-(JP1-A)*%
X142352000Y-67132200D03*
D18*
%TO.P,JP1,2,C*%
%TO.N,Net-(JP1-C)*%
X139812000Y-67132200D03*
%TO.P,JP1,3,B*%
%TO.N,+3.3V*%
X137272000Y-67132200D03*
%TD*%
D17*
%TO.P,JP2,1,A*%
%TO.N,GND*%
X139954000Y-104648000D03*
D18*
%TO.P,JP2,2,C*%
%TO.N,/VCCIO*%
X139954000Y-102108000D03*
%TO.P,JP2,3,B*%
%TO.N,+3.3V*%
X139954000Y-99568000D03*
%TD*%
D19*
%TO.P,SW1,1,A*%
%TO.N,unconnected-(SW1A-A-Pad1)*%
X142614200Y-57875800D03*
%TO.P,SW1,2,B*%
%TO.N,Net-(SW1A-B)*%
X142614200Y-60375800D03*
%TO.P,SW1,3,C*%
%TO.N,Net-(JP1-C)*%
X142614200Y-62875800D03*
%TO.P,SW1,4*%
%TO.N,N/C*%
X148114200Y-57875800D03*
%TO.P,SW1,5*%
X148114200Y-60375800D03*
%TO.P,SW1,6*%
X148114200Y-62875800D03*
%TD*%
D11*
%TO.P,C2,1*%
%TO.N,+3.3V*%
X136906000Y-82382500D03*
%TO.P,C2,2*%
%TO.N,GND*%
X136906000Y-85257500D03*
%TD*%
D20*
%TO.P,D1,1,K*%
%TO.N,GND*%
X136880600Y-58267600D03*
D19*
%TO.P,D1,2,A*%
%TO.N,Net-(D1-A)*%
X139420600Y-58267600D03*
%TD*%
D21*
%TO.P,U3,1,GND*%
%TO.N,GND*%
X135622000Y-79350000D03*
%TO.P,U3,2,VO*%
%TO.N,+3.3V*%
X137922000Y-79350000D03*
D22*
X137922000Y-73050000D03*
D21*
%TO.P,U3,3,VI*%
%TO.N,Net-(JP1-A)*%
X140222000Y-79350000D03*
%TD*%
D23*
%TO.P,J4,1,Pin_1*%
%TO.N,GND*%
X131160000Y-142351000D03*
D24*
%TO.P,J4,2,Pin_2*%
%TO.N,+3.3V*%
X131160000Y-140351000D03*
%TO.P,J4,3,Pin_3*%
%TO.N,GND*%
X133160000Y-142351000D03*
%TO.P,J4,4,Pin_4*%
%TO.N,/TMS*%
X133160000Y-140351000D03*
%TO.P,J4,5,Pin_5*%
%TO.N,GND*%
X135160000Y-142351000D03*
%TO.P,J4,6,Pin_6*%
%TO.N,/TCK*%
X135160000Y-140351000D03*
%TO.P,J4,7,Pin_7*%
%TO.N,GND*%
X137160000Y-142351000D03*
%TO.P,J4,8,Pin_8*%
%TO.N,/TDO*%
X137160000Y-140351000D03*
%TO.P,J4,9,Pin_9*%
%TO.N,GND*%
X139160000Y-142351000D03*
%TO.P,J4,10,Pin_10*%
%TO.N,/TDI*%
X139160000Y-140351000D03*
%TO.P,J4,11,Pin_11*%
%TO.N,GND*%
X141160000Y-142351000D03*
%TO.P,J4,12,Pin_12*%
%TO.N,unconnected-(J4-Pin_12-Pad12)*%
X141160000Y-140351000D03*
%TO.P,J4,13,Pin_13*%
%TO.N,GND*%
X143160000Y-142351000D03*
%TO.P,J4,14,Pin_14*%
%TO.N,unconnected-(J4-Pin_14-Pad14)*%
X143160000Y-140351000D03*
%TD*%
D12*
%TO.P,C4,1*%
%TO.N,+3.3V*%
X137922000Y-92180500D03*
%TO.P,C4,2*%
%TO.N,GND*%
X137922000Y-94255500D03*
%TD*%
D25*
%TO.P,J2,1,Pin_1*%
%TO.N,GND*%
X129540000Y-134620000D03*
D26*
%TO.P,J2,2,Pin_2*%
%TO.N,+3.3V*%
X129540000Y-132080000D03*
%TO.P,J2,3,Pin_3*%
%TO.N,GND*%
X132080000Y-134620000D03*
%TO.P,J2,4,Pin_4*%
%TO.N,/TMS*%
X132080000Y-132080000D03*
%TO.P,J2,5,Pin_5*%
%TO.N,GND*%
X134620000Y-134620000D03*
%TO.P,J2,6,Pin_6*%
%TO.N,/TCK*%
X134620000Y-132080000D03*
%TO.P,J2,7,Pin_7*%
%TO.N,GND*%
X137160000Y-134620000D03*
%TO.P,J2,8,Pin_8*%
%TO.N,/TDO*%
X137160000Y-132080000D03*
%TO.P,J2,9,Pin_9*%
%TO.N,GND*%
X139700000Y-134620000D03*
%TO.P,J2,10,Pin_10*%
%TO.N,/TDI*%
X139700000Y-132080000D03*
%TO.P,J2,11,Pin_11*%
%TO.N,GND*%
X142240000Y-134620000D03*
%TO.P,J2,12,Pin_12*%
%TO.N,unconnected-(J2-Pin_12-Pad12)*%
X142240000Y-132080000D03*
%TO.P,J2,13,Pin_13*%
%TO.N,GND*%
X144780000Y-134620000D03*
%TO.P,J2,14,Pin_14*%
%TO.N,unconnected-(J2-Pin_14-Pad14)*%
X144780000Y-132080000D03*
%TD*%
D17*
%TO.P,J3,1,Pin_1*%
%TO.N,/TMS*%
X143510000Y-146050000D03*
D18*
%TO.P,J3,2,Pin_2*%
%TO.N,/TDI*%
X140970000Y-146050000D03*
%TO.P,J3,3,Pin_3*%
%TO.N,/TDO*%
X138430000Y-146050000D03*
%TO.P,J3,4,Pin_4*%
%TO.N,/TCK*%
X135890000Y-146050000D03*
%TO.P,J3,5,Pin_5*%
%TO.N,GND*%
X133350000Y-146050000D03*
%TO.P,J3,6,Pin_6*%
%TO.N,+3.3V*%
X130810000Y-146050000D03*
%TD*%
D27*
%TO.N,GND*%
X137922000Y-123139200D03*
X136906000Y-86995000D03*
X140208000Y-86995000D03*
X138430000Y-95885000D03*
X139573000Y-94234000D03*
%TO.N,/TDI*%
X139700000Y-107061000D03*
%TO.N,/TCK*%
X132842000Y-112141000D03*
%TO.N,/TMS*%
X132080000Y-109601000D03*
%TO.N,/TDO*%
X143256000Y-126746000D03*
X137160000Y-126746000D03*
%TD*%
D28*
%TO.N,/TCK*%
X136144000Y-145796000D02*
X135890000Y-146050000D01*
X136144000Y-141335000D02*
X136144000Y-145796000D01*
X135160000Y-140351000D02*
X136144000Y-141335000D01*
%TO.N,/TDO*%
X138176000Y-145796000D02*
X138430000Y-146050000D01*
X138176000Y-141367000D02*
X138176000Y-145796000D01*
X137160000Y-140351000D02*
X138176000Y-141367000D01*
%TO.N,/TDI*%
X140157200Y-141348200D02*
X140157200Y-145237200D01*
X139160000Y-140351000D02*
X140157200Y-141348200D01*
X140157200Y-145237200D02*
X140970000Y-146050000D01*
%TO.N,/TMS*%
X133350000Y-140161000D02*
X133160000Y-140351000D01*
X133350000Y-133350000D02*
X133350000Y-140161000D01*
X132080000Y-132080000D02*
X133350000Y-133350000D01*
%TO.N,/TDI*%
X139700000Y-132080000D02*
X140970000Y-133350000D01*
X140970000Y-133350000D02*
X140970000Y-138541000D01*
X140970000Y-138541000D02*
X139160000Y-140351000D01*
%TO.N,/TDO*%
X138430000Y-133350000D02*
X138430000Y-139081000D01*
X137160000Y-132080000D02*
X138430000Y-133350000D01*
X138430000Y-139081000D02*
X137160000Y-140351000D01*
%TO.N,/TCK*%
X135890000Y-139621000D02*
X135160000Y-140351000D01*
X135890000Y-133350000D02*
X135890000Y-139621000D01*
X134620000Y-132080000D02*
X135890000Y-133350000D01*
D29*
%TO.N,+3.3V*%
X142113000Y-87989500D02*
X137922000Y-92180500D01*
X143613000Y-79145000D02*
X142113000Y-80645000D01*
X142113000Y-80645000D02*
X142113000Y-87989500D01*
X144780000Y-79145000D02*
X143613000Y-79145000D01*
X129540000Y-122325000D02*
X134493000Y-117372000D01*
D30*
X134493000Y-117372000D02*
X134493000Y-117348000D01*
D28*
%TO.N,/TDI*%
X139700000Y-132080000D02*
X139700000Y-107061000D01*
%TO.N,/TCK*%
X132818000Y-112165000D02*
X129540000Y-112165000D01*
X132842000Y-112141000D02*
X132818000Y-112165000D01*
%TO.N,/TMS*%
X132056000Y-109625000D02*
X129540000Y-109625000D01*
X132080000Y-109601000D02*
X132056000Y-109625000D01*
%TO.N,/TDO*%
X143256000Y-126746000D02*
X143256000Y-108609000D01*
X143256000Y-108609000D02*
X144780000Y-107085000D01*
X137160000Y-132080000D02*
X137160000Y-126746000D01*
%TO.N,/VCCIO*%
X144677000Y-102108000D02*
X144780000Y-102005000D01*
X139954000Y-102108000D02*
X144677000Y-102108000D01*
D31*
%TO.N,Net-(JP1-A)*%
X142352000Y-77220000D02*
X140222000Y-79350000D01*
X140208000Y-82382500D02*
X140208000Y-79364000D01*
X140208000Y-79364000D02*
X140222000Y-79350000D01*
X142352000Y-67132200D02*
X142352000Y-77220000D01*
%TO.N,+3.3V*%
X134493000Y-88138000D02*
X134493000Y-95250000D01*
X137922000Y-79350000D02*
X137922000Y-81366500D01*
X137922000Y-81366500D02*
X136906000Y-82382500D01*
X127990000Y-137181000D02*
X131160000Y-140351000D01*
X134493000Y-119761000D02*
X134493000Y-127127000D01*
X129806000Y-145046000D02*
X130810000Y-146050000D01*
X137922000Y-73050000D02*
X137922000Y-79350000D01*
X130235105Y-140351000D02*
X129806000Y-140780105D01*
X127990000Y-133626497D02*
X127990000Y-137181000D01*
D28*
X137404600Y-62255400D02*
X137272000Y-62388000D01*
D31*
X134493000Y-104902000D02*
X134493000Y-117348000D01*
X137272000Y-72400000D02*
X137922000Y-73050000D01*
X136906000Y-82423000D02*
X134493000Y-84836000D01*
X129806000Y-140780105D02*
X129806000Y-145046000D01*
X131160000Y-140351000D02*
X130235105Y-140351000D01*
X134493000Y-84836000D02*
X134493000Y-88138000D01*
D30*
X135636000Y-95250000D02*
X139954000Y-99568000D01*
D29*
X134493000Y-88751500D02*
X137922000Y-92180500D01*
X137922000Y-119612500D02*
X136757500Y-119612500D01*
D31*
X129540000Y-132080000D02*
X129536497Y-132080000D01*
X134493000Y-117348000D02*
X134493000Y-119761000D01*
X136906000Y-82382500D02*
X136906000Y-82423000D01*
X129536497Y-132080000D02*
X127990000Y-133626497D01*
D29*
X136757500Y-119612500D02*
X134493000Y-117348000D01*
D31*
X137272000Y-67132200D02*
X137272000Y-72400000D01*
X134493000Y-88138000D02*
X134493000Y-88751500D01*
X134493000Y-127127000D02*
X129540000Y-132080000D01*
D28*
X137272000Y-62388000D02*
X137272000Y-67132200D01*
D30*
X134493000Y-95250000D02*
X135636000Y-95250000D01*
D31*
X134493000Y-95250000D02*
X134493000Y-104902000D01*
D28*
%TO.N,/VCCIO*%
X140057000Y-102005000D02*
X139954000Y-102108000D01*
%TO.N,Net-(D1-A)*%
X139420600Y-58267600D02*
X139420600Y-62239400D01*
X139420600Y-62239400D02*
X139404600Y-62255400D01*
D31*
%TO.N,Net-(JP1-C)*%
X139812000Y-65678000D02*
X142614200Y-62875800D01*
X139812000Y-67132200D02*
X139812000Y-65678000D01*
%TD*%
%TA.AperFunction,Conductor*%
%TO.N,GND*%
G36*
X134774835Y-142476148D02*
G01*
X134832359Y-142589045D01*
X134921955Y-142678641D01*
X135034852Y-142736165D01*
X135120480Y-142749726D01*
X134537768Y-143332439D01*
X134639827Y-143395632D01*
X134639831Y-143395634D01*
X134840639Y-143473428D01*
X135052328Y-143513000D01*
X135267676Y-143513000D01*
X135361346Y-143495489D01*
X135431983Y-143502632D01*
X135487543Y-143546831D01*
X135510389Y-143614051D01*
X135510500Y-143619343D01*
X135510500Y-144653995D01*
X135490498Y-144722116D01*
X135436842Y-144768609D01*
X135425413Y-144773168D01*
X135342426Y-144801658D01*
X135144426Y-144908810D01*
X135144424Y-144908811D01*
X134966762Y-145047091D01*
X134814279Y-145212729D01*
X134725183Y-145349101D01*
X134671179Y-145395189D01*
X134600831Y-145404764D01*
X134536474Y-145374786D01*
X134514217Y-145349100D01*
X134425327Y-145213044D01*
X134272902Y-145047465D01*
X134095301Y-144909232D01*
X134095300Y-144909231D01*
X133897371Y-144802117D01*
X133897369Y-144802116D01*
X133684512Y-144729043D01*
X133684501Y-144729040D01*
X133604000Y-144715606D01*
X133604000Y-145616325D01*
X133492315Y-145565320D01*
X133385763Y-145550000D01*
X133314237Y-145550000D01*
X133207685Y-145565320D01*
X133096000Y-145616325D01*
X133096000Y-144715607D01*
X133095999Y-144715606D01*
X133015498Y-144729040D01*
X133015487Y-144729043D01*
X132802630Y-144802116D01*
X132802628Y-144802117D01*
X132604699Y-144909231D01*
X132604698Y-144909232D01*
X132427097Y-145047465D01*
X132274670Y-145213045D01*
X132185780Y-145349101D01*
X132131776Y-145395189D01*
X132061428Y-145404764D01*
X131997071Y-145374786D01*
X131974816Y-145349101D01*
X131905955Y-145243701D01*
X131885724Y-145212734D01*
X131885720Y-145212729D01*
X131756221Y-145072058D01*
X131733240Y-145047094D01*
X131733239Y-145047093D01*
X131733237Y-145047091D01*
X131648037Y-144980777D01*
X131555576Y-144908811D01*
X131357574Y-144801658D01*
X131357572Y-144801657D01*
X131357571Y-144801656D01*
X131144639Y-144728557D01*
X131144632Y-144728555D01*
X131039523Y-144711016D01*
X130922569Y-144691500D01*
X130922566Y-144691500D01*
X130919761Y-144691032D01*
X130855862Y-144660090D01*
X130818834Y-144599514D01*
X130814500Y-144566750D01*
X130814500Y-143639000D01*
X130834502Y-143570879D01*
X130888158Y-143524386D01*
X130896410Y-143522590D01*
X130906000Y-143513001D01*
X130906000Y-142662686D01*
X130921955Y-142678641D01*
X131034852Y-142736165D01*
X131128519Y-142751000D01*
X131191481Y-142751000D01*
X131285148Y-142736165D01*
X131398045Y-142678641D01*
X131414000Y-142662686D01*
X131414000Y-143513000D01*
X131862585Y-143513000D01*
X131862597Y-143512999D01*
X131923093Y-143506494D01*
X132059964Y-143455444D01*
X132059965Y-143455444D01*
X132176904Y-143367904D01*
X132245335Y-143276491D01*
X132302170Y-143233944D01*
X132372986Y-143228879D01*
X132431089Y-143258886D01*
X132456734Y-143282265D01*
X132456746Y-143282274D01*
X132639821Y-143395629D01*
X132639831Y-143395634D01*
X132840639Y-143473428D01*
X133052328Y-143513000D01*
X133267672Y-143513000D01*
X133479360Y-143473428D01*
X133680166Y-143395636D01*
X133782230Y-143332439D01*
X133199518Y-142749727D01*
X133285148Y-142736165D01*
X133398045Y-142678641D01*
X133487641Y-142589045D01*
X133545165Y-142476148D01*
X133558727Y-142390518D01*
X134144163Y-142975954D01*
X134151275Y-142975461D01*
X134168731Y-142975461D01*
X134175833Y-142975954D01*
X134761272Y-142390516D01*
X134774835Y-142476148D01*
G37*
%TD.AperFunction*%
%TA.AperFunction,Conductor*%
G36*
X134249469Y-141076175D02*
G01*
X134260545Y-141088959D01*
X134297222Y-141137526D01*
X134456436Y-141282669D01*
X134473270Y-141293092D01*
X134473667Y-141293338D01*
X134521055Y-141346204D01*
X134522380Y-141354170D01*
X135120483Y-141952272D01*
X135034852Y-141965835D01*
X134921955Y-142023359D01*
X134832359Y-142112955D01*
X134774835Y-142225852D01*
X134761272Y-142311481D01*
X134175833Y-141726042D01*
X134168728Y-141726536D01*
X134151274Y-141726537D01*
X134144165Y-141726043D01*
X133558727Y-142311481D01*
X133545165Y-142225852D01*
X133487641Y-142112955D01*
X133398045Y-142023359D01*
X133285148Y-141965835D01*
X133199516Y-141952272D01*
X133798013Y-141353776D01*
X133799518Y-141345016D01*
X133846330Y-141293339D01*
X133863564Y-141282669D01*
X134022778Y-141137526D01*
X134059451Y-141088963D01*
X134116464Y-141046656D01*
X134187300Y-141041889D01*
X134249469Y-141076175D01*
G37*
%TD.AperFunction*%
%TA.AperFunction,Conductor*%
G36*
X142249469Y-141076175D02*
G01*
X142260545Y-141088959D01*
X142297222Y-141137526D01*
X142456436Y-141282669D01*
X142473270Y-141293092D01*
X142473667Y-141293338D01*
X142521055Y-141346204D01*
X142522380Y-141354171D01*
X143120481Y-141952272D01*
X143034852Y-141965835D01*
X142921955Y-142023359D01*
X142832359Y-142112955D01*
X142774835Y-142225852D01*
X142761272Y-142311481D01*
X142175833Y-141726042D01*
X142168728Y-141726536D01*
X142151274Y-141726537D01*
X142144165Y-141726043D01*
X141558727Y-142311481D01*
X141545165Y-142225852D01*
X141487641Y-142112955D01*
X141398045Y-142023359D01*
X141285148Y-141965835D01*
X141199516Y-141952272D01*
X141798013Y-141353776D01*
X141799518Y-141345016D01*
X141846330Y-141293339D01*
X141863564Y-141282669D01*
X142022778Y-141137526D01*
X142059451Y-141088963D01*
X142116464Y-141046656D01*
X142187300Y-141041889D01*
X142249469Y-141076175D01*
G37*
%TD.AperFunction*%
%TA.AperFunction,Conductor*%
G36*
X131620507Y-134829844D02*
G01*
X131698239Y-134950798D01*
X131806900Y-135044952D01*
X131937685Y-135104680D01*
X131952410Y-135106797D01*
X131314310Y-135744898D01*
X131334697Y-135760766D01*
X131334701Y-135760768D01*
X131532628Y-135867882D01*
X131532630Y-135867883D01*
X131745483Y-135940955D01*
X131745490Y-135940957D01*
X131967477Y-135978000D01*
X132192523Y-135978000D01*
X132414509Y-135940957D01*
X132414516Y-135940955D01*
X132549588Y-135894585D01*
X132620512Y-135891385D01*
X132681908Y-135927037D01*
X132714282Y-135990222D01*
X132716500Y-136013758D01*
X132716500Y-139189815D01*
X132696498Y-139257936D01*
X132644612Y-139302895D01*
X132644823Y-139303319D01*
X132643177Y-139304138D01*
X132642842Y-139304429D01*
X132641221Y-139305112D01*
X132639605Y-139305917D01*
X132456434Y-139419331D01*
X132297226Y-139564469D01*
X132297222Y-139564473D01*
X132297222Y-139564474D01*
X132260548Y-139613036D01*
X132203535Y-139655343D01*
X132132699Y-139660110D01*
X132070530Y-139625823D01*
X132059454Y-139613040D01*
X132022778Y-139564474D01*
X132022773Y-139564469D01*
X131863565Y-139419331D01*
X131680397Y-139305918D01*
X131680392Y-139305916D01*
X131680391Y-139305915D01*
X131673690Y-139303319D01*
X131477875Y-139227459D01*
X131434297Y-139199063D01*
X129035405Y-136800171D01*
X129001379Y-136737859D01*
X128998500Y-136711076D01*
X128998500Y-136104000D01*
X129018502Y-136035879D01*
X129072158Y-135989386D01*
X129124500Y-135978000D01*
X129286000Y-135978000D01*
X129286000Y-135053674D01*
X129397685Y-135104680D01*
X129504237Y-135120000D01*
X129575763Y-135120000D01*
X129682315Y-135104680D01*
X129794000Y-135053674D01*
X129794000Y-135978000D01*
X130190517Y-135978000D01*
X130190516Y-135977999D01*
X130294318Y-135967394D01*
X130294321Y-135967393D01*
X130462525Y-135911657D01*
X130613339Y-135818634D01*
X130613345Y-135818629D01*
X130738629Y-135693345D01*
X130738634Y-135693339D01*
X130831657Y-135542524D01*
X130854787Y-135472722D01*
X130895200Y-135414351D01*
X130948666Y-135392120D01*
X131595638Y-134745148D01*
X131620507Y-134829844D01*
G37*
%TD.AperFunction*%
%TA.AperFunction,Conductor*%
G36*
X130893225Y-132755669D02*
G01*
X130915480Y-132781353D01*
X130948607Y-132832058D01*
X131004275Y-132917265D01*
X131004279Y-132917270D01*
X131156762Y-133082908D01*
X131192036Y-133110363D01*
X131334424Y-133221189D01*
X131368205Y-133239470D01*
X131418596Y-133289482D01*
X131433949Y-133358799D01*
X131409389Y-133425412D01*
X131368208Y-133461097D01*
X131334700Y-133479230D01*
X131334693Y-133479235D01*
X131314311Y-133495099D01*
X131314310Y-133495100D01*
X131952412Y-134133202D01*
X131937685Y-134135320D01*
X131806900Y-134195048D01*
X131698239Y-134289202D01*
X131620507Y-134410156D01*
X131595638Y-134494849D01*
X130946160Y-133845372D01*
X130917567Y-133840102D01*
X130865788Y-133791528D01*
X130854787Y-133767276D01*
X130831657Y-133697475D01*
X130738634Y-133546660D01*
X130738629Y-133546654D01*
X130613345Y-133421370D01*
X130613339Y-133421365D01*
X130462521Y-133328340D01*
X130455873Y-133325240D01*
X130456809Y-133323232D01*
X130407346Y-133288985D01*
X130380092Y-133223428D01*
X130392606Y-133153543D01*
X130427961Y-133110364D01*
X130463240Y-133082906D01*
X130615722Y-132917268D01*
X130704518Y-132781354D01*
X130758520Y-132735268D01*
X130828868Y-132725692D01*
X130893225Y-132755669D01*
G37*
%TD.AperFunction*%
%TA.AperFunction,Conductor*%
G36*
X143593225Y-132755669D02*
G01*
X143615480Y-132781353D01*
X143648607Y-132832058D01*
X143704275Y-132917265D01*
X143704279Y-132917270D01*
X143856762Y-133082908D01*
X143892036Y-133110363D01*
X144034424Y-133221189D01*
X144068205Y-133239470D01*
X144118596Y-133289482D01*
X144133949Y-133358799D01*
X144109389Y-133425412D01*
X144068208Y-133461097D01*
X144034700Y-133479230D01*
X144034693Y-133479235D01*
X144014311Y-133495099D01*
X144014310Y-133495100D01*
X144652412Y-134133202D01*
X144637685Y-134135320D01*
X144506900Y-134195048D01*
X144398239Y-134289202D01*
X144320507Y-134410156D01*
X144295639Y-134494849D01*
X143656921Y-133856131D01*
X143656920Y-133856132D01*
X143615482Y-133919558D01*
X143561479Y-133965647D01*
X143491131Y-133975222D01*
X143426773Y-133945245D01*
X143404516Y-133919558D01*
X143363078Y-133856132D01*
X142724360Y-134494848D01*
X142699493Y-134410156D01*
X142621761Y-134289202D01*
X142513100Y-134195048D01*
X142382315Y-134135320D01*
X142367587Y-134133202D01*
X143005688Y-133495100D01*
X143005687Y-133495099D01*
X142985308Y-133479237D01*
X142985298Y-133479231D01*
X142951791Y-133461097D01*
X142901401Y-133411083D01*
X142886050Y-133341766D01*
X142910612Y-133275153D01*
X142951790Y-133239472D01*
X142985576Y-133221189D01*
X143163240Y-133082906D01*
X143315722Y-132917268D01*
X143404518Y-132781354D01*
X143458520Y-132735268D01*
X143528868Y-132725692D01*
X143593225Y-132755669D01*
G37*
%TD.AperFunction*%
%TA.AperFunction,Conductor*%
G36*
X135710012Y-119850279D02*
G01*
X135716595Y-119856408D01*
X136057520Y-120197333D01*
X136070359Y-120212364D01*
X136078634Y-120223753D01*
X136078635Y-120223754D01*
X136078636Y-120223755D01*
X136129456Y-120269513D01*
X136134225Y-120274038D01*
X136148759Y-120288572D01*
X136148762Y-120288575D01*
X136164711Y-120301491D01*
X136169723Y-120305771D01*
X136173756Y-120309402D01*
X136220556Y-120351540D01*
X136232742Y-120358576D01*
X136249026Y-120369767D01*
X136259970Y-120378629D01*
X136320941Y-120409695D01*
X136326707Y-120412826D01*
X136385944Y-120447027D01*
X136399323Y-120451373D01*
X136417584Y-120458937D01*
X136430130Y-120465330D01*
X136430132Y-120465330D01*
X136430133Y-120465331D01*
X136496194Y-120483031D01*
X136502521Y-120484905D01*
X136567572Y-120506042D01*
X136581575Y-120507513D01*
X136600999Y-120511113D01*
X136614597Y-120514757D01*
X136614601Y-120514757D01*
X136614604Y-120514758D01*
X136650119Y-120516618D01*
X136682903Y-120518336D01*
X136689459Y-120518852D01*
X136694352Y-120519366D01*
X136709877Y-120520999D01*
X136709885Y-120520999D01*
X136709890Y-120521000D01*
X136730426Y-120521000D01*
X136737018Y-120521172D01*
X136760219Y-120522388D01*
X136805308Y-120524752D01*
X136805308Y-120524751D01*
X136805310Y-120524752D01*
X136819207Y-120522550D01*
X136838917Y-120521000D01*
X136894103Y-120521000D01*
X136962224Y-120541002D01*
X136972254Y-120548164D01*
X136973343Y-120549025D01*
X136973348Y-120549030D01*
X136973353Y-120549033D01*
X136976454Y-120551485D01*
X137017482Y-120609427D01*
X137020672Y-120680352D01*
X136985011Y-120741742D01*
X136976454Y-120749157D01*
X136973654Y-120751370D01*
X136848370Y-120876654D01*
X136848365Y-120876660D01*
X136755342Y-121027474D01*
X136699606Y-121195678D01*
X136699605Y-121195681D01*
X136689000Y-121299483D01*
X136689000Y-121433500D01*
X138050000Y-121433500D01*
X138118121Y-121453502D01*
X138164614Y-121507158D01*
X138176000Y-121559500D01*
X138176000Y-122783000D01*
X138447517Y-122783000D01*
X138447516Y-122782999D01*
X138551318Y-122772394D01*
X138551321Y-122772393D01*
X138719525Y-122716657D01*
X138874353Y-122621158D01*
X138942832Y-122602421D01*
X139010571Y-122623680D01*
X139056063Y-122678187D01*
X139066500Y-122728399D01*
X139066500Y-130803078D01*
X139046498Y-130871199D01*
X139000471Y-130913891D01*
X138954426Y-130938810D01*
X138954424Y-130938811D01*
X138776762Y-131077091D01*
X138624279Y-131242729D01*
X138535483Y-131378643D01*
X138481479Y-131424731D01*
X138411131Y-131434306D01*
X138346774Y-131404329D01*
X138324517Y-131378643D01*
X138235720Y-131242729D01*
X138083237Y-131077091D01*
X138001382Y-131013381D01*
X137905576Y-130938811D01*
X137877620Y-130923681D01*
X137859529Y-130913891D01*
X137809139Y-130863877D01*
X137793500Y-130803078D01*
X137793500Y-127448524D01*
X137813502Y-127380403D01*
X137825858Y-127364220D01*
X137899040Y-127282944D01*
X137994527Y-127117556D01*
X138053542Y-126935928D01*
X138073504Y-126746000D01*
X138053542Y-126556072D01*
X137994527Y-126374444D01*
X137899040Y-126209056D01*
X137899038Y-126209054D01*
X137899034Y-126209048D01*
X137771255Y-126067135D01*
X137616752Y-125954882D01*
X137442288Y-125877206D01*
X137255487Y-125837500D01*
X137064513Y-125837500D01*
X136877711Y-125877206D01*
X136703247Y-125954882D01*
X136548744Y-126067135D01*
X136420965Y-126209048D01*
X136420958Y-126209058D01*
X136325476Y-126374438D01*
X136325473Y-126374445D01*
X136266457Y-126556072D01*
X136246496Y-126746000D01*
X136266457Y-126935927D01*
X136296526Y-127028470D01*
X136325473Y-127117556D01*
X136420960Y-127282944D01*
X136494137Y-127364215D01*
X136524853Y-127428220D01*
X136526500Y-127448524D01*
X136526500Y-130803078D01*
X136506498Y-130871199D01*
X136460471Y-130913891D01*
X136414426Y-130938810D01*
X136414424Y-130938811D01*
X136236762Y-131077091D01*
X136084279Y-131242729D01*
X135995483Y-131378643D01*
X135941479Y-131424731D01*
X135871131Y-131434306D01*
X135806774Y-131404329D01*
X135784517Y-131378643D01*
X135695720Y-131242729D01*
X135543237Y-131077091D01*
X135461382Y-131013381D01*
X135365576Y-130938811D01*
X135167574Y-130831658D01*
X135167572Y-130831657D01*
X135167571Y-130831656D01*
X134954639Y-130758557D01*
X134954630Y-130758555D01*
X134907023Y-130750611D01*
X134732569Y-130721500D01*
X134507431Y-130721500D01*
X134359211Y-130746233D01*
X134285369Y-130758555D01*
X134285360Y-130758557D01*
X134072428Y-130831656D01*
X134072426Y-130831658D01*
X133874426Y-130938810D01*
X133874424Y-130938811D01*
X133696762Y-131077091D01*
X133544279Y-131242729D01*
X133455483Y-131378643D01*
X133401479Y-131424731D01*
X133331131Y-131434306D01*
X133266774Y-131404329D01*
X133244517Y-131378643D01*
X133155720Y-131242729D01*
X133003237Y-131077091D01*
X132921382Y-131013381D01*
X132825576Y-130938811D01*
X132627574Y-130831658D01*
X132511033Y-130791649D01*
X132453098Y-130750611D01*
X132426547Y-130684767D01*
X132439809Y-130615020D01*
X132462848Y-130583384D01*
X135166709Y-127879523D01*
X135175849Y-127871239D01*
X135209568Y-127843568D01*
X135335595Y-127690004D01*
X135429241Y-127514804D01*
X135447534Y-127454500D01*
X135486909Y-127324701D01*
X135491021Y-127282951D01*
X135506380Y-127127004D01*
X135506380Y-127126996D01*
X135502107Y-127083612D01*
X135501500Y-127071262D01*
X135501500Y-121941500D01*
X136689000Y-121941500D01*
X136689000Y-122075516D01*
X136699605Y-122179318D01*
X136699606Y-122179321D01*
X136755342Y-122347525D01*
X136848365Y-122498339D01*
X136848370Y-122498345D01*
X136973654Y-122623629D01*
X136973660Y-122623634D01*
X137124474Y-122716657D01*
X137292678Y-122772393D01*
X137292681Y-122772394D01*
X137396483Y-122782999D01*
X137396483Y-122783000D01*
X137668000Y-122783000D01*
X137668000Y-121941500D01*
X136689000Y-121941500D01*
X135501500Y-121941500D01*
X135501500Y-119945503D01*
X135521502Y-119877382D01*
X135575158Y-119830889D01*
X135645432Y-119820785D01*
X135710012Y-119850279D01*
G37*
%TD.AperFunction*%
%TA.AperFunction,Conductor*%
G36*
X135710012Y-96397147D02*
G01*
X135716595Y-96403276D01*
X138571774Y-99258455D01*
X138605800Y-99320767D01*
X138608249Y-99357955D01*
X138590844Y-99568000D01*
X138600660Y-99686463D01*
X138609437Y-99792375D01*
X138664702Y-100010612D01*
X138664703Y-100010613D01*
X138664704Y-100010616D01*
X138755140Y-100216791D01*
X138755141Y-100216793D01*
X138878275Y-100405265D01*
X138878279Y-100405270D01*
X139030762Y-100570908D01*
X139085331Y-100613381D01*
X139208424Y-100709189D01*
X139241680Y-100727186D01*
X139292071Y-100777200D01*
X139307423Y-100846516D01*
X139282862Y-100913129D01*
X139241680Y-100948813D01*
X139208426Y-100966810D01*
X139208424Y-100966811D01*
X139030762Y-101105091D01*
X138878279Y-101270729D01*
X138878275Y-101270734D01*
X138755141Y-101459206D01*
X138664703Y-101665386D01*
X138664702Y-101665387D01*
X138609437Y-101883624D01*
X138609436Y-101883630D01*
X138609436Y-101883632D01*
X138590844Y-102108000D01*
X138600660Y-102226463D01*
X138609437Y-102332375D01*
X138664702Y-102550612D01*
X138664703Y-102550613D01*
X138664704Y-102550616D01*
X138748433Y-102741500D01*
X138755141Y-102756793D01*
X138878275Y-102945265D01*
X138878279Y-102945270D01*
X139021841Y-103101217D01*
X139053262Y-103164882D01*
X139045276Y-103235428D01*
X139000417Y-103290457D01*
X138973173Y-103304610D01*
X138858039Y-103347553D01*
X138858034Y-103347555D01*
X138741095Y-103435095D01*
X138653555Y-103552034D01*
X138653555Y-103552035D01*
X138602505Y-103688906D01*
X138596000Y-103749402D01*
X138596000Y-104394000D01*
X139522884Y-104394000D01*
X139494507Y-104438156D01*
X139454000Y-104576111D01*
X139454000Y-104719889D01*
X139494507Y-104857844D01*
X139522884Y-104902000D01*
X138596000Y-104902000D01*
X138596000Y-105546597D01*
X138602505Y-105607093D01*
X138653555Y-105743964D01*
X138653555Y-105743965D01*
X138741095Y-105860904D01*
X138858034Y-105948444D01*
X138994906Y-105999494D01*
X139055402Y-106005999D01*
X139055415Y-106006000D01*
X139243153Y-106006000D01*
X139311274Y-106026002D01*
X139357767Y-106079658D01*
X139367871Y-106149932D01*
X139338377Y-106214512D01*
X139294402Y-106247107D01*
X139243247Y-106269882D01*
X139088744Y-106382135D01*
X138960965Y-106524048D01*
X138960958Y-106524058D01*
X138865476Y-106689438D01*
X138865473Y-106689445D01*
X138806457Y-106871072D01*
X138786496Y-107061000D01*
X138806457Y-107250927D01*
X138824504Y-107306468D01*
X138865473Y-107432556D01*
X138960960Y-107597944D01*
X139034137Y-107679215D01*
X139064853Y-107743220D01*
X139066500Y-107763524D01*
X139066500Y-118571012D01*
X139046498Y-118639133D01*
X138992842Y-118685626D01*
X138922568Y-118695730D01*
X138874353Y-118678253D01*
X138870652Y-118675970D01*
X138719738Y-118582885D01*
X138635582Y-118554999D01*
X138551427Y-118527113D01*
X138551420Y-118527112D01*
X138447553Y-118516500D01*
X137396455Y-118516500D01*
X137292572Y-118527113D01*
X137292568Y-118527113D01*
X137117297Y-118585193D01*
X137116521Y-118582852D01*
X137057893Y-118591732D01*
X136993092Y-118562725D01*
X136985791Y-118555978D01*
X135538405Y-117108592D01*
X135504379Y-117046280D01*
X135501500Y-117019497D01*
X135501500Y-96492371D01*
X135521502Y-96424250D01*
X135575158Y-96377757D01*
X135645432Y-96367653D01*
X135710012Y-96397147D01*
G37*
%TD.AperFunction*%
%TA.AperFunction,Conductor*%
G36*
X143995422Y-80151556D02*
G01*
X144023656Y-80166396D01*
X144142323Y-80249488D01*
X144252373Y-80300805D01*
X144305658Y-80347722D01*
X144325119Y-80415999D01*
X144304577Y-80483959D01*
X144252373Y-80529195D01*
X144142323Y-80580512D01*
X143960222Y-80708020D01*
X143960216Y-80708025D01*
X143803025Y-80865216D01*
X143803020Y-80865222D01*
X143675512Y-81047323D01*
X143581561Y-81248801D01*
X143581559Y-81248806D01*
X143564958Y-81310762D01*
X143524022Y-81463537D01*
X143504647Y-81685000D01*
X143524022Y-81906463D01*
X143534690Y-81946275D01*
X143581559Y-82121193D01*
X143581561Y-82121199D01*
X143675511Y-82322675D01*
X143675512Y-82322677D01*
X143803016Y-82504772D01*
X143803020Y-82504777D01*
X143803023Y-82504781D01*
X143960219Y-82661977D01*
X143960223Y-82661980D01*
X143960227Y-82661983D01*
X143982278Y-82677423D01*
X144142323Y-82789488D01*
X144252373Y-82840805D01*
X144305658Y-82887722D01*
X144325119Y-82955999D01*
X144304577Y-83023959D01*
X144252373Y-83069195D01*
X144142323Y-83120512D01*
X143960222Y-83248020D01*
X143960216Y-83248025D01*
X143803025Y-83405216D01*
X143803020Y-83405222D01*
X143675512Y-83587323D01*
X143581561Y-83788801D01*
X143581559Y-83788806D01*
X143554889Y-83888342D01*
X143524022Y-84003537D01*
X143504647Y-84225000D01*
X143524022Y-84446463D01*
X143555966Y-84565678D01*
X143581559Y-84661193D01*
X143581561Y-84661199D01*
X143675511Y-84862675D01*
X143675512Y-84862677D01*
X143803016Y-85044772D01*
X143803020Y-85044777D01*
X143803023Y-85044781D01*
X143960219Y-85201977D01*
X143960223Y-85201980D01*
X143960227Y-85201983D01*
X144034135Y-85253734D01*
X144142323Y-85329488D01*
X144252373Y-85380805D01*
X144305658Y-85427722D01*
X144325119Y-85495999D01*
X144304577Y-85563959D01*
X144252373Y-85609195D01*
X144142323Y-85660512D01*
X143960222Y-85788020D01*
X143960216Y-85788025D01*
X143803025Y-85945216D01*
X143803020Y-85945222D01*
X143675512Y-86127323D01*
X143581561Y-86328801D01*
X143581560Y-86328804D01*
X143524022Y-86543537D01*
X143504647Y-86765000D01*
X143524022Y-86986463D01*
X143570273Y-87159074D01*
X143581559Y-87201193D01*
X143581561Y-87201199D01*
X143675511Y-87402675D01*
X143675512Y-87402677D01*
X143803016Y-87584772D01*
X143803020Y-87584777D01*
X143803023Y-87584781D01*
X143960219Y-87741977D01*
X143960223Y-87741980D01*
X143960227Y-87741983D01*
X144064124Y-87814732D01*
X144142323Y-87869488D01*
X144252373Y-87920805D01*
X144305658Y-87967722D01*
X144325119Y-88035999D01*
X144304577Y-88103959D01*
X144252373Y-88149195D01*
X144142323Y-88200512D01*
X143960222Y-88328020D01*
X143960216Y-88328025D01*
X143803025Y-88485216D01*
X143803020Y-88485222D01*
X143675512Y-88667323D01*
X143581561Y-88868801D01*
X143581560Y-88868804D01*
X143524022Y-89083537D01*
X143504647Y-89305000D01*
X143524022Y-89526463D01*
X143570273Y-89699074D01*
X143581559Y-89741193D01*
X143581561Y-89741199D01*
X143675511Y-89942675D01*
X143675512Y-89942677D01*
X143803016Y-90124772D01*
X143803020Y-90124777D01*
X143803023Y-90124781D01*
X143960219Y-90281977D01*
X143960223Y-90281980D01*
X143960227Y-90281983D01*
X144064124Y-90354732D01*
X144142323Y-90409488D01*
X144252373Y-90460805D01*
X144305658Y-90507722D01*
X144325119Y-90575999D01*
X144304577Y-90643959D01*
X144252373Y-90689195D01*
X144142323Y-90740512D01*
X143960222Y-90868020D01*
X143960216Y-90868025D01*
X143803025Y-91025216D01*
X143803020Y-91025222D01*
X143675512Y-91207323D01*
X143581561Y-91408801D01*
X143581560Y-91408804D01*
X143524022Y-91623537D01*
X143504647Y-91845000D01*
X143524022Y-92066463D01*
X143558439Y-92194907D01*
X143581559Y-92281193D01*
X143581561Y-92281199D01*
X143675511Y-92482675D01*
X143675512Y-92482677D01*
X143803016Y-92664772D01*
X143803020Y-92664777D01*
X143803023Y-92664781D01*
X143960219Y-92821977D01*
X143960223Y-92821980D01*
X143960227Y-92821983D01*
X143987011Y-92840737D01*
X144142323Y-92949488D01*
X144232744Y-92991652D01*
X144252373Y-93000805D01*
X144305658Y-93047722D01*
X144325119Y-93115999D01*
X144304577Y-93183959D01*
X144252373Y-93229195D01*
X144142323Y-93280512D01*
X143960222Y-93408020D01*
X143960216Y-93408025D01*
X143803025Y-93565216D01*
X143803020Y-93565222D01*
X143675512Y-93747323D01*
X143581561Y-93948801D01*
X143581559Y-93948806D01*
X143567440Y-94001500D01*
X143524022Y-94163537D01*
X143504647Y-94385000D01*
X143524022Y-94606463D01*
X143561244Y-94745375D01*
X143581559Y-94821193D01*
X143581561Y-94821199D01*
X143675511Y-95022675D01*
X143675512Y-95022677D01*
X143803016Y-95204772D01*
X143803020Y-95204777D01*
X143803023Y-95204781D01*
X143960219Y-95361977D01*
X143960223Y-95361980D01*
X143960227Y-95361983D01*
X144062241Y-95433414D01*
X144142323Y-95489488D01*
X144251781Y-95540529D01*
X144252373Y-95540805D01*
X144305658Y-95587722D01*
X144325119Y-95655999D01*
X144304577Y-95723959D01*
X144252373Y-95769195D01*
X144142323Y-95820512D01*
X143960222Y-95948020D01*
X143960216Y-95948025D01*
X143803025Y-96105216D01*
X143803020Y-96105222D01*
X143675512Y-96287323D01*
X143611662Y-96424250D01*
X143581560Y-96488804D01*
X143524022Y-96703537D01*
X143504647Y-96925000D01*
X143524022Y-97146463D01*
X143570273Y-97319074D01*
X143581559Y-97361193D01*
X143581561Y-97361199D01*
X143675511Y-97562675D01*
X143675512Y-97562677D01*
X143803016Y-97744772D01*
X143803020Y-97744777D01*
X143803023Y-97744781D01*
X143960219Y-97901977D01*
X143960223Y-97901980D01*
X143960227Y-97901983D01*
X144064124Y-97974732D01*
X144142323Y-98029488D01*
X144252373Y-98080805D01*
X144305658Y-98127722D01*
X144325119Y-98195999D01*
X144304577Y-98263959D01*
X144252373Y-98309195D01*
X144142323Y-98360512D01*
X143960222Y-98488020D01*
X143960216Y-98488025D01*
X143803025Y-98645216D01*
X143803020Y-98645222D01*
X143675512Y-98827323D01*
X143632665Y-98919209D01*
X143581560Y-99028804D01*
X143524022Y-99243537D01*
X143504647Y-99465000D01*
X143524022Y-99686463D01*
X143570273Y-99859074D01*
X143581559Y-99901193D01*
X143581561Y-99901199D01*
X143675511Y-100102675D01*
X143675512Y-100102677D01*
X143803016Y-100284772D01*
X143803020Y-100284777D01*
X143803023Y-100284781D01*
X143960219Y-100441977D01*
X143960223Y-100441980D01*
X143960227Y-100441983D01*
X144064124Y-100514732D01*
X144142323Y-100569488D01*
X144252373Y-100620805D01*
X144305658Y-100667722D01*
X144325119Y-100735999D01*
X144304577Y-100803959D01*
X144252373Y-100849195D01*
X144142323Y-100900512D01*
X143960222Y-101028020D01*
X143960216Y-101028025D01*
X143803025Y-101185216D01*
X143803020Y-101185222D01*
X143675512Y-101367323D01*
X143659459Y-101401750D01*
X143612542Y-101455035D01*
X143545264Y-101474500D01*
X141231038Y-101474500D01*
X141162917Y-101454498D01*
X141125555Y-101417415D01*
X141029724Y-101270734D01*
X141029720Y-101270729D01*
X140877237Y-101105091D01*
X140778211Y-101028016D01*
X140699576Y-100966811D01*
X140666319Y-100948813D01*
X140615929Y-100898802D01*
X140600576Y-100829485D01*
X140625136Y-100762872D01*
X140666320Y-100727186D01*
X140699576Y-100709189D01*
X140877240Y-100570906D01*
X141029722Y-100405268D01*
X141152860Y-100216791D01*
X141243296Y-100010616D01*
X141298564Y-99792368D01*
X141317156Y-99568000D01*
X141298564Y-99343632D01*
X141273217Y-99243539D01*
X141243297Y-99125387D01*
X141243296Y-99125386D01*
X141243296Y-99125384D01*
X141152860Y-98919209D01*
X141092828Y-98827323D01*
X141029724Y-98730734D01*
X141029720Y-98730729D01*
X140877237Y-98565091D01*
X140778211Y-98488016D01*
X140699576Y-98426811D01*
X140501574Y-98319658D01*
X140501572Y-98319657D01*
X140501571Y-98319656D01*
X140288639Y-98246557D01*
X140288630Y-98246555D01*
X140215038Y-98234275D01*
X140066569Y-98209500D01*
X139841431Y-98209500D01*
X139819183Y-98213212D01*
X139756925Y-98223600D01*
X139686442Y-98215082D01*
X139647094Y-98188413D01*
X136892095Y-95433414D01*
X136858069Y-95371102D01*
X136863134Y-95300287D01*
X136905681Y-95243451D01*
X136972201Y-95218640D01*
X137041575Y-95233731D01*
X137047337Y-95237078D01*
X137124474Y-95284657D01*
X137292678Y-95340393D01*
X137292681Y-95340394D01*
X137396483Y-95350999D01*
X137396483Y-95351000D01*
X137668000Y-95351000D01*
X137668000Y-94509500D01*
X138176000Y-94509500D01*
X138176000Y-95351000D01*
X138447517Y-95351000D01*
X138447516Y-95350999D01*
X138551318Y-95340394D01*
X138551321Y-95340393D01*
X138719525Y-95284657D01*
X138870339Y-95191634D01*
X138870345Y-95191629D01*
X138995629Y-95066345D01*
X138995634Y-95066339D01*
X139088657Y-94915525D01*
X139144393Y-94747321D01*
X139144394Y-94747318D01*
X139154999Y-94643516D01*
X139155000Y-94643516D01*
X139155000Y-94509500D01*
X138176000Y-94509500D01*
X137668000Y-94509500D01*
X136689000Y-94509500D01*
X136689000Y-94643516D01*
X136699605Y-94747318D01*
X136699606Y-94747321D01*
X136755342Y-94915525D01*
X136802921Y-94992662D01*
X136821658Y-95061142D01*
X136800399Y-95128880D01*
X136745891Y-95174372D01*
X136675442Y-95183173D01*
X136611419Y-95152490D01*
X136606585Y-95147904D01*
X136217908Y-94759227D01*
X136205936Y-94745375D01*
X136205069Y-94744210D01*
X136191469Y-94725942D01*
X136191467Y-94725940D01*
X136153129Y-94693770D01*
X136145027Y-94686345D01*
X136141106Y-94682424D01*
X136116528Y-94662989D01*
X136113691Y-94660678D01*
X136055635Y-94611964D01*
X136049506Y-94607933D01*
X136049541Y-94607878D01*
X136043187Y-94603829D01*
X136043153Y-94603886D01*
X136036906Y-94600033D01*
X135968205Y-94567996D01*
X135964909Y-94566401D01*
X135897188Y-94532391D01*
X135897186Y-94532390D01*
X135897183Y-94532389D01*
X135890289Y-94529880D01*
X135890311Y-94529817D01*
X135883189Y-94527341D01*
X135883169Y-94527404D01*
X135876211Y-94525098D01*
X135801942Y-94509762D01*
X135798367Y-94508969D01*
X135724656Y-94491500D01*
X135717367Y-94490648D01*
X135717374Y-94490580D01*
X135709877Y-94489814D01*
X135709872Y-94489881D01*
X135702558Y-94489241D01*
X135631163Y-94491318D01*
X135562490Y-94473305D01*
X135514457Y-94421024D01*
X135501500Y-94365371D01*
X135501500Y-91349003D01*
X135521502Y-91280882D01*
X135575158Y-91234389D01*
X135645432Y-91224285D01*
X135710012Y-91253779D01*
X135716595Y-91259908D01*
X136651595Y-92194908D01*
X136685621Y-92257220D01*
X136688500Y-92284003D01*
X136688500Y-92568544D01*
X136699112Y-92672425D01*
X136754885Y-92840738D01*
X136847970Y-92991652D01*
X136847975Y-92991658D01*
X136973345Y-93117028D01*
X136976450Y-93119483D01*
X136978027Y-93121710D01*
X136978537Y-93122220D01*
X136978449Y-93122307D01*
X137017481Y-93177422D01*
X137020673Y-93248347D01*
X136985014Y-93309739D01*
X136976454Y-93317157D01*
X136973654Y-93319370D01*
X136848370Y-93444654D01*
X136848365Y-93444660D01*
X136755342Y-93595474D01*
X136699606Y-93763678D01*
X136699605Y-93763681D01*
X136689000Y-93867483D01*
X136689000Y-94001500D01*
X139155000Y-94001500D01*
X139155000Y-93867483D01*
X139144394Y-93763681D01*
X139144393Y-93763678D01*
X139088657Y-93595474D01*
X138995634Y-93444660D01*
X138995629Y-93444654D01*
X138870344Y-93319369D01*
X138867551Y-93317161D01*
X138866131Y-93315156D01*
X138865150Y-93314175D01*
X138865317Y-93314007D01*
X138826519Y-93259222D01*
X138823325Y-93188298D01*
X138858983Y-93126905D01*
X138867554Y-93119478D01*
X138870639Y-93117037D01*
X138870652Y-93117030D01*
X138996030Y-92991652D01*
X139089115Y-92840738D01*
X139144887Y-92672426D01*
X139155500Y-92568545D01*
X139155499Y-92284001D01*
X139175501Y-92215882D01*
X139192399Y-92194912D01*
X142697840Y-88689471D01*
X142712867Y-88676637D01*
X142724253Y-88668366D01*
X142770044Y-88617507D01*
X142774530Y-88612781D01*
X142789072Y-88598241D01*
X142802008Y-88582265D01*
X142806266Y-88577279D01*
X142852040Y-88526444D01*
X142859075Y-88514257D01*
X142870269Y-88497970D01*
X142879129Y-88487030D01*
X142910197Y-88426051D01*
X142913303Y-88420330D01*
X142947527Y-88361056D01*
X142951877Y-88347665D01*
X142959441Y-88329406D01*
X142965829Y-88316870D01*
X142983535Y-88250789D01*
X142985393Y-88244514D01*
X143006542Y-88179428D01*
X143008012Y-88165437D01*
X143011616Y-88145990D01*
X143011758Y-88145458D01*
X143015257Y-88132403D01*
X143015257Y-88132397D01*
X143015258Y-88132394D01*
X143017560Y-88088453D01*
X143018836Y-88064095D01*
X143019353Y-88057534D01*
X143021499Y-88037120D01*
X143021500Y-88037108D01*
X143021500Y-88016574D01*
X143021673Y-88009979D01*
X143025252Y-87941690D01*
X143023051Y-87927791D01*
X143021500Y-87908082D01*
X143021500Y-81073503D01*
X143041502Y-81005382D01*
X143058400Y-80984412D01*
X143862296Y-80180515D01*
X143924607Y-80146492D01*
X143995422Y-80151556D01*
G37*
%TD.AperFunction*%
%TA.AperFunction,Conductor*%
G36*
X138973105Y-81844736D02*
G01*
X139016158Y-81901190D01*
X139024500Y-81946275D01*
X139024500Y-82970544D01*
X139035112Y-83074425D01*
X139090885Y-83242738D01*
X139183970Y-83393652D01*
X139183975Y-83393658D01*
X139309341Y-83519024D01*
X139309347Y-83519029D01*
X139309348Y-83519030D01*
X139460262Y-83612115D01*
X139628574Y-83667887D01*
X139732455Y-83678500D01*
X140683544Y-83678499D01*
X140787426Y-83667887D01*
X140955738Y-83612115D01*
X141012354Y-83577193D01*
X141080831Y-83558456D01*
X141148570Y-83579715D01*
X141194062Y-83634221D01*
X141204500Y-83684434D01*
X141204500Y-83956153D01*
X141184498Y-84024274D01*
X141130842Y-84070767D01*
X141060568Y-84080871D01*
X141012354Y-84063394D01*
X140955527Y-84028343D01*
X140787321Y-83972606D01*
X140787318Y-83972605D01*
X140683516Y-83962000D01*
X140462000Y-83962000D01*
X140462000Y-86553000D01*
X140683517Y-86553000D01*
X140683516Y-86552999D01*
X140787318Y-86542394D01*
X140787321Y-86542393D01*
X140955526Y-86486656D01*
X141012352Y-86451606D01*
X141080832Y-86432868D01*
X141148571Y-86454127D01*
X141194063Y-86508634D01*
X141204500Y-86558846D01*
X141204500Y-87560997D01*
X141184498Y-87629118D01*
X141167595Y-87650092D01*
X138011095Y-90806592D01*
X137948783Y-90840618D01*
X137877968Y-90835553D01*
X137832905Y-90806592D01*
X135538405Y-88512092D01*
X135504379Y-88449780D01*
X135501500Y-88422997D01*
X135501500Y-86029692D01*
X135521502Y-85961571D01*
X135575158Y-85915078D01*
X135645432Y-85904974D01*
X135710012Y-85934468D01*
X135747105Y-85990059D01*
X135789342Y-86117525D01*
X135882365Y-86268339D01*
X135882370Y-86268345D01*
X136007654Y-86393629D01*
X136007660Y-86393634D01*
X136158474Y-86486657D01*
X136326678Y-86542393D01*
X136326681Y-86542394D01*
X136430483Y-86552999D01*
X136430483Y-86553000D01*
X136652000Y-86553000D01*
X136652000Y-85511500D01*
X137160000Y-85511500D01*
X137160000Y-86553000D01*
X137381517Y-86553000D01*
X137381516Y-86552999D01*
X137485318Y-86542394D01*
X137485321Y-86542393D01*
X137653525Y-86486657D01*
X137804339Y-86393634D01*
X137804345Y-86393629D01*
X137929629Y-86268345D01*
X137929634Y-86268339D01*
X138022657Y-86117525D01*
X138078393Y-85949321D01*
X138078394Y-85949318D01*
X138088999Y-85845516D01*
X138089000Y-85845516D01*
X138089000Y-85511500D01*
X139025000Y-85511500D01*
X139025000Y-85845516D01*
X139035605Y-85949318D01*
X139035606Y-85949321D01*
X139091342Y-86117525D01*
X139184365Y-86268339D01*
X139184370Y-86268345D01*
X139309654Y-86393629D01*
X139309660Y-86393634D01*
X139460474Y-86486657D01*
X139628678Y-86542393D01*
X139628681Y-86542394D01*
X139732483Y-86552999D01*
X139732483Y-86553000D01*
X139954000Y-86553000D01*
X139954000Y-85511500D01*
X139025000Y-85511500D01*
X138089000Y-85511500D01*
X137160000Y-85511500D01*
X136652000Y-85511500D01*
X136652000Y-85129500D01*
X136672002Y-85061379D01*
X136725658Y-85014886D01*
X136778000Y-85003500D01*
X138089000Y-85003500D01*
X139025000Y-85003500D01*
X139954000Y-85003500D01*
X139954000Y-83962000D01*
X139732483Y-83962000D01*
X139628681Y-83972605D01*
X139628678Y-83972606D01*
X139460474Y-84028342D01*
X139309660Y-84121365D01*
X139309654Y-84121370D01*
X139184370Y-84246654D01*
X139184365Y-84246660D01*
X139091342Y-84397474D01*
X139035606Y-84565678D01*
X139035605Y-84565681D01*
X139025000Y-84669483D01*
X139025000Y-85003500D01*
X138089000Y-85003500D01*
X138089000Y-84669483D01*
X138078394Y-84565681D01*
X138078393Y-84565678D01*
X138022657Y-84397474D01*
X137929634Y-84246660D01*
X137929629Y-84246654D01*
X137804345Y-84121370D01*
X137804339Y-84121365D01*
X137653525Y-84028342D01*
X137485321Y-83972606D01*
X137485318Y-83972605D01*
X137381516Y-83962000D01*
X137097423Y-83962000D01*
X137029302Y-83941998D01*
X136982809Y-83888342D01*
X136972705Y-83818068D01*
X137002199Y-83753488D01*
X137008328Y-83746905D01*
X137039829Y-83715404D01*
X137102141Y-83681378D01*
X137128924Y-83678499D01*
X137381544Y-83678499D01*
X137485426Y-83667887D01*
X137653738Y-83612115D01*
X137804652Y-83519030D01*
X137930030Y-83393652D01*
X138023115Y-83242738D01*
X138078887Y-83074426D01*
X138089500Y-82970545D01*
X138089499Y-82677422D01*
X138109501Y-82609303D01*
X138126399Y-82588333D01*
X138595709Y-82119023D01*
X138604849Y-82110739D01*
X138638568Y-82083068D01*
X138764595Y-81929504D01*
X138787378Y-81886880D01*
X138837129Y-81836231D01*
X138906366Y-81820521D01*
X138973105Y-81844736D01*
G37*
%TD.AperFunction*%
%TA.AperFunction,Conductor*%
G36*
X149801621Y-55900502D02*
G01*
X149848114Y-55954158D01*
X149859500Y-56006500D01*
X149859500Y-149733500D01*
X149839498Y-149801621D01*
X149785842Y-149848114D01*
X149733500Y-149859500D01*
X124586500Y-149859500D01*
X124518379Y-149839498D01*
X124471886Y-149785842D01*
X124460500Y-149733500D01*
X124460500Y-137181004D01*
X126976620Y-137181004D01*
X126996089Y-137378692D01*
X126996091Y-137378704D01*
X127053758Y-137568803D01*
X127053759Y-137568805D01*
X127147405Y-137744004D01*
X127273432Y-137897568D01*
X127307149Y-137925239D01*
X127316298Y-137933532D01*
X129182223Y-139799457D01*
X129216249Y-139861769D01*
X129211184Y-139932584D01*
X129182224Y-139977645D01*
X129132301Y-140027569D01*
X129123142Y-140035870D01*
X129089432Y-140063535D01*
X128963405Y-140217100D01*
X128891835Y-140351000D01*
X128869759Y-140392299D01*
X128869758Y-140392301D01*
X128812091Y-140582400D01*
X128812089Y-140582412D01*
X128792620Y-140780100D01*
X128792620Y-140780106D01*
X128796893Y-140823490D01*
X128797500Y-140835841D01*
X128797500Y-144990262D01*
X128796893Y-145002612D01*
X128792620Y-145045996D01*
X128792620Y-145046004D01*
X128812089Y-145243692D01*
X128812091Y-145243701D01*
X128850986Y-145371918D01*
X128869759Y-145433804D01*
X128963405Y-145609004D01*
X129089432Y-145762568D01*
X129123149Y-145790239D01*
X129132298Y-145798532D01*
X129419882Y-146086116D01*
X129453908Y-146148428D01*
X129456357Y-146164805D01*
X129464232Y-146259844D01*
X129465437Y-146274375D01*
X129520702Y-146492612D01*
X129520703Y-146492613D01*
X129611141Y-146698793D01*
X129734275Y-146887265D01*
X129734279Y-146887270D01*
X129886762Y-147052908D01*
X129941331Y-147095381D01*
X130064424Y-147191189D01*
X130262426Y-147298342D01*
X130262427Y-147298342D01*
X130262428Y-147298343D01*
X130374227Y-147336723D01*
X130475365Y-147371444D01*
X130697431Y-147408500D01*
X130697435Y-147408500D01*
X130922565Y-147408500D01*
X130922569Y-147408500D01*
X131144635Y-147371444D01*
X131357574Y-147298342D01*
X131555576Y-147191189D01*
X131733240Y-147052906D01*
X131885722Y-146887268D01*
X131885927Y-146886955D01*
X131901122Y-146863695D01*
X131974816Y-146750898D01*
X132028819Y-146704810D01*
X132099167Y-146695235D01*
X132163524Y-146725212D01*
X132185782Y-146750898D01*
X132274674Y-146886958D01*
X132427097Y-147052534D01*
X132604698Y-147190767D01*
X132604699Y-147190768D01*
X132802628Y-147297882D01*
X132802630Y-147297883D01*
X133015483Y-147370955D01*
X133015492Y-147370957D01*
X133096000Y-147384391D01*
X133096000Y-146483674D01*
X133207685Y-146534680D01*
X133314237Y-146550000D01*
X133385763Y-146550000D01*
X133492315Y-146534680D01*
X133604000Y-146483674D01*
X133604000Y-147384390D01*
X133684507Y-147370957D01*
X133684516Y-147370955D01*
X133897369Y-147297883D01*
X133897371Y-147297882D01*
X134095300Y-147190768D01*
X134095301Y-147190767D01*
X134272902Y-147052534D01*
X134425327Y-146886955D01*
X134514217Y-146750899D01*
X134568220Y-146704810D01*
X134638568Y-146695235D01*
X134702925Y-146725212D01*
X134725183Y-146750898D01*
X134814279Y-146887270D01*
X134966762Y-147052908D01*
X135021331Y-147095381D01*
X135144424Y-147191189D01*
X135342426Y-147298342D01*
X135342427Y-147298342D01*
X135342428Y-147298343D01*
X135454227Y-147336723D01*
X135555365Y-147371444D01*
X135777431Y-147408500D01*
X135777435Y-147408500D01*
X136002565Y-147408500D01*
X136002569Y-147408500D01*
X136224635Y-147371444D01*
X136437574Y-147298342D01*
X136635576Y-147191189D01*
X136813240Y-147052906D01*
X136965722Y-146887268D01*
X136965927Y-146886955D01*
X136971115Y-146879012D01*
X137054518Y-146751354D01*
X137108520Y-146705268D01*
X137178868Y-146695692D01*
X137243225Y-146725669D01*
X137265480Y-146751353D01*
X137298607Y-146802058D01*
X137354275Y-146887265D01*
X137354279Y-146887270D01*
X137506762Y-147052908D01*
X137561331Y-147095381D01*
X137684424Y-147191189D01*
X137882426Y-147298342D01*
X137882427Y-147298342D01*
X137882428Y-147298343D01*
X137994227Y-147336723D01*
X138095365Y-147371444D01*
X138317431Y-147408500D01*
X138317435Y-147408500D01*
X138542565Y-147408500D01*
X138542569Y-147408500D01*
X138764635Y-147371444D01*
X138977574Y-147298342D01*
X139175576Y-147191189D01*
X139353240Y-147052906D01*
X139505722Y-146887268D01*
X139505927Y-146886955D01*
X139511115Y-146879012D01*
X139594518Y-146751354D01*
X139648520Y-146705268D01*
X139718868Y-146695692D01*
X139783225Y-146725669D01*
X139805480Y-146751353D01*
X139838607Y-146802058D01*
X139894275Y-146887265D01*
X139894279Y-146887270D01*
X140046762Y-147052908D01*
X140101331Y-147095381D01*
X140224424Y-147191189D01*
X140422426Y-147298342D01*
X140422427Y-147298342D01*
X140422428Y-147298343D01*
X140534227Y-147336723D01*
X140635365Y-147371444D01*
X140857431Y-147408500D01*
X140857435Y-147408500D01*
X141082565Y-147408500D01*
X141082569Y-147408500D01*
X141304635Y-147371444D01*
X141517574Y-147298342D01*
X141715576Y-147191189D01*
X141893240Y-147052906D01*
X141954245Y-146986637D01*
X142015096Y-146950067D01*
X142086061Y-146952200D01*
X142144606Y-146992362D01*
X142165000Y-147027941D01*
X142209111Y-147146204D01*
X142209112Y-147146207D01*
X142296738Y-147263261D01*
X142413792Y-147350887D01*
X142413794Y-147350888D01*
X142413796Y-147350889D01*
X142467600Y-147370957D01*
X142550795Y-147401988D01*
X142550803Y-147401990D01*
X142611350Y-147408499D01*
X142611355Y-147408499D01*
X142611362Y-147408500D01*
X142611368Y-147408500D01*
X144408632Y-147408500D01*
X144408638Y-147408500D01*
X144408645Y-147408499D01*
X144408649Y-147408499D01*
X144469196Y-147401990D01*
X144469199Y-147401989D01*
X144469201Y-147401989D01*
X144606204Y-147350889D01*
X144676399Y-147298342D01*
X144723261Y-147263261D01*
X144810887Y-147146207D01*
X144810887Y-147146206D01*
X144810889Y-147146204D01*
X144861989Y-147009201D01*
X144863800Y-146992362D01*
X144868499Y-146948649D01*
X144868500Y-146948632D01*
X144868500Y-145151367D01*
X144868499Y-145151350D01*
X144861990Y-145090803D01*
X144861988Y-145090795D01*
X144820952Y-144980777D01*
X144810889Y-144953796D01*
X144810888Y-144953794D01*
X144810887Y-144953792D01*
X144723261Y-144836738D01*
X144606207Y-144749112D01*
X144606202Y-144749110D01*
X144469204Y-144698011D01*
X144469196Y-144698009D01*
X144408649Y-144691500D01*
X144408638Y-144691500D01*
X142611362Y-144691500D01*
X142611350Y-144691500D01*
X142550803Y-144698009D01*
X142550795Y-144698011D01*
X142413797Y-144749110D01*
X142413792Y-144749112D01*
X142296738Y-144836738D01*
X142209112Y-144953792D01*
X142209111Y-144953795D01*
X142165000Y-145072058D01*
X142122453Y-145128893D01*
X142055932Y-145153703D01*
X141986558Y-145138611D01*
X141954246Y-145113363D01*
X141893240Y-145047094D01*
X141893239Y-145047093D01*
X141893237Y-145047091D01*
X141808037Y-144980777D01*
X141715576Y-144908811D01*
X141517574Y-144801658D01*
X141517572Y-144801657D01*
X141517571Y-144801656D01*
X141304639Y-144728557D01*
X141304630Y-144728555D01*
X141227029Y-144715606D01*
X141082569Y-144691500D01*
X140916700Y-144691500D01*
X140848579Y-144671498D01*
X140802086Y-144617842D01*
X140790700Y-144565500D01*
X140790700Y-143615829D01*
X140810702Y-143547708D01*
X140864358Y-143501215D01*
X140934632Y-143491111D01*
X140939853Y-143491975D01*
X141052323Y-143513000D01*
X141267672Y-143513000D01*
X141479360Y-143473428D01*
X141680166Y-143395636D01*
X141782230Y-143332439D01*
X141199518Y-142749727D01*
X141285148Y-142736165D01*
X141398045Y-142678641D01*
X141487641Y-142589045D01*
X141545165Y-142476148D01*
X141558727Y-142390518D01*
X142144163Y-142975954D01*
X142151275Y-142975461D01*
X142168731Y-142975461D01*
X142175833Y-142975954D01*
X142761272Y-142390516D01*
X142774835Y-142476148D01*
X142832359Y-142589045D01*
X142921955Y-142678641D01*
X143034852Y-142736165D01*
X143120482Y-142749727D01*
X142537769Y-143332440D01*
X142639827Y-143395632D01*
X142639831Y-143395634D01*
X142840639Y-143473428D01*
X143052328Y-143513000D01*
X143267672Y-143513000D01*
X143479360Y-143473428D01*
X143680166Y-143395636D01*
X143782230Y-143332439D01*
X143199518Y-142749727D01*
X143285148Y-142736165D01*
X143398045Y-142678641D01*
X143487641Y-142589045D01*
X143545165Y-142476148D01*
X143558727Y-142390518D01*
X144144163Y-142975954D01*
X144144164Y-142975954D01*
X144152185Y-142965332D01*
X144248174Y-142772560D01*
X144248177Y-142772552D01*
X144307107Y-142565433D01*
X144326977Y-142351000D01*
X144307107Y-142136566D01*
X144248177Y-141929447D01*
X144248174Y-141929439D01*
X144152185Y-141736665D01*
X144152185Y-141736664D01*
X144144164Y-141726043D01*
X143558727Y-142311481D01*
X143545165Y-142225852D01*
X143487641Y-142112955D01*
X143398045Y-142023359D01*
X143285148Y-141965835D01*
X143199517Y-141952272D01*
X143798013Y-141353775D01*
X143799518Y-141345016D01*
X143846330Y-141293339D01*
X143863564Y-141282669D01*
X144022778Y-141137526D01*
X144152612Y-140965599D01*
X144248643Y-140772742D01*
X144307601Y-140565524D01*
X144327480Y-140351000D01*
X144307601Y-140136476D01*
X144248643Y-139929258D01*
X144152612Y-139736401D01*
X144022778Y-139564474D01*
X144022776Y-139564471D01*
X143863565Y-139419331D01*
X143680397Y-139305918D01*
X143680392Y-139305916D01*
X143680391Y-139305915D01*
X143673690Y-139303319D01*
X143479500Y-139228089D01*
X143479497Y-139228088D01*
X143479496Y-139228088D01*
X143267721Y-139188500D01*
X143052279Y-139188500D01*
X142840504Y-139228088D01*
X142840499Y-139228089D01*
X142639613Y-139305913D01*
X142639602Y-139305918D01*
X142456434Y-139419331D01*
X142297226Y-139564469D01*
X142297222Y-139564473D01*
X142297222Y-139564474D01*
X142260548Y-139613036D01*
X142203535Y-139655343D01*
X142132699Y-139660110D01*
X142070530Y-139625823D01*
X142059454Y-139613040D01*
X142022778Y-139564474D01*
X142022773Y-139564469D01*
X141863565Y-139419331D01*
X141680397Y-139305918D01*
X141680392Y-139305916D01*
X141680391Y-139305915D01*
X141672595Y-139302895D01*
X141479496Y-139228088D01*
X141479494Y-139228087D01*
X141462755Y-139224958D01*
X141399470Y-139192779D01*
X141363629Y-139131493D01*
X141366611Y-139060559D01*
X141394056Y-139014855D01*
X141423674Y-138983314D01*
X141426367Y-138980535D01*
X141446135Y-138960769D01*
X141448614Y-138957571D01*
X141456299Y-138948571D01*
X141486586Y-138916321D01*
X141496345Y-138898567D01*
X141507204Y-138882038D01*
X141519614Y-138866040D01*
X141537177Y-138825451D01*
X141542396Y-138814801D01*
X141563694Y-138776061D01*
X141563695Y-138776060D01*
X141568733Y-138756435D01*
X141575138Y-138737730D01*
X141583181Y-138719145D01*
X141590096Y-138675481D01*
X141592504Y-138663852D01*
X141603500Y-138621030D01*
X141603500Y-138600775D01*
X141605051Y-138581063D01*
X141608220Y-138561057D01*
X141604059Y-138517036D01*
X141603500Y-138505179D01*
X141603500Y-136013758D01*
X141623502Y-135945637D01*
X141677158Y-135899144D01*
X141747432Y-135889040D01*
X141770412Y-135894585D01*
X141905483Y-135940955D01*
X141905490Y-135940957D01*
X142127477Y-135978000D01*
X142352523Y-135978000D01*
X142574509Y-135940957D01*
X142574516Y-135940955D01*
X142787369Y-135867883D01*
X142787371Y-135867881D01*
X142985298Y-135760769D01*
X143005688Y-135744898D01*
X142367587Y-135106797D01*
X142382315Y-135104680D01*
X142513100Y-135044952D01*
X142621761Y-134950798D01*
X142699493Y-134829844D01*
X142724361Y-134745150D01*
X143363077Y-135383866D01*
X143363078Y-135383866D01*
X143404516Y-135320441D01*
X143458519Y-135274352D01*
X143528867Y-135264777D01*
X143593225Y-135294754D01*
X143615482Y-135320440D01*
X143656921Y-135383866D01*
X144295638Y-134745149D01*
X144320507Y-134829844D01*
X144398239Y-134950798D01*
X144506900Y-135044952D01*
X144637685Y-135104680D01*
X144652411Y-135106797D01*
X144014310Y-135744898D01*
X144034697Y-135760766D01*
X144034701Y-135760768D01*
X144232628Y-135867882D01*
X144232630Y-135867883D01*
X144445483Y-135940955D01*
X144445490Y-135940957D01*
X144667477Y-135978000D01*
X144892523Y-135978000D01*
X145114509Y-135940957D01*
X145114516Y-135940955D01*
X145327369Y-135867883D01*
X145327371Y-135867881D01*
X145525298Y-135760769D01*
X145545688Y-135744898D01*
X144907587Y-135106797D01*
X144922315Y-135104680D01*
X145053100Y-135044952D01*
X145161761Y-134950798D01*
X145239493Y-134829844D01*
X145264361Y-134745150D01*
X145903077Y-135383866D01*
X145978419Y-135268548D01*
X146068820Y-135062456D01*
X146068823Y-135062449D01*
X146124067Y-134844292D01*
X146142653Y-134620000D01*
X146124067Y-134395707D01*
X146068823Y-134177550D01*
X146068820Y-134177543D01*
X145978419Y-133971451D01*
X145903077Y-133856132D01*
X145264360Y-134494848D01*
X145239493Y-134410156D01*
X145161761Y-134289202D01*
X145053100Y-134195048D01*
X144922315Y-134135320D01*
X144907586Y-134133202D01*
X145545688Y-133495100D01*
X145545687Y-133495099D01*
X145525308Y-133479237D01*
X145525298Y-133479231D01*
X145491791Y-133461097D01*
X145441401Y-133411083D01*
X145426050Y-133341766D01*
X145450612Y-133275153D01*
X145491790Y-133239472D01*
X145525576Y-133221189D01*
X145703240Y-133082906D01*
X145855722Y-132917268D01*
X145978860Y-132728791D01*
X146069296Y-132522616D01*
X146124564Y-132304368D01*
X146143156Y-132080000D01*
X146124564Y-131855632D01*
X146069296Y-131637384D01*
X145978860Y-131431209D01*
X145972140Y-131420924D01*
X145855724Y-131242734D01*
X145855720Y-131242729D01*
X145703237Y-131077091D01*
X145621382Y-131013381D01*
X145525576Y-130938811D01*
X145327574Y-130831658D01*
X145327572Y-130831657D01*
X145327571Y-130831656D01*
X145114639Y-130758557D01*
X145114630Y-130758555D01*
X145067023Y-130750611D01*
X144892569Y-130721500D01*
X144667431Y-130721500D01*
X144519211Y-130746233D01*
X144445369Y-130758555D01*
X144445360Y-130758557D01*
X144232428Y-130831656D01*
X144232426Y-130831658D01*
X144034426Y-130938810D01*
X144034424Y-130938811D01*
X143856762Y-131077091D01*
X143704279Y-131242729D01*
X143615483Y-131378643D01*
X143561479Y-131424731D01*
X143491131Y-131434306D01*
X143426774Y-131404329D01*
X143404517Y-131378643D01*
X143315720Y-131242729D01*
X143163237Y-131077091D01*
X143081382Y-131013381D01*
X142985576Y-130938811D01*
X142787574Y-130831658D01*
X142787572Y-130831657D01*
X142787571Y-130831656D01*
X142574639Y-130758557D01*
X142574630Y-130758555D01*
X142527023Y-130750611D01*
X142352569Y-130721500D01*
X142127431Y-130721500D01*
X141979211Y-130746233D01*
X141905369Y-130758555D01*
X141905360Y-130758557D01*
X141692428Y-130831656D01*
X141692426Y-130831658D01*
X141494426Y-130938810D01*
X141494424Y-130938811D01*
X141316762Y-131077091D01*
X141164279Y-131242729D01*
X141075483Y-131378643D01*
X141021479Y-131424731D01*
X140951131Y-131434306D01*
X140886774Y-131404329D01*
X140864517Y-131378643D01*
X140775720Y-131242729D01*
X140623237Y-131077091D01*
X140541382Y-131013381D01*
X140445576Y-130938811D01*
X140417620Y-130923681D01*
X140399529Y-130913891D01*
X140349139Y-130863877D01*
X140333500Y-130803078D01*
X140333500Y-107763524D01*
X140353502Y-107695403D01*
X140365858Y-107679220D01*
X140439040Y-107597944D01*
X140534527Y-107432556D01*
X140593542Y-107250928D01*
X140613504Y-107061000D01*
X140593542Y-106871072D01*
X140534527Y-106689444D01*
X140439040Y-106524056D01*
X140439038Y-106524054D01*
X140439034Y-106524048D01*
X140311255Y-106382135D01*
X140156752Y-106269882D01*
X140105598Y-106247107D01*
X140051502Y-106201127D01*
X140030853Y-106133199D01*
X140050206Y-106064891D01*
X140103416Y-106017890D01*
X140156847Y-106006000D01*
X140852585Y-106006000D01*
X140852597Y-106005999D01*
X140913093Y-105999494D01*
X141049964Y-105948444D01*
X141049965Y-105948444D01*
X141166904Y-105860904D01*
X141254444Y-105743965D01*
X141254444Y-105743964D01*
X141305494Y-105607093D01*
X141311999Y-105546597D01*
X141312000Y-105546585D01*
X141312000Y-104902000D01*
X140385116Y-104902000D01*
X140413493Y-104857844D01*
X140454000Y-104719889D01*
X140454000Y-104576111D01*
X140413493Y-104438156D01*
X140385116Y-104394000D01*
X141312000Y-104394000D01*
X141312000Y-103749414D01*
X141311999Y-103749402D01*
X141305494Y-103688906D01*
X141254444Y-103552035D01*
X141254444Y-103552034D01*
X141166904Y-103435095D01*
X141049966Y-103347556D01*
X140934826Y-103304611D01*
X140877991Y-103262064D01*
X140853180Y-103195543D01*
X140868272Y-103126169D01*
X140886154Y-103101222D01*
X141029722Y-102945268D01*
X141125555Y-102798585D01*
X141179558Y-102752496D01*
X141231038Y-102741500D01*
X143679117Y-102741500D01*
X143747238Y-102761502D01*
X143782330Y-102795229D01*
X143803020Y-102824777D01*
X143803023Y-102824781D01*
X143960219Y-102981977D01*
X143960223Y-102981980D01*
X143960227Y-102981983D01*
X144064124Y-103054732D01*
X144142323Y-103109488D01*
X144178096Y-103126169D01*
X144252964Y-103161081D01*
X144306249Y-103207998D01*
X144325710Y-103276276D01*
X144305168Y-103344236D01*
X144252965Y-103389470D01*
X144142577Y-103440945D01*
X144079394Y-103485185D01*
X144758209Y-104164000D01*
X144748431Y-104164000D01*
X144654579Y-104179661D01*
X144542749Y-104240180D01*
X144456629Y-104333731D01*
X144405552Y-104450177D01*
X144399461Y-104523670D01*
X143720185Y-103844394D01*
X143675946Y-103907575D01*
X143582033Y-104108972D01*
X143582031Y-104108976D01*
X143524517Y-104323625D01*
X143505149Y-104545000D01*
X143524517Y-104766374D01*
X143582031Y-104981023D01*
X143582033Y-104981027D01*
X143675946Y-105182425D01*
X143720184Y-105245603D01*
X143720185Y-105245603D01*
X144395607Y-104570181D01*
X144395051Y-104576898D01*
X144426266Y-104700162D01*
X144495813Y-104806612D01*
X144596157Y-104884713D01*
X144716422Y-104926000D01*
X144758210Y-104926000D01*
X144079395Y-105604813D01*
X144079395Y-105604814D01*
X144142575Y-105649053D01*
X144142574Y-105649053D01*
X144252964Y-105700529D01*
X144306249Y-105747447D01*
X144325710Y-105815724D01*
X144305168Y-105883684D01*
X144252964Y-105928919D01*
X144142323Y-105980512D01*
X143960222Y-106108020D01*
X143960216Y-106108025D01*
X143803025Y-106265216D01*
X143803020Y-106265222D01*
X143675512Y-106447323D01*
X143639731Y-106524056D01*
X143581560Y-106648804D01*
X143524022Y-106863537D01*
X143524022Y-106863539D01*
X143504647Y-107085000D01*
X143524022Y-107306468D01*
X143534485Y-107345515D01*
X143532795Y-107416492D01*
X143501873Y-107467220D01*
X142867336Y-108101757D01*
X142854901Y-108111721D01*
X142855089Y-108111948D01*
X142848979Y-108117002D01*
X142802370Y-108166635D01*
X142799620Y-108169473D01*
X142779863Y-108189231D01*
X142777374Y-108192439D01*
X142769688Y-108201436D01*
X142739418Y-108233673D01*
X142739411Y-108233683D01*
X142729651Y-108251435D01*
X142718803Y-108267950D01*
X142706386Y-108283958D01*
X142688824Y-108324540D01*
X142683604Y-108335195D01*
X142662305Y-108373939D01*
X142662303Y-108373944D01*
X142657267Y-108393559D01*
X142650864Y-108412262D01*
X142642819Y-108430852D01*
X142635901Y-108474525D01*
X142633495Y-108486142D01*
X142622500Y-108528968D01*
X142622500Y-108549223D01*
X142620949Y-108568933D01*
X142617780Y-108588942D01*
X142621941Y-108632961D01*
X142622500Y-108644819D01*
X142622500Y-126043474D01*
X142602498Y-126111595D01*
X142590137Y-126127784D01*
X142516957Y-126209059D01*
X142421476Y-126374438D01*
X142421473Y-126374445D01*
X142362457Y-126556072D01*
X142342496Y-126746000D01*
X142362457Y-126935927D01*
X142392526Y-127028470D01*
X142421473Y-127117556D01*
X142421476Y-127117561D01*
X142516958Y-127282941D01*
X142516965Y-127282951D01*
X142644744Y-127424864D01*
X142685537Y-127454502D01*
X142799248Y-127537118D01*
X142973712Y-127614794D01*
X143160513Y-127654500D01*
X143351487Y-127654500D01*
X143538288Y-127614794D01*
X143712752Y-127537118D01*
X143867253Y-127424866D01*
X143995040Y-127282944D01*
X144090527Y-127117556D01*
X144149542Y-126935928D01*
X144169504Y-126746000D01*
X144149542Y-126556072D01*
X144090527Y-126374444D01*
X143995040Y-126209056D01*
X143921863Y-126127784D01*
X143891146Y-126063776D01*
X143889500Y-126043474D01*
X143889500Y-126033892D01*
X143909502Y-125965771D01*
X143963158Y-125919278D01*
X144033432Y-125909174D01*
X144087771Y-125930679D01*
X144142573Y-125969052D01*
X144343972Y-126062966D01*
X144343976Y-126062968D01*
X144558625Y-126120482D01*
X144780000Y-126139850D01*
X145001374Y-126120482D01*
X145216023Y-126062968D01*
X145216027Y-126062966D01*
X145417425Y-125969053D01*
X145417426Y-125969052D01*
X145480603Y-125924814D01*
X145480603Y-125924812D01*
X144801791Y-125246000D01*
X144811569Y-125246000D01*
X144905421Y-125230339D01*
X145017251Y-125169820D01*
X145103371Y-125076269D01*
X145154448Y-124959823D01*
X145160538Y-124886329D01*
X145839812Y-125565603D01*
X145839814Y-125565603D01*
X145884052Y-125502426D01*
X145884053Y-125502425D01*
X145977966Y-125301027D01*
X145977968Y-125301023D01*
X146035482Y-125086374D01*
X146054850Y-124865000D01*
X146035482Y-124643625D01*
X145977968Y-124428976D01*
X145977966Y-124428972D01*
X145884051Y-124227571D01*
X145839815Y-124164395D01*
X145839813Y-124164395D01*
X145164392Y-124839816D01*
X145164949Y-124833102D01*
X145133734Y-124709838D01*
X145064187Y-124603388D01*
X144963843Y-124525287D01*
X144843578Y-124484000D01*
X144801789Y-124484000D01*
X145480603Y-123805186D01*
X145480603Y-123805184D01*
X145417425Y-123760946D01*
X145417420Y-123760943D01*
X145307034Y-123709469D01*
X145253750Y-123662552D01*
X145234289Y-123594275D01*
X145254831Y-123526315D01*
X145307034Y-123481081D01*
X145417677Y-123429488D01*
X145599781Y-123301977D01*
X145756977Y-123144781D01*
X145884488Y-122962677D01*
X145978440Y-122761196D01*
X146035978Y-122546463D01*
X146055353Y-122325000D01*
X146035978Y-122103537D01*
X145978440Y-121888804D01*
X145884488Y-121687324D01*
X145756977Y-121505219D01*
X145599781Y-121348023D01*
X145599777Y-121348020D01*
X145599772Y-121348016D01*
X145417677Y-121220512D01*
X145417675Y-121220511D01*
X145307627Y-121169195D01*
X145254342Y-121122278D01*
X145234881Y-121054001D01*
X145255423Y-120986041D01*
X145307627Y-120940805D01*
X145417677Y-120889488D01*
X145599781Y-120761977D01*
X145756977Y-120604781D01*
X145884488Y-120422677D01*
X145978440Y-120221196D01*
X146035978Y-120006463D01*
X146055353Y-119785000D01*
X146035978Y-119563537D01*
X145978440Y-119348804D01*
X145884488Y-119147324D01*
X145756977Y-118965219D01*
X145599781Y-118808023D01*
X145599777Y-118808020D01*
X145599772Y-118808016D01*
X145417677Y-118680512D01*
X145417675Y-118680511D01*
X145307627Y-118629195D01*
X145254342Y-118582278D01*
X145234881Y-118514001D01*
X145255423Y-118446041D01*
X145307627Y-118400805D01*
X145417677Y-118349488D01*
X145599781Y-118221977D01*
X145756977Y-118064781D01*
X145884488Y-117882677D01*
X145978440Y-117681196D01*
X146035978Y-117466463D01*
X146055353Y-117245000D01*
X146035978Y-117023537D01*
X145978440Y-116808804D01*
X145884488Y-116607324D01*
X145756977Y-116425219D01*
X145599781Y-116268023D01*
X145599777Y-116268020D01*
X145599772Y-116268016D01*
X145417677Y-116140512D01*
X145417675Y-116140511D01*
X145307627Y-116089195D01*
X145254342Y-116042278D01*
X145234881Y-115974001D01*
X145255423Y-115906041D01*
X145307627Y-115860805D01*
X145417677Y-115809488D01*
X145599781Y-115681977D01*
X145756977Y-115524781D01*
X145884488Y-115342677D01*
X145978440Y-115141196D01*
X146035978Y-114926463D01*
X146055353Y-114705000D01*
X146035978Y-114483537D01*
X145978440Y-114268804D01*
X145884488Y-114067324D01*
X145756977Y-113885219D01*
X145599781Y-113728023D01*
X145599777Y-113728020D01*
X145599772Y-113728016D01*
X145417677Y-113600512D01*
X145417675Y-113600511D01*
X145307627Y-113549195D01*
X145254342Y-113502278D01*
X145234881Y-113434001D01*
X145255423Y-113366041D01*
X145307627Y-113320805D01*
X145417677Y-113269488D01*
X145599781Y-113141977D01*
X145756977Y-112984781D01*
X145884488Y-112802677D01*
X145978440Y-112601196D01*
X146035978Y-112386463D01*
X146055353Y-112165000D01*
X146035978Y-111943537D01*
X145978440Y-111728804D01*
X145884488Y-111527324D01*
X145756977Y-111345219D01*
X145599781Y-111188023D01*
X145599777Y-111188020D01*
X145599772Y-111188016D01*
X145417677Y-111060512D01*
X145417675Y-111060511D01*
X145307627Y-111009195D01*
X145254342Y-110962278D01*
X145234881Y-110894001D01*
X145255423Y-110826041D01*
X145307627Y-110780805D01*
X145417677Y-110729488D01*
X145599781Y-110601977D01*
X145756977Y-110444781D01*
X145884488Y-110262677D01*
X145978440Y-110061196D01*
X146035978Y-109846463D01*
X146055353Y-109625000D01*
X146035978Y-109403537D01*
X145978440Y-109188804D01*
X145884488Y-108987324D01*
X145756977Y-108805219D01*
X145599781Y-108648023D01*
X145599777Y-108648020D01*
X145599772Y-108648016D01*
X145417677Y-108520512D01*
X145417675Y-108520511D01*
X145307627Y-108469195D01*
X145254342Y-108422278D01*
X145234881Y-108354001D01*
X145255423Y-108286041D01*
X145307627Y-108240805D01*
X145322909Y-108233679D01*
X145417677Y-108189488D01*
X145599781Y-108061977D01*
X145756977Y-107904781D01*
X145884488Y-107722677D01*
X145978440Y-107521196D01*
X146035978Y-107306463D01*
X146055353Y-107085000D01*
X146035978Y-106863537D01*
X145978440Y-106648804D01*
X145884488Y-106447324D01*
X145756977Y-106265219D01*
X145599781Y-106108023D01*
X145599777Y-106108020D01*
X145599772Y-106108016D01*
X145417677Y-105980512D01*
X145417675Y-105980511D01*
X145307035Y-105928919D01*
X145253750Y-105882002D01*
X145234289Y-105813725D01*
X145254831Y-105745765D01*
X145307035Y-105700529D01*
X145417425Y-105649053D01*
X145417426Y-105649052D01*
X145480603Y-105604814D01*
X145480603Y-105604812D01*
X144801791Y-104926000D01*
X144811569Y-104926000D01*
X144905421Y-104910339D01*
X145017251Y-104849820D01*
X145103371Y-104756269D01*
X145154448Y-104639823D01*
X145160538Y-104566329D01*
X145839812Y-105245603D01*
X145839814Y-105245603D01*
X145884052Y-105182426D01*
X145884053Y-105182425D01*
X145977966Y-104981027D01*
X145977968Y-104981023D01*
X146035482Y-104766374D01*
X146054850Y-104545000D01*
X146035482Y-104323625D01*
X145977968Y-104108976D01*
X145977966Y-104108972D01*
X145884051Y-103907571D01*
X145839815Y-103844395D01*
X145839813Y-103844395D01*
X145164392Y-104519816D01*
X145164949Y-104513102D01*
X145133734Y-104389838D01*
X145064187Y-104283388D01*
X144963843Y-104205287D01*
X144843578Y-104164000D01*
X144801790Y-104164000D01*
X145480603Y-103485185D01*
X145480603Y-103485184D01*
X145417425Y-103440946D01*
X145417420Y-103440943D01*
X145307034Y-103389469D01*
X145253750Y-103342552D01*
X145234289Y-103274275D01*
X145254831Y-103206315D01*
X145307034Y-103161081D01*
X145417677Y-103109488D01*
X145599781Y-102981977D01*
X145756977Y-102824781D01*
X145884488Y-102642677D01*
X145978440Y-102441196D01*
X146035978Y-102226463D01*
X146055353Y-102005000D01*
X146035978Y-101783537D01*
X145978440Y-101568804D01*
X145884488Y-101367324D01*
X145756977Y-101185219D01*
X145599781Y-101028023D01*
X145599777Y-101028020D01*
X145599772Y-101028016D01*
X145417677Y-100900512D01*
X145417675Y-100900511D01*
X145307627Y-100849195D01*
X145254342Y-100802278D01*
X145234881Y-100734001D01*
X145255423Y-100666041D01*
X145307627Y-100620805D01*
X145417677Y-100569488D01*
X145599781Y-100441977D01*
X145756977Y-100284781D01*
X145884488Y-100102677D01*
X145978440Y-99901196D01*
X146035978Y-99686463D01*
X146055353Y-99465000D01*
X146035978Y-99243537D01*
X145978440Y-99028804D01*
X145884488Y-98827324D01*
X145756977Y-98645219D01*
X145599781Y-98488023D01*
X145599777Y-98488020D01*
X145599772Y-98488016D01*
X145417677Y-98360512D01*
X145417675Y-98360511D01*
X145307627Y-98309195D01*
X145254342Y-98262278D01*
X145234881Y-98194001D01*
X145255423Y-98126041D01*
X145307627Y-98080805D01*
X145417677Y-98029488D01*
X145599781Y-97901977D01*
X145756977Y-97744781D01*
X145884488Y-97562677D01*
X145978440Y-97361196D01*
X146035978Y-97146463D01*
X146055353Y-96925000D01*
X146035978Y-96703537D01*
X145978440Y-96488804D01*
X145884488Y-96287324D01*
X145756977Y-96105219D01*
X145599781Y-95948023D01*
X145599777Y-95948020D01*
X145599772Y-95948016D01*
X145417677Y-95820512D01*
X145417675Y-95820511D01*
X145307627Y-95769195D01*
X145254342Y-95722278D01*
X145234881Y-95654001D01*
X145255423Y-95586041D01*
X145307627Y-95540805D01*
X145308219Y-95540529D01*
X145417677Y-95489488D01*
X145599781Y-95361977D01*
X145756977Y-95204781D01*
X145884488Y-95022677D01*
X145978440Y-94821196D01*
X146035978Y-94606463D01*
X146055353Y-94385000D01*
X146035978Y-94163537D01*
X145978440Y-93948804D01*
X145884488Y-93747324D01*
X145756977Y-93565219D01*
X145599781Y-93408023D01*
X145599777Y-93408020D01*
X145599772Y-93408016D01*
X145417677Y-93280512D01*
X145417675Y-93280511D01*
X145307627Y-93229195D01*
X145254342Y-93182278D01*
X145234881Y-93114001D01*
X145255423Y-93046041D01*
X145307627Y-93000805D01*
X145327243Y-92991658D01*
X145417677Y-92949488D01*
X145599781Y-92821977D01*
X145756977Y-92664781D01*
X145884488Y-92482677D01*
X145978440Y-92281196D01*
X146035978Y-92066463D01*
X146055353Y-91845000D01*
X146035978Y-91623537D01*
X145978440Y-91408804D01*
X145884488Y-91207324D01*
X145756977Y-91025219D01*
X145599781Y-90868023D01*
X145599777Y-90868020D01*
X145599772Y-90868016D01*
X145417677Y-90740512D01*
X145417675Y-90740511D01*
X145307627Y-90689195D01*
X145254342Y-90642278D01*
X145234881Y-90574001D01*
X145255423Y-90506041D01*
X145307627Y-90460805D01*
X145417677Y-90409488D01*
X145599781Y-90281977D01*
X145756977Y-90124781D01*
X145884488Y-89942677D01*
X145978440Y-89741196D01*
X146035978Y-89526463D01*
X146055353Y-89305000D01*
X146035978Y-89083537D01*
X145978440Y-88868804D01*
X145884488Y-88667324D01*
X145756977Y-88485219D01*
X145599781Y-88328023D01*
X145599777Y-88328020D01*
X145599772Y-88328016D01*
X145417677Y-88200512D01*
X145417675Y-88200511D01*
X145307627Y-88149195D01*
X145254342Y-88102278D01*
X145234881Y-88034001D01*
X145255423Y-87966041D01*
X145307627Y-87920805D01*
X145417677Y-87869488D01*
X145599781Y-87741977D01*
X145756977Y-87584781D01*
X145884488Y-87402677D01*
X145978440Y-87201196D01*
X146035978Y-86986463D01*
X146055353Y-86765000D01*
X146035978Y-86543537D01*
X145978440Y-86328804D01*
X145884488Y-86127324D01*
X145756977Y-85945219D01*
X145599781Y-85788023D01*
X145599777Y-85788020D01*
X145599772Y-85788016D01*
X145417677Y-85660512D01*
X145417675Y-85660511D01*
X145307627Y-85609195D01*
X145254342Y-85562278D01*
X145234881Y-85494001D01*
X145255423Y-85426041D01*
X145307627Y-85380805D01*
X145417677Y-85329488D01*
X145599781Y-85201977D01*
X145756977Y-85044781D01*
X145884488Y-84862677D01*
X145978440Y-84661196D01*
X146035978Y-84446463D01*
X146055353Y-84225000D01*
X146035978Y-84003537D01*
X145978440Y-83788804D01*
X145884488Y-83587324D01*
X145756977Y-83405219D01*
X145599781Y-83248023D01*
X145599777Y-83248020D01*
X145599772Y-83248016D01*
X145417677Y-83120512D01*
X145417675Y-83120511D01*
X145307627Y-83069195D01*
X145254342Y-83022278D01*
X145234881Y-82954001D01*
X145255423Y-82886041D01*
X145307627Y-82840805D01*
X145417677Y-82789488D01*
X145599781Y-82661977D01*
X145756977Y-82504781D01*
X145884488Y-82322677D01*
X145978440Y-82121196D01*
X146035978Y-81906463D01*
X146055353Y-81685000D01*
X146035978Y-81463537D01*
X145978440Y-81248804D01*
X145884488Y-81047324D01*
X145756977Y-80865219D01*
X145599781Y-80708023D01*
X145599777Y-80708020D01*
X145599772Y-80708016D01*
X145417677Y-80580512D01*
X145417675Y-80580511D01*
X145307627Y-80529195D01*
X145254342Y-80482278D01*
X145234881Y-80414001D01*
X145255423Y-80346041D01*
X145307627Y-80300805D01*
X145417677Y-80249488D01*
X145599781Y-80121977D01*
X145756977Y-79964781D01*
X145884488Y-79782677D01*
X145978440Y-79581196D01*
X146035978Y-79366463D01*
X146055353Y-79145000D01*
X146035978Y-78923537D01*
X145978440Y-78708804D01*
X145884488Y-78507324D01*
X145756977Y-78325219D01*
X145599781Y-78168023D01*
X145599777Y-78168020D01*
X145599772Y-78168016D01*
X145417677Y-78040512D01*
X145417675Y-78040511D01*
X145307627Y-77989195D01*
X145254342Y-77942278D01*
X145234881Y-77874001D01*
X145255423Y-77806041D01*
X145307627Y-77760805D01*
X145417677Y-77709488D01*
X145599781Y-77581977D01*
X145756977Y-77424781D01*
X145884488Y-77242677D01*
X145978440Y-77041196D01*
X146035978Y-76826463D01*
X146055353Y-76605000D01*
X146035978Y-76383537D01*
X145978440Y-76168804D01*
X145884488Y-75967324D01*
X145756977Y-75785219D01*
X145599781Y-75628023D01*
X145599777Y-75628020D01*
X145599772Y-75628016D01*
X145417677Y-75500512D01*
X145417675Y-75500511D01*
X145307627Y-75449195D01*
X145254342Y-75402278D01*
X145234881Y-75334001D01*
X145255423Y-75266041D01*
X145307627Y-75220805D01*
X145417677Y-75169488D01*
X145599781Y-75041977D01*
X145756977Y-74884781D01*
X145884488Y-74702677D01*
X145978440Y-74501196D01*
X146035978Y-74286463D01*
X146055353Y-74065000D01*
X146035978Y-73843537D01*
X145978440Y-73628804D01*
X145884488Y-73427324D01*
X145756977Y-73245219D01*
X145599781Y-73088023D01*
X145599777Y-73088020D01*
X145599772Y-73088016D01*
X145417677Y-72960512D01*
X145417675Y-72960511D01*
X145307627Y-72909195D01*
X145254342Y-72862278D01*
X145234881Y-72794001D01*
X145255423Y-72726041D01*
X145307627Y-72680805D01*
X145417677Y-72629488D01*
X145599781Y-72501977D01*
X145756977Y-72344781D01*
X145884488Y-72162677D01*
X145978440Y-71961196D01*
X146035978Y-71746463D01*
X146055353Y-71525000D01*
X146035978Y-71303537D01*
X145978440Y-71088804D01*
X145884488Y-70887324D01*
X145756977Y-70705219D01*
X145599781Y-70548023D01*
X145599777Y-70548020D01*
X145599772Y-70548016D01*
X145417677Y-70420512D01*
X145417675Y-70420511D01*
X145216199Y-70326561D01*
X145216193Y-70326559D01*
X145174074Y-70315273D01*
X145001463Y-70269022D01*
X144780000Y-70249647D01*
X144558537Y-70269022D01*
X144443463Y-70299856D01*
X144343806Y-70326559D01*
X144343801Y-70326561D01*
X144142323Y-70420512D01*
X143960222Y-70548020D01*
X143960216Y-70548025D01*
X143803025Y-70705216D01*
X143803020Y-70705222D01*
X143675512Y-70887323D01*
X143600695Y-71047769D01*
X143553778Y-71101054D01*
X143485500Y-71120515D01*
X143417540Y-71099973D01*
X143371475Y-71045950D01*
X143360500Y-70994519D01*
X143360500Y-68553284D01*
X143380502Y-68485163D01*
X143434158Y-68438670D01*
X143442467Y-68435229D01*
X143443694Y-68434770D01*
X143448204Y-68433089D01*
X143518399Y-68380542D01*
X143565261Y-68345461D01*
X143652887Y-68228407D01*
X143652887Y-68228406D01*
X143652889Y-68228404D01*
X143703989Y-68091401D01*
X143705800Y-68074562D01*
X143710499Y-68030849D01*
X143710500Y-68030832D01*
X143710500Y-66233567D01*
X143710499Y-66233550D01*
X143703990Y-66173003D01*
X143703988Y-66172995D01*
X143652889Y-66035997D01*
X143652887Y-66035992D01*
X143565261Y-65918938D01*
X143448207Y-65831312D01*
X143448202Y-65831310D01*
X143311204Y-65780211D01*
X143311196Y-65780209D01*
X143250649Y-65773700D01*
X143250638Y-65773700D01*
X141453362Y-65773700D01*
X141453345Y-65773700D01*
X141453251Y-65773705D01*
X141453230Y-65773700D01*
X141449988Y-65773700D01*
X141449988Y-65772933D01*
X141384162Y-65757360D01*
X141334877Y-65706258D01*
X141321043Y-65636622D01*
X141347054Y-65570562D01*
X141357436Y-65558797D01*
X142595029Y-64321205D01*
X142657341Y-64287179D01*
X142684124Y-64284300D01*
X142730908Y-64284300D01*
X142730912Y-64284300D01*
X142961151Y-64245880D01*
X143181927Y-64170087D01*
X143387217Y-64058990D01*
X143571420Y-63915618D01*
X143729514Y-63743883D01*
X143857184Y-63548469D01*
X143950949Y-63334707D01*
X144008251Y-63108426D01*
X144027527Y-62875800D01*
X146700873Y-62875800D01*
X146715273Y-63049584D01*
X146720150Y-63108433D01*
X146777449Y-63334703D01*
X146777452Y-63334710D01*
X146871215Y-63548468D01*
X146998885Y-63743883D01*
X147156974Y-63915613D01*
X147156978Y-63915617D01*
X147222850Y-63966887D01*
X147341183Y-64058990D01*
X147546473Y-64170087D01*
X147767249Y-64245880D01*
X147997488Y-64284300D01*
X147997492Y-64284300D01*
X148230908Y-64284300D01*
X148230912Y-64284300D01*
X148461151Y-64245880D01*
X148681927Y-64170087D01*
X148887217Y-64058990D01*
X149071420Y-63915618D01*
X149229514Y-63743883D01*
X149357184Y-63548469D01*
X149450949Y-63334707D01*
X149508251Y-63108426D01*
X149527527Y-62875800D01*
X149508251Y-62643174D01*
X149465310Y-62473602D01*
X149450950Y-62416896D01*
X149450947Y-62416889D01*
X149415729Y-62336601D01*
X149357184Y-62203131D01*
X149290289Y-62100740D01*
X149229514Y-62007716D01*
X149071425Y-61835986D01*
X149071421Y-61835983D01*
X149071412Y-61835976D01*
X148929126Y-61725229D01*
X148887657Y-61667607D01*
X148883923Y-61596709D01*
X148919113Y-61535047D01*
X148929115Y-61526379D01*
X149071420Y-61415618D01*
X149152403Y-61327648D01*
X149229514Y-61243883D01*
X149254024Y-61206368D01*
X149357184Y-61048469D01*
X149450949Y-60834707D01*
X149508251Y-60608426D01*
X149527527Y-60375800D01*
X149508251Y-60143174D01*
X149450949Y-59916893D01*
X149357184Y-59703131D01*
X149339197Y-59675600D01*
X149229514Y-59507716D01*
X149071425Y-59335986D01*
X149071421Y-59335983D01*
X149071412Y-59335976D01*
X148929126Y-59225229D01*
X148887657Y-59167607D01*
X148883923Y-59096709D01*
X148919113Y-59035047D01*
X148929115Y-59026379D01*
X149071420Y-58915618D01*
X149128090Y-58854059D01*
X149229514Y-58743883D01*
X149256574Y-58702465D01*
X149357184Y-58548469D01*
X149450949Y-58334707D01*
X149508251Y-58108426D01*
X149527527Y-57875800D01*
X149508251Y-57643174D01*
X149450949Y-57416893D01*
X149357184Y-57203131D01*
X149303940Y-57121635D01*
X149229514Y-57007716D01*
X149071425Y-56835986D01*
X149071421Y-56835982D01*
X148979318Y-56764296D01*
X148887217Y-56692610D01*
X148681927Y-56581513D01*
X148681924Y-56581512D01*
X148681923Y-56581511D01*
X148461155Y-56505721D01*
X148461148Y-56505719D01*
X148362611Y-56489276D01*
X148230912Y-56467300D01*
X147997488Y-56467300D01*
X147882266Y-56486527D01*
X147767251Y-56505719D01*
X147767244Y-56505721D01*
X147546476Y-56581511D01*
X147546473Y-56581513D01*
X147341185Y-56692609D01*
X147341183Y-56692610D01*
X147156978Y-56835982D01*
X147156974Y-56835986D01*
X146998885Y-57007716D01*
X146871215Y-57203131D01*
X146777452Y-57416889D01*
X146777449Y-57416896D01*
X146720150Y-57643166D01*
X146720149Y-57643172D01*
X146720149Y-57643174D01*
X146702382Y-57857584D01*
X146700873Y-57875800D01*
X146720150Y-58108433D01*
X146777449Y-58334703D01*
X146777452Y-58334710D01*
X146871215Y-58548468D01*
X146998885Y-58743883D01*
X147156974Y-58915613D01*
X147156985Y-58915623D01*
X147299270Y-59026369D01*
X147340741Y-59083994D01*
X147344474Y-59154892D01*
X147309284Y-59216554D01*
X147299270Y-59225231D01*
X147156985Y-59335976D01*
X147156974Y-59335986D01*
X146998885Y-59507716D01*
X146871215Y-59703131D01*
X146777452Y-59916889D01*
X146777449Y-59916896D01*
X146720150Y-60143166D01*
X146700873Y-60375800D01*
X146720150Y-60608433D01*
X146777449Y-60834703D01*
X146777452Y-60834710D01*
X146871215Y-61048468D01*
X146998885Y-61243883D01*
X147156974Y-61415613D01*
X147156985Y-61415623D01*
X147299270Y-61526369D01*
X147340741Y-61583994D01*
X147344474Y-61654892D01*
X147309284Y-61716554D01*
X147299270Y-61725231D01*
X147156985Y-61835976D01*
X147156974Y-61835986D01*
X146998885Y-62007716D01*
X146871215Y-62203131D01*
X146777452Y-62416889D01*
X146777449Y-62416896D01*
X146720150Y-62643166D01*
X146720149Y-62643172D01*
X146720149Y-62643174D01*
X146700873Y-62875800D01*
X144027527Y-62875800D01*
X144008251Y-62643174D01*
X143965310Y-62473602D01*
X143950950Y-62416896D01*
X143950947Y-62416889D01*
X143915729Y-62336601D01*
X143857184Y-62203131D01*
X143790289Y-62100740D01*
X143729514Y-62007716D01*
X143571425Y-61835986D01*
X143571421Y-61835983D01*
X143571412Y-61835976D01*
X143429126Y-61725229D01*
X143387657Y-61667607D01*
X143383923Y-61596709D01*
X143419113Y-61535047D01*
X143429115Y-61526379D01*
X143571420Y-61415618D01*
X143652403Y-61327648D01*
X143729514Y-61243883D01*
X143754024Y-61206368D01*
X143857184Y-61048469D01*
X143950949Y-60834707D01*
X144008251Y-60608426D01*
X144027527Y-60375800D01*
X144008251Y-60143174D01*
X143950949Y-59916893D01*
X143857184Y-59703131D01*
X143839197Y-59675600D01*
X143729514Y-59507716D01*
X143571425Y-59335986D01*
X143571421Y-59335983D01*
X143571412Y-59335976D01*
X143429126Y-59225229D01*
X143387657Y-59167607D01*
X143383923Y-59096709D01*
X143419113Y-59035047D01*
X143429115Y-59026379D01*
X143571420Y-58915618D01*
X143628090Y-58854059D01*
X143729514Y-58743883D01*
X143756574Y-58702465D01*
X143857184Y-58548469D01*
X143950949Y-58334707D01*
X144008251Y-58108426D01*
X144027527Y-57875800D01*
X144008251Y-57643174D01*
X143950949Y-57416893D01*
X143857184Y-57203131D01*
X143803940Y-57121635D01*
X143729514Y-57007716D01*
X143571425Y-56835986D01*
X143571421Y-56835982D01*
X143479318Y-56764296D01*
X143387217Y-56692610D01*
X143181927Y-56581513D01*
X143181924Y-56581512D01*
X143181923Y-56581511D01*
X142961155Y-56505721D01*
X142961148Y-56505719D01*
X142862611Y-56489276D01*
X142730912Y-56467300D01*
X142497488Y-56467300D01*
X142382266Y-56486527D01*
X142267251Y-56505719D01*
X142267244Y-56505721D01*
X142046476Y-56581511D01*
X142046473Y-56581513D01*
X141841185Y-56692609D01*
X141841183Y-56692610D01*
X141656978Y-56835982D01*
X141656974Y-56835986D01*
X141498885Y-57007716D01*
X141371215Y-57203131D01*
X141277452Y-57416889D01*
X141277449Y-57416896D01*
X141220150Y-57643166D01*
X141220149Y-57643172D01*
X141220149Y-57643174D01*
X141202382Y-57857584D01*
X141200873Y-57875800D01*
X141220150Y-58108433D01*
X141277449Y-58334703D01*
X141277452Y-58334710D01*
X141371215Y-58548468D01*
X141498885Y-58743883D01*
X141656974Y-58915613D01*
X141656985Y-58915623D01*
X141799270Y-59026369D01*
X141840741Y-59083994D01*
X141844474Y-59154892D01*
X141809284Y-59216554D01*
X141799270Y-59225231D01*
X141656985Y-59335976D01*
X141656974Y-59335986D01*
X141498885Y-59507716D01*
X141371215Y-59703131D01*
X141277452Y-59916889D01*
X141277449Y-59916896D01*
X141220150Y-60143166D01*
X141200873Y-60375800D01*
X141220150Y-60608433D01*
X141277449Y-60834703D01*
X141277452Y-60834710D01*
X141371215Y-61048468D01*
X141498885Y-61243883D01*
X141656974Y-61415613D01*
X141656985Y-61415623D01*
X141799270Y-61526369D01*
X141840741Y-61583994D01*
X141844474Y-61654892D01*
X141809284Y-61716554D01*
X141799270Y-61725231D01*
X141656985Y-61835976D01*
X141656974Y-61835986D01*
X141498885Y-62007716D01*
X141371215Y-62203131D01*
X141277452Y-62416889D01*
X141277449Y-62416896D01*
X141220150Y-62643166D01*
X141220149Y-62643172D01*
X141220149Y-62643174D01*
X141210804Y-62755945D01*
X141205853Y-62815697D01*
X141180293Y-62881933D01*
X141169378Y-62894386D01*
X139138301Y-64925463D01*
X139129142Y-64933765D01*
X139095432Y-64961430D01*
X138969405Y-65114995D01*
X138875759Y-65290194D01*
X138875758Y-65290196D01*
X138818091Y-65480295D01*
X138818089Y-65480307D01*
X138798620Y-65677995D01*
X138798620Y-65678001D01*
X138802893Y-65721385D01*
X138803500Y-65733736D01*
X138803500Y-66172743D01*
X138783498Y-66240864D01*
X138770201Y-66258080D01*
X138736285Y-66294922D01*
X138736279Y-66294929D01*
X138647483Y-66430843D01*
X138593479Y-66476931D01*
X138523131Y-66486506D01*
X138458774Y-66456529D01*
X138436517Y-66430843D01*
X138347720Y-66294929D01*
X138195237Y-66129291D01*
X138075367Y-66035992D01*
X138017576Y-65991011D01*
X137989620Y-65975881D01*
X137971529Y-65966091D01*
X137921139Y-65916077D01*
X137905500Y-65855278D01*
X137905500Y-63545441D01*
X137925502Y-63477320D01*
X137979158Y-63430827D01*
X137991861Y-63425838D01*
X138077338Y-63397515D01*
X138228252Y-63304430D01*
X138228258Y-63304424D01*
X138315505Y-63217178D01*
X138377817Y-63183152D01*
X138448632Y-63188217D01*
X138493695Y-63217178D01*
X138580941Y-63304424D01*
X138580947Y-63304429D01*
X138580948Y-63304430D01*
X138731862Y-63397515D01*
X138900174Y-63453287D01*
X139004055Y-63463900D01*
X139805144Y-63463899D01*
X139909026Y-63453287D01*
X140077338Y-63397515D01*
X140228252Y-63304430D01*
X140353630Y-63179052D01*
X140446715Y-63028138D01*
X140502487Y-62859826D01*
X140513100Y-62755945D01*
X140513099Y-61754856D01*
X140502487Y-61650974D01*
X140446715Y-61482662D01*
X140353630Y-61331748D01*
X140353629Y-61331747D01*
X140353624Y-61331741D01*
X140228258Y-61206375D01*
X140228250Y-61206368D01*
X140113952Y-61135868D01*
X140066475Y-61083082D01*
X140054100Y-61028628D01*
X140054100Y-59601372D01*
X140074102Y-59533251D01*
X140120132Y-59490558D01*
X140157513Y-59470327D01*
X140193617Y-59450790D01*
X140377820Y-59307418D01*
X140390263Y-59293902D01*
X140535914Y-59135683D01*
X140586020Y-59058990D01*
X140663584Y-58940269D01*
X140757349Y-58726507D01*
X140814651Y-58500226D01*
X140833927Y-58267600D01*
X140814651Y-58034974D01*
X140757349Y-57808693D01*
X140663584Y-57594931D01*
X140535914Y-57399516D01*
X140377825Y-57227786D01*
X140377821Y-57227782D01*
X140241442Y-57121634D01*
X140193617Y-57084410D01*
X139988327Y-56973313D01*
X139988324Y-56973312D01*
X139988323Y-56973311D01*
X139767555Y-56897521D01*
X139767548Y-56897519D01*
X139669011Y-56881076D01*
X139537312Y-56859100D01*
X139303888Y-56859100D01*
X139188666Y-56878327D01*
X139073651Y-56897519D01*
X139073644Y-56897521D01*
X138852876Y-56973311D01*
X138852873Y-56973313D01*
X138647585Y-57084409D01*
X138647583Y-57084410D01*
X138463378Y-57227782D01*
X138459546Y-57231311D01*
X138458288Y-57229945D01*
X138404363Y-57262342D01*
X138333399Y-57260198D01*
X138274860Y-57220028D01*
X138254477Y-57184461D01*
X138231044Y-57121634D01*
X138143504Y-57004695D01*
X138026565Y-56917155D01*
X137889693Y-56866105D01*
X137829197Y-56859600D01*
X137134600Y-56859600D01*
X137134600Y-57896137D01*
X137078053Y-57857584D01*
X136948427Y-57817600D01*
X136846876Y-57817600D01*
X136746462Y-57832735D01*
X136626600Y-57890457D01*
X136626600Y-56859600D01*
X135932002Y-56859600D01*
X135871506Y-56866105D01*
X135734635Y-56917155D01*
X135734634Y-56917155D01*
X135617695Y-57004695D01*
X135530155Y-57121634D01*
X135530155Y-57121635D01*
X135479105Y-57258506D01*
X135472600Y-57319002D01*
X135472600Y-58161127D01*
X135452598Y-58229248D01*
X135398942Y-58275741D01*
X135328668Y-58285845D01*
X135302567Y-58279183D01*
X135295404Y-58276511D01*
X135158401Y-58225411D01*
X135158399Y-58225410D01*
X135158397Y-58225410D01*
X135158396Y-58225409D01*
X135097849Y-58218900D01*
X135097838Y-58218900D01*
X131500562Y-58218900D01*
X131500550Y-58218900D01*
X131440003Y-58225409D01*
X131439995Y-58225411D01*
X131302997Y-58276510D01*
X131302992Y-58276512D01*
X131185938Y-58364138D01*
X131098312Y-58481192D01*
X131098310Y-58481197D01*
X131047211Y-58618195D01*
X131047209Y-58618203D01*
X131040700Y-58678750D01*
X131040700Y-62276049D01*
X131047209Y-62336596D01*
X131047211Y-62336604D01*
X131098310Y-62473602D01*
X131098312Y-62473607D01*
X131185938Y-62590661D01*
X131302993Y-62678287D01*
X131302996Y-62678289D01*
X131302998Y-62678289D01*
X131310362Y-62682311D01*
X131360565Y-62732512D01*
X131375658Y-62801886D01*
X131350849Y-62868407D01*
X131294014Y-62910955D01*
X131249979Y-62918900D01*
X129330040Y-62918900D01*
X129290529Y-62920998D01*
X129277108Y-62921711D01*
X129277107Y-62921711D01*
X129197957Y-62937019D01*
X129045886Y-62966430D01*
X129045884Y-62966430D01*
X129045882Y-62966431D01*
X128825547Y-63049582D01*
X128825542Y-63049584D01*
X128622433Y-63168773D01*
X128442380Y-63320580D01*
X128290573Y-63500633D01*
X128171384Y-63703742D01*
X128171382Y-63703747D01*
X128088231Y-63924081D01*
X128088230Y-63924085D01*
X128088230Y-63924086D01*
X128043511Y-64155308D01*
X128040700Y-64208229D01*
X128040700Y-64208240D01*
X128040700Y-64208241D01*
X128040700Y-66146559D01*
X128042560Y-66181596D01*
X128043511Y-66199492D01*
X128061969Y-66294932D01*
X128088231Y-66430717D01*
X128171382Y-66651052D01*
X128171384Y-66651057D01*
X128290573Y-66854166D01*
X128442380Y-67034219D01*
X128622433Y-67186026D01*
X128825542Y-67305215D01*
X128825544Y-67305216D01*
X128825548Y-67305218D01*
X129045886Y-67388370D01*
X129277108Y-67433089D01*
X129330029Y-67435900D01*
X131268370Y-67435899D01*
X131321292Y-67433089D01*
X131552514Y-67388370D01*
X131772852Y-67305218D01*
X131975968Y-67186025D01*
X132156019Y-67034219D01*
X132307825Y-66854168D01*
X132427018Y-66651052D01*
X132510170Y-66430714D01*
X132554889Y-66199492D01*
X132557700Y-66146571D01*
X132557699Y-64208230D01*
X132554889Y-64155308D01*
X132510170Y-63924086D01*
X132427018Y-63703748D01*
X132427016Y-63703744D01*
X132427015Y-63703742D01*
X132307826Y-63500633D01*
X132156019Y-63320580D01*
X131975966Y-63168773D01*
X131772857Y-63049584D01*
X131772852Y-63049582D01*
X131716029Y-63028138D01*
X131587901Y-62979784D01*
X131531231Y-62937019D01*
X131506677Y-62870403D01*
X131522036Y-62801088D01*
X131572432Y-62751080D01*
X131632390Y-62735900D01*
X135097832Y-62735900D01*
X135097838Y-62735900D01*
X135097845Y-62735899D01*
X135097849Y-62735899D01*
X135158396Y-62729390D01*
X135158399Y-62729389D01*
X135158401Y-62729389D01*
X135295404Y-62678289D01*
X135307005Y-62669605D01*
X135412461Y-62590661D01*
X135500087Y-62473607D01*
X135500087Y-62473606D01*
X135500089Y-62473604D01*
X135551189Y-62336601D01*
X135556534Y-62286890D01*
X135557699Y-62276049D01*
X135557700Y-62276032D01*
X135557700Y-59733525D01*
X135577702Y-59665404D01*
X135631358Y-59618911D01*
X135701632Y-59608807D01*
X135727733Y-59615469D01*
X135871507Y-59669094D01*
X135932002Y-59675599D01*
X135932015Y-59675600D01*
X136626600Y-59675600D01*
X136626600Y-58639062D01*
X136683147Y-58677616D01*
X136812773Y-58717600D01*
X136914324Y-58717600D01*
X137014738Y-58702465D01*
X137134600Y-58644742D01*
X137134600Y-59675600D01*
X137829185Y-59675600D01*
X137829197Y-59675599D01*
X137889693Y-59669094D01*
X138026564Y-59618044D01*
X138026565Y-59618044D01*
X138143504Y-59530504D01*
X138231044Y-59413565D01*
X138254477Y-59350738D01*
X138297023Y-59293902D01*
X138363543Y-59269091D01*
X138432918Y-59284182D01*
X138458956Y-59304529D01*
X138459546Y-59303889D01*
X138463378Y-59307417D01*
X138500080Y-59335983D01*
X138647583Y-59450790D01*
X138647588Y-59450792D01*
X138647590Y-59450794D01*
X138721068Y-59490558D01*
X138771459Y-59540571D01*
X138787100Y-59601372D01*
X138787100Y-61008891D01*
X138767098Y-61077012D01*
X138727248Y-61116130D01*
X138667156Y-61153195D01*
X138580947Y-61206370D01*
X138580941Y-61206375D01*
X138493695Y-61293622D01*
X138431383Y-61327648D01*
X138360568Y-61322583D01*
X138315505Y-61293622D01*
X138228258Y-61206375D01*
X138228252Y-61206370D01*
X138228249Y-61206368D01*
X138077338Y-61113285D01*
X137986190Y-61083082D01*
X137909027Y-61057513D01*
X137909020Y-61057512D01*
X137805153Y-61046900D01*
X137004055Y-61046900D01*
X136900174Y-61057512D01*
X136731861Y-61113285D01*
X136580947Y-61206370D01*
X136580941Y-61206375D01*
X136455575Y-61331741D01*
X136455570Y-61331747D01*
X136362485Y-61482662D01*
X136306713Y-61650972D01*
X136306712Y-61650979D01*
X136296100Y-61754846D01*
X136296100Y-62755944D01*
X136306712Y-62859825D01*
X136362485Y-63028138D01*
X136455570Y-63179052D01*
X136455575Y-63179058D01*
X136580941Y-63304424D01*
X136580945Y-63304427D01*
X136580948Y-63304430D01*
X136580950Y-63304431D01*
X136586703Y-63308980D01*
X136585445Y-63310570D01*
X136626122Y-63355790D01*
X136638500Y-63410251D01*
X136638500Y-65855278D01*
X136618498Y-65923399D01*
X136572471Y-65966091D01*
X136526426Y-65991010D01*
X136526424Y-65991011D01*
X136348762Y-66129291D01*
X136196279Y-66294929D01*
X136196275Y-66294934D01*
X136073141Y-66483406D01*
X135982703Y-66689586D01*
X135982702Y-66689587D01*
X135927437Y-66907824D01*
X135908844Y-67132200D01*
X135927437Y-67356575D01*
X135982702Y-67574812D01*
X135982703Y-67574813D01*
X136073141Y-67780993D01*
X136196278Y-67969469D01*
X136230199Y-68006315D01*
X136261622Y-68069979D01*
X136263500Y-68091654D01*
X136263500Y-71415500D01*
X136243498Y-71483621D01*
X136189842Y-71530114D01*
X136137500Y-71541500D01*
X135973350Y-71541500D01*
X135912803Y-71548009D01*
X135912795Y-71548011D01*
X135775797Y-71599110D01*
X135775792Y-71599112D01*
X135658738Y-71686738D01*
X135571112Y-71803792D01*
X135571110Y-71803797D01*
X135520011Y-71940795D01*
X135520009Y-71940803D01*
X135513500Y-72001350D01*
X135513500Y-74098649D01*
X135520009Y-74159196D01*
X135520011Y-74159204D01*
X135571110Y-74296202D01*
X135571112Y-74296207D01*
X135658738Y-74413261D01*
X135775792Y-74500887D01*
X135775794Y-74500888D01*
X135775796Y-74500889D01*
X135834875Y-74522924D01*
X135912795Y-74551988D01*
X135912803Y-74551990D01*
X135973350Y-74558499D01*
X135973355Y-74558499D01*
X135973362Y-74558500D01*
X136787500Y-74558500D01*
X136855621Y-74578502D01*
X136902114Y-74632158D01*
X136913500Y-74684500D01*
X136913500Y-77845243D01*
X136893498Y-77913364D01*
X136863009Y-77946111D01*
X136847091Y-77958027D01*
X136780570Y-77982838D01*
X136711196Y-77967746D01*
X136696073Y-77958027D01*
X136617965Y-77899555D01*
X136481093Y-77848505D01*
X136420597Y-77842000D01*
X135876000Y-77842000D01*
X135876000Y-80858000D01*
X136267350Y-80858000D01*
X136335471Y-80878002D01*
X136381964Y-80931658D01*
X136392068Y-81001932D01*
X136362574Y-81066512D01*
X136306983Y-81103604D01*
X136235045Y-81127442D01*
X136158261Y-81152885D01*
X136007347Y-81245970D01*
X136007341Y-81245975D01*
X135881975Y-81371341D01*
X135881970Y-81371347D01*
X135788885Y-81522262D01*
X135733113Y-81690572D01*
X135733112Y-81690579D01*
X135722500Y-81794446D01*
X135722500Y-82128075D01*
X135702498Y-82196196D01*
X135685595Y-82217170D01*
X133819301Y-84083463D01*
X133810142Y-84091765D01*
X133776432Y-84119430D01*
X133650405Y-84272995D01*
X133626088Y-84318490D01*
X133556759Y-84448194D01*
X133556758Y-84448196D01*
X133499091Y-84638295D01*
X133499089Y-84638307D01*
X133479620Y-84835995D01*
X133479620Y-84836001D01*
X133483893Y-84879385D01*
X133484500Y-84891736D01*
X133484500Y-111238885D01*
X133464498Y-111307006D01*
X133410842Y-111353499D01*
X133340568Y-111363603D01*
X133305304Y-111351399D01*
X133304784Y-111352568D01*
X133298753Y-111349882D01*
X133298752Y-111349882D01*
X133124288Y-111272206D01*
X132937487Y-111232500D01*
X132746513Y-111232500D01*
X132559711Y-111272206D01*
X132385247Y-111349882D01*
X132230749Y-111462131D01*
X132230748Y-111462132D01*
X132205827Y-111489811D01*
X132145381Y-111527050D01*
X132112191Y-111531500D01*
X130713004Y-111531500D01*
X130644883Y-111511498D01*
X130609791Y-111477771D01*
X130516979Y-111345222D01*
X130516974Y-111345216D01*
X130359783Y-111188025D01*
X130359772Y-111188016D01*
X130177677Y-111060512D01*
X130177675Y-111060511D01*
X130067627Y-111009195D01*
X130014342Y-110962278D01*
X129994881Y-110894001D01*
X130015423Y-110826041D01*
X130067627Y-110780805D01*
X130177677Y-110729488D01*
X130359781Y-110601977D01*
X130516977Y-110444781D01*
X130563568Y-110378241D01*
X130609792Y-110312229D01*
X130665250Y-110267901D01*
X130713005Y-110258500D01*
X131398399Y-110258500D01*
X131466520Y-110278502D01*
X131472460Y-110282564D01*
X131555669Y-110343019D01*
X131623248Y-110392118D01*
X131797712Y-110469794D01*
X131984513Y-110509500D01*
X132175487Y-110509500D01*
X132362288Y-110469794D01*
X132536752Y-110392118D01*
X132691253Y-110279866D01*
X132692481Y-110278502D01*
X132819034Y-110137951D01*
X132819035Y-110137949D01*
X132819040Y-110137944D01*
X132914527Y-109972556D01*
X132973542Y-109790928D01*
X132993504Y-109601000D01*
X132973542Y-109411072D01*
X132914527Y-109229444D01*
X132819040Y-109064056D01*
X132819038Y-109064054D01*
X132819034Y-109064048D01*
X132691255Y-108922135D01*
X132536752Y-108809882D01*
X132362288Y-108732206D01*
X132175487Y-108692500D01*
X131984513Y-108692500D01*
X131797711Y-108732206D01*
X131623247Y-108809882D01*
X131468749Y-108922131D01*
X131468748Y-108922132D01*
X131443827Y-108949811D01*
X131383381Y-108987050D01*
X131350191Y-108991500D01*
X130713004Y-108991500D01*
X130644883Y-108971498D01*
X130609791Y-108937771D01*
X130516979Y-108805222D01*
X130516974Y-108805216D01*
X130359783Y-108648025D01*
X130359772Y-108648016D01*
X130177677Y-108520512D01*
X130177675Y-108520511D01*
X130067627Y-108469195D01*
X130014342Y-108422278D01*
X129994881Y-108354001D01*
X130015423Y-108286041D01*
X130067627Y-108240805D01*
X130082909Y-108233679D01*
X130177677Y-108189488D01*
X130359781Y-108061977D01*
X130516977Y-107904781D01*
X130644488Y-107722677D01*
X130738440Y-107521196D01*
X130795978Y-107306463D01*
X130815353Y-107085000D01*
X130795978Y-106863537D01*
X130738440Y-106648804D01*
X130644488Y-106447324D01*
X130516977Y-106265219D01*
X130359781Y-106108023D01*
X130359777Y-106108020D01*
X130359772Y-106108016D01*
X130177677Y-105980512D01*
X130177675Y-105980511D01*
X130067627Y-105929195D01*
X130014342Y-105882278D01*
X129994881Y-105814001D01*
X130015423Y-105746041D01*
X130067627Y-105700805D01*
X130068219Y-105700529D01*
X130177677Y-105649488D01*
X130359781Y-105521977D01*
X130516977Y-105364781D01*
X130644488Y-105182677D01*
X130738440Y-104981196D01*
X130795978Y-104766463D01*
X130815353Y-104545000D01*
X130795978Y-104323537D01*
X130738440Y-104108804D01*
X130644488Y-103907324D01*
X130516977Y-103725219D01*
X130359781Y-103568023D01*
X130359777Y-103568020D01*
X130359772Y-103568016D01*
X130177677Y-103440512D01*
X130177675Y-103440511D01*
X130067627Y-103389195D01*
X130014342Y-103342278D01*
X129994881Y-103274001D01*
X130015423Y-103206041D01*
X130067627Y-103160805D01*
X130177677Y-103109488D01*
X130359781Y-102981977D01*
X130516977Y-102824781D01*
X130644488Y-102642677D01*
X130738440Y-102441196D01*
X130795978Y-102226463D01*
X130815353Y-102005000D01*
X130795978Y-101783537D01*
X130738440Y-101568804D01*
X130644488Y-101367324D01*
X130516977Y-101185219D01*
X130359781Y-101028023D01*
X130359777Y-101028020D01*
X130359772Y-101028016D01*
X130177677Y-100900512D01*
X130177675Y-100900511D01*
X130067627Y-100849195D01*
X130014342Y-100802278D01*
X129994881Y-100734001D01*
X130015423Y-100666041D01*
X130067627Y-100620805D01*
X130177677Y-100569488D01*
X130359781Y-100441977D01*
X130516977Y-100284781D01*
X130644488Y-100102677D01*
X130738440Y-99901196D01*
X130795978Y-99686463D01*
X130815353Y-99465000D01*
X130795978Y-99243537D01*
X130738440Y-99028804D01*
X130644488Y-98827324D01*
X130516977Y-98645219D01*
X130359781Y-98488023D01*
X130359777Y-98488020D01*
X130359772Y-98488016D01*
X130177677Y-98360512D01*
X130177675Y-98360511D01*
X130067627Y-98309195D01*
X130014342Y-98262278D01*
X129994881Y-98194001D01*
X130015423Y-98126041D01*
X130067627Y-98080805D01*
X130177677Y-98029488D01*
X130359781Y-97901977D01*
X130516977Y-97744781D01*
X130644488Y-97562677D01*
X130738440Y-97361196D01*
X130795978Y-97146463D01*
X130815353Y-96925000D01*
X130795978Y-96703537D01*
X130738440Y-96488804D01*
X130644488Y-96287324D01*
X130516977Y-96105219D01*
X130359781Y-95948023D01*
X130359777Y-95948020D01*
X130359772Y-95948016D01*
X130177677Y-95820512D01*
X130177675Y-95820511D01*
X130067035Y-95768919D01*
X130013750Y-95722002D01*
X129994289Y-95653725D01*
X130014831Y-95585765D01*
X130067035Y-95540529D01*
X130177425Y-95489053D01*
X130177426Y-95489052D01*
X130240603Y-95444814D01*
X130240603Y-95444812D01*
X129561791Y-94766000D01*
X129571569Y-94766000D01*
X129665421Y-94750339D01*
X129777251Y-94689820D01*
X129863371Y-94596269D01*
X129914448Y-94479823D01*
X129920538Y-94406329D01*
X130599812Y-95085603D01*
X130599814Y-95085603D01*
X130644052Y-95022426D01*
X130644053Y-95022425D01*
X130737966Y-94821027D01*
X130737968Y-94821023D01*
X130795482Y-94606374D01*
X130814850Y-94385000D01*
X130795482Y-94163625D01*
X130737968Y-93948976D01*
X130737966Y-93948972D01*
X130644051Y-93747571D01*
X130599815Y-93684395D01*
X130599813Y-93684395D01*
X129924392Y-94359816D01*
X129924949Y-94353102D01*
X129893734Y-94229838D01*
X129824187Y-94123388D01*
X129723843Y-94045287D01*
X129603578Y-94004000D01*
X129561790Y-94004000D01*
X130240603Y-93325185D01*
X130240603Y-93325184D01*
X130177425Y-93280946D01*
X130177420Y-93280943D01*
X130067034Y-93229469D01*
X130013750Y-93182552D01*
X129994289Y-93114275D01*
X130014831Y-93046315D01*
X130067034Y-93001081D01*
X130177677Y-92949488D01*
X130359781Y-92821977D01*
X130516977Y-92664781D01*
X130644488Y-92482677D01*
X130738440Y-92281196D01*
X130795978Y-92066463D01*
X130815353Y-91845000D01*
X130795978Y-91623537D01*
X130738440Y-91408804D01*
X130644488Y-91207324D01*
X130516977Y-91025219D01*
X130359781Y-90868023D01*
X130359777Y-90868020D01*
X130359772Y-90868016D01*
X130177677Y-90740512D01*
X130177675Y-90740511D01*
X130067627Y-90689195D01*
X130014342Y-90642278D01*
X129994881Y-90574001D01*
X130015423Y-90506041D01*
X130067627Y-90460805D01*
X130177677Y-90409488D01*
X130359781Y-90281977D01*
X130516977Y-90124781D01*
X130644488Y-89942677D01*
X130738440Y-89741196D01*
X130795978Y-89526463D01*
X130815353Y-89305000D01*
X130795978Y-89083537D01*
X130738440Y-88868804D01*
X130644488Y-88667324D01*
X130516977Y-88485219D01*
X130359781Y-88328023D01*
X130359777Y-88328020D01*
X130359772Y-88328016D01*
X130177677Y-88200512D01*
X130177675Y-88200511D01*
X130067627Y-88149195D01*
X130014342Y-88102278D01*
X129994881Y-88034001D01*
X130015423Y-87966041D01*
X130067627Y-87920805D01*
X130177677Y-87869488D01*
X130359781Y-87741977D01*
X130516977Y-87584781D01*
X130644488Y-87402677D01*
X130738440Y-87201196D01*
X130795978Y-86986463D01*
X130815353Y-86765000D01*
X130795978Y-86543537D01*
X130738440Y-86328804D01*
X130644488Y-86127324D01*
X130516977Y-85945219D01*
X130359781Y-85788023D01*
X130359777Y-85788020D01*
X130359772Y-85788016D01*
X130177677Y-85660512D01*
X130177675Y-85660511D01*
X130067627Y-85609195D01*
X130014342Y-85562278D01*
X129994881Y-85494001D01*
X130015423Y-85426041D01*
X130067627Y-85380805D01*
X130177677Y-85329488D01*
X130359781Y-85201977D01*
X130516977Y-85044781D01*
X130644488Y-84862677D01*
X130738440Y-84661196D01*
X130795978Y-84446463D01*
X130815353Y-84225000D01*
X130795978Y-84003537D01*
X130738440Y-83788804D01*
X130644488Y-83587324D01*
X130516977Y-83405219D01*
X130359781Y-83248023D01*
X130359777Y-83248020D01*
X130359772Y-83248016D01*
X130177677Y-83120512D01*
X130177675Y-83120511D01*
X130067627Y-83069195D01*
X130014342Y-83022278D01*
X129994881Y-82954001D01*
X130015423Y-82886041D01*
X130067627Y-82840805D01*
X130177677Y-82789488D01*
X130359781Y-82661977D01*
X130516977Y-82504781D01*
X130644488Y-82322677D01*
X130738440Y-82121196D01*
X130795978Y-81906463D01*
X130815353Y-81685000D01*
X130795978Y-81463537D01*
X130738440Y-81248804D01*
X130644488Y-81047324D01*
X130516977Y-80865219D01*
X130359781Y-80708023D01*
X130359777Y-80708020D01*
X130359772Y-80708016D01*
X130177677Y-80580512D01*
X130177675Y-80580511D01*
X130067627Y-80529195D01*
X130014342Y-80482278D01*
X129994881Y-80414001D01*
X130015423Y-80346041D01*
X130067627Y-80300805D01*
X130177677Y-80249488D01*
X130359781Y-80121977D01*
X130516977Y-79964781D01*
X130644488Y-79782677D01*
X130727806Y-79604000D01*
X134364000Y-79604000D01*
X134364000Y-80398597D01*
X134370505Y-80459093D01*
X134421555Y-80595964D01*
X134421555Y-80595965D01*
X134509095Y-80712904D01*
X134626034Y-80800444D01*
X134762906Y-80851494D01*
X134823402Y-80857999D01*
X134823415Y-80858000D01*
X135368000Y-80858000D01*
X135368000Y-79604000D01*
X134364000Y-79604000D01*
X130727806Y-79604000D01*
X130738440Y-79581196D01*
X130795978Y-79366463D01*
X130815353Y-79145000D01*
X130811066Y-79096000D01*
X134364000Y-79096000D01*
X135368000Y-79096000D01*
X135368000Y-77842000D01*
X134823402Y-77842000D01*
X134762906Y-77848505D01*
X134626035Y-77899555D01*
X134626034Y-77899555D01*
X134509095Y-77987095D01*
X134421555Y-78104034D01*
X134421555Y-78104035D01*
X134370505Y-78240906D01*
X134364000Y-78301402D01*
X134364000Y-79096000D01*
X130811066Y-79096000D01*
X130795978Y-78923537D01*
X130738440Y-78708804D01*
X130644488Y-78507324D01*
X130516977Y-78325219D01*
X130359781Y-78168023D01*
X130359777Y-78168020D01*
X130359772Y-78168016D01*
X130177677Y-78040512D01*
X130177675Y-78040511D01*
X130067627Y-77989195D01*
X130014342Y-77942278D01*
X129994881Y-77874001D01*
X130015423Y-77806041D01*
X130067627Y-77760805D01*
X130177677Y-77709488D01*
X130359781Y-77581977D01*
X130516977Y-77424781D01*
X130644488Y-77242677D01*
X130738440Y-77041196D01*
X130795978Y-76826463D01*
X130815353Y-76605000D01*
X130795978Y-76383537D01*
X130738440Y-76168804D01*
X130644488Y-75967324D01*
X130516977Y-75785219D01*
X130359781Y-75628023D01*
X130359777Y-75628020D01*
X130359772Y-75628016D01*
X130177677Y-75500512D01*
X130177675Y-75500511D01*
X130067627Y-75449195D01*
X130014342Y-75402278D01*
X129994881Y-75334001D01*
X130015423Y-75266041D01*
X130067627Y-75220805D01*
X130177677Y-75169488D01*
X130359781Y-75041977D01*
X130516977Y-74884781D01*
X130644488Y-74702677D01*
X130738440Y-74501196D01*
X130795978Y-74286463D01*
X130815353Y-74065000D01*
X130795978Y-73843537D01*
X130738440Y-73628804D01*
X130644488Y-73427324D01*
X130516977Y-73245219D01*
X130359781Y-73088023D01*
X130359777Y-73088020D01*
X130359772Y-73088016D01*
X130177677Y-72960512D01*
X130177675Y-72960511D01*
X130067627Y-72909195D01*
X130014342Y-72862278D01*
X129994881Y-72794001D01*
X130015423Y-72726041D01*
X130067627Y-72680805D01*
X130177677Y-72629488D01*
X130359781Y-72501977D01*
X130516977Y-72344781D01*
X130644488Y-72162677D01*
X130738440Y-71961196D01*
X130795978Y-71746463D01*
X130815353Y-71525000D01*
X130795978Y-71303537D01*
X130738440Y-71088804D01*
X130644488Y-70887324D01*
X130516977Y-70705219D01*
X130359781Y-70548023D01*
X130359777Y-70548020D01*
X130359772Y-70548016D01*
X130177677Y-70420512D01*
X130177675Y-70420511D01*
X129976199Y-70326561D01*
X129976193Y-70326559D01*
X129934074Y-70315273D01*
X129761463Y-70269022D01*
X129540000Y-70249647D01*
X129318537Y-70269022D01*
X129203463Y-70299856D01*
X129103806Y-70326559D01*
X129103801Y-70326561D01*
X128902323Y-70420512D01*
X128720222Y-70548020D01*
X128720216Y-70548025D01*
X128563025Y-70705216D01*
X128563020Y-70705222D01*
X128435512Y-70887323D01*
X128341561Y-71088801D01*
X128341559Y-71088806D01*
X128333063Y-71120515D01*
X128284022Y-71303537D01*
X128264647Y-71525000D01*
X128284022Y-71746463D01*
X128299385Y-71803797D01*
X128341559Y-71961193D01*
X128341561Y-71961199D01*
X128435511Y-72162675D01*
X128435512Y-72162677D01*
X128563016Y-72344772D01*
X128563020Y-72344777D01*
X128563023Y-72344781D01*
X128720219Y-72501977D01*
X128720223Y-72501980D01*
X128720227Y-72501983D01*
X128824124Y-72574732D01*
X128902323Y-72629488D01*
X129012373Y-72680805D01*
X129065658Y-72727722D01*
X129085119Y-72795999D01*
X129064577Y-72863959D01*
X129012373Y-72909195D01*
X128902323Y-72960512D01*
X128720222Y-73088020D01*
X128720216Y-73088025D01*
X128563025Y-73245216D01*
X128563020Y-73245222D01*
X128435512Y-73427323D01*
X128341561Y-73628801D01*
X128341559Y-73628806D01*
X128333063Y-73660515D01*
X128284022Y-73843537D01*
X128264647Y-74065000D01*
X128284022Y-74286463D01*
X128317998Y-74413261D01*
X128341559Y-74501193D01*
X128341561Y-74501199D01*
X128435511Y-74702675D01*
X128435512Y-74702677D01*
X128563016Y-74884772D01*
X128563020Y-74884777D01*
X128563023Y-74884781D01*
X128720219Y-75041977D01*
X128720223Y-75041980D01*
X128720227Y-75041983D01*
X128824124Y-75114732D01*
X128902323Y-75169488D01*
X129012373Y-75220805D01*
X129065658Y-75267722D01*
X129085119Y-75335999D01*
X129064577Y-75403959D01*
X129012373Y-75449195D01*
X128902323Y-75500512D01*
X128720222Y-75628020D01*
X128720216Y-75628025D01*
X128563025Y-75785216D01*
X128563020Y-75785222D01*
X128435512Y-75967323D01*
X128341561Y-76168801D01*
X128341559Y-76168806D01*
X128333063Y-76200515D01*
X128284022Y-76383537D01*
X128264647Y-76605000D01*
X128284022Y-76826463D01*
X128330273Y-76999074D01*
X128341559Y-77041193D01*
X128341561Y-77041199D01*
X128435511Y-77242675D01*
X128435512Y-77242677D01*
X128563016Y-77424772D01*
X128563020Y-77424777D01*
X128563023Y-77424781D01*
X128720219Y-77581977D01*
X128720223Y-77581980D01*
X128720227Y-77581983D01*
X128757108Y-77607807D01*
X128902323Y-77709488D01*
X129012373Y-77760805D01*
X129065658Y-77807722D01*
X129085119Y-77875999D01*
X129064577Y-77943959D01*
X129012373Y-77989195D01*
X128902323Y-78040512D01*
X128720222Y-78168020D01*
X128720216Y-78168025D01*
X128563025Y-78325216D01*
X128563020Y-78325222D01*
X128435512Y-78507323D01*
X128341561Y-78708801D01*
X128341560Y-78708804D01*
X128284022Y-78923537D01*
X128264647Y-79145000D01*
X128284022Y-79366463D01*
X128320286Y-79501802D01*
X128341559Y-79581193D01*
X128341561Y-79581199D01*
X128435511Y-79782675D01*
X128435512Y-79782677D01*
X128563016Y-79964772D01*
X128563020Y-79964777D01*
X128563023Y-79964781D01*
X128720219Y-80121977D01*
X128720223Y-80121980D01*
X128720227Y-80121983D01*
X128824124Y-80194732D01*
X128902323Y-80249488D01*
X129012373Y-80300805D01*
X129065658Y-80347722D01*
X129085119Y-80415999D01*
X129064577Y-80483959D01*
X129012373Y-80529195D01*
X128902323Y-80580512D01*
X128720222Y-80708020D01*
X128720216Y-80708025D01*
X128563025Y-80865216D01*
X128563020Y-80865222D01*
X128435512Y-81047323D01*
X128341561Y-81248801D01*
X128341559Y-81248806D01*
X128324958Y-81310762D01*
X128284022Y-81463537D01*
X128264647Y-81685000D01*
X128284022Y-81906463D01*
X128294690Y-81946275D01*
X128341559Y-82121193D01*
X128341561Y-82121199D01*
X128435511Y-82322675D01*
X128435512Y-82322677D01*
X128563016Y-82504772D01*
X128563020Y-82504777D01*
X128563023Y-82504781D01*
X128720219Y-82661977D01*
X128720223Y-82661980D01*
X128720227Y-82661983D01*
X128742278Y-82677423D01*
X128902323Y-82789488D01*
X129012373Y-82840805D01*
X129065658Y-82887722D01*
X129085119Y-82955999D01*
X129064577Y-83023959D01*
X129012373Y-83069195D01*
X128902323Y-83120512D01*
X128720222Y-83248020D01*
X128720216Y-83248025D01*
X128563025Y-83405216D01*
X128563020Y-83405222D01*
X128435512Y-83587323D01*
X128341561Y-83788801D01*
X128341559Y-83788806D01*
X128314889Y-83888342D01*
X128284022Y-84003537D01*
X128264647Y-84225000D01*
X128284022Y-84446463D01*
X128315966Y-84565678D01*
X128341559Y-84661193D01*
X128341561Y-84661199D01*
X128435511Y-84862675D01*
X128435512Y-84862677D01*
X128563016Y-85044772D01*
X128563020Y-85044777D01*
X128563023Y-85044781D01*
X128720219Y-85201977D01*
X128720223Y-85201980D01*
X128720227Y-85201983D01*
X128794135Y-85253734D01*
X128902323Y-85329488D01*
X129012373Y-85380805D01*
X129065658Y-85427722D01*
X129085119Y-85495999D01*
X129064577Y-85563959D01*
X129012373Y-85609195D01*
X128902323Y-85660512D01*
X128720222Y-85788020D01*
X128720216Y-85788025D01*
X128563025Y-85945216D01*
X128563020Y-85945222D01*
X128435512Y-86127323D01*
X128341561Y-86328801D01*
X128341560Y-86328804D01*
X128284022Y-86543537D01*
X128264647Y-86765000D01*
X128284022Y-86986463D01*
X128330273Y-87159074D01*
X128341559Y-87201193D01*
X128341561Y-87201199D01*
X128435511Y-87402675D01*
X128435512Y-87402677D01*
X128563016Y-87584772D01*
X128563020Y-87584777D01*
X128563023Y-87584781D01*
X128720219Y-87741977D01*
X128720223Y-87741980D01*
X128720227Y-87741983D01*
X128824124Y-87814732D01*
X128902323Y-87869488D01*
X129012373Y-87920805D01*
X129065658Y-87967722D01*
X129085119Y-88035999D01*
X129064577Y-88103959D01*
X129012373Y-88149195D01*
X128902323Y-88200512D01*
X128720222Y-88328020D01*
X128720216Y-88328025D01*
X128563025Y-88485216D01*
X128563020Y-88485222D01*
X128435512Y-88667323D01*
X128341561Y-88868801D01*
X128341560Y-88868804D01*
X128284022Y-89083537D01*
X128264647Y-89305000D01*
X128284022Y-89526463D01*
X128330273Y-89699074D01*
X128341559Y-89741193D01*
X128341561Y-89741199D01*
X128435511Y-89942675D01*
X128435512Y-89942677D01*
X128563016Y-90124772D01*
X128563020Y-90124777D01*
X128563023Y-90124781D01*
X128720219Y-90281977D01*
X128720223Y-90281980D01*
X128720227Y-90281983D01*
X128824124Y-90354732D01*
X128902323Y-90409488D01*
X129012373Y-90460805D01*
X129065658Y-90507722D01*
X129085119Y-90575999D01*
X129064577Y-90643959D01*
X129012373Y-90689195D01*
X128902323Y-90740512D01*
X128720222Y-90868020D01*
X128720216Y-90868025D01*
X128563025Y-91025216D01*
X128563020Y-91025222D01*
X128435512Y-91207323D01*
X128341561Y-91408801D01*
X128341560Y-91408804D01*
X128284022Y-91623537D01*
X128264647Y-91845000D01*
X128284022Y-92066463D01*
X128318439Y-92194907D01*
X128341559Y-92281193D01*
X128341561Y-92281199D01*
X128435511Y-92482675D01*
X128435512Y-92482677D01*
X128563016Y-92664772D01*
X128563020Y-92664777D01*
X128563023Y-92664781D01*
X128720219Y-92821977D01*
X128720223Y-92821980D01*
X128720227Y-92821983D01*
X128747011Y-92840737D01*
X128902323Y-92949488D01*
X128967310Y-92979792D01*
X129012964Y-93001081D01*
X129066249Y-93047998D01*
X129085710Y-93116276D01*
X129065168Y-93184236D01*
X129012965Y-93229470D01*
X128902577Y-93280945D01*
X128839394Y-93325185D01*
X129518209Y-94004000D01*
X129508431Y-94004000D01*
X129414579Y-94019661D01*
X129302749Y-94080180D01*
X129216629Y-94173731D01*
X129165552Y-94290177D01*
X129159461Y-94363670D01*
X128480185Y-93684394D01*
X128435946Y-93747575D01*
X128342033Y-93948972D01*
X128342031Y-93948976D01*
X128284517Y-94163625D01*
X128265149Y-94385000D01*
X128284517Y-94606374D01*
X128342031Y-94821023D01*
X128342033Y-94821027D01*
X128435946Y-95022425D01*
X128480184Y-95085603D01*
X128480185Y-95085603D01*
X129155607Y-94410181D01*
X129155051Y-94416898D01*
X129186266Y-94540162D01*
X129255813Y-94646612D01*
X129356157Y-94724713D01*
X129476422Y-94766000D01*
X129518210Y-94766000D01*
X128839395Y-95444813D01*
X128839395Y-95444814D01*
X128902575Y-95489053D01*
X128902574Y-95489053D01*
X129012964Y-95540529D01*
X129066249Y-95587447D01*
X129085710Y-95655724D01*
X129065168Y-95723684D01*
X129012964Y-95768919D01*
X128902323Y-95820512D01*
X128720222Y-95948020D01*
X128720216Y-95948025D01*
X128563025Y-96105216D01*
X128563020Y-96105222D01*
X128435512Y-96287323D01*
X128371662Y-96424250D01*
X128341560Y-96488804D01*
X128284022Y-96703537D01*
X128264647Y-96925000D01*
X128284022Y-97146463D01*
X128330273Y-97319074D01*
X128341559Y-97361193D01*
X128341561Y-97361199D01*
X128435511Y-97562675D01*
X128435512Y-97562677D01*
X128563016Y-97744772D01*
X128563020Y-97744777D01*
X128563023Y-97744781D01*
X128720219Y-97901977D01*
X128720223Y-97901980D01*
X128720227Y-97901983D01*
X128824124Y-97974732D01*
X128902323Y-98029488D01*
X129012373Y-98080805D01*
X129065658Y-98127722D01*
X129085119Y-98195999D01*
X129064577Y-98263959D01*
X129012373Y-98309195D01*
X128902323Y-98360512D01*
X128720222Y-98488020D01*
X128720216Y-98488025D01*
X128563025Y-98645216D01*
X128563020Y-98645222D01*
X128435512Y-98827323D01*
X128392665Y-98919209D01*
X128341560Y-99028804D01*
X128284022Y-99243537D01*
X128264647Y-99465000D01*
X128284022Y-99686463D01*
X128330273Y-99859074D01*
X128341559Y-99901193D01*
X128341561Y-99901199D01*
X128435511Y-100102675D01*
X128435512Y-100102677D01*
X128563016Y-100284772D01*
X128563020Y-100284777D01*
X128563023Y-100284781D01*
X128720219Y-100441977D01*
X128720223Y-100441980D01*
X128720227Y-100441983D01*
X128824124Y-100514732D01*
X128902323Y-100569488D01*
X129012373Y-100620805D01*
X129065658Y-100667722D01*
X129085119Y-100735999D01*
X129064577Y-100803959D01*
X129012373Y-100849195D01*
X128902323Y-100900512D01*
X128720222Y-101028020D01*
X128720216Y-101028025D01*
X128563025Y-101185216D01*
X128563020Y-101185222D01*
X128435512Y-101367323D01*
X128341561Y-101568801D01*
X128341560Y-101568804D01*
X128284022Y-101783537D01*
X128264647Y-102005000D01*
X128284022Y-102226463D01*
X128330273Y-102399074D01*
X128341559Y-102441193D01*
X128341561Y-102441199D01*
X128435511Y-102642675D01*
X128435512Y-102642677D01*
X128563016Y-102824772D01*
X128563020Y-102824777D01*
X128563023Y-102824781D01*
X128720219Y-102981977D01*
X128720223Y-102981980D01*
X128720227Y-102981983D01*
X128824124Y-103054732D01*
X128902323Y-103109488D01*
X128938096Y-103126169D01*
X129012373Y-103160805D01*
X129065658Y-103207722D01*
X129085119Y-103275999D01*
X129064577Y-103343959D01*
X129012373Y-103389195D01*
X128902323Y-103440512D01*
X128720222Y-103568020D01*
X128720216Y-103568025D01*
X128563025Y-103725216D01*
X128563020Y-103725222D01*
X128435512Y-103907323D01*
X128341561Y-104108801D01*
X128341559Y-104108806D01*
X128331057Y-104148000D01*
X128284022Y-104323537D01*
X128264647Y-104545000D01*
X128284022Y-104766463D01*
X128322574Y-104910339D01*
X128341559Y-104981193D01*
X128341561Y-104981199D01*
X128435511Y-105182675D01*
X128435512Y-105182677D01*
X128563016Y-105364772D01*
X128563020Y-105364777D01*
X128563023Y-105364781D01*
X128720219Y-105521977D01*
X128720223Y-105521980D01*
X128720227Y-105521983D01*
X128755380Y-105546597D01*
X128902323Y-105649488D01*
X129011781Y-105700529D01*
X129012373Y-105700805D01*
X129065658Y-105747722D01*
X129085119Y-105815999D01*
X129064577Y-105883959D01*
X129012373Y-105929195D01*
X128902323Y-105980512D01*
X128720222Y-106108020D01*
X128720216Y-106108025D01*
X128563025Y-106265216D01*
X128563020Y-106265222D01*
X128435512Y-106447323D01*
X128399731Y-106524056D01*
X128341560Y-106648804D01*
X128284022Y-106863537D01*
X128264647Y-107085000D01*
X128284022Y-107306463D01*
X128317808Y-107432554D01*
X128341559Y-107521193D01*
X128341561Y-107521199D01*
X128435511Y-107722675D01*
X128435512Y-107722677D01*
X128563016Y-107904772D01*
X128563020Y-107904777D01*
X128563023Y-107904781D01*
X128720219Y-108061977D01*
X128720223Y-108061980D01*
X128720227Y-108061983D01*
X128824124Y-108134732D01*
X128902323Y-108189488D01*
X128927946Y-108201436D01*
X129012373Y-108240805D01*
X129065658Y-108287722D01*
X129085119Y-108355999D01*
X129064577Y-108423959D01*
X129012373Y-108469195D01*
X128902323Y-108520512D01*
X128720222Y-108648020D01*
X128720216Y-108648025D01*
X128563025Y-108805216D01*
X128563020Y-108805222D01*
X128435512Y-108987323D01*
X128399731Y-109064056D01*
X128341560Y-109188804D01*
X128284022Y-109403537D01*
X128264647Y-109625000D01*
X128284022Y-109846463D01*
X128317808Y-109972554D01*
X128341559Y-110061193D01*
X128341561Y-110061199D01*
X128435511Y-110262675D01*
X128435512Y-110262677D01*
X128563016Y-110444772D01*
X128563020Y-110444777D01*
X128563023Y-110444781D01*
X128720219Y-110601977D01*
X128720223Y-110601980D01*
X128720227Y-110601983D01*
X128817057Y-110669784D01*
X128902323Y-110729488D01*
X129012373Y-110780805D01*
X129065658Y-110827722D01*
X129085119Y-110895999D01*
X129064577Y-110963959D01*
X129012373Y-111009195D01*
X128902323Y-111060512D01*
X128720222Y-111188020D01*
X128720216Y-111188025D01*
X128563025Y-111345216D01*
X128563020Y-111345222D01*
X128435512Y-111527323D01*
X128341561Y-111728801D01*
X128341560Y-111728804D01*
X128284022Y-111943537D01*
X128264647Y-112165000D01*
X128284022Y-112386463D01*
X128330273Y-112559074D01*
X128341559Y-112601193D01*
X128341561Y-112601199D01*
X128435511Y-112802675D01*
X128435512Y-112802677D01*
X128563016Y-112984772D01*
X128563020Y-112984777D01*
X128563023Y-112984781D01*
X128720219Y-113141977D01*
X128720223Y-113141980D01*
X128720227Y-113141983D01*
X128817057Y-113209784D01*
X128902323Y-113269488D01*
X129012373Y-113320805D01*
X129065658Y-113367722D01*
X129085119Y-113435999D01*
X129064577Y-113503959D01*
X129012373Y-113549195D01*
X128902323Y-113600512D01*
X128720222Y-113728020D01*
X128720216Y-113728025D01*
X128563025Y-113885216D01*
X128563020Y-113885222D01*
X128435512Y-114067323D01*
X128435512Y-114067324D01*
X128341560Y-114268804D01*
X128284022Y-114483537D01*
X128264647Y-114705000D01*
X128284022Y-114926463D01*
X128330273Y-115099074D01*
X128341559Y-115141193D01*
X128341561Y-115141199D01*
X128435511Y-115342675D01*
X128435512Y-115342677D01*
X128563016Y-115524772D01*
X128563020Y-115524777D01*
X128563023Y-115524781D01*
X128720219Y-115681977D01*
X128720223Y-115681980D01*
X128720227Y-115681983D01*
X128817057Y-115749784D01*
X128902323Y-115809488D01*
X129012373Y-115860805D01*
X129065658Y-115907722D01*
X129085119Y-115975999D01*
X129064577Y-116043959D01*
X129012373Y-116089195D01*
X128902323Y-116140512D01*
X128720222Y-116268020D01*
X128720216Y-116268025D01*
X128563025Y-116425216D01*
X128563020Y-116425222D01*
X128435512Y-116607323D01*
X128435512Y-116607324D01*
X128341560Y-116808804D01*
X128284022Y-117023537D01*
X128264647Y-117245000D01*
X128284022Y-117466463D01*
X128330273Y-117639074D01*
X128341559Y-117681193D01*
X128341561Y-117681199D01*
X128435511Y-117882675D01*
X128435512Y-117882677D01*
X128563016Y-118064772D01*
X128563020Y-118064777D01*
X128563023Y-118064781D01*
X128720219Y-118221977D01*
X128720223Y-118221980D01*
X128720227Y-118221983D01*
X128817057Y-118289784D01*
X128902323Y-118349488D01*
X129012373Y-118400805D01*
X129065658Y-118447722D01*
X129085119Y-118515999D01*
X129064577Y-118583959D01*
X129012373Y-118629195D01*
X128902323Y-118680512D01*
X128720222Y-118808020D01*
X128720216Y-118808025D01*
X128563025Y-118965216D01*
X128563020Y-118965222D01*
X128435512Y-119147323D01*
X128341561Y-119348801D01*
X128341560Y-119348805D01*
X128284022Y-119563537D01*
X128264647Y-119785000D01*
X128284022Y-120006463D01*
X128330273Y-120179074D01*
X128341559Y-120221193D01*
X128341561Y-120221199D01*
X128435511Y-120422675D01*
X128435512Y-120422677D01*
X128563016Y-120604772D01*
X128563020Y-120604777D01*
X128563023Y-120604781D01*
X128720219Y-120761977D01*
X128720223Y-120761980D01*
X128720227Y-120761983D01*
X128817057Y-120829784D01*
X128902323Y-120889488D01*
X129012373Y-120940805D01*
X129065658Y-120987722D01*
X129085119Y-121055999D01*
X129064577Y-121123959D01*
X129012373Y-121169195D01*
X128902323Y-121220512D01*
X128720222Y-121348020D01*
X128720216Y-121348025D01*
X128563025Y-121505216D01*
X128563020Y-121505222D01*
X128435512Y-121687323D01*
X128435512Y-121687324D01*
X128341560Y-121888804D01*
X128284022Y-122103537D01*
X128264647Y-122325000D01*
X128284022Y-122546463D01*
X128319318Y-122678187D01*
X128341559Y-122761193D01*
X128341561Y-122761199D01*
X128435511Y-122962675D01*
X128435512Y-122962677D01*
X128563016Y-123144772D01*
X128563020Y-123144777D01*
X128563023Y-123144781D01*
X128720219Y-123301977D01*
X128720223Y-123301980D01*
X128720227Y-123301983D01*
X128817057Y-123369784D01*
X128902323Y-123429488D01*
X129012373Y-123480805D01*
X129065658Y-123527722D01*
X129085119Y-123595999D01*
X129064577Y-123663959D01*
X129012373Y-123709195D01*
X128902323Y-123760512D01*
X128720222Y-123888020D01*
X128720216Y-123888025D01*
X128563025Y-124045216D01*
X128563020Y-124045222D01*
X128435512Y-124227323D01*
X128341561Y-124428801D01*
X128341559Y-124428806D01*
X128326770Y-124484000D01*
X128284022Y-124643537D01*
X128264647Y-124865000D01*
X128284022Y-125086463D01*
X128322574Y-125230339D01*
X128341559Y-125301193D01*
X128341561Y-125301199D01*
X128435511Y-125502675D01*
X128435512Y-125502677D01*
X128563016Y-125684772D01*
X128563020Y-125684777D01*
X128563023Y-125684781D01*
X128720219Y-125841977D01*
X128720223Y-125841980D01*
X128720227Y-125841983D01*
X128770531Y-125877206D01*
X128902323Y-125969488D01*
X129103804Y-126063440D01*
X129318537Y-126120978D01*
X129540000Y-126140353D01*
X129761463Y-126120978D01*
X129976196Y-126063440D01*
X130177677Y-125969488D01*
X130359781Y-125841977D01*
X130516977Y-125684781D01*
X130644488Y-125502677D01*
X130738440Y-125301196D01*
X130795978Y-125086463D01*
X130815353Y-124865000D01*
X130795978Y-124643537D01*
X130738440Y-124428804D01*
X130644488Y-124227324D01*
X130516977Y-124045219D01*
X130359781Y-123888023D01*
X130359777Y-123888020D01*
X130359772Y-123888016D01*
X130177677Y-123760512D01*
X130177675Y-123760511D01*
X130067627Y-123709195D01*
X130014342Y-123662278D01*
X129994881Y-123594001D01*
X130015423Y-123526041D01*
X130067627Y-123480805D01*
X130177677Y-123429488D01*
X130359781Y-123301977D01*
X130516977Y-123144781D01*
X130644488Y-122962677D01*
X130738440Y-122761196D01*
X130795978Y-122546463D01*
X130810449Y-122381049D01*
X130836312Y-122314931D01*
X130846867Y-122302944D01*
X133269407Y-119880405D01*
X133331717Y-119846381D01*
X133402533Y-119851446D01*
X133459368Y-119893993D01*
X133484179Y-119960513D01*
X133484500Y-119969502D01*
X133484500Y-126657076D01*
X133464498Y-126725197D01*
X133447595Y-126746171D01*
X129508977Y-130684788D01*
X129446665Y-130718814D01*
X129430303Y-130721261D01*
X129427447Y-130721498D01*
X129427435Y-130721500D01*
X129427431Y-130721500D01*
X129279035Y-130746262D01*
X129205369Y-130758555D01*
X129205360Y-130758557D01*
X128992428Y-130831656D01*
X128992426Y-130831658D01*
X128794426Y-130938810D01*
X128794424Y-130938811D01*
X128616762Y-131077091D01*
X128464279Y-131242729D01*
X128464275Y-131242734D01*
X128341141Y-131431206D01*
X128250703Y-131637386D01*
X128250702Y-131637387D01*
X128195436Y-131855628D01*
X128195435Y-131855631D01*
X128186672Y-131961375D01*
X128161112Y-132027611D01*
X128150198Y-132040063D01*
X127316301Y-132873960D01*
X127307142Y-132882262D01*
X127273432Y-132909927D01*
X127147405Y-133063492D01*
X127119906Y-133114940D01*
X127053760Y-133238689D01*
X127053754Y-133238704D01*
X126996091Y-133428792D01*
X126996089Y-133428804D01*
X126976620Y-133626492D01*
X126976620Y-133626498D01*
X126980893Y-133669882D01*
X126981500Y-133682233D01*
X126981500Y-137125262D01*
X126980893Y-137137612D01*
X126976620Y-137180996D01*
X126976620Y-137181004D01*
X124460500Y-137181004D01*
X124460500Y-61542006D01*
X125291200Y-61542006D01*
X125301667Y-61674994D01*
X125356994Y-61894567D01*
X125356997Y-61894576D01*
X125450641Y-62100740D01*
X125450644Y-62100746D01*
X125579594Y-62286873D01*
X125579608Y-62286890D01*
X125739709Y-62446991D01*
X125739726Y-62447005D01*
X125925853Y-62575955D01*
X125925859Y-62575958D01*
X126132023Y-62669602D01*
X126132032Y-62669605D01*
X126351605Y-62724932D01*
X126484593Y-62735400D01*
X127045200Y-62735400D01*
X127045200Y-61908515D01*
X127089356Y-61936893D01*
X127227311Y-61977400D01*
X127371089Y-61977400D01*
X127509044Y-61936893D01*
X127553200Y-61908515D01*
X127553200Y-62735400D01*
X128113807Y-62735400D01*
X128246794Y-62724932D01*
X128466367Y-62669605D01*
X128466376Y-62669602D01*
X128672540Y-62575958D01*
X128672546Y-62575955D01*
X128858673Y-62447005D01*
X128858690Y-62446991D01*
X129018791Y-62286890D01*
X129018805Y-62286873D01*
X129147755Y-62100746D01*
X129147758Y-62100740D01*
X129241402Y-61894576D01*
X129241405Y-61894567D01*
X129296732Y-61674994D01*
X129307200Y-61542006D01*
X129307200Y-60731400D01*
X127799200Y-60731400D01*
X127799200Y-60223400D01*
X129307200Y-60223400D01*
X129307200Y-59412793D01*
X129296732Y-59279805D01*
X129241405Y-59060232D01*
X129241402Y-59060223D01*
X129147758Y-58854059D01*
X129147755Y-58854053D01*
X129018805Y-58667926D01*
X129018791Y-58667909D01*
X128858690Y-58507808D01*
X128858673Y-58507794D01*
X128672546Y-58378844D01*
X128672540Y-58378841D01*
X128466376Y-58285197D01*
X128466367Y-58285194D01*
X128246794Y-58229867D01*
X128113807Y-58219400D01*
X127553200Y-58219400D01*
X127553200Y-59046284D01*
X127509044Y-59017907D01*
X127371089Y-58977400D01*
X127227311Y-58977400D01*
X127089356Y-59017907D01*
X127045200Y-59046284D01*
X127045200Y-58219400D01*
X126484593Y-58219400D01*
X126351605Y-58229867D01*
X126132032Y-58285194D01*
X126132023Y-58285197D01*
X125925859Y-58378841D01*
X125925853Y-58378844D01*
X125739726Y-58507794D01*
X125739709Y-58507808D01*
X125579608Y-58667909D01*
X125579594Y-58667926D01*
X125450644Y-58854053D01*
X125450641Y-58854059D01*
X125356997Y-59060223D01*
X125356994Y-59060232D01*
X125301667Y-59279805D01*
X125291200Y-59412793D01*
X125291200Y-60223400D01*
X126799200Y-60223400D01*
X126799200Y-60731400D01*
X125291200Y-60731400D01*
X125291200Y-61542006D01*
X124460500Y-61542006D01*
X124460500Y-56006500D01*
X124480502Y-55938379D01*
X124534158Y-55891886D01*
X124586500Y-55880500D01*
X149733500Y-55880500D01*
X149801621Y-55900502D01*
G37*
%TD.AperFunction*%
%TD*%
M02*
