%TF.GenerationSoftware,KiCad,Pcbnew,(6.0.8)*%
%TF.CreationDate,2023-01-14T12:08:14-06:00*%
%TF.ProjectId,xilinix-programming-adapter,78696c69-6e69-4782-9d70-726f6772616d,rev?*%
%TF.SameCoordinates,Original*%
%TF.FileFunction,Legend,Bot*%
%TF.FilePolarity,Positive*%
%FSLAX46Y46*%
G04 Gerber Fmt 4.6, Leading zero omitted, Abs format (unit mm)*
G04 Created by KiCad (PCBNEW (6.0.8)) date 2023-01-14 12:08:14*
%MOMM*%
%LPD*%
G01*
G04 APERTURE LIST*
%ADD10C,0.200000*%
%ADD11C,0.150000*%
G04 APERTURE END LIST*
D10*
X126023714Y-74274142D02*
X126833238Y-74274142D01*
X126928476Y-74226523D01*
X126976095Y-74178904D01*
X127023714Y-74083666D01*
X127023714Y-73940809D01*
X126976095Y-73845571D01*
X126642761Y-74274142D02*
X126690380Y-74178904D01*
X126690380Y-73988428D01*
X126642761Y-73893190D01*
X126595142Y-73845571D01*
X126499904Y-73797952D01*
X126214190Y-73797952D01*
X126118952Y-73845571D01*
X126071333Y-73893190D01*
X126023714Y-73988428D01*
X126023714Y-74178904D01*
X126071333Y-74274142D01*
X126690380Y-74750333D02*
X126023714Y-74750333D01*
X125690380Y-74750333D02*
X125738000Y-74702714D01*
X125785619Y-74750333D01*
X125738000Y-74797952D01*
X125690380Y-74750333D01*
X125785619Y-74750333D01*
X126023714Y-75083666D02*
X126023714Y-75464619D01*
X125690380Y-75226523D02*
X126547523Y-75226523D01*
X126642761Y-75274142D01*
X126690380Y-75369380D01*
X126690380Y-75464619D01*
X126690380Y-75797952D02*
X125690380Y-75797952D01*
X126690380Y-76226523D02*
X126166571Y-76226523D01*
X126071333Y-76178904D01*
X126023714Y-76083666D01*
X126023714Y-75940809D01*
X126071333Y-75845571D01*
X126118952Y-75797952D01*
X126023714Y-77131285D02*
X126690380Y-77131285D01*
X126023714Y-76702714D02*
X126547523Y-76702714D01*
X126642761Y-76750333D01*
X126690380Y-76845571D01*
X126690380Y-76988428D01*
X126642761Y-77083666D01*
X126595142Y-77131285D01*
X126690380Y-77607476D02*
X125690380Y-77607476D01*
X126071333Y-77607476D02*
X126023714Y-77702714D01*
X126023714Y-77893190D01*
X126071333Y-77988428D01*
X126118952Y-78036047D01*
X126214190Y-78083666D01*
X126499904Y-78083666D01*
X126595142Y-78036047D01*
X126642761Y-77988428D01*
X126690380Y-77893190D01*
X126690380Y-77702714D01*
X126642761Y-77607476D01*
X126595142Y-78512238D02*
X126642761Y-78559857D01*
X126690380Y-78512238D01*
X126642761Y-78464619D01*
X126595142Y-78512238D01*
X126690380Y-78512238D01*
X126642761Y-79417000D02*
X126690380Y-79321761D01*
X126690380Y-79131285D01*
X126642761Y-79036047D01*
X126595142Y-78988428D01*
X126499904Y-78940809D01*
X126214190Y-78940809D01*
X126118952Y-78988428D01*
X126071333Y-79036047D01*
X126023714Y-79131285D01*
X126023714Y-79321761D01*
X126071333Y-79417000D01*
X126690380Y-79988428D02*
X126642761Y-79893190D01*
X126595142Y-79845571D01*
X126499904Y-79797952D01*
X126214190Y-79797952D01*
X126118952Y-79845571D01*
X126071333Y-79893190D01*
X126023714Y-79988428D01*
X126023714Y-80131285D01*
X126071333Y-80226523D01*
X126118952Y-80274142D01*
X126214190Y-80321761D01*
X126499904Y-80321761D01*
X126595142Y-80274142D01*
X126642761Y-80226523D01*
X126690380Y-80131285D01*
X126690380Y-79988428D01*
X126690380Y-80750333D02*
X126023714Y-80750333D01*
X126118952Y-80750333D02*
X126071333Y-80797952D01*
X126023714Y-80893190D01*
X126023714Y-81036047D01*
X126071333Y-81131285D01*
X126166571Y-81178904D01*
X126690380Y-81178904D01*
X126166571Y-81178904D02*
X126071333Y-81226523D01*
X126023714Y-81321761D01*
X126023714Y-81464619D01*
X126071333Y-81559857D01*
X126166571Y-81607476D01*
X126690380Y-81607476D01*
X125642761Y-82797952D02*
X126928476Y-81940809D01*
X126690380Y-83559857D02*
X125690380Y-83559857D01*
X126642761Y-83559857D02*
X126690380Y-83464619D01*
X126690380Y-83274142D01*
X126642761Y-83178904D01*
X126595142Y-83131285D01*
X126499904Y-83083666D01*
X126214190Y-83083666D01*
X126118952Y-83131285D01*
X126071333Y-83178904D01*
X126023714Y-83274142D01*
X126023714Y-83464619D01*
X126071333Y-83559857D01*
X126023714Y-84036047D02*
X126880857Y-84036047D01*
X126976095Y-83988428D01*
X127023714Y-83893190D01*
X127023714Y-83845571D01*
X125690380Y-84036047D02*
X125738000Y-83988428D01*
X125785619Y-84036047D01*
X125738000Y-84083666D01*
X125690380Y-84036047D01*
X125785619Y-84036047D01*
X126023714Y-84369380D02*
X126023714Y-84750333D01*
X125690380Y-84512238D02*
X126547523Y-84512238D01*
X126642761Y-84559857D01*
X126690380Y-84655095D01*
X126690380Y-84750333D01*
X126642761Y-85464619D02*
X126690380Y-85369380D01*
X126690380Y-85178904D01*
X126642761Y-85083666D01*
X126547523Y-85036047D01*
X126166571Y-85036047D01*
X126071333Y-85083666D01*
X126023714Y-85178904D01*
X126023714Y-85369380D01*
X126071333Y-85464619D01*
X126166571Y-85512238D01*
X126261809Y-85512238D01*
X126357047Y-85036047D01*
X126690380Y-85940809D02*
X126023714Y-85940809D01*
X126214190Y-85940809D02*
X126118952Y-85988428D01*
X126071333Y-86036047D01*
X126023714Y-86131285D01*
X126023714Y-86226523D01*
X126642761Y-86512238D02*
X126690380Y-86607476D01*
X126690380Y-86797952D01*
X126642761Y-86893190D01*
X126547523Y-86940809D01*
X126499904Y-86940809D01*
X126404666Y-86893190D01*
X126357047Y-86797952D01*
X126357047Y-86655095D01*
X126309428Y-86559857D01*
X126214190Y-86512238D01*
X126166571Y-86512238D01*
X126071333Y-86559857D01*
X126023714Y-86655095D01*
X126023714Y-86797952D01*
X126071333Y-86893190D01*
X126023714Y-87226523D02*
X126023714Y-87607476D01*
X125690380Y-87369380D02*
X126547523Y-87369380D01*
X126642761Y-87417000D01*
X126690380Y-87512238D01*
X126690380Y-87607476D01*
X126642761Y-88321761D02*
X126690380Y-88226523D01*
X126690380Y-88036047D01*
X126642761Y-87940809D01*
X126547523Y-87893190D01*
X126166571Y-87893190D01*
X126071333Y-87940809D01*
X126023714Y-88036047D01*
X126023714Y-88226523D01*
X126071333Y-88321761D01*
X126166571Y-88369380D01*
X126261809Y-88369380D01*
X126357047Y-87893190D01*
X126642761Y-89178904D02*
X126690380Y-89083666D01*
X126690380Y-88893190D01*
X126642761Y-88797952D01*
X126547523Y-88750333D01*
X126166571Y-88750333D01*
X126071333Y-88797952D01*
X126023714Y-88893190D01*
X126023714Y-89083666D01*
X126071333Y-89178904D01*
X126166571Y-89226523D01*
X126261809Y-89226523D01*
X126357047Y-88750333D01*
X126023714Y-90083666D02*
X126833238Y-90083666D01*
X126928476Y-90036047D01*
X126976095Y-89988428D01*
X127023714Y-89893190D01*
X127023714Y-89750333D01*
X126976095Y-89655095D01*
X126642761Y-90083666D02*
X126690380Y-89988428D01*
X126690380Y-89797952D01*
X126642761Y-89702714D01*
X126595142Y-89655095D01*
X126499904Y-89607476D01*
X126214190Y-89607476D01*
X126118952Y-89655095D01*
X126071333Y-89702714D01*
X126023714Y-89797952D01*
X126023714Y-89988428D01*
X126071333Y-90083666D01*
X126642761Y-90988428D02*
X126690380Y-90893190D01*
X126690380Y-90702714D01*
X126642761Y-90607476D01*
X126595142Y-90559857D01*
X126499904Y-90512238D01*
X126214190Y-90512238D01*
X126118952Y-90559857D01*
X126071333Y-90607476D01*
X126023714Y-90702714D01*
X126023714Y-90893190D01*
X126071333Y-90988428D01*
X125642761Y-92131285D02*
X126928476Y-91274142D01*
X126690380Y-92369380D02*
X126023714Y-92893190D01*
X126023714Y-92369380D02*
X126690380Y-92893190D01*
X126690380Y-93274142D02*
X126023714Y-93274142D01*
X125690380Y-93274142D02*
X125738000Y-93226523D01*
X125785619Y-93274142D01*
X125738000Y-93321761D01*
X125690380Y-93274142D01*
X125785619Y-93274142D01*
X126690380Y-93893190D02*
X126642761Y-93797952D01*
X126547523Y-93750333D01*
X125690380Y-93750333D01*
X126690380Y-94274142D02*
X126023714Y-94274142D01*
X125690380Y-94274142D02*
X125738000Y-94226523D01*
X125785619Y-94274142D01*
X125738000Y-94321761D01*
X125690380Y-94274142D01*
X125785619Y-94274142D01*
X126023714Y-94750333D02*
X126690380Y-94750333D01*
X126118952Y-94750333D02*
X126071333Y-94797952D01*
X126023714Y-94893190D01*
X126023714Y-95036047D01*
X126071333Y-95131285D01*
X126166571Y-95178904D01*
X126690380Y-95178904D01*
X126690380Y-95559857D02*
X126023714Y-96083666D01*
X126023714Y-95559857D02*
X126690380Y-96083666D01*
X126309428Y-96464619D02*
X126309428Y-97226523D01*
X126690380Y-97607476D02*
X126023714Y-98131285D01*
X126023714Y-97607476D02*
X126690380Y-98131285D01*
X126642761Y-98940809D02*
X126690380Y-98845571D01*
X126690380Y-98655095D01*
X126642761Y-98559857D01*
X126595142Y-98512238D01*
X126499904Y-98464619D01*
X126214190Y-98464619D01*
X126118952Y-98512238D01*
X126071333Y-98559857D01*
X126023714Y-98655095D01*
X126023714Y-98845571D01*
X126071333Y-98940809D01*
X126690380Y-99417000D02*
X126690380Y-99607476D01*
X126642761Y-99702714D01*
X126595142Y-99750333D01*
X126452285Y-99845571D01*
X126261809Y-99893190D01*
X125880857Y-99893190D01*
X125785619Y-99845571D01*
X125738000Y-99797952D01*
X125690380Y-99702714D01*
X125690380Y-99512238D01*
X125738000Y-99417000D01*
X125785619Y-99369380D01*
X125880857Y-99321761D01*
X126118952Y-99321761D01*
X126214190Y-99369380D01*
X126261809Y-99417000D01*
X126309428Y-99512238D01*
X126309428Y-99702714D01*
X126261809Y-99797952D01*
X126214190Y-99845571D01*
X126118952Y-99893190D01*
X125690380Y-100797952D02*
X125690380Y-100321761D01*
X126166571Y-100274142D01*
X126118952Y-100321761D01*
X126071333Y-100417000D01*
X126071333Y-100655095D01*
X126118952Y-100750333D01*
X126166571Y-100797952D01*
X126261809Y-100845571D01*
X126499904Y-100845571D01*
X126595142Y-100797952D01*
X126642761Y-100750333D01*
X126690380Y-100655095D01*
X126690380Y-100417000D01*
X126642761Y-100321761D01*
X126595142Y-100274142D01*
X125690380Y-101464619D02*
X125690380Y-101559857D01*
X125738000Y-101655095D01*
X125785619Y-101702714D01*
X125880857Y-101750333D01*
X126071333Y-101797952D01*
X126309428Y-101797952D01*
X126499904Y-101750333D01*
X126595142Y-101702714D01*
X126642761Y-101655095D01*
X126690380Y-101559857D01*
X126690380Y-101464619D01*
X126642761Y-101369380D01*
X126595142Y-101321761D01*
X126499904Y-101274142D01*
X126309428Y-101226523D01*
X126071333Y-101226523D01*
X125880857Y-101274142D01*
X125785619Y-101321761D01*
X125738000Y-101369380D01*
X125690380Y-101464619D01*
X125690380Y-102417000D02*
X125690380Y-102512238D01*
X125738000Y-102607476D01*
X125785619Y-102655095D01*
X125880857Y-102702714D01*
X126071333Y-102750333D01*
X126309428Y-102750333D01*
X126499904Y-102702714D01*
X126595142Y-102655095D01*
X126642761Y-102607476D01*
X126690380Y-102512238D01*
X126690380Y-102417000D01*
X126642761Y-102321761D01*
X126595142Y-102274142D01*
X126499904Y-102226523D01*
X126309428Y-102178904D01*
X126071333Y-102178904D01*
X125880857Y-102226523D01*
X125785619Y-102274142D01*
X125738000Y-102321761D01*
X125690380Y-102417000D01*
X126690380Y-103083666D02*
X126023714Y-103607476D01*
X126023714Y-103083666D02*
X126690380Y-103607476D01*
X126690380Y-104131285D02*
X126642761Y-104036047D01*
X126547523Y-103988428D01*
X125690380Y-103988428D01*
X126309428Y-104512238D02*
X126309428Y-105274142D01*
X126023714Y-105750333D02*
X127023714Y-105750333D01*
X126071333Y-105750333D02*
X126023714Y-105845571D01*
X126023714Y-106036047D01*
X126071333Y-106131285D01*
X126118952Y-106178904D01*
X126214190Y-106226523D01*
X126499904Y-106226523D01*
X126595142Y-106178904D01*
X126642761Y-106131285D01*
X126690380Y-106036047D01*
X126690380Y-105845571D01*
X126642761Y-105750333D01*
X126690380Y-106655095D02*
X126023714Y-106655095D01*
X126214190Y-106655095D02*
X126118952Y-106702714D01*
X126071333Y-106750333D01*
X126023714Y-106845571D01*
X126023714Y-106940809D01*
X126690380Y-107417000D02*
X126642761Y-107321761D01*
X126595142Y-107274142D01*
X126499904Y-107226523D01*
X126214190Y-107226523D01*
X126118952Y-107274142D01*
X126071333Y-107321761D01*
X126023714Y-107417000D01*
X126023714Y-107559857D01*
X126071333Y-107655095D01*
X126118952Y-107702714D01*
X126214190Y-107750333D01*
X126499904Y-107750333D01*
X126595142Y-107702714D01*
X126642761Y-107655095D01*
X126690380Y-107559857D01*
X126690380Y-107417000D01*
X126023714Y-108607476D02*
X126833238Y-108607476D01*
X126928476Y-108559857D01*
X126976095Y-108512238D01*
X127023714Y-108417000D01*
X127023714Y-108274142D01*
X126976095Y-108178904D01*
X126642761Y-108607476D02*
X126690380Y-108512238D01*
X126690380Y-108321761D01*
X126642761Y-108226523D01*
X126595142Y-108178904D01*
X126499904Y-108131285D01*
X126214190Y-108131285D01*
X126118952Y-108178904D01*
X126071333Y-108226523D01*
X126023714Y-108321761D01*
X126023714Y-108512238D01*
X126071333Y-108607476D01*
X126690380Y-109083666D02*
X126023714Y-109083666D01*
X126214190Y-109083666D02*
X126118952Y-109131285D01*
X126071333Y-109178904D01*
X126023714Y-109274142D01*
X126023714Y-109369380D01*
X126690380Y-110131285D02*
X126166571Y-110131285D01*
X126071333Y-110083666D01*
X126023714Y-109988428D01*
X126023714Y-109797952D01*
X126071333Y-109702714D01*
X126642761Y-110131285D02*
X126690380Y-110036047D01*
X126690380Y-109797952D01*
X126642761Y-109702714D01*
X126547523Y-109655095D01*
X126452285Y-109655095D01*
X126357047Y-109702714D01*
X126309428Y-109797952D01*
X126309428Y-110036047D01*
X126261809Y-110131285D01*
X126690380Y-110607476D02*
X126023714Y-110607476D01*
X126118952Y-110607476D02*
X126071333Y-110655095D01*
X126023714Y-110750333D01*
X126023714Y-110893190D01*
X126071333Y-110988428D01*
X126166571Y-111036047D01*
X126690380Y-111036047D01*
X126166571Y-111036047D02*
X126071333Y-111083666D01*
X126023714Y-111178904D01*
X126023714Y-111321761D01*
X126071333Y-111417000D01*
X126166571Y-111464619D01*
X126690380Y-111464619D01*
X126690380Y-111940809D02*
X126023714Y-111940809D01*
X126118952Y-111940809D02*
X126071333Y-111988428D01*
X126023714Y-112083666D01*
X126023714Y-112226523D01*
X126071333Y-112321761D01*
X126166571Y-112369380D01*
X126690380Y-112369380D01*
X126166571Y-112369380D02*
X126071333Y-112417000D01*
X126023714Y-112512238D01*
X126023714Y-112655095D01*
X126071333Y-112750333D01*
X126166571Y-112797952D01*
X126690380Y-112797952D01*
X126690380Y-113274142D02*
X126023714Y-113274142D01*
X125690380Y-113274142D02*
X125738000Y-113226523D01*
X125785619Y-113274142D01*
X125738000Y-113321761D01*
X125690380Y-113274142D01*
X125785619Y-113274142D01*
X126023714Y-113750333D02*
X126690380Y-113750333D01*
X126118952Y-113750333D02*
X126071333Y-113797952D01*
X126023714Y-113893190D01*
X126023714Y-114036047D01*
X126071333Y-114131285D01*
X126166571Y-114178904D01*
X126690380Y-114178904D01*
X126023714Y-115083666D02*
X126833238Y-115083666D01*
X126928476Y-115036047D01*
X126976095Y-114988428D01*
X127023714Y-114893190D01*
X127023714Y-114750333D01*
X126976095Y-114655095D01*
X126642761Y-115083666D02*
X126690380Y-114988428D01*
X126690380Y-114797952D01*
X126642761Y-114702714D01*
X126595142Y-114655095D01*
X126499904Y-114607476D01*
X126214190Y-114607476D01*
X126118952Y-114655095D01*
X126071333Y-114702714D01*
X126023714Y-114797952D01*
X126023714Y-114988428D01*
X126071333Y-115083666D01*
X126309428Y-115559857D02*
X126309428Y-116321761D01*
X126690380Y-117226523D02*
X126166571Y-117226523D01*
X126071333Y-117178904D01*
X126023714Y-117083666D01*
X126023714Y-116893190D01*
X126071333Y-116797952D01*
X126642761Y-117226523D02*
X126690380Y-117131285D01*
X126690380Y-116893190D01*
X126642761Y-116797952D01*
X126547523Y-116750333D01*
X126452285Y-116750333D01*
X126357047Y-116797952D01*
X126309428Y-116893190D01*
X126309428Y-117131285D01*
X126261809Y-117226523D01*
X126690380Y-118131285D02*
X125690380Y-118131285D01*
X126642761Y-118131285D02*
X126690380Y-118036047D01*
X126690380Y-117845571D01*
X126642761Y-117750333D01*
X126595142Y-117702714D01*
X126499904Y-117655095D01*
X126214190Y-117655095D01*
X126118952Y-117702714D01*
X126071333Y-117750333D01*
X126023714Y-117845571D01*
X126023714Y-118036047D01*
X126071333Y-118131285D01*
X126690380Y-119036047D02*
X126166571Y-119036047D01*
X126071333Y-118988428D01*
X126023714Y-118893190D01*
X126023714Y-118702714D01*
X126071333Y-118607476D01*
X126642761Y-119036047D02*
X126690380Y-118940809D01*
X126690380Y-118702714D01*
X126642761Y-118607476D01*
X126547523Y-118559857D01*
X126452285Y-118559857D01*
X126357047Y-118607476D01*
X126309428Y-118702714D01*
X126309428Y-118940809D01*
X126261809Y-119036047D01*
X126023714Y-119512238D02*
X127023714Y-119512238D01*
X126071333Y-119512238D02*
X126023714Y-119607476D01*
X126023714Y-119797952D01*
X126071333Y-119893190D01*
X126118952Y-119940809D01*
X126214190Y-119988428D01*
X126499904Y-119988428D01*
X126595142Y-119940809D01*
X126642761Y-119893190D01*
X126690380Y-119797952D01*
X126690380Y-119607476D01*
X126642761Y-119512238D01*
X126023714Y-120274142D02*
X126023714Y-120655095D01*
X125690380Y-120417000D02*
X126547523Y-120417000D01*
X126642761Y-120464619D01*
X126690380Y-120559857D01*
X126690380Y-120655095D01*
X126642761Y-121369380D02*
X126690380Y-121274142D01*
X126690380Y-121083666D01*
X126642761Y-120988428D01*
X126547523Y-120940809D01*
X126166571Y-120940809D01*
X126071333Y-120988428D01*
X126023714Y-121083666D01*
X126023714Y-121274142D01*
X126071333Y-121369380D01*
X126166571Y-121417000D01*
X126261809Y-121417000D01*
X126357047Y-120940809D01*
X126690380Y-121845571D02*
X126023714Y-121845571D01*
X126214190Y-121845571D02*
X126118952Y-121893190D01*
X126071333Y-121940809D01*
X126023714Y-122036047D01*
X126023714Y-122131285D01*
D11*
X134921047Y-56856380D02*
X134921047Y-57570666D01*
X134968666Y-57713523D01*
X135063904Y-57808761D01*
X135206761Y-57856380D01*
X135302000Y-57856380D01*
X133968666Y-57856380D02*
X134444857Y-57856380D01*
X134444857Y-56856380D01*
X133063904Y-57761142D02*
X133111523Y-57808761D01*
X133254380Y-57856380D01*
X133349619Y-57856380D01*
X133492476Y-57808761D01*
X133587714Y-57713523D01*
X133635333Y-57618285D01*
X133682952Y-57427809D01*
X133682952Y-57284952D01*
X133635333Y-57094476D01*
X133587714Y-56999238D01*
X133492476Y-56904000D01*
X133349619Y-56856380D01*
X133254380Y-56856380D01*
X133111523Y-56904000D01*
X133063904Y-56951619D01*
X132349619Y-56856380D02*
X132349619Y-57570666D01*
X132397238Y-57713523D01*
X132492476Y-57808761D01*
X132635333Y-57856380D01*
X132730571Y-57856380D01*
X131397238Y-57856380D02*
X131873428Y-57856380D01*
X131873428Y-56856380D01*
X130492476Y-57761142D02*
X130540095Y-57808761D01*
X130682952Y-57856380D01*
X130778190Y-57856380D01*
X130921047Y-57808761D01*
X131016285Y-57713523D01*
X131063904Y-57618285D01*
X131111523Y-57427809D01*
X131111523Y-57284952D01*
X131063904Y-57094476D01*
X131016285Y-56999238D01*
X130921047Y-56904000D01*
X130778190Y-56856380D01*
X130682952Y-56856380D01*
X130540095Y-56904000D01*
X130492476Y-56951619D01*
X129778190Y-56856380D02*
X129778190Y-57570666D01*
X129825809Y-57713523D01*
X129921047Y-57808761D01*
X130063904Y-57856380D01*
X130159142Y-57856380D01*
X128825809Y-57856380D02*
X129302000Y-57856380D01*
X129302000Y-56856380D01*
X127921047Y-57761142D02*
X127968666Y-57808761D01*
X128111523Y-57856380D01*
X128206761Y-57856380D01*
X128349619Y-57808761D01*
X128444857Y-57713523D01*
X128492476Y-57618285D01*
X128540095Y-57427809D01*
X128540095Y-57284952D01*
X128492476Y-57094476D01*
X128444857Y-56999238D01*
X128349619Y-56904000D01*
X128206761Y-56856380D01*
X128111523Y-56856380D01*
X127968666Y-56904000D01*
X127921047Y-56951619D01*
X127206761Y-56856380D02*
X127206761Y-57570666D01*
X127254380Y-57713523D01*
X127349619Y-57808761D01*
X127492476Y-57856380D01*
X127587714Y-57856380D01*
X126254380Y-57856380D02*
X126730571Y-57856380D01*
X126730571Y-56856380D01*
X125349619Y-57761142D02*
X125397238Y-57808761D01*
X125540095Y-57856380D01*
X125635333Y-57856380D01*
X125778190Y-57808761D01*
X125873428Y-57713523D01*
X125921047Y-57618285D01*
X125968666Y-57427809D01*
X125968666Y-57284952D01*
X125921047Y-57094476D01*
X125873428Y-56999238D01*
X125778190Y-56904000D01*
X125635333Y-56856380D01*
X125540095Y-56856380D01*
X125397238Y-56904000D01*
X125349619Y-56951619D01*
X128397000Y-134620000D02*
X146050000Y-134620000D01*
X135040619Y-129855261D02*
X135040619Y-129283833D01*
X134040619Y-129569547D02*
X135040619Y-129569547D01*
X134135857Y-128379071D02*
X134088238Y-128426690D01*
X134040619Y-128569547D01*
X134040619Y-128664785D01*
X134088238Y-128807642D01*
X134183476Y-128902880D01*
X134278714Y-128950500D01*
X134469190Y-128998119D01*
X134612047Y-128998119D01*
X134802523Y-128950500D01*
X134897761Y-128902880D01*
X134993000Y-128807642D01*
X135040619Y-128664785D01*
X135040619Y-128569547D01*
X134993000Y-128426690D01*
X134945380Y-128379071D01*
X134040619Y-127950500D02*
X135040619Y-127950500D01*
X134040619Y-127379071D02*
X134612047Y-127807642D01*
X135040619Y-127379071D02*
X134469190Y-127950500D01*
X132500619Y-129855261D02*
X132500619Y-129283833D01*
X131500619Y-129569547D02*
X132500619Y-129569547D01*
X131500619Y-128950500D02*
X132500619Y-128950500D01*
X131786333Y-128617166D01*
X132500619Y-128283833D01*
X131500619Y-128283833D01*
X131548238Y-127855261D02*
X131500619Y-127712404D01*
X131500619Y-127474309D01*
X131548238Y-127379071D01*
X131595857Y-127331452D01*
X131691095Y-127283833D01*
X131786333Y-127283833D01*
X131881571Y-127331452D01*
X131929190Y-127379071D01*
X131976809Y-127474309D01*
X132024428Y-127664785D01*
X132072047Y-127760023D01*
X132119666Y-127807642D01*
X132214904Y-127855261D01*
X132310142Y-127855261D01*
X132405380Y-127807642D01*
X132453000Y-127760023D01*
X132500619Y-127664785D01*
X132500619Y-127426690D01*
X132453000Y-127283833D01*
X129960619Y-129855261D02*
X128960619Y-129521928D01*
X129960619Y-129188595D01*
X128960619Y-128283833D02*
X129436809Y-128617166D01*
X128960619Y-128855261D02*
X129960619Y-128855261D01*
X129960619Y-128474309D01*
X129913000Y-128379071D01*
X129865380Y-128331452D01*
X129770142Y-128283833D01*
X129627285Y-128283833D01*
X129532047Y-128331452D01*
X129484428Y-128379071D01*
X129436809Y-128474309D01*
X129436809Y-128855261D01*
X129484428Y-127855261D02*
X129484428Y-127521928D01*
X128960619Y-127379071D02*
X128960619Y-127855261D01*
X129960619Y-127855261D01*
X129960619Y-127379071D01*
X129484428Y-126617166D02*
X129484428Y-126950500D01*
X128960619Y-126950500D02*
X129960619Y-126950500D01*
X129960619Y-126474309D01*
X128817619Y-147254261D02*
X128817619Y-146682833D01*
X127817619Y-146968547D02*
X128817619Y-146968547D01*
X127912857Y-145778071D02*
X127865238Y-145825690D01*
X127817619Y-145968547D01*
X127817619Y-146063785D01*
X127865238Y-146206642D01*
X127960476Y-146301880D01*
X128055714Y-146349500D01*
X128246190Y-146397119D01*
X128389047Y-146397119D01*
X128579523Y-146349500D01*
X128674761Y-146301880D01*
X128770000Y-146206642D01*
X128817619Y-146063785D01*
X128817619Y-145968547D01*
X128770000Y-145825690D01*
X128722380Y-145778071D01*
X127817619Y-145349500D02*
X128817619Y-145349500D01*
X127817619Y-144778071D02*
X128389047Y-145206642D01*
X128817619Y-144778071D02*
X128246190Y-145349500D01*
X131738619Y-139253261D02*
X130738619Y-138919928D01*
X131738619Y-138586595D01*
X130738619Y-137681833D02*
X131214809Y-138015166D01*
X130738619Y-138253261D02*
X131738619Y-138253261D01*
X131738619Y-137872309D01*
X131691000Y-137777071D01*
X131643380Y-137729452D01*
X131548142Y-137681833D01*
X131405285Y-137681833D01*
X131310047Y-137729452D01*
X131262428Y-137777071D01*
X131214809Y-137872309D01*
X131214809Y-138253261D01*
X131262428Y-137253261D02*
X131262428Y-136919928D01*
X130738619Y-136777071D02*
X130738619Y-137253261D01*
X131738619Y-137253261D01*
X131738619Y-136777071D01*
X131262428Y-136015166D02*
X131262428Y-136348500D01*
X130738619Y-136348500D02*
X131738619Y-136348500D01*
X131738619Y-135872309D01*
X135675619Y-139126261D02*
X135675619Y-138554833D01*
X134675619Y-138840547D02*
X135675619Y-138840547D01*
X134770857Y-137650071D02*
X134723238Y-137697690D01*
X134675619Y-137840547D01*
X134675619Y-137935785D01*
X134723238Y-138078642D01*
X134818476Y-138173880D01*
X134913714Y-138221500D01*
X135104190Y-138269119D01*
X135247047Y-138269119D01*
X135437523Y-138221500D01*
X135532761Y-138173880D01*
X135628000Y-138078642D01*
X135675619Y-137935785D01*
X135675619Y-137840547D01*
X135628000Y-137697690D01*
X135580380Y-137650071D01*
X134675619Y-137221500D02*
X135675619Y-137221500D01*
X134675619Y-136650071D02*
X135247047Y-137078642D01*
X135675619Y-136650071D02*
X135104190Y-137221500D01*
X137707619Y-139126261D02*
X137707619Y-138554833D01*
X136707619Y-138840547D02*
X137707619Y-138840547D01*
X136707619Y-138221500D02*
X137707619Y-138221500D01*
X137707619Y-137983404D01*
X137660000Y-137840547D01*
X137564761Y-137745309D01*
X137469523Y-137697690D01*
X137279047Y-137650071D01*
X137136190Y-137650071D01*
X136945714Y-137697690D01*
X136850476Y-137745309D01*
X136755238Y-137840547D01*
X136707619Y-137983404D01*
X136707619Y-138221500D01*
X137707619Y-137031023D02*
X137707619Y-136840547D01*
X137660000Y-136745309D01*
X137564761Y-136650071D01*
X137374285Y-136602452D01*
X137040952Y-136602452D01*
X136850476Y-136650071D01*
X136755238Y-136745309D01*
X136707619Y-136840547D01*
X136707619Y-137031023D01*
X136755238Y-137126261D01*
X136850476Y-137221500D01*
X137040952Y-137269119D01*
X137374285Y-137269119D01*
X137564761Y-137221500D01*
X137660000Y-137126261D01*
X137707619Y-137031023D01*
X129188595Y-141867000D02*
X129283833Y-141819380D01*
X129426690Y-141819380D01*
X129569547Y-141867000D01*
X129664785Y-141962238D01*
X129712404Y-142057476D01*
X129760023Y-142247952D01*
X129760023Y-142390809D01*
X129712404Y-142581285D01*
X129664785Y-142676523D01*
X129569547Y-142771761D01*
X129426690Y-142819380D01*
X129331452Y-142819380D01*
X129188595Y-142771761D01*
X129140976Y-142724142D01*
X129140976Y-142390809D01*
X129331452Y-142390809D01*
X128712404Y-142819380D02*
X128712404Y-141819380D01*
X128140976Y-142819380D01*
X128140976Y-141819380D01*
X127664785Y-142819380D02*
X127664785Y-141819380D01*
X127426690Y-141819380D01*
X127283833Y-141867000D01*
X127188595Y-141962238D01*
X127140976Y-142057476D01*
X127093357Y-142247952D01*
X127093357Y-142390809D01*
X127140976Y-142581285D01*
X127188595Y-142676523D01*
X127283833Y-142771761D01*
X127426690Y-142819380D01*
X127664785Y-142819380D01*
X127664595Y-134120000D02*
X127759833Y-134072380D01*
X127902690Y-134072380D01*
X128045547Y-134120000D01*
X128140785Y-134215238D01*
X128188404Y-134310476D01*
X128236023Y-134500952D01*
X128236023Y-134643809D01*
X128188404Y-134834285D01*
X128140785Y-134929523D01*
X128045547Y-135024761D01*
X127902690Y-135072380D01*
X127807452Y-135072380D01*
X127664595Y-135024761D01*
X127616976Y-134977142D01*
X127616976Y-134643809D01*
X127807452Y-134643809D01*
X127188404Y-135072380D02*
X127188404Y-134072380D01*
X126616976Y-135072380D01*
X126616976Y-134072380D01*
X126140785Y-135072380D02*
X126140785Y-134072380D01*
X125902690Y-134072380D01*
X125759833Y-134120000D01*
X125664595Y-134215238D01*
X125616976Y-134310476D01*
X125569357Y-134500952D01*
X125569357Y-134643809D01*
X125616976Y-134834285D01*
X125664595Y-134929523D01*
X125759833Y-135024761D01*
X125902690Y-135072380D01*
X126140785Y-135072380D01*
X137580619Y-129907261D02*
X137580619Y-129335833D01*
X136580619Y-129621547D02*
X137580619Y-129621547D01*
X136580619Y-129002500D02*
X137580619Y-129002500D01*
X137580619Y-128764404D01*
X137533000Y-128621547D01*
X137437761Y-128526309D01*
X137342523Y-128478690D01*
X137152047Y-128431071D01*
X137009190Y-128431071D01*
X136818714Y-128478690D01*
X136723476Y-128526309D01*
X136628238Y-128621547D01*
X136580619Y-128764404D01*
X136580619Y-129002500D01*
X137580619Y-127812023D02*
X137580619Y-127621547D01*
X137533000Y-127526309D01*
X137437761Y-127431071D01*
X137247285Y-127383452D01*
X136913952Y-127383452D01*
X136723476Y-127431071D01*
X136628238Y-127526309D01*
X136580619Y-127621547D01*
X136580619Y-127812023D01*
X136628238Y-127907261D01*
X136723476Y-128002500D01*
X136913952Y-128050119D01*
X137247285Y-128050119D01*
X137437761Y-128002500D01*
X137533000Y-127907261D01*
X137580619Y-127812023D01*
D10*
X133607071Y-80215142D02*
X135107071Y-81215142D01*
X133607071Y-81215142D02*
X135107071Y-80215142D01*
X135107071Y-81786571D02*
X134107071Y-81786571D01*
X133607071Y-81786571D02*
X133678500Y-81715142D01*
X133749928Y-81786571D01*
X133678500Y-81858000D01*
X133607071Y-81786571D01*
X133749928Y-81786571D01*
X135107071Y-82715142D02*
X135035642Y-82572285D01*
X134892785Y-82500857D01*
X133607071Y-82500857D01*
X135107071Y-83286571D02*
X134107071Y-83286571D01*
X133607071Y-83286571D02*
X133678500Y-83215142D01*
X133749928Y-83286571D01*
X133678500Y-83358000D01*
X133607071Y-83286571D01*
X133749928Y-83286571D01*
X134107071Y-84000857D02*
X135107071Y-84000857D01*
X134249928Y-84000857D02*
X134178500Y-84072285D01*
X134107071Y-84215142D01*
X134107071Y-84429428D01*
X134178500Y-84572285D01*
X134321357Y-84643714D01*
X135107071Y-84643714D01*
X135107071Y-85215142D02*
X134107071Y-86000857D01*
X134107071Y-85215142D02*
X135107071Y-86000857D01*
X133607071Y-87572285D02*
X135107071Y-88572285D01*
X133607071Y-88572285D02*
X135107071Y-87572285D01*
X134964214Y-90000857D02*
X135035642Y-89929428D01*
X135107071Y-89715142D01*
X135107071Y-89572285D01*
X135035642Y-89358000D01*
X134892785Y-89215142D01*
X134749928Y-89143714D01*
X134464214Y-89072285D01*
X134249928Y-89072285D01*
X133964214Y-89143714D01*
X133821357Y-89215142D01*
X133678500Y-89358000D01*
X133607071Y-89572285D01*
X133607071Y-89715142D01*
X133678500Y-89929428D01*
X133749928Y-90000857D01*
X135107071Y-90715142D02*
X135107071Y-91000857D01*
X135035642Y-91143714D01*
X134964214Y-91215142D01*
X134749928Y-91358000D01*
X134464214Y-91429428D01*
X133892785Y-91429428D01*
X133749928Y-91358000D01*
X133678500Y-91286571D01*
X133607071Y-91143714D01*
X133607071Y-90858000D01*
X133678500Y-90715142D01*
X133749928Y-90643714D01*
X133892785Y-90572285D01*
X134249928Y-90572285D01*
X134392785Y-90643714D01*
X134464214Y-90715142D01*
X134535642Y-90858000D01*
X134535642Y-91143714D01*
X134464214Y-91286571D01*
X134392785Y-91358000D01*
X134249928Y-91429428D01*
X133607071Y-92786571D02*
X133607071Y-92072285D01*
X134321357Y-92000857D01*
X134249928Y-92072285D01*
X134178500Y-92215142D01*
X134178500Y-92572285D01*
X134249928Y-92715142D01*
X134321357Y-92786571D01*
X134464214Y-92858000D01*
X134821357Y-92858000D01*
X134964214Y-92786571D01*
X135035642Y-92715142D01*
X135107071Y-92572285D01*
X135107071Y-92215142D01*
X135035642Y-92072285D01*
X134964214Y-92000857D01*
X133607071Y-93786571D02*
X133607071Y-93929428D01*
X133678500Y-94072285D01*
X133749928Y-94143714D01*
X133892785Y-94215142D01*
X134178500Y-94286571D01*
X134535642Y-94286571D01*
X134821357Y-94215142D01*
X134964214Y-94143714D01*
X135035642Y-94072285D01*
X135107071Y-93929428D01*
X135107071Y-93786571D01*
X135035642Y-93643714D01*
X134964214Y-93572285D01*
X134821357Y-93500857D01*
X134535642Y-93429428D01*
X134178500Y-93429428D01*
X133892785Y-93500857D01*
X133749928Y-93572285D01*
X133678500Y-93643714D01*
X133607071Y-93786571D01*
X133607071Y-95215142D02*
X133607071Y-95358000D01*
X133678500Y-95500857D01*
X133749928Y-95572285D01*
X133892785Y-95643714D01*
X134178500Y-95715142D01*
X134535642Y-95715142D01*
X134821357Y-95643714D01*
X134964214Y-95572285D01*
X135035642Y-95500857D01*
X135107071Y-95358000D01*
X135107071Y-95215142D01*
X135035642Y-95072285D01*
X134964214Y-95000857D01*
X134821357Y-94929428D01*
X134535642Y-94858000D01*
X134178500Y-94858000D01*
X133892785Y-94929428D01*
X133749928Y-95000857D01*
X133678500Y-95072285D01*
X133607071Y-95215142D01*
X133607071Y-96215142D02*
X135107071Y-97215142D01*
X133607071Y-97215142D02*
X135107071Y-96215142D01*
X135107071Y-98500857D02*
X135107071Y-97786571D01*
X133607071Y-97786571D01*
X135107071Y-100143714D02*
X133607071Y-100143714D01*
X133607071Y-100715142D01*
X133678500Y-100858000D01*
X133749928Y-100929428D01*
X133892785Y-101000857D01*
X134107071Y-101000857D01*
X134249928Y-100929428D01*
X134321357Y-100858000D01*
X134392785Y-100715142D01*
X134392785Y-100143714D01*
X135107071Y-101643714D02*
X134107071Y-101643714D01*
X134392785Y-101643714D02*
X134249928Y-101715142D01*
X134178500Y-101786571D01*
X134107071Y-101929428D01*
X134107071Y-102072285D01*
X135107071Y-102786571D02*
X135035642Y-102643714D01*
X134964214Y-102572285D01*
X134821357Y-102500857D01*
X134392785Y-102500857D01*
X134249928Y-102572285D01*
X134178500Y-102643714D01*
X134107071Y-102786571D01*
X134107071Y-103000857D01*
X134178500Y-103143714D01*
X134249928Y-103215142D01*
X134392785Y-103286571D01*
X134821357Y-103286571D01*
X134964214Y-103215142D01*
X135035642Y-103143714D01*
X135107071Y-103000857D01*
X135107071Y-102786571D01*
X134107071Y-104572285D02*
X135321357Y-104572285D01*
X135464214Y-104500857D01*
X135535642Y-104429428D01*
X135607071Y-104286571D01*
X135607071Y-104072285D01*
X135535642Y-103929428D01*
X135035642Y-104572285D02*
X135107071Y-104429428D01*
X135107071Y-104143714D01*
X135035642Y-104000857D01*
X134964214Y-103929428D01*
X134821357Y-103858000D01*
X134392785Y-103858000D01*
X134249928Y-103929428D01*
X134178500Y-104000857D01*
X134107071Y-104143714D01*
X134107071Y-104429428D01*
X134178500Y-104572285D01*
X135107071Y-105286571D02*
X134107071Y-105286571D01*
X134392785Y-105286571D02*
X134249928Y-105358000D01*
X134178500Y-105429428D01*
X134107071Y-105572285D01*
X134107071Y-105715142D01*
X135107071Y-106858000D02*
X134321357Y-106858000D01*
X134178500Y-106786571D01*
X134107071Y-106643714D01*
X134107071Y-106358000D01*
X134178500Y-106215142D01*
X135035642Y-106858000D02*
X135107071Y-106715142D01*
X135107071Y-106358000D01*
X135035642Y-106215142D01*
X134892785Y-106143714D01*
X134749928Y-106143714D01*
X134607071Y-106215142D01*
X134535642Y-106358000D01*
X134535642Y-106715142D01*
X134464214Y-106858000D01*
X135107071Y-107572285D02*
X134107071Y-107572285D01*
X134249928Y-107572285D02*
X134178500Y-107643714D01*
X134107071Y-107786571D01*
X134107071Y-108000857D01*
X134178500Y-108143714D01*
X134321357Y-108215142D01*
X135107071Y-108215142D01*
X134321357Y-108215142D02*
X134178500Y-108286571D01*
X134107071Y-108429428D01*
X134107071Y-108643714D01*
X134178500Y-108786571D01*
X134321357Y-108858000D01*
X135107071Y-108858000D01*
X135107071Y-109572285D02*
X134107071Y-109572285D01*
X134249928Y-109572285D02*
X134178500Y-109643714D01*
X134107071Y-109786571D01*
X134107071Y-110000857D01*
X134178500Y-110143714D01*
X134321357Y-110215142D01*
X135107071Y-110215142D01*
X134321357Y-110215142D02*
X134178500Y-110286571D01*
X134107071Y-110429428D01*
X134107071Y-110643714D01*
X134178500Y-110786571D01*
X134321357Y-110858000D01*
X135107071Y-110858000D01*
X135107071Y-111572285D02*
X134107071Y-111572285D01*
X133607071Y-111572285D02*
X133678500Y-111500857D01*
X133749928Y-111572285D01*
X133678500Y-111643714D01*
X133607071Y-111572285D01*
X133749928Y-111572285D01*
X134107071Y-112286571D02*
X135107071Y-112286571D01*
X134249928Y-112286571D02*
X134178500Y-112358000D01*
X134107071Y-112500857D01*
X134107071Y-112715142D01*
X134178500Y-112858000D01*
X134321357Y-112929428D01*
X135107071Y-112929428D01*
X134107071Y-114286571D02*
X135321357Y-114286571D01*
X135464214Y-114215142D01*
X135535642Y-114143714D01*
X135607071Y-114000857D01*
X135607071Y-113786571D01*
X135535642Y-113643714D01*
X135035642Y-114286571D02*
X135107071Y-114143714D01*
X135107071Y-113858000D01*
X135035642Y-113715142D01*
X134964214Y-113643714D01*
X134821357Y-113572285D01*
X134392785Y-113572285D01*
X134249928Y-113643714D01*
X134178500Y-113715142D01*
X134107071Y-113858000D01*
X134107071Y-114143714D01*
X134178500Y-114286571D01*
X134678500Y-116072285D02*
X134678500Y-116786571D01*
X135107071Y-115929428D02*
X133607071Y-116429428D01*
X135107071Y-116929428D01*
X135107071Y-118072285D02*
X133607071Y-118072285D01*
X135035642Y-118072285D02*
X135107071Y-117929428D01*
X135107071Y-117643714D01*
X135035642Y-117500857D01*
X134964214Y-117429428D01*
X134821357Y-117358000D01*
X134392785Y-117358000D01*
X134249928Y-117429428D01*
X134178500Y-117500857D01*
X134107071Y-117643714D01*
X134107071Y-117929428D01*
X134178500Y-118072285D01*
X135107071Y-119429428D02*
X134321357Y-119429428D01*
X134178500Y-119358000D01*
X134107071Y-119215142D01*
X134107071Y-118929428D01*
X134178500Y-118786571D01*
X135035642Y-119429428D02*
X135107071Y-119286571D01*
X135107071Y-118929428D01*
X135035642Y-118786571D01*
X134892785Y-118715142D01*
X134749928Y-118715142D01*
X134607071Y-118786571D01*
X134535642Y-118929428D01*
X134535642Y-119286571D01*
X134464214Y-119429428D01*
X134107071Y-120143714D02*
X135607071Y-120143714D01*
X134178500Y-120143714D02*
X134107071Y-120286571D01*
X134107071Y-120572285D01*
X134178500Y-120715142D01*
X134249928Y-120786571D01*
X134392785Y-120858000D01*
X134821357Y-120858000D01*
X134964214Y-120786571D01*
X135035642Y-120715142D01*
X135107071Y-120572285D01*
X135107071Y-120286571D01*
X135035642Y-120143714D01*
X134107071Y-121286571D02*
X134107071Y-121858000D01*
X133607071Y-121500857D02*
X134892785Y-121500857D01*
X135035642Y-121572285D01*
X135107071Y-121715142D01*
X135107071Y-121858000D01*
X135035642Y-122929428D02*
X135107071Y-122786571D01*
X135107071Y-122500857D01*
X135035642Y-122358000D01*
X134892785Y-122286571D01*
X134321357Y-122286571D01*
X134178500Y-122358000D01*
X134107071Y-122500857D01*
X134107071Y-122786571D01*
X134178500Y-122929428D01*
X134321357Y-123000857D01*
X134464214Y-123000857D01*
X134607071Y-122286571D01*
X135107071Y-123643714D02*
X134107071Y-123643714D01*
X134392785Y-123643714D02*
X134249928Y-123715142D01*
X134178500Y-123786571D01*
X134107071Y-123929428D01*
X134107071Y-124072285D01*
X137379214Y-95215142D02*
X137450642Y-95143714D01*
X137522071Y-94929428D01*
X137522071Y-94786571D01*
X137450642Y-94572285D01*
X137307785Y-94429428D01*
X137164928Y-94358000D01*
X136879214Y-94286571D01*
X136664928Y-94286571D01*
X136379214Y-94358000D01*
X136236357Y-94429428D01*
X136093500Y-94572285D01*
X136022071Y-94786571D01*
X136022071Y-94929428D01*
X136093500Y-95143714D01*
X136164928Y-95215142D01*
X137522071Y-95858000D02*
X136022071Y-95858000D01*
X137522071Y-96500857D02*
X136736357Y-96500857D01*
X136593500Y-96429428D01*
X136522071Y-96286571D01*
X136522071Y-96072285D01*
X136593500Y-95929428D01*
X136664928Y-95858000D01*
X137522071Y-97215142D02*
X136522071Y-97215142D01*
X136807785Y-97215142D02*
X136664928Y-97286571D01*
X136593500Y-97358000D01*
X136522071Y-97500857D01*
X136522071Y-97643714D01*
X137522071Y-98143714D02*
X136522071Y-98143714D01*
X136022071Y-98143714D02*
X136093500Y-98072285D01*
X136164928Y-98143714D01*
X136093500Y-98215142D01*
X136022071Y-98143714D01*
X136164928Y-98143714D01*
X137450642Y-98786571D02*
X137522071Y-98929428D01*
X137522071Y-99215142D01*
X137450642Y-99358000D01*
X137307785Y-99429428D01*
X137236357Y-99429428D01*
X137093500Y-99358000D01*
X137022071Y-99215142D01*
X137022071Y-99000857D01*
X136950642Y-98858000D01*
X136807785Y-98786571D01*
X136736357Y-98786571D01*
X136593500Y-98858000D01*
X136522071Y-99000857D01*
X136522071Y-99215142D01*
X136593500Y-99358000D01*
X136022071Y-101000857D02*
X136022071Y-101858000D01*
X137522071Y-101429428D02*
X136022071Y-101429428D01*
X137450642Y-102929428D02*
X137522071Y-102786571D01*
X137522071Y-102500857D01*
X137450642Y-102358000D01*
X137307785Y-102286571D01*
X136736357Y-102286571D01*
X136593500Y-102358000D01*
X136522071Y-102500857D01*
X136522071Y-102786571D01*
X136593500Y-102929428D01*
X136736357Y-103000857D01*
X136879214Y-103000857D01*
X137022071Y-102286571D01*
X137522071Y-103643714D02*
X136522071Y-103643714D01*
X136807785Y-103643714D02*
X136664928Y-103715142D01*
X136593500Y-103786571D01*
X136522071Y-103929428D01*
X136522071Y-104072285D01*
X137450642Y-104500857D02*
X137522071Y-104643714D01*
X137522071Y-104929428D01*
X137450642Y-105072285D01*
X137307785Y-105143714D01*
X137236357Y-105143714D01*
X137093500Y-105072285D01*
X137022071Y-104929428D01*
X137022071Y-104715142D01*
X136950642Y-104572285D01*
X136807785Y-104500857D01*
X136736357Y-104500857D01*
X136593500Y-104572285D01*
X136522071Y-104715142D01*
X136522071Y-104929428D01*
X136593500Y-105072285D01*
X136522071Y-105572285D02*
X136522071Y-106143714D01*
X136022071Y-105786571D02*
X137307785Y-105786571D01*
X137450642Y-105857999D01*
X137522071Y-106000857D01*
X137522071Y-106143714D01*
X137450642Y-107215142D02*
X137522071Y-107072285D01*
X137522071Y-106786571D01*
X137450642Y-106643714D01*
X137307785Y-106572285D01*
X136736357Y-106572285D01*
X136593500Y-106643714D01*
X136522071Y-106786571D01*
X136522071Y-107072285D01*
X136593500Y-107215142D01*
X136736357Y-107286571D01*
X136879214Y-107286571D01*
X137022071Y-106572285D01*
X137450642Y-108500857D02*
X137522071Y-108357999D01*
X137522071Y-108072285D01*
X137450642Y-107929428D01*
X137307785Y-107857999D01*
X136736357Y-107857999D01*
X136593500Y-107929428D01*
X136522071Y-108072285D01*
X136522071Y-108357999D01*
X136593500Y-108500857D01*
X136736357Y-108572285D01*
X136879214Y-108572285D01*
X137022071Y-107857999D01*
X136522071Y-109857999D02*
X137736357Y-109857999D01*
X137879214Y-109786571D01*
X137950642Y-109715142D01*
X138022071Y-109572285D01*
X138022071Y-109357999D01*
X137950642Y-109215142D01*
X137450642Y-109857999D02*
X137522071Y-109715142D01*
X137522071Y-109429428D01*
X137450642Y-109286571D01*
X137379214Y-109215142D01*
X137236357Y-109143714D01*
X136807785Y-109143714D01*
X136664928Y-109215142D01*
X136593500Y-109286571D01*
X136522071Y-109429428D01*
X136522071Y-109715142D01*
X136593500Y-109857999D01*
D11*
X140120619Y-129855261D02*
X140120619Y-129283833D01*
X139120619Y-129569547D02*
X140120619Y-129569547D01*
X139120619Y-128950500D02*
X140120619Y-128950500D01*
X140120619Y-128712404D01*
X140073000Y-128569547D01*
X139977761Y-128474309D01*
X139882523Y-128426690D01*
X139692047Y-128379071D01*
X139549190Y-128379071D01*
X139358714Y-128426690D01*
X139263476Y-128474309D01*
X139168238Y-128569547D01*
X139120619Y-128712404D01*
X139120619Y-128950500D01*
X139120619Y-127950500D02*
X140120619Y-127950500D01*
X125896619Y-147254261D02*
X124896619Y-146920928D01*
X125896619Y-146587595D01*
X124896619Y-145682833D02*
X125372809Y-146016166D01*
X124896619Y-146254261D02*
X125896619Y-146254261D01*
X125896619Y-145873309D01*
X125849000Y-145778071D01*
X125801380Y-145730452D01*
X125706142Y-145682833D01*
X125563285Y-145682833D01*
X125468047Y-145730452D01*
X125420428Y-145778071D01*
X125372809Y-145873309D01*
X125372809Y-146254261D01*
X125420428Y-145254261D02*
X125420428Y-144920928D01*
X124896619Y-144778071D02*
X124896619Y-145254261D01*
X125896619Y-145254261D01*
X125896619Y-144778071D01*
X125420428Y-144016166D02*
X125420428Y-144349500D01*
X124896619Y-144349500D02*
X125896619Y-144349500D01*
X125896619Y-143873309D01*
X133770619Y-139126261D02*
X133770619Y-138554833D01*
X132770619Y-138840547D02*
X133770619Y-138840547D01*
X132770619Y-138221500D02*
X133770619Y-138221500D01*
X133056333Y-137888166D01*
X133770619Y-137554833D01*
X132770619Y-137554833D01*
X132818238Y-137126261D02*
X132770619Y-136983404D01*
X132770619Y-136745309D01*
X132818238Y-136650071D01*
X132865857Y-136602452D01*
X132961095Y-136554833D01*
X133056333Y-136554833D01*
X133151571Y-136602452D01*
X133199190Y-136650071D01*
X133246809Y-136745309D01*
X133294428Y-136935785D01*
X133342047Y-137031023D01*
X133389666Y-137078642D01*
X133484904Y-137126261D01*
X133580142Y-137126261D01*
X133675380Y-137078642D01*
X133723000Y-137031023D01*
X133770619Y-136935785D01*
X133770619Y-136697690D01*
X133723000Y-136554833D01*
X146587595Y-141867000D02*
X146682833Y-141819380D01*
X146825690Y-141819380D01*
X146968547Y-141867000D01*
X147063785Y-141962238D01*
X147111404Y-142057476D01*
X147159023Y-142247952D01*
X147159023Y-142390809D01*
X147111404Y-142581285D01*
X147063785Y-142676523D01*
X146968547Y-142771761D01*
X146825690Y-142819380D01*
X146730452Y-142819380D01*
X146587595Y-142771761D01*
X146539976Y-142724142D01*
X146539976Y-142390809D01*
X146730452Y-142390809D01*
X146111404Y-142819380D02*
X146111404Y-141819380D01*
X145539976Y-142819380D01*
X145539976Y-141819380D01*
X145063785Y-142819380D02*
X145063785Y-141819380D01*
X144825690Y-141819380D01*
X144682833Y-141867000D01*
X144587595Y-141962238D01*
X144539976Y-142057476D01*
X144492357Y-142247952D01*
X144492357Y-142390809D01*
X144539976Y-142581285D01*
X144587595Y-142676523D01*
X144682833Y-142771761D01*
X144825690Y-142819380D01*
X145063785Y-142819380D01*
X146470619Y-147254261D02*
X146470619Y-146682833D01*
X145470619Y-146968547D02*
X146470619Y-146968547D01*
X145470619Y-146349500D02*
X146470619Y-146349500D01*
X146470619Y-146111404D01*
X146423000Y-145968547D01*
X146327761Y-145873309D01*
X146232523Y-145825690D01*
X146042047Y-145778071D01*
X145899190Y-145778071D01*
X145708714Y-145825690D01*
X145613476Y-145873309D01*
X145518238Y-145968547D01*
X145470619Y-146111404D01*
X145470619Y-146349500D01*
X146470619Y-145159023D02*
X146470619Y-144968547D01*
X146423000Y-144873309D01*
X146327761Y-144778071D01*
X146137285Y-144730452D01*
X145803952Y-144730452D01*
X145613476Y-144778071D01*
X145518238Y-144873309D01*
X145470619Y-144968547D01*
X145470619Y-145159023D01*
X145518238Y-145254261D01*
X145613476Y-145349500D01*
X145803952Y-145397119D01*
X146137285Y-145397119D01*
X146327761Y-145349500D01*
X146423000Y-145254261D01*
X146470619Y-145159023D01*
X148238595Y-134120000D02*
X148333833Y-134072380D01*
X148476690Y-134072380D01*
X148619547Y-134120000D01*
X148714785Y-134215238D01*
X148762404Y-134310476D01*
X148810023Y-134500952D01*
X148810023Y-134643809D01*
X148762404Y-134834285D01*
X148714785Y-134929523D01*
X148619547Y-135024761D01*
X148476690Y-135072380D01*
X148381452Y-135072380D01*
X148238595Y-135024761D01*
X148190976Y-134977142D01*
X148190976Y-134643809D01*
X148381452Y-134643809D01*
X147762404Y-135072380D02*
X147762404Y-134072380D01*
X147190976Y-135072380D01*
X147190976Y-134072380D01*
X146714785Y-135072380D02*
X146714785Y-134072380D01*
X146476690Y-134072380D01*
X146333833Y-134120000D01*
X146238595Y-134215238D01*
X146190976Y-134310476D01*
X146143357Y-134500952D01*
X146143357Y-134643809D01*
X146190976Y-134834285D01*
X146238595Y-134929523D01*
X146333833Y-135024761D01*
X146476690Y-135072380D01*
X146714785Y-135072380D01*
X127246000Y-146714595D02*
X127293619Y-146809833D01*
X127293619Y-146952690D01*
X127246000Y-147095547D01*
X127150761Y-147190785D01*
X127055523Y-147238404D01*
X126865047Y-147286023D01*
X126722190Y-147286023D01*
X126531714Y-147238404D01*
X126436476Y-147190785D01*
X126341238Y-147095547D01*
X126293619Y-146952690D01*
X126293619Y-146857452D01*
X126341238Y-146714595D01*
X126388857Y-146666976D01*
X126722190Y-146666976D01*
X126722190Y-146857452D01*
X126293619Y-146238404D02*
X127293619Y-146238404D01*
X126293619Y-145666976D01*
X127293619Y-145666976D01*
X126293619Y-145190785D02*
X127293619Y-145190785D01*
X127293619Y-144952690D01*
X127246000Y-144809833D01*
X127150761Y-144714595D01*
X127055523Y-144666976D01*
X126865047Y-144619357D01*
X126722190Y-144619357D01*
X126531714Y-144666976D01*
X126436476Y-144714595D01*
X126341238Y-144809833D01*
X126293619Y-144952690D01*
X126293619Y-145190785D01*
X139739619Y-139126261D02*
X139739619Y-138554833D01*
X138739619Y-138840547D02*
X139739619Y-138840547D01*
X138739619Y-138221500D02*
X139739619Y-138221500D01*
X139739619Y-137983404D01*
X139692000Y-137840547D01*
X139596761Y-137745309D01*
X139501523Y-137697690D01*
X139311047Y-137650071D01*
X139168190Y-137650071D01*
X138977714Y-137697690D01*
X138882476Y-137745309D01*
X138787238Y-137840547D01*
X138739619Y-137983404D01*
X138739619Y-138221500D01*
X138739619Y-137221500D02*
X139739619Y-137221500D01*
X147867619Y-147254261D02*
X147867619Y-146682833D01*
X146867619Y-146968547D02*
X147867619Y-146968547D01*
X146867619Y-146349500D02*
X147867619Y-146349500D01*
X147867619Y-146111404D01*
X147820000Y-145968547D01*
X147724761Y-145873309D01*
X147629523Y-145825690D01*
X147439047Y-145778071D01*
X147296190Y-145778071D01*
X147105714Y-145825690D01*
X147010476Y-145873309D01*
X146915238Y-145968547D01*
X146867619Y-146111404D01*
X146867619Y-146349500D01*
X146867619Y-145349500D02*
X147867619Y-145349500D01*
X149391619Y-147254261D02*
X149391619Y-146682833D01*
X148391619Y-146968547D02*
X149391619Y-146968547D01*
X148391619Y-146349500D02*
X149391619Y-146349500D01*
X148677333Y-146016166D01*
X149391619Y-145682833D01*
X148391619Y-145682833D01*
X148439238Y-145254261D02*
X148391619Y-145111404D01*
X148391619Y-144873309D01*
X148439238Y-144778071D01*
X148486857Y-144730452D01*
X148582095Y-144682833D01*
X148677333Y-144682833D01*
X148772571Y-144730452D01*
X148820190Y-144778071D01*
X148867809Y-144873309D01*
X148915428Y-145063785D01*
X148963047Y-145159023D01*
X149010666Y-145206642D01*
X149105904Y-145254261D01*
X149201142Y-145254261D01*
X149296380Y-145206642D01*
X149344000Y-145159023D01*
X149391619Y-145063785D01*
X149391619Y-144825690D01*
X149344000Y-144682833D01*
M02*
